<?xml version="1.0" encoding="utf-8"?>
<!-- Generator: Adobe Illustrator 24.0.0, SVG Export Plug-In . SVG Version: 6.00 Build 0)  -->
<svg version="1.1" id="Layer_1" xmlns="http://www.w3.org/2000/svg" xmlns:xlink="http://www.w3.org/1999/xlink" x="0px" y="0px"
	 viewBox="0 0 380 200" style="enable-background:new 0 0 380 200;" xml:space="preserve">
<style type="text/css">
	.st0{clip-path:url(#SVGID_2_);}
	.st1{fill:url(#SVGID_3_);}
	.st2{fill:url(#SVGID_4_);}
	.st3{opacity:0.6;fill:none;stroke:url(#SVGID_5_);stroke-miterlimit:10;}
	.st4{opacity:0.5;}
	.st5{opacity:5.000000e-02;}
	.st6{fill:#800387;}
	.st7{fill:#3F0E40;}
</style>
<g>
	<defs>
		<rect id="SVGID_1_" x="-0.7" y="0.7" width="382.2" height="199.4"/>
	</defs>
	<clipPath id="SVGID_2_">
		<use xlink:href="#SVGID_1_"  style="overflow:visible;"/>
	</clipPath>
	<g class="st0">
		<linearGradient id="SVGID_3_" gradientUnits="userSpaceOnUse" x1="-65.6154" y1="68.3846" x2="133.7692" y2="68.3846">
			<stop  offset="0" style="stop-color:#FFFFFF"/>
			<stop  offset="1" style="stop-color:#FFDEFE"/>
		</linearGradient>
		<circle class="st1" cx="34.1" cy="68.4" r="99.7"/>
		<linearGradient id="SVGID_4_" gradientUnits="userSpaceOnUse" x1="200.2308" y1="151.4615" x2="399.6154" y2="151.4615">
			<stop  offset="0" style="stop-color:#FFFFFF"/>
			<stop  offset="1" style="stop-color:#FFDEFE"/>
		</linearGradient>
		<circle class="st2" cx="299.9" cy="151.5" r="99.7"/>
		<linearGradient id="SVGID_5_" gradientUnits="userSpaceOnUse" x1="245.8846" y1="136.6923" x2="441.9615" y2="136.6923">
			<stop  offset="0" style="stop-color:#FFFFFF"/>
			<stop  offset="1" style="stop-color:#FFDEFE"/>
		</linearGradient>
		<circle class="st3" cx="343.9" cy="136.7" r="97.5"/>
		<g class="st4">
			
				<image style="overflow:visible;" width="1132" height="1132" xlink:href="2B5F728F.png"  transform="matrix(0.24 0 0 0.24 208.08 0.96)">
			</image>
		</g>
	</g>
</g>
<g class="st5">
	<g>
		<path class="st6" d="M15.5,38.2V43h34v-4.8H15.5z M15.5,16h6.3c-0.2-0.3-0.3-0.7-0.4-1.1c-0.1-0.4-0.1-0.9-0.1-1.2
			c0-1.6,0.5-2.9,1.6-4S25.3,8,26.8,8c1,0,2,0.3,2.9,0.8s1.6,1.2,2.1,2l0.9,1.3l0.8-1.3c0.5-0.8,1.2-1.5,2-2C36.2,8.3,37.1,8,38.1,8
			c1.6,0,2.9,0.5,4.1,1.6s1.7,2.4,1.6,4c0,0.4,0,0.7-0.1,1.1c-0.1,0.4-0.2,0.8-0.4,1.3h6.2c0.8,0,1.5,0.3,2.1,0.9
			c0.6,0.6,0.9,1.3,0.9,2.1v24c0,0.8-0.3,1.5-0.9,2.1C51,45.7,50.3,46,49.5,46h-34c-0.8,0-1.5-0.3-2.1-0.9c-0.6-0.6-0.9-1.3-0.9-2.1
			V19c0-0.8,0.3-1.5,0.9-2.1C14,16.3,14.7,16,15.5,16z M15.5,32.8h34V19H37l5,7l-2.4,1.8l-7.1-9.9l-7.1,9.9L23,26l5-6.9H15.5V32.8z
			 M26.9,16.3c0.7,0,1.4-0.3,1.9-0.8c0.4-0.5,0.7-1.1,0.7-1.9s-0.3-1.4-0.8-1.9c-0.5-0.5-1.1-0.7-1.8-0.7s-1.4,0.3-1.9,0.8
			s-0.8,1.1-0.8,1.9s0.3,1.4,0.8,1.9C25.5,16,26.1,16.3,26.9,16.3z M38.1,16.3c0.8,0,1.4-0.3,1.9-0.8c0.5-0.5,0.8-1.1,0.8-1.9
			s-0.3-1.3-0.8-1.8S38.9,11,38.1,11c-0.7,0-1.3,0.3-1.8,0.8s-0.8,1.1-0.8,1.8s0.3,1.4,0.8,1.9C36.8,16,37.4,16.3,38.1,16.3z"/>
		<path class="st6" d="M66.8,38.2V43h34v-4.8H66.8z M66.8,16h6.3c-0.2-0.3-0.3-0.7-0.4-1.1c-0.1-0.4-0.1-0.9-0.1-1.2
			c0-1.6,0.5-2.9,1.6-4S76.6,8,78.1,8c1,0,2,0.3,2.9,0.8c0.9,0.5,1.6,1.2,2.1,2l0.9,1.3l0.8-1.3c0.5-0.8,1.2-1.5,2-2
			C87.5,8.3,88.4,8,89.4,8c1.6,0,2.9,0.5,4.1,1.6c1.2,1.1,1.7,2.4,1.6,4c0,0.4,0,0.7-0.1,1.1c-0.1,0.4-0.2,0.8-0.4,1.3h6.2
			c0.8,0,1.5,0.3,2.1,0.9c0.6,0.6,0.9,1.3,0.9,2.1v24c0,0.8-0.3,1.5-0.9,2.1c-0.6,0.6-1.3,0.9-2.1,0.9h-34c-0.8,0-1.5-0.3-2.1-0.9
			c-0.6-0.6-0.9-1.3-0.9-2.1V19c0-0.8,0.3-1.5,0.9-2.1S66,16,66.8,16z M66.8,32.8h34V19H88.3l5,7l-2.4,1.8l-7.1-9.9l-7.1,9.9
			L74.3,26l5-6.9H66.8V32.8z M78.2,16.3c0.7,0,1.4-0.3,1.9-0.8c0.4-0.5,0.7-1.1,0.7-1.9s-0.3-1.4-0.8-1.9c-0.5-0.5-1.1-0.7-1.8-0.7
			c-0.7,0-1.4,0.3-1.9,0.8s-0.8,1.1-0.8,1.9s0.3,1.4,0.8,1.9C76.8,16,77.4,16.3,78.2,16.3z M89.4,16.3c0.8,0,1.4-0.3,1.9-0.8
			c0.5-0.5,0.8-1.1,0.8-1.9s-0.3-1.3-0.8-1.8S90.2,11,89.4,11c-0.7,0-1.3,0.3-1.8,0.8s-0.8,1.1-0.8,1.8s0.3,1.4,0.8,1.9
			C88.1,16,88.7,16.3,89.4,16.3z"/>
		<path class="st6" d="M118.2,38.2V43h34v-4.8H118.2z M118.2,16h6.3c-0.2-0.3-0.3-0.7-0.4-1.1c-0.1-0.4-0.1-0.9-0.1-1.2
			c0-1.6,0.5-2.9,1.6-4c1.1-1.1,2.4-1.7,3.9-1.7c1,0,2,0.3,2.9,0.8c0.9,0.5,1.6,1.2,2.1,2l0.9,1.3l0.8-1.3c0.5-0.8,1.2-1.5,2-2
			c0.7-0.5,1.6-0.8,2.6-0.8c1.6,0,2.9,0.5,4.1,1.6s1.7,2.4,1.6,4c0,0.4,0,0.7-0.1,1.1c-0.1,0.4-0.2,0.8-0.4,1.3h6.2
			c0.8,0,1.5,0.3,2.1,0.9c0.6,0.6,0.9,1.3,0.9,2.1v24c0,0.8-0.3,1.5-0.9,2.1c-0.6,0.6-1.3,0.9-2.1,0.9h-34c-0.8,0-1.5-0.3-2.1-0.9
			c-0.6-0.6-0.9-1.3-0.9-2.1V19c0-0.8,0.3-1.5,0.9-2.1S117.4,16,118.2,16z M118.2,32.8h34V19h-12.5l5,7l-2.4,1.8l-7.1-9.9l-7.1,9.9
			l-2.4-1.8l5-6.9h-12.5V32.8z M129.6,16.3c0.7,0,1.4-0.3,1.9-0.8c0.4-0.5,0.7-1.1,0.7-1.9s-0.3-1.4-0.8-1.9
			c-0.5-0.5-1.1-0.7-1.8-0.7s-1.4,0.3-1.9,0.8c-0.5,0.5-0.8,1.1-0.8,1.9s0.3,1.4,0.8,1.9C128.2,16,128.8,16.3,129.6,16.3z
			 M140.8,16.3c0.8,0,1.4-0.3,1.9-0.8c0.5-0.5,0.8-1.1,0.8-1.9s-0.3-1.3-0.8-1.8s-1.1-0.8-1.9-0.8c-0.7,0-1.3,0.3-1.8,0.8
			s-0.8,1.1-0.8,1.8s0.3,1.4,0.8,1.9C139.5,16,140.1,16.3,140.8,16.3z"/>
		<path class="st6" d="M169.6,38.2V43h34v-4.8H169.6z M169.6,16h6.3c-0.2-0.3-0.3-0.7-0.4-1.1c-0.1-0.4-0.1-0.9-0.1-1.2
			c0-1.6,0.5-2.9,1.6-4c1.1-1.1,2.4-1.7,3.9-1.7c1,0,2,0.3,2.9,0.8s1.6,1.2,2.1,2l0.9,1.3l0.8-1.3c0.5-0.8,1.2-1.5,2-2
			c0.7-0.5,1.6-0.8,2.6-0.8c1.6,0,2.9,0.5,4.1,1.6s1.7,2.4,1.6,4c0,0.4,0,0.7-0.1,1.1c-0.1,0.4-0.2,0.8-0.4,1.3h6.2
			c0.8,0,1.5,0.3,2.1,0.9c0.6,0.6,0.9,1.3,0.9,2.1v24c0,0.8-0.3,1.5-0.9,2.1c-0.6,0.6-1.3,0.9-2.1,0.9h-34c-0.8,0-1.5-0.3-2.1-0.9
			c-0.6-0.6-0.9-1.3-0.9-2.1V19c0-0.8,0.3-1.5,0.9-2.1C168.1,16.3,168.8,16,169.6,16z M169.6,32.8h34V19h-12.5l5,7l-2.4,1.8
			l-7.1-9.9l-7.1,9.9l-2.4-1.8l5-6.9h-12.5V32.8z M181,16.3c0.7,0,1.4-0.3,1.9-0.8c0.4-0.5,0.7-1.1,0.7-1.9s-0.3-1.4-0.8-1.9
			c-0.5-0.5-1.1-0.7-1.8-0.7s-1.4,0.3-1.9,0.8s-0.8,1.1-0.8,1.9s0.3,1.4,0.8,1.9C179.6,16,180.2,16.3,181,16.3z M192.2,16.3
			c0.8,0,1.4-0.3,1.9-0.8c0.5-0.5,0.8-1.1,0.8-1.9s-0.3-1.3-0.8-1.8S193,11,192.2,11c-0.7,0-1.3,0.3-1.8,0.8s-0.8,1.1-0.8,1.8
			s0.3,1.4,0.8,1.9C190.9,16,191.5,16.3,192.2,16.3z"/>
		<path class="st6" d="M221,38.2V43h34v-4.8H221z M221,16h6.3c-0.2-0.3-0.3-0.7-0.4-1.1c-0.1-0.4-0.1-0.9-0.1-1.2
			c0-1.6,0.5-2.9,1.6-4c1.1-1.1,2.4-1.7,3.9-1.7c1,0,2,0.3,2.9,0.8c0.9,0.5,1.6,1.2,2.1,2l0.9,1.3l0.8-1.3c0.5-0.8,1.2-1.5,2-2
			c0.7-0.5,1.6-0.8,2.6-0.8c1.6,0,2.9,0.5,4.1,1.6s1.7,2.4,1.6,4c0,0.4,0,0.7-0.1,1.1c-0.1,0.4-0.2,0.8-0.4,1.3h6.2
			c0.8,0,1.5,0.3,2.1,0.9c0.6,0.6,0.9,1.3,0.9,2.1v24c0,0.8-0.3,1.5-0.9,2.1c-0.6,0.6-1.3,0.9-2.1,0.9h-34c-0.8,0-1.5-0.3-2.1-0.9
			c-0.6-0.6-0.9-1.3-0.9-2.1V19c0-0.8,0.3-1.5,0.9-2.1C219.5,16.3,220.2,16,221,16z M221,32.8h34V19h-12.5l5,7l-2.4,1.8l-7.1-9.9
			l-7.1,9.9l-2.4-1.8l5-6.9H221V32.8z M232.4,16.3c0.7,0,1.4-0.3,1.9-0.8c0.4-0.5,0.7-1.1,0.7-1.9s-0.3-1.4-0.8-1.9
			c-0.5-0.5-1.1-0.7-1.8-0.7c-0.7,0-1.4,0.3-1.9,0.8s-0.8,1.1-0.8,1.9s0.3,1.4,0.8,1.9C231,16,231.6,16.3,232.4,16.3z M243.6,16.3
			c0.8,0,1.4-0.3,1.9-0.8c0.5-0.5,0.8-1.1,0.8-1.9s-0.3-1.3-0.8-1.8s-1.1-0.8-1.9-0.8c-0.7,0-1.3,0.3-1.8,0.8s-0.8,1.1-0.8,1.8
			s0.3,1.4,0.8,1.9C242.3,16,242.9,16.3,243.6,16.3z"/>
		<path class="st6" d="M272.4,38.2V43h34v-4.8H272.4z M272.4,16h6.3c-0.2-0.3-0.3-0.7-0.4-1.1c-0.1-0.4-0.1-0.9-0.1-1.2
			c0-1.6,0.5-2.9,1.6-4s2.4-1.7,3.9-1.7c1,0,2,0.3,2.9,0.8c0.9,0.5,1.6,1.2,2.1,2l0.9,1.3l0.8-1.3c0.5-0.8,1.2-1.5,2-2
			C293.1,8.3,294,8,295,8c1.6,0,2.9,0.5,4.1,1.6c1.2,1.1,1.7,2.4,1.6,4c0,0.4,0,0.7-0.1,1.1c-0.1,0.4-0.2,0.8-0.4,1.3h6.2
			c0.8,0,1.5,0.3,2.1,0.9c0.6,0.6,0.9,1.3,0.9,2.1v24c0,0.8-0.3,1.5-0.9,2.1c-0.6,0.6-1.3,0.9-2.1,0.9h-34c-0.8,0-1.5-0.3-2.1-0.9
			c-0.6-0.6-0.9-1.3-0.9-2.1V19c0-0.8,0.3-1.5,0.9-2.1S271.6,16,272.4,16z M272.4,32.8h34V19h-12.5l5,7l-2.4,1.8l-7.1-9.9l-7.1,9.9
			l-2.4-1.8l5-6.9h-12.5V32.8z M283.8,16.3c0.7,0,1.4-0.3,1.9-0.8c0.4-0.5,0.7-1.1,0.7-1.9s-0.3-1.4-0.8-1.9
			c-0.5-0.5-1.1-0.7-1.8-0.7c-0.7,0-1.4,0.3-1.9,0.8s-0.8,1.1-0.8,1.9s0.3,1.4,0.8,1.9C282.4,16,283,16.3,283.8,16.3z M295,16.3
			c0.8,0,1.4-0.3,1.9-0.8c0.5-0.5,0.8-1.1,0.8-1.9s-0.3-1.3-0.8-1.8S295.8,11,295,11c-0.7,0-1.3,0.3-1.8,0.8s-0.8,1.1-0.8,1.8
			s0.3,1.4,0.8,1.9C293.7,16,294.3,16.3,295,16.3z"/>
		<path class="st6" d="M323.8,38.2V43h34v-4.8H323.8z M323.8,16h6.3c-0.2-0.3-0.3-0.7-0.4-1.1c-0.1-0.4-0.1-0.9-0.1-1.2
			c0-1.6,0.5-2.9,1.6-4c1.1-1.1,2.4-1.7,3.9-1.7c1,0,2,0.3,2.9,0.8s1.6,1.2,2.1,2l0.9,1.3l0.8-1.3c0.5-0.8,1.2-1.5,2-2
			c0.7-0.5,1.6-0.8,2.6-0.8c1.6,0,2.9,0.5,4.1,1.6c1.2,1.1,1.7,2.4,1.6,4c0,0.4,0,0.7-0.1,1.1c-0.1,0.4-0.2,0.8-0.4,1.3h6.2
			c0.8,0,1.5,0.3,2.1,0.9c0.6,0.6,0.9,1.3,0.9,2.1v24c0,0.8-0.3,1.5-0.9,2.1c-0.6,0.6-1.3,0.9-2.1,0.9h-34c-0.8,0-1.5-0.3-2.1-0.9
			c-0.6-0.6-0.9-1.3-0.9-2.1V19c0-0.8,0.3-1.5,0.9-2.1C322.3,16.3,323,16,323.8,16z M323.8,32.8h34V19h-12.5l5,7l-2.4,1.8l-7.1-9.9
			l-7.1,9.9l-2.4-1.8l5-6.9h-12.5V32.8z M335.2,16.3c0.7,0,1.4-0.3,1.9-0.8c0.4-0.5,0.7-1.1,0.7-1.9s-0.3-1.4-0.8-1.9
			c-0.5-0.5-1.1-0.7-1.8-0.7c-0.7,0-1.4,0.3-1.9,0.8s-0.8,1.1-0.8,1.9s0.3,1.4,0.8,1.9C333.8,16,334.4,16.3,335.2,16.3z M346.4,16.3
			c0.8,0,1.4-0.3,1.9-0.8c0.5-0.5,0.8-1.1,0.8-1.9s-0.3-1.3-0.8-1.8s-1.1-0.8-1.9-0.8c-0.7,0-1.3,0.3-1.8,0.8s-0.8,1.1-0.8,1.8
			s0.3,1.4,0.8,1.9C345.1,16,345.7,16.3,346.4,16.3z"/>
	</g>
	<g>
		<path class="st6" d="M15.5,84.4v4.8h34v-4.8H15.5z M15.5,62.2h6.3c-0.2-0.3-0.3-0.7-0.4-1.1c-0.1-0.4-0.1-0.9-0.1-1.2
			c0-1.6,0.5-2.9,1.6-4c1.1-1.1,2.4-1.7,3.9-1.7c1,0,2,0.3,2.9,0.8s1.6,1.2,2.1,2l0.9,1.3l0.8-1.3c0.5-0.8,1.2-1.5,2-2
			c0.7-0.5,1.6-0.8,2.6-0.8c1.6,0,2.9,0.5,4.1,1.6s1.7,2.4,1.6,4c0,0.4,0,0.7-0.1,1.1c-0.1,0.4-0.2,0.8-0.4,1.3h6.2
			c0.8,0,1.5,0.3,2.1,0.9c0.6,0.6,0.9,1.3,0.9,2.1v24c0,0.8-0.3,1.5-0.9,2.1c-0.6,0.6-1.3,0.9-2.1,0.9h-34c-0.8,0-1.5-0.3-2.1-0.9
			c-0.6-0.6-0.9-1.3-0.9-2.1v-24c0-0.8,0.3-1.5,0.9-2.1C14,62.5,14.7,62.2,15.5,62.2z M15.5,79h34V65.2H37l5,7L39.6,74l-7.1-9.9
			L25.4,74L23,72.2l5-6.9H15.5V79z M26.9,62.5c0.7,0,1.4-0.3,1.9-0.8c0.4-0.5,0.7-1.1,0.7-1.9s-0.3-1.4-0.8-1.9
			c-0.5-0.5-1.1-0.7-1.8-0.7S25.5,57.5,25,58s-0.8,1.1-0.8,1.9s0.3,1.4,0.8,1.9C25.5,62.2,26.1,62.5,26.9,62.5z M38.1,62.5
			c0.8,0,1.4-0.3,1.9-0.8s0.8-1.1,0.8-1.9S40.5,58.5,40,58s-1.1-0.8-1.9-0.8c-0.7,0-1.3,0.3-1.8,0.8s-0.8,1.1-0.8,1.8
			s0.3,1.4,0.8,1.9S37.4,62.5,38.1,62.5z"/>
		<path class="st6" d="M66.8,84.4v4.8h34v-4.8H66.8z M66.8,62.2h6.3c-0.2-0.3-0.3-0.7-0.4-1.1c-0.1-0.4-0.1-0.9-0.1-1.2
			c0-1.6,0.5-2.9,1.6-4c1.1-1.1,2.4-1.7,3.9-1.7c1,0,2,0.3,2.9,0.8c0.9,0.5,1.6,1.2,2.1,2l0.9,1.3l0.8-1.3c0.5-0.8,1.2-1.5,2-2
			c0.7-0.5,1.6-0.8,2.6-0.8c1.6,0,2.9,0.5,4.1,1.6c1.2,1.1,1.7,2.4,1.6,4c0,0.4,0,0.7-0.1,1.1c-0.1,0.4-0.2,0.8-0.4,1.3h6.2
			c0.8,0,1.5,0.3,2.1,0.9c0.6,0.6,0.9,1.3,0.9,2.1v24c0,0.8-0.3,1.5-0.9,2.1c-0.6,0.6-1.3,0.9-2.1,0.9h-34c-0.8,0-1.5-0.3-2.1-0.9
			s-0.9-1.3-0.9-2.1v-24c0-0.8,0.3-1.5,0.9-2.1C65.3,62.5,66,62.2,66.8,62.2z M66.8,79h34V65.2H88.3l5,7L90.9,74l-7.1-9.9L76.7,74
			l-2.4-1.8l5-6.9H66.8V79z M78.2,62.5c0.7,0,1.4-0.3,1.9-0.8c0.4-0.5,0.7-1.1,0.7-1.9s-0.3-1.4-0.8-1.9c-0.5-0.5-1.1-0.7-1.8-0.7
			c-0.7,0-1.4,0.3-1.9,0.8s-0.8,1.1-0.8,1.9s0.3,1.4,0.8,1.9C76.8,62.2,77.4,62.5,78.2,62.5z M89.4,62.5c0.8,0,1.4-0.3,1.9-0.8
			s0.8-1.1,0.8-1.9s-0.3-1.3-0.8-1.8s-1.1-0.8-1.9-0.8c-0.7,0-1.3,0.3-1.8,0.8s-0.8,1.1-0.8,1.8s0.3,1.4,0.8,1.9
			S88.7,62.5,89.4,62.5z"/>
		<path class="st6" d="M118.2,84.4v4.8h34v-4.8H118.2z M118.2,62.2h6.3c-0.2-0.3-0.3-0.7-0.4-1.1c-0.1-0.4-0.1-0.9-0.1-1.2
			c0-1.6,0.5-2.9,1.6-4c1.1-1.1,2.4-1.7,3.9-1.7c1,0,2,0.3,2.9,0.8c0.9,0.5,1.6,1.2,2.1,2l0.9,1.3l0.8-1.3c0.5-0.8,1.2-1.5,2-2
			c0.7-0.5,1.6-0.8,2.6-0.8c1.6,0,2.9,0.5,4.1,1.6s1.7,2.4,1.6,4c0,0.4,0,0.7-0.1,1.1c-0.1,0.4-0.2,0.8-0.4,1.3h6.2
			c0.8,0,1.5,0.3,2.1,0.9c0.6,0.6,0.9,1.3,0.9,2.1v24c0,0.8-0.3,1.5-0.9,2.1c-0.6,0.6-1.3,0.9-2.1,0.9h-34c-0.8,0-1.5-0.3-2.1-0.9
			s-0.9-1.3-0.9-2.1v-24c0-0.8,0.3-1.5,0.9-2.1C116.7,62.5,117.4,62.2,118.2,62.2z M118.2,79h34V65.2h-12.5l5,7l-2.4,1.8l-7.1-9.9
			l-7.1,9.9l-2.4-1.8l5-6.9h-12.5V79z M129.6,62.5c0.7,0,1.4-0.3,1.9-0.8c0.4-0.5,0.7-1.1,0.7-1.9s-0.3-1.4-0.8-1.9
			c-0.5-0.5-1.1-0.7-1.8-0.7s-1.4,0.3-1.9,0.8c-0.5,0.5-0.8,1.1-0.8,1.9s0.3,1.4,0.8,1.9C128.2,62.2,128.8,62.5,129.6,62.5z
			 M140.8,62.5c0.8,0,1.4-0.3,1.9-0.8s0.8-1.1,0.8-1.9s-0.3-1.3-0.8-1.8s-1.1-0.8-1.9-0.8c-0.7,0-1.3,0.3-1.8,0.8s-0.8,1.1-0.8,1.8
			s0.3,1.4,0.8,1.9S140.1,62.5,140.8,62.5z"/>
		<path class="st6" d="M169.6,84.4v4.8h34v-4.8H169.6z M169.6,62.2h6.3c-0.2-0.3-0.3-0.7-0.4-1.1c-0.1-0.4-0.1-0.9-0.1-1.2
			c0-1.6,0.5-2.9,1.6-4c1.1-1.1,2.4-1.7,3.9-1.7c1,0,2,0.3,2.9,0.8s1.6,1.2,2.1,2l0.9,1.3l0.8-1.3c0.5-0.8,1.2-1.5,2-2
			c0.7-0.5,1.6-0.8,2.6-0.8c1.6,0,2.9,0.5,4.1,1.6s1.7,2.4,1.6,4c0,0.4,0,0.7-0.1,1.1c-0.1,0.4-0.2,0.8-0.4,1.3h6.2
			c0.8,0,1.5,0.3,2.1,0.9c0.6,0.6,0.9,1.3,0.9,2.1v24c0,0.8-0.3,1.5-0.9,2.1c-0.6,0.6-1.3,0.9-2.1,0.9h-34c-0.8,0-1.5-0.3-2.1-0.9
			c-0.6-0.6-0.9-1.3-0.9-2.1v-24c0-0.8,0.3-1.5,0.9-2.1C168.1,62.5,168.8,62.2,169.6,62.2z M169.6,79h34V65.2h-12.5l5,7l-2.4,1.8
			l-7.1-9.9l-7.1,9.9l-2.4-1.8l5-6.9h-12.5V79z M181,62.5c0.7,0,1.4-0.3,1.9-0.8c0.4-0.5,0.7-1.1,0.7-1.9s-0.3-1.4-0.8-1.9
			c-0.5-0.5-1.1-0.7-1.8-0.7s-1.4,0.3-1.9,0.8s-0.8,1.1-0.8,1.9s0.3,1.4,0.8,1.9C179.6,62.2,180.2,62.5,181,62.5z M192.2,62.5
			c0.8,0,1.4-0.3,1.9-0.8s0.8-1.1,0.8-1.9s-0.3-1.3-0.8-1.8s-1.1-0.8-1.9-0.8c-0.7,0-1.3,0.3-1.8,0.8s-0.8,1.1-0.8,1.8
			s0.3,1.4,0.8,1.9S191.5,62.5,192.2,62.5z"/>
		<path class="st6" d="M221,84.4v4.8h34v-4.8H221z M221,62.2h6.3c-0.2-0.3-0.3-0.7-0.4-1.1c-0.1-0.4-0.1-0.9-0.1-1.2
			c0-1.6,0.5-2.9,1.6-4c1.1-1.1,2.4-1.7,3.9-1.7c1,0,2,0.3,2.9,0.8c0.9,0.5,1.6,1.2,2.1,2l0.9,1.3L239,57c0.5-0.8,1.2-1.5,2-2
			c0.7-0.5,1.6-0.8,2.6-0.8c1.6,0,2.9,0.5,4.1,1.6s1.7,2.4,1.6,4c0,0.4,0,0.7-0.1,1.1c-0.1,0.4-0.2,0.8-0.4,1.3h6.2
			c0.8,0,1.5,0.3,2.1,0.9c0.6,0.6,0.9,1.3,0.9,2.1v24c0,0.8-0.3,1.5-0.9,2.1s-1.3,0.9-2.1,0.9h-34c-0.8,0-1.5-0.3-2.1-0.9
			c-0.6-0.6-0.9-1.3-0.9-2.1v-24c0-0.8,0.3-1.5,0.9-2.1C219.5,62.5,220.2,62.2,221,62.2z M221,79h34V65.2h-12.5l5,7l-2.4,1.8
			l-7.1-9.9l-7.1,9.9l-2.4-1.8l5-6.9H221V79z M232.4,62.5c0.7,0,1.4-0.3,1.9-0.8c0.4-0.5,0.7-1.1,0.7-1.9s-0.3-1.4-0.8-1.9
			c-0.5-0.5-1.1-0.7-1.8-0.7c-0.7,0-1.4,0.3-1.9,0.8s-0.8,1.1-0.8,1.9s0.3,1.4,0.8,1.9C231,62.2,231.6,62.5,232.4,62.5z M243.6,62.5
			c0.8,0,1.4-0.3,1.9-0.8s0.8-1.1,0.8-1.9s-0.3-1.3-0.8-1.8s-1.1-0.8-1.9-0.8c-0.7,0-1.3,0.3-1.8,0.8s-0.8,1.1-0.8,1.8
			s0.3,1.4,0.8,1.9S242.9,62.5,243.6,62.5z"/>
		<path class="st6" d="M272.4,84.4v4.8h34v-4.8H272.4z M272.4,62.2h6.3c-0.2-0.3-0.3-0.7-0.4-1.1c-0.1-0.4-0.1-0.9-0.1-1.2
			c0-1.6,0.5-2.9,1.6-4c1.1-1.1,2.4-1.7,3.9-1.7c1,0,2,0.3,2.9,0.8c0.9,0.5,1.6,1.2,2.1,2l0.9,1.3l0.8-1.3c0.5-0.8,1.2-1.5,2-2
			c0.7-0.5,1.6-0.8,2.6-0.8c1.6,0,2.9,0.5,4.1,1.6c1.2,1.1,1.7,2.4,1.6,4c0,0.4,0,0.7-0.1,1.1c-0.1,0.4-0.2,0.8-0.4,1.3h6.2
			c0.8,0,1.5,0.3,2.1,0.9c0.6,0.6,0.9,1.3,0.9,2.1v24c0,0.8-0.3,1.5-0.9,2.1s-1.3,0.9-2.1,0.9h-34c-0.8,0-1.5-0.3-2.1-0.9
			s-0.9-1.3-0.9-2.1v-24c0-0.8,0.3-1.5,0.9-2.1C270.9,62.5,271.6,62.2,272.4,62.2z M272.4,79h34V65.2h-12.5l5,7l-2.4,1.8l-7.1-9.9
			l-7.1,9.9l-2.4-1.8l5-6.9h-12.5V79z M283.8,62.5c0.7,0,1.4-0.3,1.9-0.8c0.4-0.5,0.7-1.1,0.7-1.9s-0.3-1.4-0.8-1.9
			c-0.5-0.5-1.1-0.7-1.8-0.7c-0.7,0-1.4,0.3-1.9,0.8s-0.8,1.1-0.8,1.9s0.3,1.4,0.8,1.9C282.4,62.2,283,62.5,283.8,62.5z M295,62.5
			c0.8,0,1.4-0.3,1.9-0.8s0.8-1.1,0.8-1.9s-0.3-1.3-0.8-1.8s-1.1-0.8-1.9-0.8c-0.7,0-1.3,0.3-1.8,0.8s-0.8,1.1-0.8,1.8
			s0.3,1.4,0.8,1.9S294.3,62.5,295,62.5z"/>
		<path class="st6" d="M323.8,84.4v4.8h34v-4.8H323.8z M323.8,62.2h6.3c-0.2-0.3-0.3-0.7-0.4-1.1c-0.1-0.4-0.1-0.9-0.1-1.2
			c0-1.6,0.5-2.9,1.6-4c1.1-1.1,2.4-1.7,3.9-1.7c1,0,2,0.3,2.9,0.8s1.6,1.2,2.1,2l0.9,1.3l0.8-1.3c0.5-0.8,1.2-1.5,2-2
			c0.7-0.5,1.6-0.8,2.6-0.8c1.6,0,2.9,0.5,4.1,1.6c1.2,1.1,1.7,2.4,1.6,4c0,0.4,0,0.7-0.1,1.1c-0.1,0.4-0.2,0.8-0.4,1.3h6.2
			c0.8,0,1.5,0.3,2.1,0.9c0.6,0.6,0.9,1.3,0.9,2.1v24c0,0.8-0.3,1.5-0.9,2.1s-1.3,0.9-2.1,0.9h-34c-0.8,0-1.5-0.3-2.1-0.9
			c-0.6-0.6-0.9-1.3-0.9-2.1v-24c0-0.8,0.3-1.5,0.9-2.1C322.3,62.5,323,62.2,323.8,62.2z M323.8,79h34V65.2h-12.5l5,7l-2.4,1.8
			l-7.1-9.9l-7.1,9.9l-2.4-1.8l5-6.9h-12.5V79z M335.2,62.5c0.7,0,1.4-0.3,1.9-0.8c0.4-0.5,0.7-1.1,0.7-1.9s-0.3-1.4-0.8-1.9
			c-0.5-0.5-1.1-0.7-1.8-0.7c-0.7,0-1.4,0.3-1.9,0.8s-0.8,1.1-0.8,1.9s0.3,1.4,0.8,1.9C333.8,62.2,334.4,62.5,335.2,62.5z
			 M346.4,62.5c0.8,0,1.4-0.3,1.9-0.8s0.8-1.1,0.8-1.9s-0.3-1.3-0.8-1.8s-1.1-0.8-1.9-0.8c-0.7,0-1.3,0.3-1.8,0.8s-0.8,1.1-0.8,1.8
			s0.3,1.4,0.8,1.9S345.7,62.5,346.4,62.5z"/>
	</g>
	<g>
		<path class="st6" d="M15.5,130.5v4.8h34v-4.8H15.5z M15.5,108.3h6.3c-0.2-0.3-0.3-0.7-0.4-1.1c-0.1-0.4-0.1-0.9-0.1-1.2
			c0-1.6,0.5-2.9,1.6-4s2.4-1.7,3.9-1.7c1,0,2,0.3,2.9,0.8s1.6,1.2,2.1,2l0.9,1.3l0.8-1.3c0.5-0.8,1.2-1.5,2-2
			c0.7-0.5,1.6-0.8,2.6-0.8c1.6,0,2.9,0.5,4.1,1.6s1.7,2.4,1.6,4c0,0.4,0,0.7-0.1,1.1s-0.2,0.8-0.4,1.3h6.2c0.8,0,1.5,0.3,2.1,0.9
			c0.6,0.6,0.9,1.3,0.9,2.1v24c0,0.8-0.3,1.5-0.9,2.1c-0.6,0.6-1.3,0.9-2.1,0.9h-34c-0.8,0-1.5-0.3-2.1-0.9
			c-0.6-0.6-0.9-1.3-0.9-2.1v-24c0-0.8,0.3-1.5,0.9-2.1C14,108.6,14.7,108.3,15.5,108.3z M15.5,125.1h34v-13.8H37l5,7l-2.4,1.8
			l-7.1-9.9l-7.1,9.9l-2.4-1.8l5-6.9H15.5V125.1z M26.9,108.6c0.7,0,1.4-0.3,1.9-0.8c0.4-0.5,0.7-1.1,0.7-1.9c0-0.8-0.3-1.4-0.8-1.9
			s-1.1-0.7-1.8-0.7s-1.4,0.3-1.9,0.8s-0.8,1.1-0.8,1.9c0,0.8,0.3,1.4,0.8,1.9C25.5,108.3,26.1,108.6,26.9,108.6z M38.1,108.6
			c0.8,0,1.4-0.3,1.9-0.8s0.8-1.1,0.8-1.9c0-0.8-0.3-1.3-0.8-1.8s-1.1-0.8-1.9-0.8c-0.7,0-1.3,0.3-1.8,0.8s-0.8,1.1-0.8,1.8
			c0,0.7,0.3,1.4,0.8,1.9S37.4,108.6,38.1,108.6z"/>
		<path class="st6" d="M66.8,130.5v4.8h34v-4.8H66.8z M66.8,108.3h6.3c-0.2-0.3-0.3-0.7-0.4-1.1c-0.1-0.4-0.1-0.9-0.1-1.2
			c0-1.6,0.5-2.9,1.6-4s2.4-1.7,3.9-1.7c1,0,2,0.3,2.9,0.8c0.9,0.5,1.6,1.2,2.1,2l0.9,1.3l0.8-1.3c0.5-0.8,1.2-1.5,2-2
			c0.7-0.5,1.6-0.8,2.6-0.8c1.6,0,2.9,0.5,4.1,1.6c1.2,1.1,1.7,2.4,1.6,4c0,0.4,0,0.7-0.1,1.1s-0.2,0.8-0.4,1.3h6.2
			c0.8,0,1.5,0.3,2.1,0.9c0.6,0.6,0.9,1.3,0.9,2.1v24c0,0.8-0.3,1.5-0.9,2.1c-0.6,0.6-1.3,0.9-2.1,0.9h-34c-0.8,0-1.5-0.3-2.1-0.9
			s-0.9-1.3-0.9-2.1v-24c0-0.8,0.3-1.5,0.9-2.1C65.3,108.6,66,108.3,66.8,108.3z M66.8,125.1h34v-13.8H88.3l5,7l-2.4,1.8l-7.1-9.9
			l-7.1,9.9l-2.4-1.8l5-6.9H66.8V125.1z M78.2,108.6c0.7,0,1.4-0.3,1.9-0.8c0.4-0.5,0.7-1.1,0.7-1.9c0-0.8-0.3-1.4-0.8-1.9
			s-1.1-0.7-1.8-0.7c-0.7,0-1.4,0.3-1.9,0.8s-0.8,1.1-0.8,1.9c0,0.8,0.3,1.4,0.8,1.9C76.8,108.3,77.4,108.6,78.2,108.6z M89.4,108.6
			c0.8,0,1.4-0.3,1.9-0.8s0.8-1.1,0.8-1.9c0-0.8-0.3-1.3-0.8-1.8s-1.1-0.8-1.9-0.8c-0.7,0-1.3,0.3-1.8,0.8s-0.8,1.1-0.8,1.8
			c0,0.7,0.3,1.4,0.8,1.9S88.7,108.6,89.4,108.6z"/>
		<path class="st6" d="M118.2,130.5v4.8h34v-4.8H118.2z M118.2,108.3h6.3c-0.2-0.3-0.3-0.7-0.4-1.1c-0.1-0.4-0.1-0.9-0.1-1.2
			c0-1.6,0.5-2.9,1.6-4c1.1-1.1,2.4-1.7,3.9-1.7c1,0,2,0.3,2.9,0.8c0.9,0.5,1.6,1.2,2.1,2l0.9,1.3l0.8-1.3c0.5-0.8,1.2-1.5,2-2
			c0.7-0.5,1.6-0.8,2.6-0.8c1.6,0,2.9,0.5,4.1,1.6s1.7,2.4,1.6,4c0,0.4,0,0.7-0.1,1.1c-0.1,0.4-0.2,0.8-0.4,1.3h6.2
			c0.8,0,1.5,0.3,2.1,0.9c0.6,0.6,0.9,1.3,0.9,2.1v24c0,0.8-0.3,1.5-0.9,2.1c-0.6,0.6-1.3,0.9-2.1,0.9h-34c-0.8,0-1.5-0.3-2.1-0.9
			s-0.9-1.3-0.9-2.1v-24c0-0.8,0.3-1.5,0.9-2.1C116.7,108.6,117.4,108.3,118.2,108.3z M118.2,125.1h34v-13.8h-12.5l5,7l-2.4,1.8
			l-7.1-9.9l-7.1,9.9l-2.4-1.8l5-6.9h-12.5V125.1z M129.6,108.6c0.7,0,1.4-0.3,1.9-0.8c0.4-0.5,0.7-1.1,0.7-1.9
			c0-0.8-0.3-1.4-0.8-1.9s-1.1-0.7-1.8-0.7s-1.4,0.3-1.9,0.8c-0.5,0.5-0.8,1.1-0.8,1.9c0,0.8,0.3,1.4,0.8,1.9
			C128.2,108.3,128.8,108.6,129.6,108.6z M140.8,108.6c0.8,0,1.4-0.3,1.9-0.8s0.8-1.1,0.8-1.9c0-0.8-0.3-1.3-0.8-1.8
			s-1.1-0.8-1.9-0.8c-0.7,0-1.3,0.3-1.8,0.8s-0.8,1.1-0.8,1.8c0,0.7,0.3,1.4,0.8,1.9S140.1,108.6,140.8,108.6z"/>
		<path class="st6" d="M169.6,130.5v4.8h34v-4.8H169.6z M169.6,108.3h6.3c-0.2-0.3-0.3-0.7-0.4-1.1c-0.1-0.4-0.1-0.9-0.1-1.2
			c0-1.6,0.5-2.9,1.6-4c1.1-1.1,2.4-1.7,3.9-1.7c1,0,2,0.3,2.9,0.8s1.6,1.2,2.1,2l0.9,1.3l0.8-1.3c0.5-0.8,1.2-1.5,2-2
			c0.7-0.5,1.6-0.8,2.6-0.8c1.6,0,2.9,0.5,4.1,1.6s1.7,2.4,1.6,4c0,0.4,0,0.7-0.1,1.1c-0.1,0.4-0.2,0.8-0.4,1.3h6.2
			c0.8,0,1.5,0.3,2.1,0.9c0.6,0.6,0.9,1.3,0.9,2.1v24c0,0.8-0.3,1.5-0.9,2.1c-0.6,0.6-1.3,0.9-2.1,0.9h-34c-0.8,0-1.5-0.3-2.1-0.9
			c-0.6-0.6-0.9-1.3-0.9-2.1v-24c0-0.8,0.3-1.5,0.9-2.1C168.1,108.6,168.8,108.3,169.6,108.3z M169.6,125.1h34v-13.8h-12.5l5,7
			l-2.4,1.8l-7.1-9.9l-7.1,9.9l-2.4-1.8l5-6.9h-12.5V125.1z M181,108.6c0.7,0,1.4-0.3,1.9-0.8c0.4-0.5,0.7-1.1,0.7-1.9
			c0-0.8-0.3-1.4-0.8-1.9s-1.1-0.7-1.8-0.7s-1.4,0.3-1.9,0.8s-0.8,1.1-0.8,1.9c0,0.8,0.3,1.4,0.8,1.9
			C179.6,108.3,180.2,108.6,181,108.6z M192.2,108.6c0.8,0,1.4-0.3,1.9-0.8s0.8-1.1,0.8-1.9c0-0.8-0.3-1.3-0.8-1.8s-1.1-0.8-1.9-0.8
			c-0.7,0-1.3,0.3-1.8,0.8s-0.8,1.1-0.8,1.8c0,0.7,0.3,1.4,0.8,1.9S191.5,108.6,192.2,108.6z"/>
		<path class="st6" d="M221,130.5v4.8h34v-4.8H221z M221,108.3h6.3c-0.2-0.3-0.3-0.7-0.4-1.1c-0.1-0.4-0.1-0.9-0.1-1.2
			c0-1.6,0.5-2.9,1.6-4c1.1-1.1,2.4-1.7,3.9-1.7c1,0,2,0.3,2.9,0.8c0.9,0.5,1.6,1.2,2.1,2l0.9,1.3l0.8-1.3c0.5-0.8,1.2-1.5,2-2
			c0.7-0.5,1.6-0.8,2.6-0.8c1.6,0,2.9,0.5,4.1,1.6s1.7,2.4,1.6,4c0,0.4,0,0.7-0.1,1.1c-0.1,0.4-0.2,0.8-0.4,1.3h6.2
			c0.8,0,1.5,0.3,2.1,0.9c0.6,0.6,0.9,1.3,0.9,2.1v24c0,0.8-0.3,1.5-0.9,2.1s-1.3,0.9-2.1,0.9h-34c-0.8,0-1.5-0.3-2.1-0.9
			c-0.6-0.6-0.9-1.3-0.9-2.1v-24c0-0.8,0.3-1.5,0.9-2.1C219.5,108.6,220.2,108.3,221,108.3z M221,125.1h34v-13.8h-12.5l5,7l-2.4,1.8
			l-7.1-9.9l-7.1,9.9l-2.4-1.8l5-6.9H221V125.1z M232.4,108.6c0.7,0,1.4-0.3,1.9-0.8c0.4-0.5,0.7-1.1,0.7-1.9c0-0.8-0.3-1.4-0.8-1.9
			s-1.1-0.7-1.8-0.7c-0.7,0-1.4,0.3-1.9,0.8s-0.8,1.1-0.8,1.9c0,0.8,0.3,1.4,0.8,1.9C231,108.3,231.6,108.6,232.4,108.6z
			 M243.6,108.6c0.8,0,1.4-0.3,1.9-0.8s0.8-1.1,0.8-1.9c0-0.8-0.3-1.3-0.8-1.8s-1.1-0.8-1.9-0.8c-0.7,0-1.3,0.3-1.8,0.8
			s-0.8,1.1-0.8,1.8c0,0.7,0.3,1.4,0.8,1.9S242.9,108.6,243.6,108.6z"/>
		<path class="st6" d="M272.4,130.5v4.8h34v-4.8H272.4z M272.4,108.3h6.3c-0.2-0.3-0.3-0.7-0.4-1.1c-0.1-0.4-0.1-0.9-0.1-1.2
			c0-1.6,0.5-2.9,1.6-4s2.4-1.7,3.9-1.7c1,0,2,0.3,2.9,0.8c0.9,0.5,1.6,1.2,2.1,2l0.9,1.3l0.8-1.3c0.5-0.8,1.2-1.5,2-2
			c0.7-0.5,1.6-0.8,2.6-0.8c1.6,0,2.9,0.5,4.1,1.6c1.2,1.1,1.7,2.4,1.6,4c0,0.4,0,0.7-0.1,1.1c-0.1,0.4-0.2,0.8-0.4,1.3h6.2
			c0.8,0,1.5,0.3,2.1,0.9c0.6,0.6,0.9,1.3,0.9,2.1v24c0,0.8-0.3,1.5-0.9,2.1s-1.3,0.9-2.1,0.9h-34c-0.8,0-1.5-0.3-2.1-0.9
			s-0.9-1.3-0.9-2.1v-24c0-0.8,0.3-1.5,0.9-2.1C270.9,108.6,271.6,108.3,272.4,108.3z M272.4,125.1h34v-13.8h-12.5l5,7l-2.4,1.8
			l-7.1-9.9l-7.1,9.9l-2.4-1.8l5-6.9h-12.5V125.1z M283.8,108.6c0.7,0,1.4-0.3,1.9-0.8c0.4-0.5,0.7-1.1,0.7-1.9
			c0-0.8-0.3-1.4-0.8-1.9s-1.1-0.7-1.8-0.7c-0.7,0-1.4,0.3-1.9,0.8s-0.8,1.1-0.8,1.9c0,0.8,0.3,1.4,0.8,1.9
			C282.4,108.3,283,108.6,283.8,108.6z M295,108.6c0.8,0,1.4-0.3,1.9-0.8s0.8-1.1,0.8-1.9c0-0.8-0.3-1.3-0.8-1.8s-1.1-0.8-1.9-0.8
			c-0.7,0-1.3,0.3-1.8,0.8s-0.8,1.1-0.8,1.8c0,0.7,0.3,1.4,0.8,1.9S294.3,108.6,295,108.6z"/>
		<path class="st6" d="M323.8,130.5v4.8h34v-4.8H323.8z M323.8,108.3h6.3c-0.2-0.3-0.3-0.7-0.4-1.1c-0.1-0.4-0.1-0.9-0.1-1.2
			c0-1.6,0.5-2.9,1.6-4c1.1-1.1,2.4-1.7,3.9-1.7c1,0,2,0.3,2.9,0.8s1.6,1.2,2.1,2l0.9,1.3l0.8-1.3c0.5-0.8,1.2-1.5,2-2
			c0.7-0.5,1.6-0.8,2.6-0.8c1.6,0,2.9,0.5,4.1,1.6c1.2,1.1,1.7,2.4,1.6,4c0,0.4,0,0.7-0.1,1.1s-0.2,0.8-0.4,1.3h6.2
			c0.8,0,1.5,0.3,2.1,0.9c0.6,0.6,0.9,1.3,0.9,2.1v24c0,0.8-0.3,1.5-0.9,2.1s-1.3,0.9-2.1,0.9h-34c-0.8,0-1.5-0.3-2.1-0.9
			c-0.6-0.6-0.9-1.3-0.9-2.1v-24c0-0.8,0.3-1.5,0.9-2.1C322.3,108.6,323,108.3,323.8,108.3z M323.8,125.1h34v-13.8h-12.5l5,7
			l-2.4,1.8l-7.1-9.9l-7.1,9.9l-2.4-1.8l5-6.9h-12.5V125.1z M335.2,108.6c0.7,0,1.4-0.3,1.9-0.8c0.4-0.5,0.7-1.1,0.7-1.9
			c0-0.8-0.3-1.4-0.8-1.9s-1.1-0.7-1.8-0.7c-0.7,0-1.4,0.3-1.9,0.8s-0.8,1.1-0.8,1.9c0,0.8,0.3,1.4,0.8,1.9
			C333.8,108.3,334.4,108.6,335.2,108.6z M346.4,108.6c0.8,0,1.4-0.3,1.9-0.8s0.8-1.1,0.8-1.9c0-0.8-0.3-1.3-0.8-1.8
			s-1.1-0.8-1.9-0.8c-0.7,0-1.3,0.3-1.8,0.8s-0.8,1.1-0.8,1.8c0,0.7,0.3,1.4,0.8,1.9S345.7,108.6,346.4,108.6z"/>
	</g>
	<g>
		<path class="st6" d="M15.5,176.7v4.8h34v-4.8H15.5z M15.5,154.5h6.3c-0.2-0.3-0.3-0.7-0.4-1.1c-0.1-0.4-0.1-0.9-0.1-1.2
			c0-1.6,0.5-2.9,1.6-4s2.4-1.7,3.9-1.7c1,0,2,0.3,2.9,0.8s1.6,1.2,2.1,2l0.9,1.3l0.8-1.3c0.5-0.8,1.2-1.5,2-2
			c0.7-0.5,1.6-0.8,2.6-0.8c1.6,0,2.9,0.5,4.1,1.6c1.2,1.1,1.7,2.4,1.6,4c0,0.4,0,0.7-0.1,1.1s-0.2,0.8-0.4,1.3h6.2
			c0.8,0,1.5,0.3,2.1,0.9c0.6,0.6,0.9,1.3,0.9,2.1v24c0,0.8-0.3,1.5-0.9,2.1c-0.6,0.6-1.3,0.9-2.1,0.9h-34c-0.8,0-1.5-0.3-2.1-0.9
			c-0.6-0.6-0.9-1.3-0.9-2.1v-24c0-0.8,0.3-1.5,0.9-2.1C14,154.8,14.7,154.5,15.5,154.5z M15.5,171.3h34v-13.8H37l5,7l-2.4,1.8
			l-7.1-9.9l-7.1,9.9l-2.4-1.8l5-6.9H15.5V171.3z M26.9,154.8c0.7,0,1.4-0.3,1.9-0.8c0.4-0.5,0.7-1.1,0.7-1.9c0-0.8-0.3-1.4-0.8-1.9
			s-1.1-0.7-1.8-0.7s-1.4,0.3-1.9,0.8s-0.8,1.1-0.8,1.9s0.3,1.4,0.8,1.9C25.5,154.5,26.1,154.8,26.9,154.8z M38.1,154.8
			c0.8,0,1.4-0.3,1.9-0.8s0.8-1.1,0.8-1.9c0-0.8-0.3-1.3-0.8-1.8s-1.1-0.8-1.9-0.8c-0.7,0-1.3,0.3-1.8,0.8s-0.8,1.1-0.8,1.8
			c0,0.7,0.3,1.4,0.8,1.9S37.4,154.8,38.1,154.8z"/>
		<path class="st6" d="M66.8,176.7v4.8h34v-4.8H66.8z M66.8,154.5h6.3c-0.2-0.3-0.3-0.7-0.4-1.1c-0.1-0.4-0.1-0.9-0.1-1.2
			c0-1.6,0.5-2.9,1.6-4s2.4-1.7,3.9-1.7c1,0,2,0.3,2.9,0.8c0.9,0.5,1.6,1.2,2.1,2l0.9,1.3l0.8-1.3c0.5-0.8,1.2-1.5,2-2
			c0.7-0.5,1.6-0.8,2.6-0.8c1.6,0,2.9,0.5,4.1,1.6c1.2,1.1,1.7,2.4,1.6,4c0,0.4,0,0.7-0.1,1.1s-0.2,0.8-0.4,1.3h6.2
			c0.8,0,1.5,0.3,2.1,0.9c0.6,0.6,0.9,1.3,0.9,2.1v24c0,0.8-0.3,1.5-0.9,2.1c-0.6,0.6-1.3,0.9-2.1,0.9h-34c-0.8,0-1.5-0.3-2.1-0.9
			c-0.6-0.6-0.9-1.3-0.9-2.1v-24c0-0.8,0.3-1.5,0.9-2.1C65.3,154.8,66,154.5,66.8,154.5z M66.8,171.3h34v-13.8H88.3l5,7l-2.4,1.8
			l-7.1-9.9l-7.1,9.9l-2.4-1.8l5-6.9H66.8V171.3z M78.2,154.8c0.7,0,1.4-0.3,1.9-0.8c0.4-0.5,0.7-1.1,0.7-1.9c0-0.8-0.3-1.4-0.8-1.9
			s-1.1-0.7-1.8-0.7c-0.7,0-1.4,0.3-1.9,0.8s-0.8,1.1-0.8,1.9s0.3,1.4,0.8,1.9C76.8,154.5,77.4,154.8,78.2,154.8z M89.4,154.8
			c0.8,0,1.4-0.3,1.9-0.8s0.8-1.1,0.8-1.9c0-0.8-0.3-1.3-0.8-1.8s-1.1-0.8-1.9-0.8c-0.7,0-1.3,0.3-1.8,0.8s-0.8,1.1-0.8,1.8
			c0,0.7,0.3,1.4,0.8,1.9S88.7,154.8,89.4,154.8z"/>
		<path class="st6" d="M118.2,176.7v4.8h34v-4.8H118.2z M118.2,154.5h6.3c-0.2-0.3-0.3-0.7-0.4-1.1c-0.1-0.4-0.1-0.9-0.1-1.2
			c0-1.6,0.5-2.9,1.6-4c1.1-1.1,2.4-1.7,3.9-1.7c1,0,2,0.3,2.9,0.8c0.9,0.5,1.6,1.2,2.1,2l0.9,1.3l0.8-1.3c0.5-0.8,1.2-1.5,2-2
			c0.7-0.5,1.6-0.8,2.6-0.8c1.6,0,2.9,0.5,4.1,1.6c1.2,1.1,1.7,2.4,1.6,4c0,0.4,0,0.7-0.1,1.1c-0.1,0.4-0.2,0.8-0.4,1.3h6.2
			c0.8,0,1.5,0.3,2.1,0.9c0.6,0.6,0.9,1.3,0.9,2.1v24c0,0.8-0.3,1.5-0.9,2.1c-0.6,0.6-1.3,0.9-2.1,0.9h-34c-0.8,0-1.5-0.3-2.1-0.9
			c-0.6-0.6-0.9-1.3-0.9-2.1v-24c0-0.8,0.3-1.5,0.9-2.1C116.7,154.8,117.4,154.5,118.2,154.5z M118.2,171.3h34v-13.8h-12.5l5,7
			l-2.4,1.8l-7.1-9.9l-7.1,9.9l-2.4-1.8l5-6.9h-12.5V171.3z M129.6,154.8c0.7,0,1.4-0.3,1.9-0.8c0.4-0.5,0.7-1.1,0.7-1.9
			c0-0.8-0.3-1.4-0.8-1.9s-1.1-0.7-1.8-0.7s-1.4,0.3-1.9,0.8c-0.5,0.5-0.8,1.1-0.8,1.9s0.3,1.4,0.8,1.9
			C128.2,154.5,128.8,154.8,129.6,154.8z M140.8,154.8c0.8,0,1.4-0.3,1.9-0.8s0.8-1.1,0.8-1.9c0-0.8-0.3-1.3-0.8-1.8
			s-1.1-0.8-1.9-0.8c-0.7,0-1.3,0.3-1.8,0.8s-0.8,1.1-0.8,1.8c0,0.7,0.3,1.4,0.8,1.9S140.1,154.8,140.8,154.8z"/>
		<path class="st6" d="M169.6,176.7v4.8h34v-4.8H169.6z M169.6,154.5h6.3c-0.2-0.3-0.3-0.7-0.4-1.1c-0.1-0.4-0.1-0.9-0.1-1.2
			c0-1.6,0.5-2.9,1.6-4c1.1-1.1,2.4-1.7,3.9-1.7c1,0,2,0.3,2.9,0.8s1.6,1.2,2.1,2l0.9,1.3l0.8-1.3c0.5-0.8,1.2-1.5,2-2
			c0.7-0.5,1.6-0.8,2.6-0.8c1.6,0,2.9,0.5,4.1,1.6c1.2,1.1,1.7,2.4,1.6,4c0,0.4,0,0.7-0.1,1.1c-0.1,0.4-0.2,0.8-0.4,1.3h6.2
			c0.8,0,1.5,0.3,2.1,0.9c0.6,0.6,0.9,1.3,0.9,2.1v24c0,0.8-0.3,1.5-0.9,2.1c-0.6,0.6-1.3,0.9-2.1,0.9h-34c-0.8,0-1.5-0.3-2.1-0.9
			c-0.6-0.6-0.9-1.3-0.9-2.1v-24c0-0.8,0.3-1.5,0.9-2.1C168.1,154.8,168.8,154.5,169.6,154.5z M169.6,171.3h34v-13.8h-12.5l5,7
			l-2.4,1.8l-7.1-9.9l-7.1,9.9l-2.4-1.8l5-6.9h-12.5V171.3z M181,154.8c0.7,0,1.4-0.3,1.9-0.8c0.4-0.5,0.7-1.1,0.7-1.9
			c0-0.8-0.3-1.4-0.8-1.9s-1.1-0.7-1.8-0.7s-1.4,0.3-1.9,0.8s-0.8,1.1-0.8,1.9s0.3,1.4,0.8,1.9C179.6,154.5,180.2,154.8,181,154.8z
			 M192.2,154.8c0.8,0,1.4-0.3,1.9-0.8s0.8-1.1,0.8-1.9c0-0.8-0.3-1.3-0.8-1.8s-1.1-0.8-1.9-0.8c-0.7,0-1.3,0.3-1.8,0.8
			s-0.8,1.1-0.8,1.8c0,0.7,0.3,1.4,0.8,1.9S191.5,154.8,192.2,154.8z"/>
		<path class="st6" d="M221,176.7v4.8h34v-4.8H221z M221,154.5h6.3c-0.2-0.3-0.3-0.7-0.4-1.1c-0.1-0.4-0.1-0.9-0.1-1.2
			c0-1.6,0.5-2.9,1.6-4c1.1-1.1,2.4-1.7,3.9-1.7c1,0,2,0.3,2.9,0.8c0.9,0.5,1.6,1.2,2.1,2l0.9,1.3l0.8-1.3c0.5-0.8,1.2-1.5,2-2
			c0.7-0.5,1.6-0.8,2.6-0.8c1.6,0,2.9,0.5,4.1,1.6c1.2,1.1,1.7,2.4,1.6,4c0,0.4,0,0.7-0.1,1.1c-0.1,0.4-0.2,0.8-0.4,1.3h6.2
			c0.8,0,1.5,0.3,2.1,0.9c0.6,0.6,0.9,1.3,0.9,2.1v24c0,0.8-0.3,1.5-0.9,2.1c-0.6,0.6-1.3,0.9-2.1,0.9h-34c-0.8,0-1.5-0.3-2.1-0.9
			c-0.6-0.6-0.9-1.3-0.9-2.1v-24c0-0.8,0.3-1.5,0.9-2.1C219.5,154.8,220.2,154.5,221,154.5z M221,171.3h34v-13.8h-12.5l5,7l-2.4,1.8
			l-7.1-9.9l-7.1,9.9l-2.4-1.8l5-6.9H221V171.3z M232.4,154.8c0.7,0,1.4-0.3,1.9-0.8c0.4-0.5,0.7-1.1,0.7-1.9c0-0.8-0.3-1.4-0.8-1.9
			s-1.1-0.7-1.8-0.7c-0.7,0-1.4,0.3-1.9,0.8s-0.8,1.1-0.8,1.9s0.3,1.4,0.8,1.9C231,154.5,231.6,154.8,232.4,154.8z M243.6,154.8
			c0.8,0,1.4-0.3,1.9-0.8s0.8-1.1,0.8-1.9c0-0.8-0.3-1.3-0.8-1.8s-1.1-0.8-1.9-0.8c-0.7,0-1.3,0.3-1.8,0.8s-0.8,1.1-0.8,1.8
			c0,0.7,0.3,1.4,0.8,1.9S242.9,154.8,243.6,154.8z"/>
		<path class="st6" d="M272.4,176.7v4.8h34v-4.8H272.4z M272.4,154.5h6.3c-0.2-0.3-0.3-0.7-0.4-1.1c-0.1-0.4-0.1-0.9-0.1-1.2
			c0-1.6,0.5-2.9,1.6-4s2.4-1.7,3.9-1.7c1,0,2,0.3,2.9,0.8c0.9,0.5,1.6,1.2,2.1,2l0.9,1.3l0.8-1.3c0.5-0.8,1.2-1.5,2-2
			c0.7-0.5,1.6-0.8,2.6-0.8c1.6,0,2.9,0.5,4.1,1.6c1.2,1.1,1.7,2.4,1.6,4c0,0.4,0,0.7-0.1,1.1c-0.1,0.4-0.2,0.8-0.4,1.3h6.2
			c0.8,0,1.5,0.3,2.1,0.9c0.6,0.6,0.9,1.3,0.9,2.1v24c0,0.8-0.3,1.5-0.9,2.1c-0.6,0.6-1.3,0.9-2.1,0.9h-34c-0.8,0-1.5-0.3-2.1-0.9
			c-0.6-0.6-0.9-1.3-0.9-2.1v-24c0-0.8,0.3-1.5,0.9-2.1C270.9,154.8,271.6,154.5,272.4,154.5z M272.4,171.3h34v-13.8h-12.5l5,7
			l-2.4,1.8l-7.1-9.9l-7.1,9.9l-2.4-1.8l5-6.9h-12.5V171.3z M283.8,154.8c0.7,0,1.4-0.3,1.9-0.8c0.4-0.5,0.7-1.1,0.7-1.9
			c0-0.8-0.3-1.4-0.8-1.9s-1.1-0.7-1.8-0.7c-0.7,0-1.4,0.3-1.9,0.8s-0.8,1.1-0.8,1.9s0.3,1.4,0.8,1.9
			C282.4,154.5,283,154.8,283.8,154.8z M295,154.8c0.8,0,1.4-0.3,1.9-0.8s0.8-1.1,0.8-1.9c0-0.8-0.3-1.3-0.8-1.8s-1.1-0.8-1.9-0.8
			c-0.7,0-1.3,0.3-1.8,0.8s-0.8,1.1-0.8,1.8c0,0.7,0.3,1.4,0.8,1.9S294.3,154.8,295,154.8z"/>
		<path class="st6" d="M323.8,176.7v4.8h34v-4.8H323.8z M323.8,154.5h6.3c-0.2-0.3-0.3-0.7-0.4-1.1c-0.1-0.4-0.1-0.9-0.1-1.2
			c0-1.6,0.5-2.9,1.6-4c1.1-1.1,2.4-1.7,3.9-1.7c1,0,2,0.3,2.9,0.8s1.6,1.2,2.1,2l0.9,1.3l0.8-1.3c0.5-0.8,1.2-1.5,2-2
			c0.7-0.5,1.6-0.8,2.6-0.8c1.6,0,2.9,0.5,4.1,1.6c1.2,1.1,1.7,2.4,1.6,4c0,0.4,0,0.7-0.1,1.1s-0.2,0.8-0.4,1.3h6.2
			c0.8,0,1.5,0.3,2.1,0.9c0.6,0.6,0.9,1.3,0.9,2.1v24c0,0.8-0.3,1.5-0.9,2.1c-0.6,0.6-1.3,0.9-2.1,0.9h-34c-0.8,0-1.5-0.3-2.1-0.9
			c-0.6-0.6-0.9-1.3-0.9-2.1v-24c0-0.8,0.3-1.5,0.9-2.1C322.3,154.8,323,154.5,323.8,154.5z M323.8,171.3h34v-13.8h-12.5l5,7
			l-2.4,1.8l-7.1-9.9l-7.1,9.9l-2.4-1.8l5-6.9h-12.5V171.3z M335.2,154.8c0.7,0,1.4-0.3,1.9-0.8c0.4-0.5,0.7-1.1,0.7-1.9
			c0-0.8-0.3-1.4-0.8-1.9s-1.1-0.7-1.8-0.7c-0.7,0-1.4,0.3-1.9,0.8s-0.8,1.1-0.8,1.9s0.3,1.4,0.8,1.9
			C333.8,154.5,334.4,154.8,335.2,154.8z M346.4,154.8c0.8,0,1.4-0.3,1.9-0.8s0.8-1.1,0.8-1.9c0-0.8-0.3-1.3-0.8-1.8
			s-1.1-0.8-1.9-0.8c-0.7,0-1.3,0.3-1.8,0.8s-0.8,1.1-0.8,1.8c0,0.7,0.3,1.4,0.8,1.9S345.7,154.8,346.4,154.8z"/>
	</g>
</g>
<g>
	<polygon class="st7" points="109.7,83.3 89.1,83.3 89.1,87.6 97.2,87.6 97.2,112.9 101.6,112.9 101.6,87.6 109.7,87.6 	"/>
	<path class="st7" d="M118.5,93.6c-0.4-0.1-0.7-0.1-1.1-0.1c-1.4,0-2.7,0.4-3.7,1.1c-0.6,0.5-1.2,1.1-1.8,1.9v-2.4h-3.7v18.9h4v-9.2
		c0-2.2,0.4-3.9,1.1-5c0.7-1,1.8-1.5,3.2-1.5c0.3,0,0.5,0,0.8,0.1c0.3,0.1,0.6,0.1,0.9,0.2l0.5,0.2l1.4-3.7l-0.5-0.2
		C119.2,93.7,118.9,93.6,118.5,93.6z"/>
	<path class="st7" d="M135.8,96.2c-0.6-0.7-1.2-1.3-1.9-1.7c-1.2-0.7-2.6-1.1-4.2-1.1c-2.7,0-4.9,0.9-6.5,2.8
		c-1.6,1.8-2.4,4.3-2.4,7.4c0,3,0.8,5.5,2.5,7.3c1.7,1.9,3.9,2.8,6.6,2.8c1.5,0,2.8-0.4,4-1.1c0.7-0.5,1.4-1,2-1.8v2.1h4V94.1h-4
		V96.2z M134.3,99.1c1,1.1,1.5,2.7,1.5,4.5c0,1.9-0.5,3.4-1.4,4.4c-0.9,1-2.2,1.5-3.9,1.5c-1.8,0-3.1-0.5-4-1.6
		c-0.9-1.1-1.4-2.6-1.4-4.7c0-1.9,0.5-3.4,1.4-4.4c0.9-1,2.2-1.5,3.9-1.5C132,97.4,133.3,98,134.3,99.1z"/>
	<path class="st7" d="M158.5,96.2c-0.5-0.7-1.2-1.3-1.9-1.7c-1.2-0.7-2.6-1.1-4.1-1.1c-2.7,0-4.9,0.9-6.5,2.8
		c-1.6,1.8-2.4,4.3-2.4,7.3c0,3,0.8,5.5,2.5,7.3c1.7,1.9,3.9,2.8,6.6,2.8c1.5,0,2.8-0.4,4-1.1c0.7-0.5,1.4-1,2-1.7v2.1h4V81.7h-4
		V96.2z M157.1,99.1c1,1.1,1.5,2.6,1.5,4.5c0,1.9-0.5,3.5-1.5,4.5c-1,1.1-2.3,1.6-4,1.6c-1.7,0-2.9-0.6-3.9-1.7
		c-0.9-1.1-1.4-2.8-1.4-4.8c0-1.8,0.5-3.2,1.4-4.3c0.9-1,2.2-1.5,3.9-1.5C154.7,97.4,156,98,157.1,99.1z"/>
	<path class="st7" d="M181.4,106.5c-0.7,1.2-1.5,2.2-2.4,2.8c-0.9,0.6-1.9,0.9-3,0.9c-1.6,0-2.9-0.5-3.9-1.6c-1-1-1.5-2.4-1.5-4.1
		h14.2v-1.1c0-3-0.8-5.5-2.4-7.3c-1.6-1.8-3.9-2.7-6.6-2.7c-2.7,0-5,1-6.8,2.8c-1.7,1.9-2.6,4.3-2.6,7.2c0,3,0.9,5.5,2.7,7.4
		c1.8,1.9,4.1,2.9,7,2.9c1.9,0,3.6-0.4,5.1-1.3c1.5-0.9,2.7-2.2,3.6-3.8l0.2-0.4l-3.2-2.1L181.4,106.5z M175.5,97.1
		c1.5,0,2.7,0.4,3.5,1.2c0.7,0.7,1.2,1.6,1.4,2.8h-9.7c0.2-1.1,0.7-2,1.5-2.7C173,97.4,174.1,97.1,175.5,97.1z"/>
	<polygon class="st7" points="221.4,104.3 200.5,81.4 200.5,112.9 204.7,112.9 204.7,92.2 225.6,114.8 225.6,83.3 221.4,83.3 	"/>
	<path class="st7" d="M247.2,96.4c-1-1-2.1-1.7-3.3-2.2c-2.5-1-5.4-1-7.8,0c-1.2,0.5-2.3,1.2-3.3,2.2c-1,1-1.7,2.1-2.2,3.3
		c-0.5,1.2-0.8,2.5-0.8,3.9c0,1.4,0.3,2.7,0.8,3.9c0.5,1.2,1.2,2.3,2.2,3.3c1,1,2.1,1.7,3.3,2.2c1.2,0.5,2.6,0.8,3.9,0.8
		c1.3,0,2.6-0.3,3.9-0.8c1.2-0.5,2.4-1.3,3.3-2.3c1-0.9,1.7-2,2.2-3.2c0.5-1.2,0.8-2.5,0.8-3.9s-0.3-2.7-0.8-3.9
		C248.9,98.4,248.1,97.3,247.2,96.4z M245.9,103.5c0,1.8-0.6,3.2-1.7,4.4c-1.2,1.2-2.5,1.8-4.2,1.8c-1.7,0-3.1-0.6-4.2-1.8
		c-1.2-1.2-1.8-2.7-1.8-4.4c0-1.8,0.6-3.2,1.7-4.4c1.2-1.2,2.6-1.8,4.2-1.8c1.7,0,3,0.6,4.2,1.8
		C245.3,100.3,245.9,101.8,245.9,103.5z"/>
	<polygon class="st7" points="275.2,94.1 270.7,105.4 265.7,93.4 264.5,93.4 259.5,105.4 255,94.1 250.5,94.1 259.2,114.8 
		265.1,101.1 271,114.8 279.7,94.1 	"/>
</g>
</svg>
