<?xml version="1.0" encoding="utf-8"?>
<!-- Generator: Adobe Illustrator 24.0.0, SVG Export Plug-In . SVG Version: 6.00 Build 0)  -->
<svg version="1.1" id="Layer_1" xmlns="http://www.w3.org/2000/svg" xmlns:xlink="http://www.w3.org/1999/xlink" x="0px" y="0px"
	 viewBox="0 0 48 48" style="enable-background:new 0 0 48 48;" xml:space="preserve">
<style type="text/css">
	.st0{fill:#FFFFFF;}
</style>
<path class="st0" d="M5.9,40.2v-2.7h16.7V15.6c-0.8-0.3-1.5-0.7-2.1-1.3c-0.6-0.6-1.1-1.3-1.3-2.1H12l5.6,13.6
	c0,1.4-0.6,2.5-1.7,3.5c-1.1,0.9-2.5,1.4-4.1,1.4s-3-0.5-4.1-1.4c-1.1-0.9-1.7-2.1-1.7-3.5l5.6-13.6H7.7V9.5h11.5
	c0.4-1.1,1-1.9,1.9-2.6s1.9-1,2.9-1s2.1,0.3,2.9,1s1.5,1.5,1.9,2.6h11.5v2.7h-3.8l5.6,13.6c0,1.4-0.6,2.5-1.7,3.5
	c-1.1,0.9-2.5,1.4-4.1,1.4s-3-0.5-4.1-1.4c-1.1-0.9-1.7-2.1-1.7-3.5L36,12.2h-7.2c-0.3,0.8-0.7,1.5-1.3,2.1
	c-0.6,0.6-1.3,1.1-2.1,1.3v21.8h16.7v2.7H5.9z M32.8,25.7h6.8l-3.4-8.3L32.8,25.7z M8.4,25.7h6.8l-3.4-8.3L8.4,25.7z M24,13.1
	c0.6,0,1.2-0.2,1.6-0.7c0.4-0.5,0.7-1,0.7-1.6c0-0.6-0.2-1.2-0.7-1.6c-0.4-0.4-1-0.7-1.6-0.7c-0.6,0-1.1,0.2-1.6,0.7
	c-0.5,0.4-0.7,1-0.7,1.6c0,0.6,0.2,1.1,0.7,1.6C22.9,12.8,23.4,13.1,24,13.1z"/>
</svg>
