<?xml version="1.0" encoding="utf-8"?>
<!-- Generator: Adobe Illustrator 24.0.0, SVG Export Plug-In . SVG Version: 6.00 Build 0)  -->
<svg version="1.1" id="Layer_1" xmlns="http://www.w3.org/2000/svg" xmlns:xlink="http://www.w3.org/1999/xlink" x="0px" y="0px"
	 viewBox="0 0 43.9 43.9" style="enable-background:new 0 0 43.9 43.9;" xml:space="preserve">
<style type="text/css">
	.st0{fill:#3F0E40;}
</style>
<path class="st0" d="M30.4,27.2l-5.3-5.3l5.3-5.3c0.9-0.9,0.9-2.2,0-3.1l-0.1-0.1c-0.9-0.9-2.2-0.9-3.1,0l-5.3,5.3l-5.3-5.3
	c-0.9-0.9-2.2-0.9-3.1,0l-0.1,0.1c-0.9,0.9-0.9,2.2,0,3.1l5.3,5.3l-5.3,5.3c-0.9,0.9-0.9,2.2,0,3.1l0.1,0.1c0.9,0.9,2.2,0.9,3.1,0
	l5.3-5.3l5.3,5.3c0.9,0.9,2.2,0.9,3.1,0l0.1-0.1C31.3,29.5,31.3,28.1,30.4,27.2z"/>
</svg>
