<?xml version="1.0" encoding="utf-8"?>
<!-- Generator: Adobe Illustrator 24.0.0, SVG Export Plug-In . SVG Version: 6.00 Build 0)  -->
<svg version="1.1" id="Layer_1" xmlns="http://www.w3.org/2000/svg" xmlns:xlink="http://www.w3.org/1999/xlink" x="0px" y="0px"
	 viewBox="0 0 48 48" style="enable-background:new 0 0 48 48;" xml:space="preserve">
<style type="text/css">
	.st0{fill:#FFFFFF;}
</style>
<path class="st0" d="M8.3,39.7V24c0-2.2,0.4-4.2,1.2-6.1s1.9-3.6,3.4-5s3.1-2.5,5-3.4c1.9-0.8,3.9-1.2,6.1-1.2s4.2,0.4,6.1,1.2
	c1.9,0.8,3.6,1.9,5,3.4c1.4,1.4,2.5,3.1,3.4,5c0.8,1.9,1.2,3.9,1.2,6.1v15.7h-9.1V26.8h6.5V24c0-3.6-1.3-6.7-3.8-9.3
	s-5.6-3.8-9.3-3.8s-6.7,1.3-9.3,3.8s-3.8,5.6-3.8,9.3v2.8h6.5v12.9H8.3z M10.9,37.1h3.8v-7.7h-3.8V37.1z M33.2,37.1h3.8v-7.7h-3.8
	V37.1z M10.9,37.1h3.8H10.9z M33.2,37.1h3.8H33.2z"/>
</svg>
