<?xml version="1.0" encoding="utf-8"?>
<!-- Generator: Adobe Illustrator 24.0.0, SVG Export Plug-In . SVG Version: 6.00 Build 0)  -->
<svg version="1.1" id="Layer_1" xmlns="http://www.w3.org/2000/svg" xmlns:xlink="http://www.w3.org/1999/xlink" x="0px" y="0px"
	 viewBox="0 0 48 48" style="enable-background:new 0 0 48 48;" xml:space="preserve">
<style type="text/css">
	.st0{fill:#FFFFFF;}
</style>
<path class="st0" d="M9.4,42v-7H6V14.4h3.4V7.2c0-0.4,0.1-0.7,0.3-0.9C9.9,6.1,10.2,6,10.6,6s0.7,0.1,0.9,0.3
	c0.2,0.2,0.3,0.5,0.3,0.9v7.2h3.4V35h-3.4v7H9.4z M22.8,42v-7h-3.4V14.4h3.4V7.2c0-0.4,0.1-0.7,0.3-0.9C23.3,6.1,23.6,6,24,6
	s0.7,0.1,0.9,0.3c0.2,0.2,0.3,0.5,0.3,0.9v7.2h3.4V35h-3.4v7H22.8z M36.1,42v-7h-3.4V14.4h3.4V7.2c0-0.4,0.1-0.7,0.3-0.9
	C36.7,6.1,37,6,37.4,6c0.4,0,0.7,0.1,0.9,0.3c0.2,0.2,0.3,0.5,0.3,0.9v7.2H42V35h-3.4v7H36.1z M8.5,16.8v7.5h4.3v-7.5H8.5z
	 M21.8,16.8v7.5h4.3v-7.5H21.8z M35.2,16.8v7.5h4.3v-7.5H35.2z M8.5,32.7h4.3v-5.9H8.5V32.7z M21.8,32.7h4.3v-5.9h-4.3L21.8,32.7z
	 M35.2,32.7h4.3v-5.9h-4.3V32.7z M8.5,24.4h4.3H8.5z M21.8,24.4h4.3C26.2,24.4,21.8,24.4,21.8,24.4z M35.2,24.4h4.3H35.2z M8.5,26.8
	h4.3H8.5z M21.8,26.8h4.3H21.8z M35.2,26.8h4.3H35.2z"/>
</svg>
