<?xml version="1.0" encoding="utf-8"?>
<!-- Generator: Adobe Illustrator 24.0.0, SVG Export Plug-In . SVG Version: 6.00 Build 0)  -->
<svg version="1.1" xmlns="http://www.w3.org/2000/svg" xmlns:xlink="http://www.w3.org/1999/xlink" x="0px" y="0px"
	 viewBox="0 0 2500 2500" style="enable-background:new 0 0 2500 2500;" xml:space="preserve">
<style type="text/css">
	.st0{fill:#FFFFFF;}
	.st1{fill:#69007F;}
</style>
<g id="Background">
	<rect class="st0" width="2500" height="2500"/>
</g>
<g id="Illustration">
	<g id="Digital_gift_card_1_">
		<g>
			<path class="st0" d="M1177.4,1742l-10.6-38.7l-43.7,2c-4.1-8.5-8.7-16.6-14.1-24.2l23.2-37.1l-28.5-28.2l-36.9,23.6
				c-7.7-5.3-15.8-9.9-24.2-13.8l1.5-43.8l-38.8-10.2l-20.1,38.9c-9.2-0.7-18.5-0.6-27.9,0.2l-20.6-38.7l-38.7,10.6l2,43.8
				c-8.5,4.1-16.6,8.8-24.1,14.1l-37.1-23.2l-28.2,28.5l23.6,36.9c-5.3,7.7-9.9,15.8-13.8,24.3l-43.8-1.5l-10.2,38.8l38.8,20.1
				c-0.7,9.2-0.6,18.6,0.2,28l-38.7,20.6l10.6,38.7l43.7-2c4.1,8.5,8.7,16.6,14.1,24.2L812,1911l28.5,28.2l36.9-23.6
				c7.7,5.3,15.8,9.9,24.2,13.8l-1.5,43.8l38.8,10.2l20.1-38.9c9.2,0.7,18.5,0.6,27.9-0.2l20.6,38.7l38.7-10.6l-2-43.8
				c8.5-4.1,16.6-8.8,24.1-14.1l37.1,23.2l28.2-28.5l-23.6-36.9c5.3-7.7,9.9-15.8,13.8-24.3l43.8,1.5l10.2-38.8l-38.8-20.1
				c0.7-9.2,0.6-18.6-0.2-28L1177.4,1742z M999.3,1877.1c-55,15.1-111.8-17.3-126.8-72.3c-15.1-55,17.3-111.8,72.3-126.9
				c55-15.1,111.8,17.3,126.8,72.3C1086.7,1805.2,1054.3,1862.1,999.3,1877.1z"/>
			<path d="M938.9,1985.6c-0.2,0-0.4,0-0.6-0.1l-38.8-10.2c-1-0.3-1.7-1.2-1.7-2.2l1.5-42.3c-7.6-3.6-15-7.8-22-12.6l-35.7,22.8
				c-0.9,0.6-2,0.4-2.8-0.3l-28.5-28.2c-0.7-0.7-0.9-1.9-0.3-2.7l22.4-35.9c-4.7-6.9-9-14.2-12.8-21.9l-42.3,1.9
				c-1,0.1-2-0.6-2.2-1.6l-10.6-38.7c-0.3-1,0.2-2.1,1.1-2.5l37.4-19.9c-0.7-8.5-0.8-17.1-0.2-25.4l-37.5-19.5
				c-0.9-0.5-1.4-1.5-1.1-2.5l10.2-38.8c0.3-1,1.2-1.7,2.2-1.7l42.3,1.5c3.6-7.6,7.8-15,12.5-22l-22.8-35.7c-0.6-0.9-0.4-2,0.3-2.8
				l28.2-28.5c0.7-0.7,1.9-0.9,2.8-0.3l35.9,22.4c6.9-4.7,14.2-9,21.9-12.8l-1.9-42.3c0-1,0.6-2,1.6-2.2l38.7-10.6
				c1-0.3,2.1,0.2,2.5,1.1l19.9,37.4c8.5-0.7,17.1-0.8,25.4-0.2l19.5-37.6c0.5-0.9,1.5-1.4,2.5-1.1l38.8,10.2c1,0.3,1.7,1.2,1.7,2.2
				l-1.5,42.4c7.6,3.6,15,7.8,22,12.6l35.7-22.8c0.9-0.6,2-0.4,2.8,0.3l28.5,28.2c0.7,0.7,0.9,1.9,0.3,2.7l-22.4,35.9
				c4.7,6.9,9,14.2,12.8,21.9l42.3-1.9c1-0.1,2,0.6,2.2,1.6l10.6,38.7c0.3,1-0.2,2.1-1.1,2.5l-37.4,19.9c0.7,8.5,0.8,17.1,0.2,25.4
				l37.5,19.5c0.9,0.5,1.4,1.5,1.1,2.5l-10.2,38.8c-0.3,1-1.2,1.8-2.2,1.7l-42.3-1.5c-3.6,7.6-7.8,15-12.5,22l22.8,35.7
				c0.6,0.9,0.4,2-0.3,2.8l-28.2,28.5c-0.7,0.7-1.9,0.9-2.8,0.3l-35.9-22.4c-6.9,4.7-14.2,9-21.9,12.8l1.9,42.3c0,1-0.6,2-1.6,2.2
				l-38.7,10.6c-1,0.3-2.1-0.2-2.5-1.1l-19.9-37.4c-8.5,0.7-17.1,0.8-25.4,0.2l-19.5,37.6C940.5,1985.1,939.7,1985.6,938.9,1985.6z
				 M902.4,1971.5l35.4,9.3l19.3-37.3c0.4-0.8,1.3-1.2,2.1-1.2c9,0.7,18.3,0.6,27.6-0.2c0.9-0.1,1.7,0.4,2.2,1.2l19.7,37.1l35.3-9.7
				l-1.9-42c0-0.9,0.5-1.7,1.3-2.1c8.4-4,16.4-8.7,23.8-13.9c0.7-0.5,1.7-0.5,2.4-0.1l35.6,22.2l25.7-26l-22.6-35.4
				c-0.5-0.7-0.5-1.7,0-2.4c5.2-7.6,9.8-15.6,13.6-23.9c0.4-0.8,1.1-1.3,2.1-1.3l42,1.4l9.3-35.4l-37.3-19.3
				c-0.8-0.4-1.3-1.3-1.2-2.1c0.7-9,0.6-18.3-0.2-27.6c-0.1-0.9,0.4-1.7,1.2-2.2l37.1-19.8l-9.7-35.3l-42,1.9
				c-0.9,0.1-1.7-0.5-2.1-1.3c-4-8.4-8.7-16.4-13.9-23.8c-0.5-0.7-0.5-1.7-0.1-2.4l22.2-35.6l-26-25.7l-35.4,22.7
				c-0.8,0.5-1.7,0.5-2.4,0c-7.6-5.2-15.6-9.8-23.9-13.6c-0.8-0.4-1.3-1.2-1.3-2.1l1.4-42l-35.4-9.3l-19.3,37.3
				c-0.4,0.8-1.3,1.3-2.1,1.2c-9-0.7-18.3-0.6-27.6,0.2c-0.9,0.1-1.7-0.4-2.2-1.2l-19.7-37.1l-35.3,9.7l1.9,42
				c0,0.9-0.5,1.7-1.3,2.1c-8.4,4-16.4,8.7-23.8,13.9c-0.7,0.5-1.7,0.5-2.4,0.1l-35.6-22.2l-25.7,26l22.6,35.4
				c0.5,0.7,0.5,1.7,0,2.4c-5.2,7.6-9.8,15.6-13.6,23.9c-0.4,0.8-1.1,1.4-2.1,1.3l-42-1.4l-9.3,35.4l37.3,19.3
				c0.8,0.4,1.3,1.3,1.2,2.1c-0.7,9-0.6,18.3,0.2,27.6c0.1,0.9-0.4,1.7-1.2,2.2l-37.1,19.8l9.7,35.3l42-1.9c0.9-0.1,1.7,0.5,2.1,1.3
				c4,8.4,8.7,16.4,13.9,23.8c0.5,0.7,0.5,1.7,0.1,2.4l-22.2,35.6l26,25.7l35.4-22.7c0.7-0.5,1.7-0.5,2.4,0
				c7.6,5.2,15.6,9.8,23.9,13.6c0.8,0.4,1.3,1.2,1.3,2.1L902.4,1971.5z M971.9,1883.1c-18.1,0-35.9-4.7-52.1-13.9
				c-24.5-14-42-36.6-49.5-63.8c-15.4-56.1,17.8-114.3,73.8-129.6c27.2-7.4,55.6-3.9,80.1,10.1c24.5,14,42,36.6,49.5,63.8
				c15.4,56.1-17.8,114.3-73.8,129.6C990.7,1881.8,981.3,1883.1,971.9,1883.1z M972.2,1676.4c-9,0-18,1.2-26.8,3.6
				c-53.7,14.7-85.4,70.4-70.7,124.2c7.1,26,24,47.7,47.4,61.1c23.4,13.4,50.7,16.8,76.7,9.7c53.7-14.7,85.4-70.4,70.7-124.2
				c-7.1-26-24-47.7-47.4-61.1C1006.7,1680.9,989.6,1676.4,972.2,1676.4z M999.3,1877.1L999.3,1877.1L999.3,1877.1z"/>
		</g>
		<g>
			<g>
				<path d="M983.6,407.3c-0.3,0-0.5,0-0.8-0.1c-1.2-0.4-1.7-1.7-1.3-2.8l5.9-16.2c0.4-1.2,1.7-1.7,2.8-1.3c1.2,0.4,1.7,1.7,1.3,2.8
					l-5.9,16.2C985.3,406.7,984.5,407.3,983.6,407.3z"/>
				<path d="M969.9,444.9c-0.3,0-0.5,0-0.8-0.1c-1.2-0.4-1.7-1.7-1.3-2.8l5.9-16.2c0.4-1.2,1.7-1.7,2.8-1.3c1.2,0.4,1.7,1.7,1.3,2.8
					l-5.9,16.2C971.6,444.3,970.8,444.9,969.9,444.9z"/>
				<path d="M968.9,414.1c-0.3,0-0.5,0-0.8-0.1l-16.2-5.9c-1.2-0.4-1.7-1.7-1.3-2.8c0.4-1.2,1.7-1.7,2.8-1.3l16.2,5.9
					c1.2,0.4,1.7,1.7,1.3,2.8C970.7,413.5,969.8,414.1,968.9,414.1z"/>
				<path d="M1006.6,427.8c-0.3,0-0.5,0-0.8-0.1l-16.2-5.9c-1.2-0.4-1.7-1.7-1.3-2.8c0.4-1.2,1.7-1.7,2.8-1.3l16.2,5.9
					c1.2,0.4,1.7,1.7,1.3,2.8C1008.3,427.2,1007.5,427.8,1006.6,427.8z"/>
			</g>
			<path d="M554.4,647.3c-3.1,0-6.2-0.6-9.2-1.7c-6.5-2.5-11.6-7.5-14.4-13.9c-5.7-13.2,0.2-28.7,13.2-34.5c6.2-2.8,13.2-3,19.5-0.5
				c6.5,2.5,11.6,7.5,14.4,13.9c5.7,13.2-0.2,28.7-13.2,34.5C561.5,646.6,558,647.3,554.4,647.3z M545.9,601.2
				c-10.8,4.8-15.7,17.7-10.9,28.7c2.3,5.4,6.5,9.5,11.9,11.6c5.2,2,11,1.9,16.1-0.4c10.8-4.8,15.7-17.7,10.9-28.7
				c-2.3-5.4-6.5-9.5-11.9-11.6C556.7,598.8,551,598.9,545.9,601.2z"/>
			<path d="M840.3,474.5c-3.1,0-6.2-0.6-9.2-1.7c-6.5-2.5-11.6-7.5-14.4-13.9c-5.7-13.2,0.2-28.7,13.2-34.5c6.2-2.8,13.2-3,19.5-0.5
				c6.5,2.5,11.6,7.5,14.4,13.9c5.7,13.2-0.2,28.7-13.2,34.5C847.4,473.7,843.8,474.5,840.3,474.5z M840.3,426.5
				c-2.9,0-5.8,0.6-8.6,1.8c-10.8,4.8-15.7,17.7-10.9,28.7c2.3,5.4,6.5,9.5,11.9,11.6c5.2,2,11,1.9,16.1-0.4
				c10.8-4.8,15.7-17.7,10.9-28.7c-2.3-5.4-6.5-9.5-11.9-11.6C845.4,427,842.9,426.5,840.3,426.5z"/>
			<g>
				<path d="M697.7,547.3c-0.6,0-1.1-0.2-1.5-0.6c-0.9-0.8-0.9-2.3-0.1-3.1l8.2-8.5c0.8-0.9,2.3-0.9,3.1-0.1
					c0.9,0.8,0.9,2.3,0.1,3.1l-8.2,8.5C698.9,547.1,698.3,547.3,697.7,547.3z"/>
				<path d="M669.2,577.1c-0.6,0-1.1-0.2-1.5-0.6c-0.9-0.8-0.9-2.2-0.1-3.1l8.2-8.5c0.8-0.9,2.3-0.9,3.1-0.1
					c0.9,0.8,0.9,2.2,0.1,3.1l-8.2,8.5C670.3,576.9,669.8,577.1,669.2,577.1z"/>
				<path d="M677.2,547.8c-0.6,0-1.1-0.2-1.6-0.6l-8.3-8.1c-0.9-0.9-0.9-2.3,0-3.1c0.9-0.9,2.3-0.9,3.1,0l8.3,8.1
					c0.9,0.9,0.9,2.3,0,3.1C678.3,547.6,677.8,547.8,677.2,547.8z"/>
				<path d="M706.2,576.3c-0.6,0-1.1-0.2-1.6-0.6l-8.3-8.1c-0.9-0.9-0.9-2.3,0-3.1c0.9-0.9,2.3-0.9,3.1,0l8.3,8.1
					c0.9,0.9,0.9,2.3,0,3.1C707.3,576.1,706.7,576.3,706.2,576.3z"/>
			</g>
		</g>
		<g>
			<g>
				<g>
					<path class="st1" d="M1895.9,2045.1l-41.5,3l-769.7-3c-35,0-59.7-28.2-55.3-63L1229.2,407c4.4-34.8,36.3-63,71.3-63l770.5-9
						c88.4,0,100.4,37.2,96,72l-199.7,1575.1C1962.8,2016.9,1930.9,2045.1,1895.9,2045.1z"/>
					<path class="st0" d="M1847.1,2048.1h-811.2c-35,0-59.7-28.3-55.3-63.3l199.7-1582.9c4.4-35,36.3-63.3,71.3-63.3h811.2
						c35,0,59.7,28.3,55.3,63.3l-199.7,1582.9C1914,2019.8,1882.1,2048.1,1847.1,2048.1z"/>
					<path d="M1855.2,2003.8h-815.5c-4.5,0-8.6-1.8-11.4-5c-2.9-3.2-4.1-7.6-3.5-12.1l190.7-1511.4c1.2-9.1,9.5-16.5,18.7-16.5
						h815.5c4.5,0,8.6,1.8,11.4,5c2.9,3.2,4.1,7.6,3.5,12.1l-190.7,1511.4C1872.7,1996.4,1864.3,2003.8,1855.2,2003.8z M1026.9,1987
						l2.2,0.3c-0.4,3.3,0.5,6.3,2.5,8.6c2,2.2,4.9,3.5,8.1,3.5h815.5c7,0,13.4-5.7,14.3-12.7l190.7-1511.4c0.4-3.3-0.5-6.4-2.5-8.6
						c-2-2.3-4.9-3.5-8.1-3.5H1234c-7,0-13.4,5.7-14.3,12.7l-190.7,1511.4L1026.9,1987z"/>
					<path d="M1647.1,421.3c-6.9,0-13.2-2.7-17.5-7.6c-4.4-5-6.3-11.6-5.4-18.6c1.8-14.1,14.8-25.6,28.9-25.6
						c6.9,0,13.2,2.7,17.5,7.6c4.4,5,6.3,11.6,5.4,18.6C1674.2,409.8,1661.2,421.3,1647.1,421.3z M1653.1,373.9
						c-12,0-23,9.8-24.5,21.8c-0.7,5.7,0.8,11.1,4.4,15.1c3.5,3.9,8.5,6.1,14.2,6.1c12,0,23-9.8,24.5-21.8
						c0.7-5.7-0.8-11.1-4.3-15.1C1663.7,376.1,1658.7,373.9,1653.1,373.9z"/>
					<path d="M1993.5,1391.5c-0.1,0-0.2,0-0.3,0c-1.2-0.2-2.1-1.3-1.9-2.5l124.6-987.4c2.1-16.4-2.4-31.7-12.5-43.2
						c-10-11.4-24.4-17.6-40.6-17.6h-811.2c-33.8,0-64.8,27.5-69.1,61.4l-19.4,154.1c-0.2,1.2-1.3,2.1-2.5,1.9
						c-1.2-0.2-2.1-1.3-1.9-2.5l19.4-154.1c4.5-36,37.5-65.2,73.5-65.2h811.2c17.5,0,33.1,6.8,43.9,19.1c11,12.5,15.8,29,13.6,46.7
						l-124.6,987.4C1995.6,1390.7,1994.6,1391.5,1993.5,1391.5z"/>
					<path d="M1035.9,2050.3c-17.5,0-33.1-6.8-43.9-19.1c-11-12.5-15.8-29-13.6-46.7l71.4-565.5c0.2-1.2,1.3-2.1,2.5-1.9
						c1.2,0.2,2.1,1.3,1.9,2.5l-71.4,565.5c-2.1,16.4,2.4,31.7,12.5,43.2c10,11.4,24.4,17.6,40.6,17.6l384.8-2.3c0,0,0,0,0,0
						c1.2,0,2.2,1,2.2,2.2c0,1.2-1,2.2-2.2,2.2L1035.9,2050.3z"/>
				</g>
				<g>
					<path d="M1152.9,1689.6c-0.7,0-1.3-0.3-1.8-0.9c-0.7-1-0.6-2.4,0.4-3.1l170.6-131.3c1-0.7,2.4-0.6,3.1,0.4
						c0.7,1,0.6,2.4-0.4,3.1l-170.6,131.3C1153.9,1689.5,1153.4,1689.6,1152.9,1689.6z"/>
					<path d="M1350.9,1537.3c-0.7,0-1.3-0.3-1.8-0.9c-0.7-1-0.6-2.4,0.4-3.1l72.3-55.6c1-0.7,2.4-0.6,3.1,0.4c0.7,1,0.6,2.4-0.4,3.1
						l-72.3,55.6C1351.8,1537.1,1351.3,1537.3,1350.9,1537.3z"/>
					<path d="M1117.5,1804.8c-0.7,0-1.3-0.3-1.8-0.9c-0.7-1-0.6-2.4,0.4-3.1l83-63.9c1-0.7,2.4-0.6,3.1,0.4c0.7,1,0.6,2.4-0.4,3.1
						l-83,63.9C1118.4,1804.7,1117.9,1804.8,1117.5,1804.8z"/>
					<path d="M1239.5,1710.9c-0.7,0-1.3-0.3-1.8-0.9c-0.7-1-0.6-2.4,0.4-3.1l148.2-114.1c1-0.7,2.4-0.6,3.1,0.4
						c0.7,1,0.6,2.4-0.4,3.1l-148.2,114.1C1240.5,1710.8,1240,1710.9,1239.5,1710.9z"/>
					<path d="M1288.1,1796c-0.7,0-1.3-0.3-1.8-0.9c-0.7-1-0.6-2.4,0.4-3.1l123.3-94.9c1-0.7,2.4-0.6,3.1,0.4c0.7,1,0.6,2.4-0.4,3.1
						l-123.3,94.9C1289,1795.8,1288.6,1796,1288.1,1796z"/>
				</g>
			</g>
			<g>
				<path class="st0" d="M1885.8,602.6c46.6,0.1,80.8,37.6,76.2,83.5l-61.2,609.7c-4.6,45.9-46.3,83.1-92.9,83L786.1,1376
					c-46.6-0.1-80.8-37.6-76.2-83.5l61.2-609.7c4.6-45.9,46.3-83.1,92.9-83L1885.8,602.6z"/>
				<path d="M1808.2,1380.9c-0.1,0-0.2,0-0.2,0l-474.6-1.3c-1.2,0-2.2-1-2.2-2.2c0-1.2,1-2.2,2.2-2.2c0,0,0,0,0,0l474.6,1.3
					c0.1,0,0.1,0,0.2,0c45.4,0,86-36.3,90.5-81l61.2-609.7c2.1-21.4-4.3-41.6-18-56.9c-14-15.5-33.9-24.1-56-24.2L864,602.1
					c-0.1,0-0.2,0-0.2,0c-45.4,0-86,36.3-90.5,81l-46.5,463.2c-0.1,1.2-1.2,2.1-2.4,2c-1.2-0.1-2.1-1.2-2-2.4l46.5-463.2
					c4.7-46.9,47.3-85,94.9-85c0.1,0,0.2,0,0.2,0l1021.9,2.7c23.4,0.1,44.4,9.2,59.3,25.6c14.6,16.2,21.4,37.6,19.2,60.3
					l-61.2,609.7C1898.4,1342.9,1855.8,1380.9,1808.2,1380.9z M1233.7,1379.4C1233.7,1379.4,1233.7,1379.4,1233.7,1379.4l-431.9-1.1
					c-1.2,0-2.2-1-2.2-2.2c0-1.2,1-2.2,2.2-2.2c0,0,0,0,0,0l431.9,1.1c1.2,0,2.2,1,2.2,2.2
					C1235.9,1378.4,1234.9,1379.4,1233.7,1379.4z"/>
				<g>
					<path d="M1016.1,749.7h-70.3c-5.4,0-10.3-2.1-13.9-6c-3.7-4-5.4-9.4-4.8-15.2c1.1-11.4,11.1-20.8,22.3-20.8h70.3
						c5.4,0,10.3,2.1,13.9,6c3.7,4,5.4,9.4,4.8,15.2C1037.3,740.4,1027.2,749.7,1016.1,749.7z M949.4,712.2c-9,0-17,7.5-17.9,16.8
						c-0.4,4.5,0.9,8.7,3.7,11.8c2.7,2.9,6.4,4.6,10.6,4.6h70.3c9,0,17-7.5,17.9-16.8c0.4-4.5-0.9-8.7-3.7-11.8
						c-2.7-2.9-6.4-4.6-10.6-4.6H949.4z"/>
					<path d="M1221,1220.6H877.8c-5.4,0-10.3-2.1-13.9-6c-3.7-4-5.4-9.4-4.8-15.2c1.1-11.4,11.1-20.8,22.3-20.8h343.2
						c5.4,0,10.3,2.1,13.9,6c3.7,4,5.4,9.4,4.8,15.2C1242.2,1211.3,1232.2,1220.6,1221,1220.6z M881.5,1183.1c-9,0-17,7.5-17.9,16.8
						c-0.4,4.5,0.9,8.7,3.7,11.8c2.7,2.9,6.4,4.6,10.6,4.6H1221c9,0,17-7.5,17.9-16.8c0.4-4.5-0.9-8.7-3.7-11.8
						c-2.7-2.9-6.4-4.6-10.6-4.6H881.5z"/>
					<path d="M1262.8,1298.2H864c-5.4,0-10.3-2.1-13.9-6c-3.7-4-5.4-9.4-4.8-15.2c1.1-11.4,11.1-20.8,22.3-20.8h398.7
						c5.4,0,10.3,2.1,13.9,6c3.7,4,5.4,9.4,4.8,15.2C1284,1288.9,1274,1298.2,1262.8,1298.2z M867.7,1260.7c-9,0-17,7.5-17.9,16.8
						c-0.4,4.5,0.9,8.7,3.7,11.8c2.7,2.9,6.4,4.6,10.6,4.6h398.7c9,0,17-7.5,17.9-16.8c0.4-4.5-0.9-8.7-3.7-11.8
						c-2.7-2.9-6.4-4.6-10.6-4.6H867.7z"/>
					<path d="M1426.4,749.7h-300.5c-5.4,0-10.3-2.1-13.9-6c-3.7-4-5.4-9.4-4.8-15.2c1.1-11.4,11.1-20.8,22.3-20.8H1430
						c5.4,0,10.3,2.1,13.9,6c3.7,4,5.4,9.4,4.8,15.2C1447.6,740.4,1437.6,749.7,1426.4,749.7z M1129.5,712.2c-9,0-17,7.5-17.9,16.8
						c-0.4,4.5,0.9,8.7,3.7,11.8c2.7,2.9,6.4,4.6,10.6,4.6h300.5c9,0,17-7.5,17.9-16.8c0.4-4.5-0.9-8.7-3.7-11.8
						c-2.7-2.9-6.4-4.6-10.6-4.6H1129.5z"/>
				</g>
				<g>
					<path class="st1" d="M1927.9,1018.5l-1190.8,5.1c-5.6,0-9.9-4.8-9.3-10.3l10.7-96.8c0.4-3.4,3.3-6,6.7-6l1194.4,6.4
						c4.1,0,7.3,3.7,6.8,7.8l-10.8,86.9C1935.2,1015.5,1931.9,1018.5,1927.9,1018.5z"/>
					<path class="st1" d="M1637.1,1383.3h-101.7c-3.7,0-6.5-3.5-6.1-7.8l66.9-773c0.4-4.3,3.7-7.8,7.4-7.8h101.7
						c3.7,0,6.5,3.5,6.1,7.8l-66.9,773C1644.2,1379.8,1640.8,1383.3,1637.1,1383.3z"/>
					<g>
						<g>
							<g>
								<path d="M1682.7,995.6c37.7,88.8,60.5,158.1,65.7,185.3c1.3,6.8-3,14-9.8,16.2c-10.2,3.3-20.4,4.9-30.4,4.9l-50.8-199.5
									L1682.7,995.6z"/>
								<path d="M1708.2,1204.2c-1,0-1.9-0.7-2.1-1.7l-50.8-199.5c-0.3-1.2,0.4-2.4,1.6-2.7l25.4-7c1.1-0.3,2.2,0.2,2.6,1.3
									c37.9,89.2,60.7,158.8,65.8,185.8c1.5,8-3.4,16.2-11.3,18.7C1729.1,1202.4,1718.6,1204.1,1708.2,1204.2
									C1708.2,1204.2,1708.2,1204.2,1708.2,1204.2z M1660,1004.1l49.9,195.7c9.4-0.3,18.8-1.9,28.1-4.8c5.6-1.8,9.4-7.9,8.3-13.6
									c-5.1-26.6-27.5-95.1-64.8-183.1L1660,1004.1z"/>
							</g>
							<g>
								<path class="st0" d="M1673.2,997.3c21.4,134.8,43.2,203.5,60.9,201.2c-73.2,15.5-169.2,11.7-273.1-0.3
									c-9.7-1.1-16-9.9-14.5-20c8.6-56.5,36.4-114,76.1-172.2L1673.2,997.3z"/>
								<path d="M1619.5,1211c-45.3,0-97.7-3.5-158.8-10.6c-5.1-0.6-9.7-3.1-12.7-7.2c-3.3-4.3-4.6-9.7-3.7-15.3
									c8.1-52.9,33.1-109.6,76.5-173.1c0.4-0.6,1-0.9,1.7-1l150.6-8.7c1.1,0,2.1,0.7,2.3,1.9c29.9,188.2,52.3,200.2,58.4,199.4
									c1.2-0.2,2.3,0.6,2.5,1.8c0.2,1.2-0.6,2.3-1.7,2.5C1702,1207.6,1664.2,1211,1619.5,1211z M1523.7,1008.2
									c-42.6,62.6-67.2,118.4-75.1,170.4c-0.7,4.4,0.3,8.7,2.9,12c2.3,3.1,5.8,5,9.7,5.5c116.3,13.5,200.9,14.1,265,1.9
									c-21.8-17.9-41.5-114.5-54.9-198.2L1523.7,1008.2z"/>
							</g>
							<path d="M1627.2,1069.3C1627.2,1069.3,1627.2,1069.3,1627.2,1069.3c-1.2,0-2.2-1-2.2-2.2l0.6-58.2c0-1.2,1-2.2,2.2-2.2
								c0,0,0,0,0,0c1.2,0,2.2,1,2.2,2.2l-0.6,58.2C1629.4,1068.3,1628.4,1069.3,1627.2,1069.3z"/>
							<path d="M1551.6,1065.2c-0.2,0-0.5,0-0.7-0.1c-1.2-0.4-1.8-1.6-1.4-2.8l17.8-54.1c0.4-1.2,1.6-1.8,2.8-1.4
								c1.2,0.4,1.8,1.6,1.4,2.8l-17.8,54.1C1553.4,1064.7,1552.5,1065.2,1551.6,1065.2z"/>
						</g>
						<g>
							<g>
								<path d="M1686.6,933.6c50.5-90.6,83.4-161,92.7-188.6c2.3-6.8-0.8-13.9-7.1-15.8c-9.5-2.9-19.2-4-29-3.7l-80.4,202.2
									L1686.6,933.6z"/>
								<path d="M1686.6,935.9c-0.2,0-0.4,0-0.5-0.1l-23.7-6c-0.6-0.2-1.1-0.6-1.4-1.1c-0.3-0.6-0.3-1.2-0.1-1.8l80.4-202.2
									c0.3-0.8,1.1-1.4,2-1.4c10.2-0.3,20.2,1,29.7,3.8c3.4,1,6.1,3.3,7.8,6.5c1.9,3.6,2.1,8,0.7,12.1
									c-9.2,27.3-42.2,98-92.9,188.9C1688.1,935.4,1687.4,935.9,1686.6,935.9z M1665.8,926.1l19.6,4.9
									c50.1-90,82.7-159.8,91.7-186.7c1-3,0.8-6.1-0.5-8.7c-1.1-2.1-2.9-3.6-5.1-4.3c-8.6-2.6-17.6-3.9-26.8-3.7L1665.8,926.1z"/>
							</g>
							<g>
								<path class="st0" d="M1677.5,932.3c41.7-136.1,73.6-205.9,90.5-204.3c-69.2-12.6-163.6-4.9-267,11.4
									c-9.6,1.5-17.2,10.6-17.3,20.6c-0.3,56.3,18,112.9,47.9,169.7L1677.5,932.3z"/>
								<path d="M1677.5,934.5C1677.5,934.5,1677.5,934.5,1677.5,934.5l-146-2.7c-0.8,0-1.5-0.5-1.9-1.2
									c-32.6-62.1-48.4-117.9-48.1-170.7c0.1-11.1,8.5-21.1,19.1-22.8c120.8-19,205.9-22.7,267.8-11.4c1.2,0.2,2,1.3,1.8,2.5
									c-0.2,1.2-1.2,2.1-2.4,1.9c-5.8-0.6-29.8,12.3-88.2,202.8C1679.4,933.9,1678.5,934.5,1677.5,934.5z M1533,927.4l142.9,2.6
									c26-84.6,60.2-182.6,84.1-201.2c-60.7-9.6-143.3-5.5-258.7,12.7c-8.6,1.4-15.3,9.5-15.4,18.4
									C1485.7,811.7,1501.1,866.5,1533,927.4z"/>
							</g>
							<path d="M1634.9,924.7c-0.1,0-0.2,0-0.3,0c-1.2-0.2-2.1-1.3-1.9-2.5l8.4-58.3c0.2-1.2,1.3-2.1,2.5-1.9
								c1.2,0.2,2.1,1.3,1.9,2.5l-8.4,58.3C1637,923.9,1636,924.7,1634.9,924.7z"/>
							<path d="M1577.8,927c-1.1,0-2-0.8-2.2-1.8l-9.1-53.5c-0.2-1.2,0.6-2.3,1.8-2.6c1.2-0.2,2.4,0.6,2.6,1.8l9.1,53.5
								c0.2,1.2-0.6,2.4-1.8,2.6C1578.1,927,1577.9,927,1577.8,927z"/>
						</g>
						<g>
							<path class="st0" d="M1542.8,925.8h135.1c8.3,0,14.3,6.9,13.5,15.4l-5,51.2c-0.8,8.5-8.2,15.4-16.5,15.4h-135.1
								c-8.3,0-14.3-6.9-13.5-15.4l5-51.2C1527.2,932.7,1534.5,925.8,1542.8,925.8z"/>
							<path d="M1669.9,1010h-135.1c-4.6,0-8.7-1.8-11.7-5.1c-3.1-3.4-4.5-7.9-4-12.7l5-51.2c0.9-9.6,9.3-17.4,18.7-17.4h135.1
								c4.6,0,8.7,1.8,11.7,5.1c3.1,3.4,4.5,7.9,4,12.7l-5,51.2C1687.7,1002.2,1679.3,1010,1669.9,1010z M1542.8,928
								c-7.2,0-13.6,6-14.3,13.4l-5,51.2c-0.3,3.6,0.7,6.9,2.9,9.3c2.1,2.3,5.1,3.6,8.4,3.6h135.1c7.2,0,13.6-6,14.3-13.4l5-51.2
								c0.3-3.6-0.7-6.9-2.9-9.3c-2.1-2.3-5.1-3.6-8.4-3.6H1542.8z"/>
						</g>
					</g>
				</g>
			</g>
		</g>
		<g>
			<g>
				<g>
					<g>
						<polygon class="st0" points="455.7,2000.7 426.4,2097.2 383.4,2084.9 414.7,1983.4 						"/>
						<path d="M426.4,2099.5c-0.2,0-0.4,0-0.6-0.1l-42.9-12.4c-0.6-0.2-1.1-0.6-1.3-1.1c-0.3-0.5-0.3-1.1-0.2-1.7l31.2-101.5
							c0.2-0.6,0.6-1.1,1.2-1.4c0.6-0.3,1.2-0.3,1.8,0l41.1,17.3c1,0.4,1.6,1.6,1.3,2.7l-29.4,96.6
							C428.2,2098.8,427.3,2099.5,426.4,2099.5z M386.2,2083.4l38.7,11.1l28.1-92.6l-37-15.6L386.2,2083.4z"/>
					</g>
					<g>
						<path class="st0" d="M430.3,2082.7l-42.8-13.6c-3-1-6.3,0-8.4,2.4c-6.7,8-21.3,27.1-26.7,47.9c-1.5,5.7,1.8,11.5,7.4,13.3
							l60.8,19.3c13.4,4.2,27.1,7,41.1,8.3c0,0,45,4.7,45.5-9.6c0.8-20.6-29.5-24.7-33.6-28.8c-15.6-15.9-31.8-30.8-37.8-36.2
							C434.2,2084.4,432.3,2083.3,430.3,2082.7z"/>
						<path d="M477.5,2163.4c-7.9,0-14.5-0.7-16.1-0.8c-14.1-1.3-28-4.1-41.5-8.4l-60.8-19.3c-6.7-2.1-10.6-9.2-8.8-16
							c5.6-21.5,20.9-41.3,27.2-48.8c2.6-3.1,6.9-4.4,10.8-3.1l42.8,13.6c2.3,0.7,4.4,1.9,6.2,3.6c6.2,5.6,22.4,20.4,37.9,36.3
							c0.7,0.7,3.9,2,6.8,3c10.5,4,28.1,10.7,27.5,27.4c-0.1,2.5-1.2,4.7-3.2,6.5C500.5,2162.2,487.9,2163.4,477.5,2163.4z
							 M385.1,2070.9c-1.6,0-3.2,0.7-4.3,2c-6.1,7.3-20.9,26.5-26.3,47.1c-1.2,4.5,1.4,9.2,5.9,10.6l60.8,19.3
							c13.2,4.2,26.9,6.9,40.6,8.2c9.1,1,34.2,2.1,41.3-4.2c1.1-1,1.7-2,1.7-3.3c0.5-13.6-14.6-19.3-24.6-23.1
							c-4-1.5-6.9-2.6-8.4-4.1c-15.4-15.8-31.5-30.5-37.7-36.1c-1.3-1.2-2.9-2.1-4.6-2.6l-42.8-13.6
							C386.3,2071,385.7,2070.9,385.1,2070.9z"/>
					</g>
					<path d="M428.4,2125.1c-0.6,0-1.3-0.3-1.7-0.8c-0.8-1-0.6-2.3,0.3-3.1l25.2-20.2c1-0.8,2.3-0.6,3.1,0.3c0.8,1,0.6,2.3-0.3,3.1
						l-25.2,20.2C429.4,2124.9,428.9,2125.1,428.4,2125.1z"/>
					<path d="M441.9,2140.1c-0.6,0-1.3-0.3-1.7-0.8c-0.8-1-0.6-2.4,0.3-3.1l25.2-20.2c1-0.8,2.3-0.6,3.1,0.3c0.8,1,0.6,2.4-0.3,3.1
						l-25.2,20.2C442.8,2139.9,442.4,2140.1,441.9,2140.1z"/>
				</g>
				<g>
					<g>
						<polygon class="st0" points="698.8,2024.9 696.7,2093.8 648.2,2093.8 651.6,2021.8 						"/>
						<path d="M696.7,2096C696.7,2096,696.7,2096,696.7,2096l-48.5,0c-0.6,0-1.2-0.2-1.6-0.7c-0.4-0.4-0.6-1-0.6-1.6l3.4-72
							c0-0.6,0.3-1.2,0.7-1.5c0.4-0.4,1-0.6,1.6-0.6l47.2,3.1c1.2,0.1,2.1,1.1,2.1,2.3l-2,68.9C698.9,2095.1,697.9,2096,696.7,2096z
							 M650.5,2091.6l44.1,0l1.9-64.6l-42.8-2.8L650.5,2091.6z"/>
					</g>
					<g>
						<path class="st0" d="M694.8,2092.8l-45.1,0c-3.2,0-6.1,1.9-7.3,4.9c-4,9.8-12.1,32.7-11.1,54.5c0.3,5.9,5.2,10.6,11.1,10.6
							l132.2,0.1c6.1,0,10.7-5.6,9.5-11.6c-1.5-7.2-6.5-16.7-21-25.2c-23.5-13.8-53-27.6-62.3-31.9
							C699,2093.2,696.9,2092.8,694.8,2092.8z"/>
						<path d="M774.7,2165C774.7,2165,774.7,2165,774.7,2165l-132.2-0.1c-7.1,0-12.9-5.6-13.3-12.7c-1.1-22.4,7.5-46.2,11.2-55.4
							c1.6-3.8,5.2-6.3,9.3-6.3c0,0,0,0,0,0l45.1,0c2.4,0,4.8,0.5,7.1,1.5c8.7,4,38.7,18,62.5,32c15.6,9.2,20.6,19.6,22,26.7
							c0.7,3.5-0.2,7.1-2.5,9.9C781.6,2163.4,778.3,2165,774.7,2165z M649.7,2095c-2.3,0-4.4,1.4-5.2,3.5c-3.6,8.9-12,32-10.9,53.5
							c0.2,4.8,4.1,8.5,8.9,8.5l132.2,0.1c0,0,0,0,0,0c2.2,0,4.3-1,5.8-2.7c1.4-1.7,2-4,1.5-6.2c-1.8-8.9-8.7-17.1-19.9-23.7
							c-23.6-13.9-53.5-27.8-62.1-31.8c-1.7-0.8-3.4-1.1-5.2-1.1L649.7,2095C649.7,2095,649.7,2095,649.7,2095z"/>
					</g>
					<path d="M705.2,2134.4c-0.4,0-0.8-0.1-1.2-0.4c-1-0.7-1.3-2-0.6-3.1l18-27.2c0.7-1,2.1-1.3,3.1-0.6c1,0.7,1.3,2,0.6,3.1
						l-18,27.2C706.6,2134,705.9,2134.4,705.2,2134.4z"/>
					<path d="M722.6,2144.8c-0.4,0-0.8-0.1-1.2-0.4c-1-0.7-1.3-2-0.6-3.1l18-27.2c0.7-1,2.1-1.3,3.1-0.6c1,0.7,1.3,2,0.6,3.1
						l-18,27.2C724,2144.4,723.3,2144.8,722.6,2144.8z"/>
				</g>
				<g>
					<path class="st1" d="M495.3,1438.4c0,0-22.2,55.3-26.5,112c-4.3,56.7-63.2,399-80.8,485.2c0,0,39.5,22.1,62,18.5
						c0,0,127.2-253.3,147.9-442.1c20.7-188.7,14.7-173.6,14.7-173.6L495.3,1438.4z"/>
					<path class="st1" d="M534.4,1459.6c0,0-7.1,102.2,28.3,174.5s78,353.2,75.1,424.7c0,0,44.9,11.9,66.2,3.5
						c0,0,64.5-405-17.6-604.1L534.4,1459.6z"/>
					<path class="st0" d="M584.3,1712.9c-1,0-2-0.7-2.2-1.8c-0.1-0.3-5.6-29.7-19-53.4c-20.2-35.6-27.7-79.9-27.8-80.3
						c-0.2-1.2,0.6-2.3,1.8-2.6c1.2-0.2,2.4,0.6,2.6,1.8c0.1,0.4,7.5,44,27.3,78.9c13.7,24.3,19.3,53.5,19.5,54.8
						c0.2,1.2-0.6,2.4-1.8,2.6C584.6,1712.8,584.4,1712.9,584.3,1712.9z"/>
				</g>
			</g>
			<g>
				<g>
					<g>
						<path class="st0" d="M537.9,1210.4l-21.1-23.4c-9.1-23.2-34.4-43.3-55.7-56.4c-88.3-54-75.9-156.4-76.4-197.9l-33.6,5.2
							c0,0-82.7,215.1,120.9,318L537.9,1210.4z"/>
						<path d="M472,1258.2c-0.3,0-0.7-0.1-1-0.2c-106.1-53.6-133.6-138-138-199.4c-4.8-66.4,15.8-120.8,16-121.4
							c0.3-0.7,0.9-1.3,1.7-1.4l33.6-5.2c0.6-0.1,1.3,0.1,1.8,0.5c0.5,0.4,0.8,1,0.8,1.7c0.1,4.4,0,9.4-0.1,15.2
							c-0.8,46.6-2.4,133.3,75.5,180.8c16.7,10.2,46.1,31.1,56.5,57.1l20.8,23.1c0.4,0.5,0.6,1.1,0.6,1.7c-0.1,0.6-0.4,1.2-0.9,1.6
							l-65.9,45.5C472.9,1258,472.5,1258.2,472,1258.2z M352.7,940c-2.9,8.3-19.6,58.4-15.3,118.4c4.3,59.9,31.2,142.3,134.4,195
							l62.8-43.3l-19.4-21.5c-0.2-0.2-0.3-0.4-0.4-0.7c-9.8-24.9-38.5-45.3-54.8-55.3c-80-48.9-78.4-137.2-77.6-184.7
							c0.1-4.6,0.2-8.8,0.2-12.5L352.7,940z"/>
					</g>
					<g>
						<path class="st0" d="M362.9,942.1c-1.9-0.6-3.9-1.4-5.8-2.6c-9.6-5.5-22-23.3-17-34.8c7.1-16.5,45.2-13.1,52.3,1.6
							C401,924.1,382.1,948.1,362.9,942.1z"/>
						<path d="M369,945.3c-2.3,0-4.5-0.3-6.7-1c-2.1-0.7-4.2-1.6-6.3-2.8c-10.7-6.2-23.3-25.2-17.9-37.6c3.2-7.4,12.3-12,24.4-12.3
							c12.4-0.2,27.4,4.4,31.9,13.8c4.5,9.3,2.5,21.1-5.2,30C383.6,941.7,376.3,945.3,369,945.3z M363.5,940
							c9.1,2.9,17.5-2,22.2-7.6c6.5-7.6,8.3-17.4,4.6-25.1c-3.3-6.7-15.2-11.6-27.9-11.3c-10.3,0.2-17.9,3.8-20.4,9.6
							c-4.3,9.9,6.8,26.7,16.1,32C359.9,938.6,361.7,939.4,363.5,940z"/>
					</g>
				</g>
				<g>
					<g>
						<path class="st0" d="M873.4,1138.2c92.1,60.1,40,249.2-102.4,183.2l-9.4-95.8c123.1,53.1,114.6-19.7,82.7-98.2L873.4,1138.2z"
							/>
						<path d="M827.1,1337.4c-17.7,0-36.8-4.7-57-14.1c-0.7-0.3-1.2-1-1.3-1.8l-9.4-95.8c-0.1-0.8,0.3-1.5,0.9-2
							c0.6-0.5,1.5-0.6,2.2-0.2c46.5,20,77,23.3,90.9,9.8c15-14.7,11.2-50-11.2-105c-0.3-0.8-0.2-1.7,0.5-2.4
							c0.6-0.6,1.5-0.8,2.4-0.5l29.1,10.8c0.2,0.1,0.3,0.1,0.4,0.2c51.3,33.5,58,106.3,32,153.1c-12.1,21.8-30.1,37-51.9,43.8
							C845.9,1336,836.7,1337.4,827.1,1337.4z M773.1,1319.8c55.8,25.4,104.2,13.3,129.6-32.5c25-45.1,18.8-114.9-30.3-147.2
							l-24.2-9c21.8,54.9,24.5,89.4,8.3,105.2c-15.1,14.8-45.3,12.4-92.3-7.4L773.1,1319.8z"/>
					</g>
					<g>
						<path class="st0" d="M853.2,1139.4c-2.1-0.6-4.2-1.6-6.4-2.8c-10.5-6.1-24.1-25.5-18.6-38.2c7.8-18.1,49.5-14.3,57.3,1.8
							C894.9,1119.7,874.3,1146,853.2,1139.4z"/>
						<path d="M859.9,1142.7c-2.5,0-4.9-0.4-7.3-1.1c-2.3-0.7-4.6-1.7-6.8-3c-11.7-6.8-25.4-27.4-19.5-40.9
							c3.5-8.1,13.4-13.1,26.5-13.4c13.5-0.4,29.8,4.8,34.8,15c4.9,10.1,2.7,22.9-5.7,32.6C875.8,1138.8,867.8,1142.7,859.9,1142.7z
							 M853.9,1088.6c-0.4,0-0.8,0-1.1,0c-11.3,0.3-19.8,4.2-22.5,10.7c-4.7,10.9,7.5,29.5,17.7,35.4c2,1.1,4,2,5.9,2.6c0,0,0,0,0,0
							c10.1,3.2,19.3-2.3,24.6-8.4c7.2-8.4,9.2-19.3,5-27.8C880,1093.9,867.4,1088.6,853.9,1088.6z"/>
					</g>
				</g>
				<g>
					<path class="st0" d="M783.3,1227.9c-0.1-2.6-1.3-4.9-3.3-6.5c-7.1-5.8-33-18.7-55.3-31.5c-24.6-14.1-46.4-22.9-74.7-22.5
						l-95.9-5.2c-26.7-0.1-42.1-5.1-64.3-18.3c-26-15.4-42.4-37.1-48.9-44.2c-1.2-1.3-3.3-1-4.1,0.6L381,1207.1
						c0,0,43.2,39.5,100.2,83.3c1.8,1.4,4.2,45,4,47.3l-17.9,162.7c-1.5,11.3,251.5,29.5,250.8,17.7c-2.4-38-15.7-69.5-10.1-189.1
						c0.2-4.3,4.1-7.4,8.3-6.6c12.1,2.4,36.6,7,61.3,11.2c5.7,1,10.7-3.6,10.5-9.3L783.3,1227.9z"/>
					<path d="M684.5,1523.8c-65.9,0-204.1-11.4-217.5-20.4c-1.8-1.2-2-2.6-1.9-3.5l17.8-162.6c0.3-3.5-2.1-40.9-3.5-45.6
						c-56.2-43.3-99.5-82.7-99.9-83.1c-0.7-0.7-0.9-1.8-0.5-2.7l55.9-106.9c0.7-1.4,2.1-2.3,3.6-2.5c1.5-0.2,3.1,0.4,4.1,1.5
						c1,1.1,2.2,2.5,3.6,4.1c8,9.4,23,26.8,44.8,39.7c23.1,13.7,37.8,17.9,63.2,18l96,5.2c29-0.5,51.3,8.9,75.7,22.8
						c8.2,4.7,16.7,9.3,24.9,13.7c14,7.6,26,14.1,30.7,17.9c2.5,2,4,5,4.1,8.1l4.7,96.4c0.2,3.4-1.2,6.7-3.8,8.9
						c-2.6,2.3-5.9,3.2-9.3,2.7c-24.8-4.2-49-8.8-61.3-11.2c-1.4-0.3-2.7,0.1-3.9,0.9c-1.1,0.9-1.8,2.2-1.8,3.6
						c-4.1,86.8,1.9,127.5,6.3,157.2c1.7,11.4,3.1,21.2,3.8,31.6c0,0.7-0.1,2.2-2,3.2C714.9,1523,702.3,1523.8,684.5,1523.8z
						 M469.5,1499.9c5.2,3.8,49.2,10.4,122.7,15.7c73.3,5.2,117.7,4.9,123.6,1.8c-0.7-10-2.1-19.5-3.7-30.5
						c-4.4-29.9-10.4-70.8-6.3-158.1c0.1-2.7,1.4-5.2,3.5-6.9c2.1-1.7,4.8-2.3,7.4-1.8c12.2,2.4,36.5,7,61.2,11.2
						c2,0.3,4.1-0.2,5.6-1.6c1.5-1.4,2.4-3.3,2.3-5.4l-4.7-96.4c-0.1-1.9-1-3.7-2.5-4.9c-4.4-3.5-16.3-10-30-17.5
						c-8.2-4.5-16.8-9.1-25-13.8c-23.3-13.4-44.6-22.3-72-22.3c-0.5,0-1,0-1.6,0l-96-5.2c-25.8-0.1-41.7-4.6-65.3-18.6
						c-22.4-13.3-37.7-31.1-45.9-40.6c-1.4-1.6-2.5-3-3.5-4c0,0-0.1-0.1-0.3-0.1c-0.1,0-0.2,0.1-0.3,0.2l-55.1,105.4
						c7.5,6.8,47.9,42.9,98.8,82c3.4,2.6,4.9,48.9,4.8,49.3L469.5,1499.9z M469.5,1500.5L469.5,1500.5
						C469.5,1500.5,469.5,1500.5,469.5,1500.5z"/>
				</g>
			</g>
			<g>
				<g>
					<path class="st0" d="M578.3,1094.7l-7.8,76.9c-1.1,9.4,6.1,17.8,15.5,18.1l22.9,0.9c9.3,0.4,17-7.1,16.9-16.4l-0.6-73.4
						L578.3,1094.7z"/>
					<path d="M609.7,1192.9c-0.2,0-0.5,0-0.7,0L586,1192c-5.1-0.2-10-2.5-13.3-6.4c-3.3-3.9-4.9-9.1-4.3-14.2l7.8-76.9
						c0.1-0.6,0.4-1.1,0.8-1.5c0.5-0.4,1.1-0.5,1.7-0.5l47,6.1c1.1,0.1,1.9,1.1,1.9,2.2l0.6,73.4c0,5.1-2,9.9-5.6,13.4
						C619,1191,614.5,1192.9,609.7,1192.9z M580.3,1097.2l-7.5,74.6c-0.5,4,0.7,7.8,3.3,10.8c2.6,3,6.2,4.7,10.1,4.9l22.9,0.9
						c3.9,0.2,7.5-1.3,10.3-4c2.8-2.7,4.3-6.3,4.3-10.2l-0.5-71.5L580.3,1097.2z"/>
				</g>
				<path d="M615.3,1000.1c-18.4,2.5-20.9,23.3-43,25.7c-10.1,1.1-15.2-2.6-24.1,1.7c-5.9,2.8-14.5,9.7-15.4,18.8
					c-1.1,11.5,11.5,14,24.4,36.3c9.1,15.6,9.6,26.1,16.8,27.2c7.3,1.1,10.6-8.9,18.6-8.3c10.4,0.8,11.8,18.3,22.8,23.5
					c6.9,3.3,21.5,2.6,42-12.8c3.3-2.5,4.4-7,2.6-10.7c-2.4-4.8-5.4-10.8-8.8-16.3c-16.1-26.2-27.5-30.6-25.2-38.7
					c3.4-12.3,26-10,27.8-19.9C655.8,1016.2,634.3,997.5,615.3,1000.1z"/>
				<g>
					<path class="st0" d="M590,1050.2c0,0,16.2,34,22.4,42.5c6.2,8.5,34-8.8,34-8.8l0.7-6.1l3.3-2.2c1-0.7,1.7-1.8,1.8-3
						c0.1-1.2-0.3-2.4-1.2-3.3c-6.7-6.6-20.9-21.7-27.8-36.4C623.2,1033,604.4,1028.2,590,1050.2z"/>
					<path d="M618.3,1097.3c-3.2,0-6-0.9-7.7-3.2c-6.3-8.6-22-41.5-22.6-42.9c-0.3-0.7-0.3-1.5,0.1-2.2
						c15.1-23.1,34.8-18.4,35.6-18.2c0.6,0.2,1.2,0.6,1.5,1.2c6.9,14.6,21.4,29.9,27.4,35.8c1.4,1.3,2,3.2,1.8,5.1
						c-0.2,1.9-1.2,3.6-2.8,4.6l-2.4,1.6l-0.6,5.1c-0.1,0.7-0.5,1.3-1,1.6C643.8,1088.2,628.5,1097.3,618.3,1097.3z M592.5,1050.4
						c2.9,6,16.3,33.7,21.6,41c3.3,4.5,19.6-2.4,30.1-8.8l0.6-5.1c0.1-0.7,0.4-1.2,1-1.6l3.3-2.2c0.5-0.3,0.8-0.8,0.8-1.4
						c0.1-0.6-0.1-1.1-0.5-1.5c-7.4-7.4-20.7-21.7-27.8-36C617.9,1034.4,604.1,1033.6,592.5,1050.4z"/>
				</g>
				<path class="st0" d="M595.8,1077.9c0,0-12.8-15.6-18.7-8.3C571.3,1076.9,585.8,1093.7,595.8,1077.9z"/>
			</g>
		</g>
		<g>
			<g>
				<g>
					<path class="st0" d="M2094.7,1643.7l-306.5,81.8l-305.6-82.1c-0.6-0.2-0.6-1,0-1.1l309.2-82.6l302.9,83.2
						C2095.1,1643,2095.1,1643.6,2094.7,1643.7z"/>
					<path d="M1788.1,1727.7c-0.2,0-0.4,0-0.6-0.1l-305.6-82.1c-1.2-0.3-2.1-1.4-2.1-2.7c0-1.3,0.9-2.4,2.1-2.7l309.2-82.6
						c0.4-0.1,0.8-0.1,1.2,0l302.9,83.2c1.2,0.3,2,1.4,2,2.6c0,1.2-0.8,2.2-2,2.6l-306.5,81.8
						C1788.5,1727.7,1788.3,1727.7,1788.1,1727.7z M1489,1642.8l299.2,80.4l299.6-79.9l-296-81.4L1489,1642.8z M2094.7,1643.7
						L2094.7,1643.7L2094.7,1643.7z M1483.1,1641.2L1483.1,1641.2C1483.1,1641.2,1483.1,1641.2,1483.1,1641.2z"/>
				</g>
				<g>
					<polygon class="st0" points="1787.9,2160.6 1788.2,1724.8 2097.5,1643 2097.2,2076.9 					"/>
					<polygon class="st1" points="1913.9,2128.7 1914.2,1692.9 1999.3,1670 1999,2103.9 					"/>
					<path d="M1787.9,2162.8c-0.5,0-1-0.2-1.3-0.5c-0.5-0.4-0.9-1.1-0.9-1.8l0.3-435.8c0-1,0.7-1.9,1.6-2.1l309.3-81.8
						c0.7-0.2,1.4,0,1.9,0.4c0.5,0.4,0.9,1.1,0.9,1.8l-0.3,433.9c0,1-0.7,1.9-1.6,2.1l-309.3,83.7
						C1788.3,2162.8,1788.1,2162.8,1787.9,2162.8z M1790.4,1726.5l-0.3,431.2l304.9-82.5l0.3-429.3L1790.4,1726.5z"/>
				</g>
				<g>
					<polygon class="st0" points="1787.9,2160.6 1788.2,1724.8 1481.7,1642.5 1481.4,2076.9 					"/>
					<polygon class="st1" points="1577,1666.8 1576.8,2100.1 1658.6,2125.6 1658.9,1692.1 					"/>
					<path d="M1783.4,2161.5c-0.6,0-1.2-0.1-1.8-0.2l-300.9-82.2c-1-0.3-1.6-1.1-1.6-2.1l0.3-431.8c0-1.3,0.6-2.5,1.7-3.3
						c1-0.8,2.4-1.1,3.7-0.7l304,81.6c1,0.3,1.6,1.1,1.6,2.1l-0.3,430c0,2.1-1,4-2.6,5.3C1786.3,2161,1784.9,2161.5,1783.4,2161.5z
						 M1483.6,2075.2l299.2,81.7c0.7,0.2,1.4,0,2-0.4c0.6-0.4,0.9-1.1,0.9-1.8l0.3-428.3l-302.1-81.1L1483.6,2075.2z M1787.9,2154.7
						L1787.9,2154.7L1787.9,2154.7z"/>
				</g>
			</g>
			<g>
				<g>
					<path class="st0" d="M1578.3,1725l60.9-21.1c5.7-2,11.5,3,10.3,8.9l-9.2,48.3c-1.5,7.8,8.1,12.6,13.5,6.9l100.6-108
						c4.1-4.4,2-11.5-3.7-13l-82-21.8c-2.6-0.7-5.4,0-7.4,1.9l-90.9,84.8C1564.1,1717.6,1570.2,1727.8,1578.3,1725z"/>
					<path d="M1648.1,1772.7c-1.6,0-3.1-0.4-4.6-1.1c-4.1-2.1-6.2-6.4-5.4-10.9l9.2-48.3c0.4-2-0.3-4-1.9-5.4
						c-1.5-1.3-3.6-1.7-5.6-1.1l-60.9,21.1c-5.3,1.9-9.9-0.8-12-4.3c-2.1-3.5-2.4-8.7,1.8-12.6l90.9-84.8c2.6-2.4,6.1-3.3,9.5-2.4
						l82,21.8c3.5,0.9,6.1,3.5,7.1,7c1,3.4,0.1,7.1-2.3,9.7l-100.6,108C1653.4,1771.6,1650.8,1772.7,1648.1,1772.7z M1641.8,1701.2
						c2.4,0,4.7,0.8,6.6,2.5c2.8,2.4,4,6,3.3,9.5l-9.2,48.3c-0.6,3.1,1.2,5.2,3,6.1s4.6,1.1,6.7-1.2l100.6-108
						c1.4-1.5,1.9-3.5,1.3-5.4c-0.6-1.9-2-3.4-4-3.9l-82-21.8c-1.9-0.5-3.9,0-5.3,1.3l-90.9,84.8c-2.5,2.3-2.1,5.3-1,7.1
						c1.1,1.8,3.5,3.5,6.7,2.4l60.9-21.1C1639.6,1701.4,1640.7,1701.2,1641.8,1701.2z M1578.3,1725L1578.3,1725L1578.3,1725z"/>
				</g>
				<g>
					<path class="st0" d="M1894.5,1484.5l-60.4,36.7c-4.3,2.6-9.7-0.6-9.6-5.6l2.1-64.7c0.2-6.6-8.6-9.1-11.8-3.3l-81.8,146.9
						c-1.8,3.2-0.5,7.2,2.9,8.8l72.8,33.8c2.9,1.4,6.4,0.3,8-2.4l86.5-141.5C1906.6,1487.5,1900.2,1481.1,1894.5,1484.5z"/>
					<path d="M1811.3,1640c-1.2,0-2.4-0.3-3.6-0.8l-72.8-33.8c-2.1-1-3.8-2.9-4.5-5.1c-0.7-2.2-0.5-4.7,0.7-6.8l81.8-146.9
						c2-3.5,5.9-5.1,9.7-4.1c3.9,1.1,6.4,4.5,6.2,8.5l-2.1,64.7c0,1.5,0.7,2.9,2,3.7c1.3,0.8,2.9,0.8,4.2,0l60.4-36.7
						c3.4-2.1,7.6-1.6,10.5,1.3c2.8,2.8,3.3,7,1.2,10.5l-86.5,141.5C1816.9,1638.5,1814.1,1640,1811.3,1640z M1820.2,1446.6
						c-1.3,0-2.6,0.6-3.5,2.1l-81.8,146.9c-0.6,1-0.7,2.2-0.3,3.3c0.4,1.1,1.1,2,2.2,2.4l72.8,33.8c1.9,0.9,4.1,0.2,5.2-1.6
						l86.5-141.5c1.2-2,0.5-3.9-0.6-5c-1.1-1.1-3-1.8-5-0.6c0,0,0,0,0,0l-60.4,36.7c-2.7,1.7-6,1.7-8.7,0.1
						c-2.7-1.6-4.3-4.5-4.2-7.6l2.1-64.7c0.1-2.4-1.5-3.7-3-4.1C1821,1446.7,1820.6,1446.6,1820.2,1446.6z M1894.5,1484.5
						L1894.5,1484.5L1894.5,1484.5z"/>
				</g>
				<g>
					<g>
						<path class="st0" d="M1740.1,1653.3l49.7-41.3c0,0-22.3-116.4-117.4-133.1c-36.5-6.4-76.2,6.5-111.2,62
							C1533.3,1585.1,1586.7,1635.9,1740.1,1653.3z"/>
						<path d="M1740.1,1655.5c-0.1,0-0.2,0-0.2,0c-99.6-11.3-166.6-38.3-183.7-74.1c-6.5-13.6-5.4-28.1,3.2-41.8
							c31.2-49.5,69.4-70.7,113.5-63c95.6,16.8,119,133.7,119.2,134.9c0.2,0.8-0.1,1.6-0.8,2.1l-49.7,41.3
							C1741.1,1655.4,1740.6,1655.5,1740.1,1655.5z M1655.5,1479.6c-35.2,0-66.3,20.9-92.5,62.4c-7.9,12.5-8.9,25.1-2.9,37.5
							c16.5,34.3,81.8,60.3,179.3,71.5l47.9-39.8c-2.8-12.6-28.1-114.8-115.4-130.1C1666.4,1480.1,1660.9,1479.6,1655.5,1479.6z"/>
					</g>
					<g>
						<path class="st0" d="M1740.1,1653.3c0,0-16.4-104.3-109-126C1538.4,1505.6,1488.7,1624.8,1740.1,1653.3z"/>
						<path d="M1740.1,1655.5c-0.1,0-0.2,0-0.2,0c-144.7-16.4-176.7-60.1-183.7-78.2c-5.2-13.2-3-26.2,6-36.6
							c13.9-16,41.2-22.1,69.4-15.5c93,21.8,110.5,126.7,110.7,127.8c0.1,0.7-0.1,1.4-0.6,1.9
							C1741.3,1655.3,1740.7,1655.5,1740.1,1655.5z M1609.2,1527c-18.3,0-34.4,5.9-43.7,16.6c-7.9,9.1-9.8,20.5-5.3,32.1
							c4.3,11,16.4,27.5,49.6,43.2c31.4,14.9,74.3,25.6,127.5,31.8c-3.5-16.9-25.3-102.2-106.8-121.3
							C1623.3,1527.8,1616.1,1527,1609.2,1527z"/>
					</g>
				</g>
				<g>
					<g>
						<path class="st0" d="M1740.6,1651.6l56.4-53.6c0,0,68.9-72.9,138.7-41.9c40.5,18,54.3,57,58.1,90.5c0,0.3,0.1,0.6,0.1,0.9
							c2.4,23.4-12.4,45.2-34.8,52.4l-66.9,21.6C1892.2,1721.5,1827.5,1732.6,1740.6,1651.6z"/>
						<path d="M1883.1,1724.3c-21.2,0-75.6-7.3-144-71.1c-0.4-0.4-0.7-1-0.7-1.6c0-0.6,0.2-1.2,0.7-1.6l56.4-53.6
							c0.6-0.7,70.7-73.6,141.1-42.3c42.5,18.9,55.8,60.6,59.4,92.2l0.1,1c2.5,24.1-12.8,47.2-36.3,54.8l-66.9,21.6
							c-0.1,0-0.2,0.1-0.3,0.1C1892,1723.8,1888.7,1724.3,1883.1,1724.3z M1743.9,1651.6c82.1,75.7,144.5,68.3,147.9,67.8l66.7-21.5
							c21.5-6.9,35.5-28,33.2-50.1l-0.1-0.9c-3.5-30.5-16.1-70.6-56.8-88.7c-67.5-30-135.5,40.6-136.2,41.4L1743.9,1651.6z"/>
					</g>
					<g>
						<path class="st0" d="M1740.6,1651.6c0,0,72-70.1,143.8-29.5C1981.7,1677.2,1906.5,1796.9,1740.6,1651.6z"/>
						<path d="M1878,1723.2c-37.4,0-87.1-24.7-138.8-70c-0.5-0.4-0.7-1-0.8-1.6c0-0.6,0.2-1.2,0.7-1.6c0.7-0.7,74-70.8,146.4-29.8
							c29.1,16.5,45.6,40.2,44.2,63.4c-0.9,15.7-10.3,28.4-25.8,34.9C1896.2,1721.7,1887.5,1723.2,1878,1723.2z M1744,1651.5
							c93,80.7,144.6,68.5,158.3,62.8c13.8-5.8,22.2-17.1,23.1-31c1.3-21.2-14.8-43.9-42-59.2
							C1820,1588.2,1755.4,1641.4,1744,1651.5z"/>
					</g>
				</g>
			</g>
		</g>
		<g>
			<g>
				
					<ellipse transform="matrix(0.7071 -0.7071 0.7071 0.7071 -401.1966 644.9008)" class="st0" cx="577.9" cy="806.7" rx="93.1" ry="93.1"/>
				<path d="M577.9,902.1c-52.6,0-95.3-42.8-95.3-95.3c0-52.6,42.8-95.3,95.3-95.3c52.6,0,95.3,42.8,95.3,95.3
					C673.2,859.3,630.4,902.1,577.9,902.1z M577.9,715.8c-50.1,0-90.9,40.8-90.9,90.9c0,50.1,40.8,90.9,90.9,90.9
					c50.1,0,90.9-40.8,90.9-90.9C668.8,756.6,628,715.8,577.9,715.8z"/>
			</g>
			<path class="st1" d="M578.4,853.6c-0.9,0.6-2.1,0.6-3,0.1c-8.2-4.6-46.3-27.5-44.8-57.5c1.6-31.7,36-26.2,44.5-10.6
				c0.3,0.6,1,0.9,1.6,0.9c0.7,0,1.3-0.5,1.5-1.1c4.2-10,17.6-17.3,30.3-12.5C623.6,778.5,639,816,578.4,853.6z"/>
		</g>
	</g>
</g>
</svg>
