<?xml version="1.0" encoding="utf-8"?>
<!-- Generator: Adobe Illustrator 24.0.0, SVG Export Plug-In . SVG Version: 6.00 Build 0)  -->
<svg version="1.1" id="Layer_1" xmlns="http://www.w3.org/2000/svg" xmlns:xlink="http://www.w3.org/1999/xlink" x="0px" y="0px"
	 viewBox="0 0 19.6 20.5" style="enable-background:new 0 0 19.6 20.5;" xml:space="preserve">
<style type="text/css">
	.st0{fill:#FFFFFF;}
</style>
<g>
	<path class="st0" d="M10.9,6.3c1.1,0,2,0.9,2,2v5.1c0,0.5-0.4,0.9-0.9,0.9H7.6c-0.5,0-0.8-0.4-0.8-0.9V7c0-0.4,0.3-0.8,0.8-0.8
		H10.9 M10.9,5.3H7.5C6.6,5.3,5.8,6.1,5.8,7v6.4c0,1,0.8,1.8,1.8,1.8H12c1,0,1.8-0.8,1.8-1.8V8.3C13.8,6.7,12.5,5.3,10.9,5.3
		L10.9,5.3z"/>
	<g>
		<path class="st0" d="M13.1,9.3H11c-0.9,0-1.2-0.8-1.2-1.4V6.3h0.9v1.7c0,0.1,0,0.4,0.3,0.4h2.1V9.3z"/>
	</g>
	<path class="st0" d="M11.6,11.2H8.2c-0.3,0-0.4-0.2-0.4-0.4l0,0c0-0.3,0.2-0.4,0.4-0.4h3.3c0.3,0,0.4,0.2,0.4,0.4l0,0
		C12,11,11.8,11.2,11.6,11.2z"/>
	<path class="st0" d="M11.6,13.1H8.2c-0.3,0-0.4-0.2-0.4-0.4l0,0c0-0.3,0.2-0.4,0.4-0.4h3.3c0.3,0,0.4,0.2,0.4,0.4l0,0
		C12,12.9,11.8,13.1,11.6,13.1z"/>
</g>
</svg>
