<?xml version="1.0" encoding="utf-8"?>
<!-- Generator: Adobe Illustrator 24.0.0, SVG Export Plug-In . SVG Version: 6.00 Build 0)  -->
<svg version="1.1" id="Layer_1" xmlns="http://www.w3.org/2000/svg" xmlns:xlink="http://www.w3.org/1999/xlink" x="0px" y="0px"
	 viewBox="0 0 48 48" style="enable-background:new 0 0 48 48;" xml:space="preserve">
<style type="text/css">
	.st0{fill:#FFFFFF;}
</style>
<path class="st0" d="M24,24c-2.2,0-4-0.7-5.4-2.1c-1.4-1.4-2.1-3.2-2.1-5.4s0.7-4,2.1-5.4C20,9.7,21.8,9,24,9s4,0.7,5.4,2.1
	c1.4,1.4,2.1,3.2,2.1,5.4s-0.7,4-2.1,5.4C28,23.3,26.2,24,24,24z M8,40v-4.7C8,34,8.3,32.9,8.9,32c0.6-0.9,1.4-1.6,2.4-2
	c2.2-1,4.4-1.8,6.4-2.3S21.9,27,24,27s4.1,0.3,6.1,0.8s4.2,1.3,6.4,2.2c1,0.5,1.9,1.1,2.5,2c0.6,0.9,1,2,1,3.3V40H8z M11,37h26v-1.7
	c0-0.5-0.2-1-0.5-1.5c-0.3-0.5-0.7-0.8-1.2-1.1c-2.1-1-4.1-1.7-5.9-2.1C27.7,30.2,25.9,30,24,30s-3.8,0.2-5.5,0.6
	c-1.8,0.4-3.8,1.1-5.9,2.1c-0.5,0.2-0.9,0.6-1.1,1.1c-0.3,0.5-0.5,1-0.5,1.5V37z M24,21c1.3,0,2.4-0.4,3.2-1.3
	c0.8-0.9,1.3-1.9,1.3-3.2s-0.4-2.4-1.3-3.2c-0.9-0.9-1.9-1.3-3.2-1.3s-2.4,0.4-3.2,1.3c-0.8,0.9-1.3,1.9-1.3,3.2s0.4,2.4,1.3,3.2
	C21.6,20.5,22.7,21,24,21z"/>
</svg>
