<?xml version="1.0" encoding="utf-8"?>
<!-- Generator: Adobe Illustrator 24.0.0, SVG Export Plug-In . SVG Version: 6.00 Build 0)  -->
<svg version="1.1" id="Layer_1" xmlns="http://www.w3.org/2000/svg" xmlns:xlink="http://www.w3.org/1999/xlink" x="0px" y="0px"
	 viewBox="0 0 48 48" style="enable-background:new 0 0 48 48;" xml:space="preserve">
<style type="text/css">
	.st0{fill:#3F0E40;}
</style>
<path class="st0" d="M7,34.2V39h34v-4.8H7z M7,12h6.3c-0.2-0.3-0.3-0.7-0.4-1.1c-0.1-0.4-0.1-0.9-0.1-1.2c0-1.6,0.5-2.9,1.6-4
	S16.8,4,18.3,4c1,0,2,0.3,2.9,0.8c0.9,0.5,1.6,1.2,2.1,2l0.9,1.3l0.8-1.3c0.5-0.8,1.2-1.5,2-2C27.7,4.3,28.6,4,29.6,4
	c1.6,0,2.9,0.5,4.1,1.6s1.7,2.4,1.6,4c0,0.4,0,0.7-0.1,1.1c-0.1,0.4-0.2,0.8-0.4,1.3H41c0.8,0,1.5,0.3,2.1,0.9
	c0.6,0.6,0.9,1.3,0.9,2.1v24c0,0.8-0.3,1.5-0.9,2.1C42.5,41.7,41.8,42,41,42H7c-0.8,0-1.5-0.3-2.1-0.9C4.3,40.5,4,39.8,4,39V15
	c0-0.8,0.3-1.5,0.9-2.1C5.5,12.3,6.2,12,7,12z M7,28.8h34V15H28.5l5,7l-2.4,1.8L24,13.9l-7.1,9.9L14.5,22l5-6.9H7V28.8z M18.4,12.3
	c0.7,0,1.4-0.3,1.9-0.8C20.7,11,21,10.4,21,9.6s-0.3-1.4-0.8-1.9S19.1,7,18.4,7S17,7.3,16.5,7.8c-0.5,0.5-0.8,1.1-0.8,1.9
	s0.3,1.4,0.8,1.9C17,12,17.6,12.3,18.4,12.3z M29.6,12.3c0.8,0,1.4-0.3,1.9-0.8c0.5-0.5,0.8-1.1,0.8-1.9S32,8.3,31.5,7.8
	C31,7.3,30.4,7,29.6,7c-0.7,0-1.3,0.3-1.8,0.8S27,8.9,27,9.6s0.3,1.4,0.8,1.9S28.9,12.3,29.6,12.3z"/>
</svg>
