<?xml version="1.0" encoding="utf-8"?>
<!-- Generator: Adobe Illustrator 24.0.0, SVG Export Plug-In . SVG Version: 6.00 Build 0)  -->
<svg version="1.1" id="Layer_1" xmlns="http://www.w3.org/2000/svg" xmlns:xlink="http://www.w3.org/1999/xlink" x="0px" y="0px"
	 viewBox="0 0 19.6 20.5" style="enable-background:new 0 0 19.6 20.5;" xml:space="preserve">
<style type="text/css">
	.st0{fill:#FFFFFF;}
</style>
<g>
	<path class="st0" d="M9.8,6.2c0,0,0.1,0,0.1,0l3.3,1.9c0.1,0,0.1,0.1,0.1,0.2l0,3.9c0,0.1,0,0.1-0.1,0.2l-3.3,1.9c0,0-0.1,0-0.1,0
		c0,0-0.1,0-0.1,0l-3.3-1.9c-0.1,0-0.1-0.1-0.1-0.2l0-3.9c0-0.1,0-0.1,0.1-0.2l3.3-1.9C9.8,6.2,9.8,6.2,9.8,6.2 M9.8,5.3
		c-0.2,0-0.4,0.1-0.6,0.2L5.9,7.4c-0.3,0.2-0.6,0.6-0.6,1v3.9c0,0.4,0.2,0.8,0.6,1l3.3,1.9c0.2,0.1,0.4,0.1,0.6,0.1
		c0.2,0,0.4-0.1,0.6-0.1l3.3-1.9c0.3-0.2,0.6-0.6,0.6-1l0-3.9c0-0.4-0.2-0.8-0.6-1l-3.3-1.9C10.2,5.3,10,5.3,9.8,5.3L9.8,5.3z"/>
	<path class="st0" d="M9.8,9.2c0.6,0,1.1,0.5,1.1,1.1s-0.5,1.1-1.1,1.1s-1.1-0.5-1.1-1.1S9.2,9.2,9.8,9.2 M9.8,8.4
		c-1,0-1.8,0.8-1.8,1.9s0.8,1.9,1.8,1.9s1.9-0.8,1.9-1.9S10.9,8.4,9.8,8.4L9.8,8.4z"/>
</g>
</svg>
