<?xml version="1.0" encoding="utf-8"?>
<!-- Generator: Adobe Illustrator 24.0.0, SVG Export Plug-In . SVG Version: 6.00 Build 0)  -->
<svg version="1.1" xmlns="http://www.w3.org/2000/svg" xmlns:xlink="http://www.w3.org/1999/xlink" x="0px" y="0px"
	 viewBox="0 0 500 500" style="enable-background:new 0 0 500 500;" xml:space="preserve">
<style type="text/css">
	.st0{fill:#F5F5F5;}
	.st1{fill:#E0E0E0;}
	.st2{fill:#27DEBF;}
	.st3{opacity:0.15;}
	.st4{fill:#FFFFFF;}
	.st5{fill:#37474F;}
	.st6{fill:#263238;}
	.st7{fill:#455A64;}
	.st8{fill:#9E6767;}
	.st9{fill:#874C4C;}
	.st10{opacity:0.45;}
	.st11{opacity:0.2;}
	.st12{fill:#F28F8F;}
	.st13{fill:#FAFAFA;}
</style>
<g id="Floor">
</g>
<g id="Shadow">
</g>
<g id="Plants">
</g>
<g id="Check_mark">
</g>
<g id="Character">
</g>
<g id="Speech_bubble">
</g>
<g id="Icons">
	<g>
		<path id="Floor_9_" class="st0" d="M86.3,439.1c-90.4-52.2-90.4-136.8,0-189s237-52.2,327.4,0s90.4,136.8,0,189
			S176.7,491.3,86.3,439.1z"/>
		<ellipse id="Shadow_10_" class="st1" cx="158.6" cy="400.6" rx="71" ry="41"/>
		
			<ellipse id="Shadow_1_" transform="matrix(0.8802 -0.4747 0.4747 0.8802 -124.1933 182.265)" class="st1" cx="298.9" cy="337.1" rx="101.3" ry="50.4"/>
		<g id="Plants_1_">
			<g>
				<path class="st2" d="M371.9,323.2c9.9-11.7,25.3-19.4,42.6-23.9c17.1-4.5,20.2-15,8.8-18.4c-12.9-3.9-28.9,3.2-39.3,13.2
					c-18,17.3-20.3,30.5-20.3,30.5L371.9,323.2z"/>
				<path class="st3" d="M371.9,323.2c9.9-11.7,25.3-19.4,42.6-23.9c17.1-4.5,20.2-15,8.8-18.4c-12.9-3.9-28.9,3.2-39.3,13.2
					c-18,17.3-20.3,30.5-20.3,30.5L371.9,323.2z"/>
				<g>
					<path class="st4" d="M366.8,322.6c-0.1,0-0.1,0-0.2-0.1c-0.2-0.1-0.4-0.4-0.2-0.7c14.6-30,47-37.4,54.8-36.8
						c0.3,0,0.5,0.3,0.5,0.5c0,0.3-0.3,0.5-0.5,0.5c-7.7-0.6-39.5,6.7-53.9,36.3C367.1,322.5,367,322.6,366.8,322.6z"/>
				</g>
			</g>
			<g>
				<path class="st2" d="M363.7,326.4c0,2.1,2.3,3.4,4.1,2.3c9.2-5.3,22.5-8.3,44.1-2.1c11.5,3.3,17.2,1.1,19.6-3.6
					c2.7-5.2-3-10.2-9.5-12.6c-22.1-8.1-42.1-2.6-58.4,13.6L363.7,326.4z"/>
				<g>
					<path class="st4" d="M365,326.8c-0.1,0-0.3-0.1-0.4-0.2c-0.2-0.2-0.2-0.5,0-0.7c19.1-17.1,48.7-13.8,59.9-7.1
						c0.2,0.1,0.3,0.4,0.2,0.7s-0.4,0.3-0.7,0.2c-11-6.5-40-9.8-58.7,7C365.2,326.7,365.1,326.8,365,326.8z"/>
				</g>
			</g>
		</g>
		<g id="Plants_2_">
			<g>
				<path class="st2" d="M149.9,366.2c-8.4-12.8-22.8-22.2-39.5-28.8c-16.5-6.4-18.3-17.3-6.6-19.3c13.2-2.3,28.3,6.6,37.5,17.7
					c15.9,19.3,16.6,32.7,16.6,32.7L149.9,366.2z"/>
				<path class="st3" d="M149.9,366.2c-8.4-12.8-22.8-22.2-39.5-28.8c-16.5-6.4-18.3-17.3-6.6-19.3c13.2-2.3,28.3,6.6,37.5,17.7
					c15.9,19.3,16.6,32.7,16.6,32.7L149.9,366.2z"/>
				<g>
					<path class="st4" d="M155,366.1c0.1,0,0.1,0,0.2,0c0.3-0.1,0.4-0.4,0.3-0.6c-11-31.5-42.2-42.7-50.1-43c-0.3,0-0.5,0.2-0.5,0.5
						c0,0.3,0.2,0.5,0.5,0.5c7.7,0.3,38.4,11.3,49.2,42.4C154.7,366,154.9,366.1,155,366.1z"/>
				</g>
			</g>
			<g>
				<path class="st2" d="M157.9,367.8c-0.4,3.1-3.9,4.7-6.5,3c-8.5-5.7-21.1-9.4-41.8-6c-11.8,1.9-17.2-0.9-19-5.9
					c-2.1-5.5,4.2-9.8,10.9-11.4C124.5,342.1,143.7,349.9,157.9,367.8L157.9,367.8z"/>
				<g>
					<path class="st4" d="M156.3,370.5c0.1,0,0.3,0,0.4-0.1c0.2-0.2,0.2-0.5,0-0.7c-17-19.2-46.7-19.4-58.7-14.1
						c-0.3,0.1-0.4,0.4-0.3,0.7c0.1,0.3,0.4,0.4,0.7,0.3c11.7-5.2,40.9-5,57.5,13.9C156.1,370.4,156.2,370.5,156.3,370.5z"/>
				</g>
			</g>
		</g>
		<g id="Check_Mark_1_">
			<g id="Circle">
				<path id="XMLID_392_" class="st5" d="M380.8,137.7L380.8,137.7l-0.2-0.1c0,0,0,0,0,0l-38.1-21.9c0,0,0,0,0,0l-0.2-0.1l0,0
					c-17.8-9-41.6-6.3-67.1,10.2c-51.3,33.2-90.5,109.6-87.4,170.7c1.5,30.4,13.3,51.3,31,60.5l0,0l0.2,0.1c0,0,0,0,0,0l38.1,21.9
					c0,0,0,0,0,0l0.2,0.1l0,0c17.8,9,41.6,6.3,67.2-10.2c51.3-33.2,90.5-109.6,87.4-170.7C410.3,167.7,398.6,146.9,380.8,137.7z"/>
				<path id="XMLID_384_" class="st6" d="M255.8,378.3L219,357c0,0,0,0,0,0l-0.2-0.1c-17.7-9.2-29.5-30.1-31-60.5
					c-1.4-27.2,5.7-57.5,18.4-85.6l0.3-0.6l37.9,22.6c-12.8,28.1-19.8,58.4-18.4,85.6C227.4,348.2,238.7,368.8,255.8,378.3z"/>
				<path id="XMLID_359_" class="st7" d="M324.4,368.9c51.3-33.2,90.5-109.6,87.4-170.7c-3.1-61.1-47.2-83.7-98.5-50.5
					c-51.3,33.2-90.5,109.6-87.4,170.7C229,379.5,273.1,402.1,324.4,368.9z"/>
			</g>
			<path id="Shadow_7_" class="st5" d="M367.9,133l-64.3,132.5l-13.9-15c-4.3-4.6-10.4-7.3-16.7-7.3c-5.7,0-11.2,2.1-15.5,6
				c-9.2,8.5-9.8,22.9-1.3,32.2l36.5,39.5c4,4.4,9.5,7,15.5,7.3c0.4,0,0.8,0,1.3,0c1.1,0,2.2-0.1,3.3-0.2
				c7.5-1.1,13.9-5.8,17.1-12.6l73.8-152C396.2,146.5,383.6,136.1,367.9,133z"/>
			<g>
				<path class="st2" d="M420.2,89.3c-0.4-0.2-0.8-0.4-1.2-0.7c-9.8-4.7-21.7-0.7-26.4,9.1l-81.9,168.7l-4.7-5
					c-1.4-1.5-3-2.7-4.6-3.7c-2.4-1.4-12.8-7.4-14.5-8.4c-7.3-4.2-16.8-3.4-23.3,2.6c-8,7.4-8.5,19.9-1.1,27.9l36.5,39.5
					c1.4,1.5,3,2.8,4.7,3.7c2.4,1.4,12.7,7.4,14.4,8.3c2.7,1.5,5.7,2.5,8.8,2.6c1.3,0.1,2.6,0,4-0.2c6.5-1,12.1-5,14.9-10.9
					l96.9-199.5c4.5-9.4,1-20.6-7.9-25.8C434.3,97.5,422.8,90.8,420.2,89.3z"/>
				<path class="st3" d="M420.2,89.3c-0.4-0.2-0.8-0.4-1.2-0.7c-9.8-4.7-21.7-0.7-26.4,9.1l-81.9,168.7l-4.7-5
					c-1.4-1.5-3-2.7-4.6-3.7c-2.4-1.4-12.8-7.4-14.5-8.4c-7.3-4.2-16.8-3.4-23.3,2.6c-8,7.4-8.5,19.9-1.1,27.9l36.5,39.5
					c1.4,1.5,3,2.8,4.7,3.7c2.4,1.4,12.7,7.4,14.4,8.3c2.7,1.5,5.7,2.5,8.8,2.6c1.3,0.1,2.6,0,4-0.2c6.5-1,12.1-5,14.9-10.9
					l96.9-199.5c4.5-9.4,1-20.6-7.9-25.8C434.3,97.5,422.8,90.8,420.2,89.3z"/>
				<path class="st3" d="M318,331.4c-1.7-1-12-7-14.4-8.3c-1.7-1-3.3-2.2-4.7-3.7l-36.5-39.5c-1.7-1.8-2.9-3.9-3.8-6l14.5,8.4
					c0.9,2.2,2.1,4.2,3.8,6l36.5,39.5C314.8,329.2,316.3,330.5,318,331.4z"/>
				<path class="st3" d="M411.6,100.1c-1.9,1.7-3.4,3.7-4.6,6.1l-84.2,173.5l-12.2-13.2l81.9-168.7c1.1-2.4,2.7-4.4,4.6-6.1
					L411.6,100.1z"/>
				<path id="Check_4_" class="st2" d="M433.5,97c-9.8-4.7-21.7-0.7-26.4,9.1l-84.2,173.5L306,261.4c-7.4-8-19.9-8.5-27.9-1.1
					c-8,7.4-8.5,19.9-1.1,27.9l36.5,39.5c3.5,3.8,8.3,6,13.4,6.3c1.3,0.1,2.6,0,4-0.2c6.5-1,12.1-5,14.9-10.9l96.9-199.5
					C447.4,113.6,443.3,101.8,433.5,97z"/>
			</g>
		</g>
		<g id="Character_15_">
			<g>
				<path class="st8" d="M157.2,116.5c-7.6,0-12.9,2-18.3,9.7c-5,7.1-18.6,30.7-18.6,30.7s-10-20.5-11-24.6c-1-4.1-0.9-5.9,0-7.7
					c1.2-2.2,2.3-4.1,2.5-7c0.4-4.9,1.6-9.1,0.5-9.3c-3.1-0.2-3.2,3.7-4.8,6.1c-0.6,0.8-2.4,0.9-3.1-0.3c-0.7-1.4-0.3-3.6-0.6-5.2
					c0.1-1.4,0.3-1.9,0.4-2.7c0.9,0.2,2.1,0.2,3.5,0.1c1.3,2.1,2.2,2.9,4.1,2.1c0.2-0.4-0.8-3-2-5c-0.2-0.3-0.5-0.5-0.8-0.6
					c-1.8-0.5-3.9-0.6-6.8-0.2c-0.3,0.1-0.7,0.2-0.9,0.5c-1.1,1.6-1.7,3.2-2,4c-0.1,0.4-0.5,0.4-0.6,0c-1-4.8-1-11.7-1-14.9
					c0-2.5-3.7-2.9-3.8,0.7c-0.1,3.7-0.2,10.6,0.2,14.6c0.1,0.4-0.4,0.6-0.6,0.2c-0.6-1.7-2.2-6.9-2.9-15.8c-0.2-2.4-4.1-2.8-4,0.6
					c0.1,9.2,2.2,17.8,2.2,17.8c0.1,0.4-0.3,0.8-0.6,0.3c-1.3-2.1-3.3-7.4-4.3-11c-0.8-2.9-4.7-2.2-4,1.4c1.2,6.5,3.1,14.7,6,20.5
					c3.1,6.3,5.7,9.4,7.2,14.3c1.5,4.9,7.8,32.7,14.5,43.6c5.3,8.5,11.3,7.7,17.8,3.2c6.5-4.5,29.7-36.8,29.7-36.8L157.2,116.5z"/>
				<path class="st9" d="M120.3,156.9c0,0,3.3,5.5,3.7,9.9c0,0,1.6-6.3-2.3-12.4L120.3,156.9z"/>
				<path class="st7" d="M158.8,116.5c-3.9-0.4-8.7-0.5-14.1,2.9c-5.4,3.4-7.3,8.1-9.9,12.2c-2.6,4.1-11.6,18.8-11.6,18.8
					s3.3,13.9,16.5,16.8l19.7-26.7L158.8,116.5z"/>
			</g>
			<g>
				<g id="XMLID_471_">
					<path id="XMLID_1137_" class="st6" d="M176.5,360.8c1-0.1,2.3,3.3,2.3,4.4c0,1.1-1.1,3.5-2.6,5.7c-1.5,2.2-3.5,5-4.8,8.6
						c-1.1,3.1-2.2,5.1-5.3,9.1c-3.5,4.5-11.7,12-24.2,8.7c-3-0.8-4.6-1.8-5.7-2.9c-0.9-0.9-1.4-2.5-0.9-3.8L176.5,360.8z"/>
					<path id="XMLID_1136_" class="st5" d="M152,356.9c0,0,0,0.1,0,0.1c-0.2,0.9,0,1.9,0.1,2.8c0.4,3.3,0,6.7-1.3,9.7
						c-0.8,2.1-2,4-3.5,5.7c-1.5,1.7-3.9,3.5-5.8,4.7c-6.3,4-7,6.7-6.1,10.8c2.1,4.7,16.5,7.6,24.7,0.6c3.2-2.8,5.7-5.2,7.8-10.7
						c1.5-3.8,2.7-6,4.2-8.8c1.6-3,4.6-6.4,4.7-9.5c0-1.7-1.6-4.9-3.3-7.5c-1.5-2.4-3-4.7-4.4-4.4l0.4,1.4c-1.1,1.2-2.8,1.6-3.7,3
						c-1.2,1.7-1.2,4-1.9,5.9c-0.1,0.2-0.2,0.4-0.4,0.4c-0.2,0.1-0.4-0.1-0.5-0.3c-0.1-0.2-0.1-0.4-0.1-0.6c0-1-0.1-1.9-0.1-2.9
						c0-0.6-0.1-1.2-0.4-1.6c-0.8-0.9-2.7-0.8-3.8-0.8c-1.5-0.1-2.9,0.2-4.3,0.3c-0.5,0-0.9,0-1.4,0.4
						C152.4,355.9,152.1,356.4,152,356.9z"/>
				</g>
				<g>
					<path class="st8" d="M130.8,298.7c3.3,10.9,18.9,48.9,19.8,51.1c0.9,2.3,3.1,7.5,3.1,7.5s2.5,1,6.3,0.3
						c0.3,3.6,0.9,9.3,1.1,12.2c0.1,3.3,0.4,7.4-0.4,10.7c-0.6,2.8-1.3,5.7-1.8,8.6c-0.2,1.2-0.5,2.5-0.7,3.7
						c-0.2,1.3-0.3,2.8,0.3,3.9c0.3,0.6,0.8,1,1.2,1.4c2.2,1.8,5.1,2.5,7.8,2.3c1.5-0.1,3-0.5,4.2-1.4c2.4-1.7,3.3-4.7,4.5-7.3
						c1.3-2.8,0.9-3.1,1-6.1c0.1-2.1,0.7-7.4,1.5-12.9c0.8-5.5,4.4-24.9,6.1-44.3c1.2-13.4,0-25.8,0-25.8
						c13.7-37.1,19.7-59.2,21.5-71.5c1.8-12.5,0.9-17,0.7-24.2l-66.4,1.6C135.5,243.1,126.3,284,130.8,298.7z M163.3,239.8
						L163.3,239.8L163.3,239.8L163.3,239.8L163.3,239.8z"/>
					<path class="st2" d="M129.8,271.3c1.4-12.6,10.8-61.1,10.8-61.1h66.9c0,0,0.4,9.3,0.3,13.6c-0.1,4.3-1.5,12.1-3.9,22
						c-2.4,9.9-11.2,37.9-13,42c-1.7,4.1-5,16.1-5,16.1c1.6,22.4-2.6,42.6-5.8,69.3c0,0-0.9,3.6-10.4,2.9
						c-9.2-0.7-11.1-4.1-11.1-4.1l-0.6-23.1c0,0-5,1.5-8,0.8c0,0-19.8-48.9-20.8-51.8C128.3,294.9,128.4,283.9,129.8,271.3z"/>
					<path class="st10" d="M129.8,271.3c1.4-12.6,10.8-61.1,10.8-61.1h66.9c0,0,0.4,9.3,0.3,13.6c-0.1,4.3-1.5,12.1-3.9,22
						c-2.4,9.9-11.2,37.9-13,42c-1.7,4.1-5,16.1-5,16.1c1.6,22.4-2.6,42.6-5.8,69.3c0,0-0.9,3.6-10.4,2.9
						c-9.2-0.7-11.1-4.1-11.1-4.1l-0.6-23.1c0,0-5,1.5-8,0.8c0,0-19.8-48.9-20.8-51.8C128.3,294.9,128.4,283.9,129.8,271.3z"/>
					<path class="st11" d="M158.2,241.8c-9.5-8.5-11.6-15.3-11.6-15.3c7.1,8.3,16.7,13.4,16.7,13.4s-9,47.5-8.3,57.3
						c0.7,9.8,3.1,51.8,3.1,51.8c0,0.4-6.4-44.4-6.6-48C151,291.5,158.2,241.8,158.2,241.8z"/>
				</g>
				<g id="XMLID_419_">
					<path id="XMLID_470_" class="st6" d="M179,397c0.9,0.3,0.8,3.1,0.4,4.1c-0.4,1-2.1,3-4.3,4.5c-2.2,1.5-4.3,3.5-6.3,6.8
						c-1.4,2.3-5.1,6.8-10,9.7c-4.9,2.9-12.1,4-17.5,2.4c-6.3-1.8-6.9-3.3-6.8-5.7L179,397z"/>
					<path id="XMLID_434_" class="st7" d="M159.6,382.4c-1.6,8-4.5,13.9-11.2,18.8c-5.3,3.9-9.1,5.9-13.4,9.4
						c-1.8,1.5-1.9,4.7-0.6,8.1c2.9,2.3,6.9,3.6,12.4,3.6c6.1,0,8.4-1.1,11.9-3.5c2-1.4,3.4-2.6,4.8-4c2.9-2.9,5-6.6,7.1-8.9
						c2.1-2.3,6.7-4.7,8-7.5c0.7-1.5,0.4-5.1-0.1-8.2c-0.4-2.8,0.4-7.7-0.9-8c0,0-0.2,2-0.2,2c-0.1,0.5-0.4,0.7-1.3,1
						c-0.6,0.2-1.9,0.2-2.6,0.1c-0.8-0.1-1.2-0.1-1.7,0.5c-0.9,1.1-1.1,2.6-2.3,3.4c-0.1,0.1-0.2,0.1-0.3,0.1c-0.1,0-0.2,0-0.3-0.1
						c-0.1-0.1-0.1-0.2-0.1-0.3c0.1-1,0.2-2,0.3-3c0-0.3,0.1-0.6,0-0.9c-0.1-0.6-0.5-1-1-1.3c-0.8-0.5-1.8-0.9-2.7-1.1
						c-1-0.3-2-0.4-3-0.5C161.7,382.2,160.6,382.2,159.6,382.4z"/>
				</g>
			</g>
			<path id="XMLID_418_" class="st2" d="M201.5,119.4c0,0,2.8,3.8,5,11.6c0,0,4.2,17.8,4.2,38.9c0,17.7-2.4,46.3-2.4,46.3
				c-20.5,10.3-53.6,4.2-68.1-5.8c0.6-3.2,1.1-19.9,2.2-30.9c0.8-18.9,1.4-28.8,1.5-37.3c0.3-16.8,8.6-25.5,15-25.6l16.1,0.3
				L201.5,119.4z"/>
			<g>
				<path class="st9" d="M206.5,211c-3,2.5-9,7.3-10.1,9.8c-1.3,2.8-2,7-2.8,8.6c-0.8,1.6,0.4,2.4,2.2,1.8c1.8-0.6,2.8-2.1,4.2-5.7
					c1.4-3.6,5.1-6.5,5.1-6.5L206.5,211z"/>
				<path class="st8" d="M195.4,243.7c0.7,1.4,2.4,1.4,4,1.5c2.2,0.2,3.5,0,5.7-0.6c2.2-0.7,4.2-1.9,5.5-3.8c1.5-2.2,1.9-5,2.8-7.5
					c1.8-5.4,7.3-9.2,8.2-14.9c0.4-2.3,0.4-5.1,1-6.6c0.4-0.9,9.4-16.4,12.6-23.1c3.1-6.5,5.4-9.5,2.6-17.3
					c-2.8-7.8-12.3-35.1-19.1-44.6c-3.8-5.4-9.9-6.9-17.3-7.6c-5.6,14.6,0.9,29.7,0.9,29.7l14.8,28.6c0,0-5.8,19.7-9.4,30.6
					c-1,3-3,4.9-5.3,8.3c-1,1.5-3.3,4-4.1,5.6c-1,2-1,3.3-1.5,6.1C196.2,232.8,195,243.1,195.4,243.7z"/>
				<path class="st7" d="M200.7,119.3c3.9,0.2,9.4,0.8,12.8,2.5c3.3,1.7,5.6,3.8,9.5,11.4c3.8,7.7,9.4,22.5,9.4,22.5
					s-1.9,11.2-19.6,14.1l-12-22.1C200.7,147.8,195.3,134,200.7,119.3z"/>
			</g>
			<g id="XMLID_1138_">
				<g id="XMLID_1146_">
					<g>
						<path class="st5" d="M154.5,83.6c0.6,0.8,0.9,2,1.4,2.9c0.6,1.3,1.3,2.6,2.2,3.7c2.3,2.7,5.5,4.6,8.5,6.5
							c1.8,1.1,3.8,2.2,6,1.9c2.2-0.3,4.6,0.2,6.9,0.4c2.6,0.2,5.2,0.5,7.9,0.7l-0.4,8.3c0,0,1-2.2,2.3-4.8
							c1.1-2.2,5.9-13.7,5.9-13.7c2.4-5.7,5.2-13.2,2.3-19.1c-0.7-1.4-1.7-2.7-3.1-3.5c0.3-1.1,0.4-1.9,0.3-2.8
							c-0.4-3.2-2-5-4.2-6.6c-2.2-1.6-4.8-2.5-7.4-3.1c-3.5-0.8-7.1-1.2-10.7-1.2c-3.6,0-7,0.6-10.5,1.2c-1.9,0.3-3.9,0.6-5.9,0.6
							c-0.8,0-1.7,0.1-2.5-0.1c-1-0.2-2.1-0.7-3.1-1.1c-0.2-0.1-0.4-0.1-0.5,0c-0.2,0.1-0.2,0.3-0.3,0.5c-0.6,2.3,0.2,5.3,1.6,7.2
							c-0.6-0.1-1.1-0.3-1.3-0.4c-0.5-0.2-0.9-0.5-1.4-0.8c-0.8-0.5-1.3-1.1-1.9-1.8c-0.1-0.1-0.2-0.2-0.3-0.2
							c-0.2,0-0.4,0.1-0.5,0.3c-1.1,1.6-1.4,3.6-1,5.5c0.4,1.9,1.4,3.6,2.6,5.1c-1.3,1.9-1.3,4.6-0.4,6.7c0.4,0.9,1,1.8,1.8,2.5
							c0.9,0.9,2,1.7,2.9,2.5C152.6,81.7,153.8,82.5,154.5,83.6z"/>
						<path class="st8" d="M178.5,69.8c0,2.2,0.3,3.7,0.6,4.4c0.5,1.4,1.2,2.3,2.2,3.3c1,1.1,2.3,1.9,3.1,3.1
							c1.1,1.7,1.5,3.8,1.7,5.8c0.1,1.2,0.5,2.5,1.5,3.1c2.1,1.3,3.4-1.2,4.6-2.5c1.5-1.4,5.8-3,7.9,1.6c2.1,4.8-1.8,11.2-5.3,12.1
							c-6.1,1.7-7.4-2.4-7.4-2.4l-1.2,21.6c-3.4,6.5-11.4,8.5-16.7,7.5c-4.5-0.9-7-4.1-2.8-8.7l0.2-6.6c0,0-5.5,0.6-8.1,0.2
							c-4.4-0.8-6.6-4.6-7.7-9.4c-1.9-7.7-2.8-15.9-0.4-33.3c1.1-0.6,5.4,2.8,12,3.2C169.2,73.3,175.2,71.6,178.5,69.8z"/>
					</g>
					<path id="XMLID_1147_" class="st9" d="M167,112.1c0,0,9.9-1.7,13.4-3.4c2.3-1.1,4.3-3.2,4.9-4.5c0,0-0.7,2.9-2.9,5.5
						c-2.6,3.1-15.5,5.1-15.5,5.1L167,112.1z"/>
				</g>
				<g id="XMLID_1139_">
					<path id="XMLID_1144_" class="st6" d="M172.2,77.5l4.6,1.4c0.4-1.3-0.4-2.7-1.7-3.1C173.8,75.4,172.5,76.2,172.2,77.5z"/>
					<path id="XMLID_1143_" class="st9" d="M170.5,99.4l-6.8,2.3c0.6,1.9,2.6,3,4.5,2.4C170.1,103.4,171.1,101.3,170.5,99.4z"/>
					<path class="st12" d="M170,101c-1.9,0-3.4,1.3-3.9,3c0.7,0.2,1.4,0.2,2.1,0c1.3-0.4,2.2-1.6,2.4-2.9
						C170.4,101.1,170.2,101,170,101z"/>
					<path id="XMLID_1142_" class="st6" d="M151.6,78.3l4.7-0.6c-0.1-1.3-1.3-2.2-2.6-2C152.4,75.8,151.4,77,151.6,78.3z"/>
					<path class="st6" d="M180.4,80.3l15.5,5.3c0,0-2.4-0.2-4.5,2.3l-11-4.2L180.4,80.3z"/>
					<path id="XMLID_1141_" class="st6" d="M153.9,86.3c0,1.1,0.8,1.9,1.8,2c1,0,1.9-0.8,1.9-1.9c0-1.1-0.8-1.9-1.8-2
						C154.8,84.4,153.9,85.2,153.9,86.3z"/>
					<path id="XMLID_394_" class="st6" d="M171.6,86.3c0,1.1,0.8,1.9,1.8,2c1,0,1.9-0.8,1.9-1.9c0-1.1-0.8-1.9-1.8-2
						C172.4,84.4,171.6,85.2,171.6,86.3z"/>
					<g>
						<path class="st6" d="M144.8,81.4c0.1,0.9,0.7,1.8,1,2.2c0.2,0.2,0.3,0.4,0.4,0.8c0.4,1.5,0.7,4.3,1.4,5.9
							c0.7,1.6,2.2,4.1,6.3,4.2c0.8,0,1.5,0,2.2-0.2c0.1,0,0.1,0,0.2,0c0.7-0.2,1.3-0.4,1.8-0.7c0,0,0.1,0,0.1-0.1
							c0.1,0,0.1-0.1,0.2-0.1c0,0,0.1-0.1,0.2-0.1c0.1,0,0.1-0.1,0.2-0.1c0.1-0.1,0.1-0.1,0.2-0.2c0.1-0.1,0.1-0.1,0.2-0.2
							c0.1-0.1,0.2-0.2,0.3-0.3c0.6-0.7,1.1-1.4,1.4-2.2c0.9-2.1,0.7-4.9,2.2-5.3c0.1,0,0.1,0,0.2,0c0.1,0,0.1,0,0.2,0
							c2,0,1.8,3.2,3,5.4c1.1,2.2,3,4.4,7.5,4.5c0.2,0,0.4,0,0.6,0c0.2,0,0.3,0,0.5,0c0.4,0,0.7-0.1,1.1-0.2c0.1,0,0.2,0,0.3-0.1
							c0.1,0,0.2-0.1,0.3-0.1c0.1,0,0.1,0,0.2-0.1c0.5-0.2,0.8-0.3,1.2-0.6c0.1-0.1,0.3-0.2,0.4-0.3c0.3-0.2,0.5-0.4,0.7-0.6
							c0.7-0.7,1.1-1.5,1.3-2.1c0.7-1.6,0.9-4.4,1.2-5.8c0.1-0.4,0.2-0.7,0.3-0.8c0.3-0.4,1-1.2,1-2.1c0-0.9-0.6-1.8-1.2-1.8
							c-0.3-0.1-0.7-0.1-1.1-0.1c-3.5-0.4-8.1-0.6-10.8,0.1c-3.4,0.9-4.6,2-6.5,2c-1.8,0-2.9-1.2-6.2-2.2c-2.6-0.8-6.9-0.8-10.1-0.5
							c-0.3,0-0.7,0.1-1,0.1C145.3,79.6,144.7,80.4,144.8,81.4z M167.3,83.5c0.2-0.3,0.5-0.5,1-0.8c0.1,0,0.1-0.1,0.2-0.1
							c0,0,0.1,0,0.1-0.1c0.2-0.1,0.3-0.2,0.5-0.2c0.1-0.1,0.3-0.1,0.4-0.2c0.4-0.2,0.9-0.3,1.5-0.5c0.2,0,0.4-0.1,0.6-0.1
							c0.5-0.1,1-0.2,1.5-0.2c0.1,0,0.2,0,0.4,0c3.3-0.3,5.4,0.5,6.1,1.2c0.8,0.7,0.4,3.7,0.1,5.3c0,0,0,0.1,0,0.1c0,0,0,0.1,0,0.1
							c0,0.2-0.1,0.4-0.1,0.6c0,0.1-0.1,0.3-0.1,0.4c0,0,0,0,0,0c-0.1,0.2-0.1,0.4-0.2,0.6v0c0,0.1-0.1,0.1-0.1,0.2
							c0,0,0,0.1-0.1,0.1c0,0,0,0.1-0.1,0.1c0,0.1-0.1,0.1-0.1,0.2c0,0.1-0.1,0.1-0.1,0.2c0,0.1-0.1,0.1-0.1,0.2
							c0,0.1-0.1,0.1-0.1,0.2c-0.8,1.2-2.2,2.2-4.6,2.2c-2.4,0-3.9-0.8-4.9-1.9l0,0c-1-1-1.4-2.3-1.6-3.1
							C166.9,86.5,166.6,84.5,167.3,83.5z M147.9,81.9c0.2-0.2,0.4-0.4,0.8-0.5c0,0,0,0,0.1,0c0.1,0,0.2-0.1,0.4-0.1
							c0.1,0,0.1,0,0.2-0.1c0.1,0,0.1,0,0.2-0.1c0,0,0.1,0,0.1,0c0,0,0,0,0,0c0.1,0,0.1,0,0.2,0c0.2-0.1,0.5-0.1,0.8-0.1
							c0.1,0,0.3,0,0.4,0c0.1,0,0.2,0,0.2,0c0.1,0,0.1,0,0.2,0c0.2,0,0.3,0,0.5,0c0.1,0,0.1,0,0.2,0c0.1,0,0.1,0,0.2,0
							c0.5,0,1,0.1,1.5,0.1c2.4,0.3,4.8,1.4,5.4,2.4c0.6,1,0.5,3,0.2,4.7c-0.1,0.3-0.2,0.7-0.3,1.2c0,0,0,0.1,0,0.1c0,0,0,0.1,0,0.1
							c0,0,0,0.1,0,0.1c0,0,0,0.1-0.1,0.1c0,0.1-0.1,0.2-0.1,0.3c0,0.1-0.1,0.2-0.1,0.2c0,0,0,0.1,0,0.1c0,0.1-0.1,0.1-0.1,0.2
							c0,0-0.1,0.1-0.1,0.1c0,0,0,0,0,0c-0.8,1.3-2.3,2.3-4.9,2.2c-1,0-1.8-0.3-2.5-0.6c-2.3-1.2-2.9-3.8-3.2-5
							C147.6,85.6,147.2,82.6,147.9,81.9z"/>
					</g>
					<path id="XMLID_1140_" class="st9" d="M163.8,85l-0.4,12.9l-7.2-2.1l6.7-10.9C163.2,84.8,163.5,84.9,163.8,85z"/>
				</g>
			</g>
		</g>
		<g id="Speech_Bubble_6_">
			<g id="Speech_Bubble_7_">
				<ellipse id="XMLID_398_" class="st2" cx="264" cy="54.2" rx="37.1" ry="32.5"/>
				<path id="XMLID_395_" class="st2" d="M234.4,72.9c-0.2,4.4-3.9,12.1-10.5,15c-0.4,0.2-0.4,0.8,0.1,0.9
					c3.6,0.8,13.3,1.7,20.5-7.8L234.4,72.9z"/>
			</g>
			<g>
				<path class="st13" d="M238.9,51.6c0.1-1.5,0.4-2.8,1-4.1c0.6-1.3,1.4-2.4,2.4-3.4c1-0.9,2.3-1.7,3.7-2.3
					c1.5-0.6,3.2-0.8,5.1-0.8c1.9,0,3.6,0.3,5.1,0.8c1.5,0.6,2.7,1.3,3.8,2.3c1,0.9,1.8,2.1,2.4,3.4c0.6,1.3,0.9,2.7,1,4.1
					c0.1,1.1,0.1,2.3,0.1,3.5c0,1.2,0,2.4-0.1,3.4c-0.1,1.5-0.4,2.8-1,4.1c-0.6,1.3-1.4,2.4-2.4,3.4c-1,1-2.3,1.7-3.8,2.3
					c-1.5,0.5-3.2,0.8-5.1,0.8c-1.9,0-3.6-0.3-5.1-0.8c-1.5-0.5-2.7-1.3-3.7-2.3c-1-1-1.8-2.1-2.4-3.4c-0.6-1.3-0.9-2.7-1-4.1
					c-0.1-1.1-0.1-2.2-0.1-3.4C238.8,53.9,238.8,52.7,238.9,51.6z M256,58.3c0-0.5,0.1-1,0.1-1.6c0-0.6,0-1.2,0-1.8
					c0-0.6,0-1.2,0-1.7c0-0.6-0.1-1.1-0.1-1.5c-0.1-0.6-0.2-1.2-0.4-1.8c-0.2-0.5-0.5-1-0.9-1.4c-0.4-0.4-0.9-0.7-1.5-1
					c-0.6-0.2-1.3-0.4-2.1-0.4c-0.8,0-1.5,0.1-2.1,0.4c-0.6,0.2-1.1,0.6-1.5,1c-0.4,0.4-0.7,0.9-0.9,1.4c-0.2,0.5-0.4,1.1-0.4,1.8
					c-0.1,0.4-0.1,0.9-0.1,1.5c0,0.6,0,1.1,0,1.7c0,0.6,0,1.2,0,1.8c0,0.6,0,1.1,0.1,1.6c0.1,1.3,0.6,2.4,1.3,3.2
					c0.8,0.9,2,1.3,3.6,1.3c1.6,0,2.8-0.4,3.6-1.3C255.4,60.7,255.9,59.6,256,58.3z"/>
				<path class="st13" d="M290.9,67.4c0.1,0.1,0.1,0.2,0.1,0.4c0,0.2-0.1,0.4-0.3,0.6c-0.2,0.2-0.4,0.3-0.6,0.3H284
					c-0.4,0-0.7-0.1-0.9-0.2c-0.2-0.2-0.5-0.4-0.7-0.7l-7.4-9.3v9.1c0,0.3-0.1,0.5-0.3,0.7c-0.2,0.2-0.5,0.3-0.7,0.3h-5.1
					c-0.3,0-0.5-0.1-0.7-0.3c-0.2-0.2-0.3-0.5-0.3-0.7V42.5c0-0.3,0.1-0.5,0.3-0.7s0.5-0.3,0.7-0.3h5.1c0.3,0,0.5,0.1,0.7,0.3
					c0.2,0.2,0.3,0.5,0.3,0.7v8.2l6.9-8.4c0.1-0.2,0.3-0.3,0.5-0.5s0.6-0.3,1.1-0.3h6.1c0.2,0,0.4,0.1,0.6,0.3
					c0.2,0.2,0.3,0.4,0.3,0.6c0,0.2,0,0.3-0.1,0.4l-9.6,11.8L290.9,67.4z"/>
			</g>
		</g>
		<g id="Like_icon_2_">
			<polygon class="st1" points="359.6,84.8 354,86.5 350,73 355.6,71.3 			"/>
			<path class="st1" d="M377.1,72.8c0.2,0.7-0.5,2.3-1.6,2.6c0,0,0.5,0.6,0.8,1.4c0.3,1-0.5,2.5-2.2,3c-1.7,0.5-12.8,3.9-12.8,3.9
				l-3.8-12.6l0,0c0,0,2.2-5.6,2.3-6.4c0.1-0.8-1.2-3.9-1.3-4.5c-0.1-0.5,1.9-1.3,3.5-0.7c0.4,0.2,0.7,0.4,1,0.7
				c0.6,0.7,1.1,1.4,1.5,2.1c0.6,1.1,0.8,2.2,0.8,3.5l7.8-2.3c0.6-0.2,1.2-0.1,1.7,0.1c0.7,0.3,1.1,0.9,1.3,1.4
				c0.4,1.1-0.3,2-0.7,2.3c0,0,1.7-0.1,2.1,1.4c0.3,0.9-0.2,2-1.3,2.6C376.1,71.4,376.8,71.8,377.1,72.8z"/>
		</g>
		<g id="Like_icon_1_">
			<polygon class="st1" points="440,225.1 432.8,223.4 437,206.1 444.2,207.8 			"/>
			<path class="st1" d="M466.8,223.2c-0.2,0.9-2,2.2-3.4,1.8c0,0,0.2,0.9-0.1,2.1c-0.3,1.3-2.1,2.3-4.3,1.8c-2.1-0.5-16.5-4-16.5-4
				l3.9-16.1l0,0c0,0,5.9-4.7,6.6-5.5c0.7-0.8,1.2-5,1.4-5.8c0.1-0.6,2.9-0.2,4.3,1.5c0.3,0.4,0.6,0.9,0.7,1.5
				c0.3,1.2,0.3,2.2,0.3,3.2c-0.1,1.6-0.6,2.9-1.4,4.4l9.9,2.4c0.8,0.2,1.4,0.6,1.8,1.1c0.6,0.8,0.7,1.7,0.5,2.3
				c-0.3,1.5-1.6,2-2.2,2.1c0,0,1.9,0.9,1.4,2.9c-0.3,1.1-1.5,2.1-3.1,2C466.6,221,467.1,221.8,466.8,223.2z"/>
		</g>
		<g id="Like_icon_4_">
			<polygon class="st1" points="76.8,214.8 84.7,217.1 90.3,198.2 82.5,195.8 			"/>
			<path class="st1" d="M52.3,197.9c-0.3,1,0.7,3.2,2.2,3.7c0,0-0.7,0.8-1.1,2c-0.5,1.5,0.7,3.4,3.1,4.1c2.3,0.7,18,5.4,18,5.4
				l5.3-17.6l0,0c0,0-3-7.8-3.2-9c-0.2-1.2,1.6-5.5,1.9-6.3c0.2-0.7-2.7-1.9-5-0.9c-0.5,0.2-1,0.5-1.5,1c-0.9,1-1.6,2-2.1,3
				c-0.8,1.5-1.1,3.1-1.1,5L58,185c-0.9-0.3-1.7-0.2-2.3,0.1c-1,0.4-1.6,1.2-1.8,1.9c-0.5,1.6,0.4,2.8,0.9,3.3c0,0-2.3-0.2-3,2
				c-0.4,1.2,0.2,2.8,1.8,3.6C53.7,195.9,52.7,196.4,52.3,197.9z"/>
		</g>
	</g>
</g>
</svg>
