<?xml version="1.0" encoding="utf-8"?>
<!-- Generator: Adobe Illustrator 24.0.0, SVG Export Plug-In . SVG Version: 6.00 Build 0)  -->
<svg version="1.1" id="Layer_1" xmlns="http://www.w3.org/2000/svg" xmlns:xlink="http://www.w3.org/1999/xlink" x="0px" y="0px"
	 viewBox="0 0 48 48" style="enable-background:new 0 0 48 48;" xml:space="preserve">
<style type="text/css">
	.st0{fill:#EF0E40;}
</style>
<path class="st0" d="M32.3,25.1c-1.6-1.4-3.1-2.8-4.5-4.1c-1.4-1.3-2.7-2.6-3.7-3.9c-1.1-1.3-1.9-2.5-2.5-3.7c-0.6-1.2-1-2.3-1-3.4
	c0-1.7,0.6-3.2,1.8-4.3c1.2-1.2,2.6-1.7,4.4-1.8c1,0,2,0.3,3,0.8s1.9,1.3,2.6,2.2c0.8-0.9,1.6-1.7,2.6-2.2c1-0.6,2-0.8,3-0.8
	c1.7,0,3.2,0.6,4.3,1.8S44,8.3,44,10c0,1.1-0.3,2.2-1,3.4c-0.6,1.2-1.5,2.4-2.5,3.7s-2.3,2.6-3.7,3.9S33.9,23.7,32.3,25.1z M32.3,21
	c2.2-2,4.2-4,6-5.9c1.8-2,2.7-3.6,2.7-5c0-0.9-0.3-1.6-0.9-2.2s-1.3-0.9-2.2-0.9c-0.6,0-1.1,0.1-1.7,0.4c-0.5,0.3-1.1,0.8-1.7,1.5
	l-2.3,2.8l-2.3-2.8c-0.6-0.7-1.1-1.2-1.7-1.5c-0.6-0.3-1.1-0.4-1.7-0.4c-0.9,0-1.6,0.3-2.2,0.9c-0.6,0.6-0.9,1.3-0.9,2.2
	c0,1.4,0.9,3,2.7,5C28.1,17,30.1,19,32.3,21z M28.3,44.9l-15.6-4.5v2.8H2V23.6h15.5l12.8,4.8c0.9,0.3,1.7,0.9,2.3,1.6
	c0.6,0.8,0.9,1.8,0.9,3.2h5.7c1.4,0,2.6,0.5,3.5,1.5s1.4,2.4,1.4,4v1.3L28.3,44.9z M5,40.3h4.7V26.6H5V40.3z M28.1,41.8l12.8-3.9
	c-0.2-0.6-0.5-1.1-0.8-1.3s-0.7-0.3-1-0.3H28.8c-1,0-1.9-0.1-2.8-0.2c-0.9-0.1-1.7-0.3-2.4-0.5l-4.1-1.3l1.1-2.9l3.6,1.2
	c0.8,0.3,1.6,0.5,2.4,0.5c0.8,0.1,1.9,0.2,3.6,0.2c0-0.4-0.1-0.8-0.2-1.2c-0.2-0.4-0.4-0.7-0.8-0.8L17,26.6h-4.2v10.7L28.1,41.8z"/>
</svg>
