<?xml version="1.0" encoding="utf-8"?>
<!-- Generator: Adobe Illustrator 24.0.0, SVG Export Plug-In . SVG Version: 6.00 Build 0)  -->
<svg version="1.1" id="Layer_1" xmlns="http://www.w3.org/2000/svg" xmlns:xlink="http://www.w3.org/1999/xlink" x="0px" y="0px"
	 viewBox="0 0 48 48" style="enable-background:new 0 0 48 48;" xml:space="preserve">
<style type="text/css">
	.st0{fill:#3F0E40;}
</style>
<path class="st0" d="M32.6,27.2c0.8,0,1.6-0.3,2.2-1c0.6-0.7,1-1.4,1-2.3c0-0.8-0.3-1.6-1-2.2s-1.4-1-2.2-1c-0.8,0-1.6,0.3-2.2,1
	c-0.6,0.6-1,1.4-1,2.2c0,0.9,0.3,1.6,1,2.3C31,26.9,31.8,27.2,32.6,27.2z M9,36.3V39V9v2.7V36.3z M6,42V6h36v9.7h-3V9H9v30h30v-6.7
	h3V42H6z M23.2,14.7h20.9v18.6H23.2V14.7z"/>
</svg>
