<!-- Generator: Adobe Illustrator 24.0.0, SVG Export Plug-In  -->
<svg version="1.1" xmlns="http://www.w3.org/2000/svg" xmlns:xlink="http://www.w3.org/1999/xlink" x="0px" y="0px" width="53.3px"
	 height="53.3px" viewBox="0 0 53.3 53.3" style="enable-background:new 0 0 53.3 53.3;" xml:space="preserve">
<style type="text/css">
	.st0{fill:#3556FB;}
</style>
<defs>
</defs>
<g>
	<g>
		<g>
			<path class="st0" d="M32.27,19.78c-0.57,0-1.04,0.47-1.04,1.04c0,0.57,0.47,1.04,1.04,1.04c0.57,0,1.04-0.47,1.04-1.04
				C33.31,20.25,32.85,19.78,32.27,19.78z"/>
		</g>
	</g>
	<g>
		<g>
			<path class="st0" d="M52.08,46.19l-13.9-13.9c2.26-3.41,3.46-7.36,3.46-11.48C41.64,9.34,32.3,0,20.82,0S0,9.34,0,20.82
				s9.34,20.82,20.82,20.82c4.12,0,8.07-1.19,11.48-3.46l3.84,3.84c0,0,0,0,0,0l10.05,10.05c0.79,0.79,1.83,1.22,2.94,1.22
				c1.11,0,2.16-0.43,2.94-1.22c0.79-0.79,1.22-1.83,1.22-2.94C53.3,48.03,52.87,46.98,52.08,46.19z M31.81,35.99
				C31.81,35.99,31.81,35.99,31.81,35.99c-3.21,2.33-7.01,3.57-10.99,3.57c-10.33,0-18.74-8.41-18.74-18.74S10.49,2.08,20.82,2.08
				s18.74,8.41,18.74,18.74c0,3.97-1.23,7.77-3.57,10.99C34.82,33.42,33.42,34.82,31.81,35.99z M33.99,36.94
				c1.08-0.88,2.06-1.87,2.94-2.94l2.95,2.95c-0.9,1.06-1.88,2.05-2.94,2.94L33.99,36.94z M50.61,50.61
				c-0.39,0.39-0.92,0.61-1.47,0.61c-0.56,0-1.08-0.22-1.47-0.61l-9.24-9.24c1.05-0.9,2.04-1.89,2.94-2.94l9.24,9.24
				c0.39,0.39,0.61,0.92,0.61,1.47C51.22,49.69,51,50.22,50.61,50.61z"/>
		</g>
	</g>
	<g>
		<g>
			<path class="st0" d="M20.82,4.16c-9.18,0-16.66,7.47-16.66,16.66s7.47,16.66,16.66,16.66s16.66-7.47,16.66-16.66
				S30.01,4.16,20.82,4.16z M20.82,35.4c-8.04,0-14.57-6.54-14.57-14.57S12.78,6.25,20.82,6.25S35.4,12.78,35.4,20.82
				S28.86,35.4,20.82,35.4z"/>
		</g>
	</g>
	<g>
		<g>
			<path class="st0" d="M32.49,16.35c-0.9-2.33-2.46-4.33-4.51-5.77c-2.11-1.48-4.58-2.25-7.15-2.25c-0.57,0-1.04,0.47-1.04,1.04
				c0,0.57,0.47,1.04,1.04,1.04c4.28,0,8.19,2.69,9.72,6.69c0.16,0.41,0.55,0.67,0.97,0.67c0.12,0,0.25-0.02,0.37-0.07
				C32.43,17.49,32.69,16.89,32.49,16.35z"/>
		</g>
	</g>
</g>
</svg>
