<!-- Generator: Adobe Illustrator 24.0.0, SVG Export Plug-In  -->
<svg version="1.1" xmlns="http://www.w3.org/2000/svg" xmlns:xlink="http://www.w3.org/1999/xlink" x="0px" y="0px" width="56.16px"
	 height="45.71px" viewBox="0 0 56.16 45.71" style="enable-background:new 0 0 56.16 45.71;" xml:space="preserve">
<style type="text/css">
	.st0{fill:#3556FB;}
</style>
<defs>
</defs>
<g>
	<g>
		<g>
			<path class="st0" d="M53.13,6.78H37.2V3.03C37.2,1.36,35.85,0,34.17,0H22.01c-1.67,0-3.05,1.36-3.05,3.03v3.74H3.03
				C1.36,6.78,0,8.14,0,9.81v32.86c0,1.67,1.36,3.03,3.03,3.03h50.09c1.68,0,3.03-1.36,3.03-3.03V9.81
				C56.16,8.14,54.81,6.78,53.13,6.78z M21.4,3.03c0-0.33,0.28-0.6,0.61-0.6h12.16c0.33,0,0.6,0.27,0.6,0.6v3.74H21.4V3.03z
				 M53.73,42.67c0,0.33-0.27,0.6-0.6,0.6H3.03c-0.32,0-0.6-0.27-0.6-0.6V21.43h20.81v2.45c0,1.28,1.04,2.32,2.32,2.32h5.04
				c1.28,0,2.32-1.04,2.32-2.32v-2.45h20.8V42.67z M25.08,23.88v-2.45h6.02v2.45c0,0.27-0.22,0.49-0.49,0.49h-5.04
				C25.3,24.37,25.08,24.15,25.08,23.88z M53.73,18.96H2.44V9.81c0-0.33,0.28-0.6,0.6-0.6h50.09c0.33,0,0.6,0.27,0.6,0.6V18.96z"/>
		</g>
	</g>
	<g>
		<path class="st0" d="M28.78,22.85c0,0.36-0.29,0.65-0.65,0.65c-0.36,0-0.65-0.29-0.65-0.65c0-0.36,0.29-0.65,0.65-0.65
			C28.48,22.2,28.78,22.5,28.78,22.85z"/>
	</g>
</g>
</svg>
