<?xml version="1.0" encoding="utf-8"?>
<!-- Generator: Adobe Illustrator 24.0.0, SVG Export Plug-In . SVG Version: 6.00 Build 0)  -->
<svg version="1.1" id="Layer_1" xmlns="http://www.w3.org/2000/svg" xmlns:xlink="http://www.w3.org/1999/xlink" x="0px" y="0px"
	 viewBox="0 0 40 40" style="enable-background:new 0 0 40 40;" xml:space="preserve">
<style type="text/css">
	.st0{fill-rule:evenodd;clip-rule:evenodd;fill:#3556FB;stroke:#3556FB;stroke-miterlimit:10;}
</style>
<g>
	<path class="st0" d="M34.76,16.47C33.13,9.66,27.25,5.02,20.17,4.92c-0.93,0.05-1.94,0.12-2.86,0.29
		C7.37,7.22,2.26,18.18,7.06,27.01c0.17,0.25,0.17,0.47,0.14,0.75c-0.7,2.29-1.34,4.65-1.96,6.96c-0.1,0.4-0.1,0.4,0.28,0.3
		c2.42-0.67,4.83-1.28,7.25-1.88c0.21-0.07,0.36-0.07,0.54,0.02c3.11,1.59,6.39,2.03,9.82,1.38C31.34,32.96,36.72,24.59,34.76,16.47
		z M22.27,32.15c-0.71,0.12-1.39,0.19-1.73,0.15c-2.64,0-4.77-0.6-6.75-1.73c-0.28-0.17-0.49-0.22-0.76-0.12
		c-1.35,0.32-2.67,0.69-4.01,1.03c-0.27,0.08-0.3,0.02-0.24-0.24c0.36-1.24,0.69-2.5,1.08-3.78c0.09-0.34,0.06-0.62-0.16-0.89
		C7,22.14,7.12,16.72,10.15,12.61c3.16-4.22,7.5-5.98,12.65-4.87c5.08,1.06,8.35,4.37,9.5,9.43C33.94,24.13,29.26,31.01,22.27,32.15
		z"/>
</g>
</svg>
