<!-- Generator: Adobe Illustrator 24.0.0, SVG Export Plug-In  -->
<svg version="1.1" xmlns="http://www.w3.org/2000/svg" xmlns:xlink="http://www.w3.org/1999/xlink" x="0px" y="0px"
	 width="173.86px" height="133.96px" viewBox="0 0 173.86 133.96" style="enable-background:new 0 0 173.86 133.96;"
	 xml:space="preserve">
<style type="text/css">
	.st0{fill:#3556FB;}
	.st1{fill:#F7F8F9;}
	.st2{fill:url(#SVGID_1_);}
	.st3{fill:url(#SVGID_2_);}
</style>
<defs>
</defs>
<g>
	<g>
		<g>
			<g>
				<g>
					<path class="st0" d="M145.6,133.96h-87V9h87V133.96z M60.89,131.96h82.43V11H60.89V131.96z"/>
				</g>
				<g>
					<path class="st0" d="M138.93,113h-72V9h72V113z M68.82,111.34h68.22V10.66H68.82V111.34z"/>
				</g>
				<rect x="67.69" y="17.5" class="st0" width="71.24" height="1.63"/>
				<rect x="67.36" y="26.19" class="st0" width="71.55" height="1.63"/>
				<rect x="68.74" y="34.45" class="st0" width="70.01" height="2.18"/>
				<rect x="71.42" y="43.28" class="st0" width="67.57" height="2.18"/>
				<rect x="71.05" y="51.91" class="st0" width="67.57" height="1.7"/>
				<rect x="70.72" y="60.36" class="st0" width="67.57" height="1.63"/>
				<rect x="70.72" y="68.91" class="st0" width="67.57" height="1.63"/>
				<rect x="70.72" y="77.17" class="st0" width="67.57" height="1.63"/>
				<rect x="70.97" y="85.86" class="st0" width="67.57" height="1.63"/>
				<rect x="70.72" y="94.34" class="st0" width="67.57" height="1.63"/>
				<rect x="70.8" y="102.75" class="st0" width="67.57" height="1.63"/>
			</g>
			<g>
				<path class="st0" d="M123.25,11H80.96V0h42.29V11z M83.24,9.23h37.72V1.77H83.24V9.23z"/>
			</g>
		</g>
		<g>
			<g>
				<g>
					<rect x="42" y="36.08" class="st1" width="78.9" height="8.34"/>
					<rect x="49.81" y="43.83" class="st1" width="63.45" height="8.5"/>
				</g>
				<rect x="41.36" y="52.9" class="st1" width="79.54" height="80.43"/>
				<g>
					<path class="st0" d="M123.25,133.89H39.83V51.91h83.42V133.89z M42.44,132.19h78.2V53.61h-78.2V132.19z"/>
				</g>
				<g>
					<path class="st0" d="M123.25,45.47H39.83V34.45h83.42V45.47z M42.44,43.28h78.2v-6.64h-78.2V43.28z"/>
				</g>
				<g>
					<linearGradient id="SVGID_1_" gradientUnits="userSpaceOnUse" x1="6.7531" y1="168.8206" x2="196.3003" y2="-41.9232">
						<stop  offset="0.2275" style="stop-color:#0305DB"/>
						<stop  offset="0.4059" style="stop-color:#0236E7"/>
						<stop  offset="0.5935" style="stop-color:#0162F1"/>
						<stop  offset="0.7619" style="stop-color:#0182F9"/>
						<stop  offset="0.9031" style="stop-color:#0095FD"/>
						<stop  offset="1" style="stop-color:#009CFF"/>
					</linearGradient>
					<rect x="113.26" y="45" class="st2" width="2.61" height="7.91"/>
				</g>
				<g>
					<rect x="47.6" y="45" class="st0" width="2.61" height="7.91"/>
				</g>
				<g>
					<path class="st0" d="M97.1,133.89h-31.1V111.5h31.1V133.89z M68.6,132.18h25.88v-18.98H68.6V132.18z"/>
				</g>
				<rect x="79.58" y="112.9" class="st0" width="3.99" height="19.7"/>
			</g>
		</g>
	</g>
	<g>
		<g>
			<path class="st0" d="M22.75,132.34l-0.38-1.06c-0.03-0.06-0.07-0.12-0.13-0.22c-0.05-0.07-0.1-0.13-0.2-0.25
				c-0.04-0.05-0.08-0.1-0.18-0.21l-0.83-0.59c-0.05-0.03-0.1-0.05-0.14-0.07l-0.1-0.04c-0.05-0.02-0.11-0.04-0.24-0.09
				c-0.09-0.02-0.17-0.05-0.26-0.06c-0.1-0.03-0.19-0.1-0.23-0.21c-0.02-0.06-0.04-0.12-0.09-0.22l-0.09-0.18
				c-0.06-0.11-0.13-0.22-0.23-0.35l-0.12-0.16c-0.09-0.09-0.18-0.19-0.3-0.3l-0.18-0.13l-0.73-0.4c-0.25-0.09-0.51-0.15-0.77-0.17
				c-0.15-0.01-0.27-0.13-0.29-0.28c-0.11-1.51-1.39-2.69-2.9-2.69c-1.18,0-2.24,0.7-2.69,1.79c-0.06,0.12-0.19,0.19-0.31,0.19
				c-0.09-0.01-0.17-0.01-0.23-0.01c-0.62,0-1.2,0.18-1.68,0.5c-0.32,0.21-0.6,0.48-0.82,0.8c-0.33,0.47-0.53,1.04-0.55,1.66
				c0,0.13-0.09,0.24-0.21,0.28c-1.07,0.34-1.94,1.1-2.42,2.09c-0.05,0.1-0.1,0.2-0.14,0.31l-0.26,0.69h17.21l0.58-0.04
				L22.75,132.34z M6.62,131.96c0.38-0.53,0.92-0.93,1.55-1.14c0.53-0.17,0.89-0.65,0.91-1.2c0.01-0.39,0.13-0.75,0.32-1.05
				c0.24-0.37,0.59-0.66,1.01-0.81c0.22-0.08,0.47-0.13,0.72-0.13h0.15c0.57,0.04,1.09-0.28,1.31-0.8c0.3-0.71,0.99-1.17,1.77-1.17
				c0.99,0,1.83,0.77,1.91,1.76c0.05,0.65,0.55,1.16,1.2,1.21c0.17,0.01,0.34,0.05,0.51,0.11l0.17-0.47l-0.08,0.51l0.22-0.45
				l-0.1,0.5l0.11,0.06l0.29-0.4l-0.18,0.47l0.27-0.41l-0.18,0.48l0.31-0.4l-0.22,0.48c0.07,0.05,0.13,0.11,0.19,0.19l0.09,0.11
				c0.05,0.07,0.09,0.14,0.15,0.25l0.44-0.24l-0.38,0.35l0.04,0.12c0.16,0.42,0.52,0.74,0.96,0.83c0.06,0.02,0.12,0.03,0.23,0.07
				l0.48,0.23l0.52,0.46c0.03,0.05,0.07,0.1,0.12,0.18l0.16,0.3H6.62z"/>
		</g>
	</g>
	<path class="st0" d="M35.66,111.51c0,3.63-2.31,6.8-5.54,7.69c-1.22,2.29-3.38,3.78-5.8,4.02v9.74H22.7v-9.77
		c-2.3-0.31-4.33-1.75-5.52-3.92c-1.57-0.36-2.99-1.27-4.05-2.59c-1.15-1.44-1.78-3.27-1.78-5.17c0-2.89,1.48-5.56,3.81-6.95
		c0.24-4.82,3.95-8.66,8.47-8.66c1.42,0,2.83,0.39,4.07,1.12c0.39,0.23,0.52,0.73,0.29,1.12c-0.23,0.38-0.73,0.51-1.11,0.28
		c-0.99-0.58-2.12-0.89-3.25-0.89c-3.78,0-6.86,3.37-6.86,7.52c0,0.3-0.18,0.58-0.45,0.72c-2.03,1.03-3.34,3.28-3.34,5.74
		c0,3.1,2.09,5.78,4.88,6.24c0.26,0.04,0.48,0.21,0.6,0.45c0.87,1.81,2.44,3.03,4.24,3.34v-7.18l-4-3.67
		c-0.33-0.31-0.35-0.82-0.05-1.15c0.31-0.33,0.82-0.35,1.15-0.05l2.9,2.67v-5.42c0-0.45,0.36-0.81,0.81-0.81s0.81,0.36,0.81,0.81
		v9.82l2.89-2.66c0.33-0.3,0.85-0.28,1.15,0.05c0.31,0.33,0.28,0.84-0.05,1.14l-3.99,3.68v2.81c1.91-0.25,3.6-1.51,4.51-3.43
		c0.1-0.23,0.31-0.39,0.56-0.44c2.7-0.58,4.65-3.18,4.65-6.2c0-2.38-1.2-4.54-3.13-5.63c-0.26-0.14-0.42-0.42-0.42-0.71v-0.07
		c0.01-0.01,0.01-0.03,0.01-0.04c0-1.69-0.5-3.29-1.45-4.62c-0.26-0.36-0.17-0.87,0.2-1.13c0.36-0.26,0.87-0.17,1.13,0.19
		c1.07,1.52,1.67,3.32,1.73,5.22C34.31,106.15,35.66,108.71,35.66,111.51z"/>
	<path class="st0" d="M172.8,111.51c0,3.63-2.31,6.8-5.54,7.69c-1.22,2.29-3.38,3.78-5.8,4.02v9.74h-1.62v-9.77
		c-2.3-0.31-4.33-1.75-5.52-3.92c-1.57-0.36-2.99-1.27-4.05-2.59c-1.15-1.44-1.78-3.27-1.78-5.17c0-2.89,1.48-5.56,3.81-6.95
		c0.24-4.82,3.95-8.66,8.47-8.66c1.42,0,2.83,0.39,4.07,1.12c0.39,0.23,0.52,0.73,0.29,1.12c-0.23,0.38-0.73,0.51-1.11,0.28
		c-0.99-0.58-2.12-0.89-3.25-0.89c-3.78,0-6.86,3.37-6.86,7.52c0,0.3-0.18,0.58-0.45,0.72c-2.03,1.03-3.34,3.28-3.34,5.74
		c0,3.1,2.09,5.78,4.88,6.24c0.26,0.04,0.48,0.21,0.6,0.45c0.87,1.81,2.44,3.03,4.24,3.34v-7.18l-4-3.67
		c-0.33-0.31-0.35-0.82-0.05-1.15c0.31-0.33,0.82-0.35,1.15-0.05l2.9,2.67v-5.42c0-0.45,0.36-0.81,0.81-0.81s0.81,0.36,0.81,0.81
		v9.82l2.89-2.66c0.33-0.3,0.85-0.28,1.15,0.05c0.31,0.33,0.28,0.84-0.05,1.14l-3.99,3.68v2.81c1.91-0.25,3.6-1.51,4.51-3.43
		c0.1-0.23,0.31-0.39,0.56-0.44c2.7-0.58,4.65-3.18,4.65-6.2c0-2.38-1.2-4.54-3.13-5.63c-0.26-0.14-0.42-0.42-0.42-0.71v-0.07
		c0.01-0.01,0.01-0.03,0.01-0.04c0-1.69-0.5-3.29-1.45-4.62c-0.26-0.36-0.17-0.87,0.2-1.13c0.36-0.26,0.87-0.17,1.13,0.19
		c1.07,1.52,1.67,3.32,1.73,5.22C171.45,106.15,172.8,108.71,172.8,111.51z"/>
	<path class="st0" d="M172.86,133.96H1c-0.55,0-1-0.45-1-1l0,0c0-0.55,0.45-1,1-1h171.86c0.55,0,1,0.45,1,1l0,0
		C173.86,133.51,173.41,133.96,172.86,133.96z"/>
	<path class="st0" d="M112.27,68.16v11.12H71.03V68.16H112.27 M114.4,66.07H68.9v15.3h45.5V66.07L114.4,66.07z"/>
	<path class="st0" d="M60.49,68.16v11.12H50.9V68.16H60.49 M62.62,66.07H48.77v15.3h13.84V66.07L62.62,66.07z"/>
</g>
</svg>
