<!-- Generator: Adobe Illustrator 24.0.0, SVG Export Plug-In  -->
<svg version="1.1" xmlns="http://www.w3.org/2000/svg" xmlns:xlink="http://www.w3.org/1999/xlink" x="0px" y="0px" width="55.4px"
	 height="55.4px" viewBox="0 0 55.4 55.4" style="enable-background:new 0 0 55.4 55.4;" xml:space="preserve">
<style type="text/css">
	.st0{fill:url(#SVGID_1_);}
	.st1{fill:url(#SVGID_2_);}
	.st2{fill:url(#SVGID_3_);}
	.st3{fill:url(#SVGID_4_);}
	.st4{fill:url(#SVGID_5_);}
	.st5{fill:url(#SVGID_6_);}
	.st6{fill:url(#SVGID_7_);}
	.st7{fill:url(#SVGID_8_);}
	.st8{fill:url(#SVGID_9_);}
	.st9{fill:url(#SVGID_10_);}
	.st10{fill:url(#SVGID_11_);}
	.st11{fill:url(#SVGID_12_);}
</style>
<defs>
</defs>
<g>
	<g>
		<g>
			<linearGradient id="SVGID_1_" gradientUnits="userSpaceOnUse" x1="-6.3007" y1="55.0048" x2="75.4015" y2="-11.3782">
				<stop  offset="0.2275" style="stop-color:#0305DB"/>
				<stop  offset="0.4059" style="stop-color:#0236E7"/>
				<stop  offset="0.5935" style="stop-color:#0162F1"/>
				<stop  offset="0.7619" style="stop-color:#0182F9"/>
				<stop  offset="0.9031" style="stop-color:#0095FD"/>
				<stop  offset="1" style="stop-color:#009CFF"/>
			</linearGradient>
			<path class="st0" d="M46.75,10.82c-0.6,0-1.08,0.48-1.08,1.08c0,0.6,0.48,1.08,1.08,1.08c0.6,0,1.08-0.48,1.08-1.08
				C47.83,11.31,47.34,10.82,46.75,10.82z"/>
		</g>
	</g>
	<g>
		<g>
			<linearGradient id="SVGID_2_" gradientUnits="userSpaceOnUse" x1="-21.4472" y1="36.3629" x2="60.2549" y2="-30.0201">
				<stop  offset="0.2275" style="stop-color:#0305DB"/>
				<stop  offset="0.4059" style="stop-color:#0236E7"/>
				<stop  offset="0.5935" style="stop-color:#0162F1"/>
				<stop  offset="0.7619" style="stop-color:#0182F9"/>
				<stop  offset="0.9031" style="stop-color:#0095FD"/>
				<stop  offset="1" style="stop-color:#009CFF"/>
			</linearGradient>
			<path class="st1" d="M8.66,10.82c-0.6,0-1.08,0.48-1.08,1.08c0,0.6,0.48,1.08,1.08,1.08c0.6,0,1.08-0.48,1.08-1.08
				C9.74,11.31,9.25,10.82,8.66,10.82z"/>
		</g>
	</g>
	<g>
		<g>
			<linearGradient id="SVGID_3_" gradientUnits="userSpaceOnUse" x1="0.8013" y1="63.7456" x2="82.5034" y2="-2.6374">
				<stop  offset="0.2275" style="stop-color:#0305DB"/>
				<stop  offset="0.4059" style="stop-color:#0236E7"/>
				<stop  offset="0.5935" style="stop-color:#0162F1"/>
				<stop  offset="0.7619" style="stop-color:#0182F9"/>
				<stop  offset="0.9031" style="stop-color:#0095FD"/>
				<stop  offset="1" style="stop-color:#009CFF"/>
			</linearGradient>
			<path class="st2" d="M54.32,23.81h-1.29c-0.4-3.12-1.38-6.09-2.92-8.84c-0.29-0.52-0.95-0.71-1.47-0.42
				c-0.52,0.29-0.71,0.95-0.42,1.47c1.35,2.43,2.23,5.05,2.62,7.79h-0.85c-0.6,0-1.08,0.48-1.08,1.08v4.33
				c0,0.6,0.48,1.08,1.08,1.08h4.33c0.6,0,1.08-0.48,1.08-1.08v-4.33C55.4,24.29,54.92,23.81,54.32,23.81z M53.24,28.13h-2.16v-2.16
				h0.98c0,0,0,0,0,0c0,0,0,0,0,0h1.18V28.13z"/>
		</g>
	</g>
	<g>
		<g>
			<linearGradient id="SVGID_4_" gradientUnits="userSpaceOnUse" x1="-2.2029" y1="60.0482" x2="79.4993" y2="-6.3348">
				<stop  offset="0.2275" style="stop-color:#0305DB"/>
				<stop  offset="0.4059" style="stop-color:#0236E7"/>
				<stop  offset="0.5935" style="stop-color:#0162F1"/>
				<stop  offset="0.7619" style="stop-color:#0182F9"/>
				<stop  offset="0.9031" style="stop-color:#0095FD"/>
				<stop  offset="1" style="stop-color:#009CFF"/>
			</linearGradient>
			<path class="st3" d="M39.6,31.66c0-0.02,0-0.03,0-0.05c0-0.02-0.01-0.05-0.01-0.07c0-0.01,0-0.03-0.01-0.04
				c0-0.03-0.01-0.05-0.02-0.08c0-0.01,0-0.02-0.01-0.03c-0.01-0.03-0.02-0.06-0.03-0.1c0,0,0-0.01,0-0.01
				c-0.01-0.04-0.03-0.07-0.05-0.11l-10.82-19.8c-0.19-0.35-0.55-0.56-0.95-0.56c-0.4,0-0.76,0.22-0.95,0.56l-10.82,19.8
				c-0.02,0.03-0.04,0.07-0.05,0.11c0,0,0,0.01,0,0.01c-0.01,0.03-0.02,0.06-0.03,0.1c0,0.01,0,0.02-0.01,0.03
				c-0.01,0.03-0.01,0.05-0.02,0.08c0,0.01,0,0.03-0.01,0.04c0,0.02-0.01,0.05-0.01,0.07c0,0.02,0,0.03,0,0.05c0,0.01,0,0.03,0,0.04
				c0,0.01,0,0.01,0,0.02c0,0.02,0,0.03,0,0.05c0,0.02,0,0.04,0.01,0.06c0,0.01,0,0.03,0.01,0.04c0,0.02,0.01,0.05,0.01,0.07
				c0,0.01,0.01,0.03,0.01,0.04c0.01,0.02,0.01,0.05,0.02,0.07c0,0.01,0,0.01,0.01,0.02l3.9,10.34c-0.31,0.16-0.6,0.36-0.86,0.62
				c-0.61,0.61-0.95,1.43-0.95,2.3c0,1.41,0.9,2.61,2.16,3.06v5.92c0,0.6,0.48,1.08,1.08,1.08h12.99c0.6,0,1.08-0.48,1.08-1.08V48.4
				c0.45-0.16,0.86-0.42,1.21-0.77c0.61-0.61,0.95-1.43,0.95-2.3c0-1.27-0.74-2.38-1.81-2.91l3.9-10.34c0-0.01,0-0.01,0.01-0.02
				c0.01-0.02,0.02-0.05,0.02-0.07c0-0.01,0.01-0.03,0.01-0.04c0.01-0.02,0.01-0.05,0.01-0.07c0-0.01,0-0.03,0.01-0.04
				c0-0.02,0-0.04,0.01-0.06c0-0.02,0-0.03,0-0.05c0-0.01,0-0.01,0-0.02C39.61,31.69,39.6,31.68,39.6,31.66z M27.7,30.62
				c0.6,0,1.08,0.49,1.08,1.08s-0.49,1.08-1.08,1.08c-0.6,0-1.08-0.49-1.08-1.08S27.11,30.62,27.7,30.62z M33.11,53.24H22.29v-4.65
				h10.82V53.24z M34.96,46.11c-0.2,0.2-0.48,0.32-0.76,0.32H21.21c-0.6,0-1.08-0.49-1.08-1.08c0-0.29,0.11-0.56,0.32-0.76
				c0.2-0.2,0.48-0.32,0.76-0.32h12.98c0,0,0,0,0.01,0c0,0,0,0,0,0c0.6,0,1.08,0.49,1.08,1.08C35.28,45.63,35.16,45.9,34.96,46.11z
				 M33.45,42.09H21.96l-3.51-9.31h2.76c0.6,0,1.08-0.48,1.08-1.08c0-0.6-0.48-1.08-1.08-1.08h-2.5l7.91-14.48v12.51
				c-1.26,0.45-2.16,1.65-2.16,3.06c0,1.79,1.46,3.25,3.25,3.25s3.25-1.46,3.25-3.25c0-1.41-0.9-2.61-2.16-3.06V16.14l7.91,14.48
				h-2.5c-0.6,0-1.08,0.48-1.08,1.08c0,0.6,0.48,1.08,1.08,1.08h2.76L33.45,42.09z"/>
		</g>
	</g>
	<g>
		<g>
			<linearGradient id="SVGID_5_" gradientUnits="userSpaceOnUse" x1="-17.459" y1="41.2715" x2="64.2432" y2="-25.1115">
				<stop  offset="0.2275" style="stop-color:#0305DB"/>
				<stop  offset="0.4059" style="stop-color:#0236E7"/>
				<stop  offset="0.5935" style="stop-color:#0162F1"/>
				<stop  offset="0.7619" style="stop-color:#0182F9"/>
				<stop  offset="0.9031" style="stop-color:#0095FD"/>
				<stop  offset="1" style="stop-color:#009CFF"/>
			</linearGradient>
			<path class="st4" d="M6.76,14.55c-0.52-0.29-1.18-0.1-1.47,0.42c-1.53,2.75-2.51,5.72-2.92,8.84H1.08c-0.6,0-1.08,0.48-1.08,1.08
				v4.33c0,0.6,0.48,1.08,1.08,1.08h4.33c0.6,0,1.08-0.48,1.08-1.08v-4.33c0-0.6-0.48-1.08-1.08-1.08H4.56
				c0.39-2.74,1.27-5.36,2.62-7.79C7.47,15.5,7.29,14.84,6.76,14.55z M4.33,28.13H2.16v-2.16h1.18c0,0,0,0,0,0c0,0,0,0,0,0h0.98
				V28.13z"/>
		</g>
	</g>
	<g>
		<g>
			<linearGradient id="SVGID_6_" gradientUnits="userSpaceOnUse" x1="-18.1107" y1="40.4693" x2="63.5914" y2="-25.9137">
				<stop  offset="0.2275" style="stop-color:#0305DB"/>
				<stop  offset="0.4059" style="stop-color:#0236E7"/>
				<stop  offset="0.5935" style="stop-color:#0162F1"/>
				<stop  offset="0.7619" style="stop-color:#0182F9"/>
				<stop  offset="0.9031" style="stop-color:#0095FD"/>
				<stop  offset="1" style="stop-color:#009CFF"/>
			</linearGradient>
			<path class="st5" d="M52.16,0c-1.41,0-2.61,0.9-3.06,2.16H30.95V1.08c0-0.6-0.48-1.08-1.08-1.08h-4.33
				c-0.6,0-1.08,0.48-1.08,1.08v1.08H6.31C5.86,0.9,4.66,0,3.25,0C1.46,0,0,1.46,0,3.25s1.46,3.25,3.25,3.25
				c1.41,0,2.61-0.9,3.06-2.16h10.88c-2.31,0.97-4.42,2.22-6.17,3.69c-0.46,0.39-0.52,1.07-0.13,1.52c0.21,0.25,0.52,0.38,0.83,0.38
				c0.25,0,0.49-0.08,0.7-0.25c3.1-2.62,7.54-4.49,12.04-5.11v0.85c0,0.6,0.48,1.08,1.08,1.08h4.33c0.6,0,1.08-0.48,1.08-1.08V4.56
				c4.51,0.63,8.94,2.5,12.04,5.11c0.2,0.17,0.45,0.25,0.7,0.25c0.31,0,0.61-0.13,0.83-0.38c0.39-0.46,0.33-1.14-0.13-1.52
				c-1.74-1.47-3.86-2.72-6.17-3.69H49.1c0.45,1.26,1.65,2.16,3.06,2.16c1.79,0,3.25-1.46,3.25-3.25S53.95,0,52.16,0z M3.25,4.33
				c-0.6,0-1.08-0.49-1.08-1.08s0.49-1.08,1.08-1.08s1.08,0.49,1.08,1.08S3.84,4.33,3.25,4.33z M28.78,3.25v0.1v0.98h-2.16V3.34
				v-0.1V2.16h2.16V3.25z M52.16,4.33c-0.6,0-1.08-0.49-1.08-1.08s0.49-1.08,1.08-1.08c0.6,0,1.08,0.49,1.08,1.08
				S52.75,4.33,52.16,4.33z"/>
		</g>
	</g>
</g>
</svg>
