<?xml version="1.0" encoding="utf-8"?>
<!-- Generator: Adobe Illustrator 24.0.0, SVG Export Plug-In . SVG Version: 6.00 Build 0)  -->
<svg version="1.1" id="Layer_1" xmlns="http://www.w3.org/2000/svg" xmlns:xlink="http://www.w3.org/1999/xlink" x="0px" y="0px"
	 viewBox="0 0 48 48" style="enable-background:new 0 0 48 48;" xml:space="preserve">
<style type="text/css">
	.st0{fill:#09128E;}
</style>
<path class="st0" d="M24,30.5l8.7-8.7l-2.2-2.1L24,26.2l-6.5-6.5l-2.1,2.1L24,30.5z M24,44c-2.8,0-5.5-0.5-7.9-1.5
	c-2.4-1-4.6-2.4-6.4-4.2s-3.2-3.9-4.2-6.4S4,26.8,4,24c0-2.8,0.5-5.4,1.5-7.9S8,11.6,9.8,9.8s3.9-3.2,6.4-4.3S21.2,4,24,4
	c2.8,0,5.4,0.5,7.9,1.6s4.5,2.4,6.4,4.3c1.8,1.8,3.2,3.9,4.3,6.3s1.5,5,1.5,7.9c0,2.8-0.5,5.5-1.5,7.9s-2.5,4.6-4.3,6.4
	c-1.8,1.8-3.9,3.2-6.4,4.2C29.4,43.5,26.8,44,24,44z M24,24L24,24L24,24L24,24L24,24L24,24L24,24L24,24L24,24z M24,41
	c4.8,0,8.9-1.6,12.1-4.9S41,28.8,41,24s-1.6-8.9-4.9-12.1S28.8,7,24,7s-8.9,1.6-12.1,4.9S7,19.2,7,24s1.6,8.9,4.9,12.1
	S19.2,41,24,41z"/>
</svg>
