<!-- Generator: Adobe Illustrator 24.0.0, SVG Export Plug-In  -->
<svg version="1.1" xmlns="http://www.w3.org/2000/svg" xmlns:xlink="http://www.w3.org/1999/xlink" x="0px" y="0px" width="7.94px"
	 height="4.81px" viewBox="0 0 7.94 4.81" style="enable-background:new 0 0 7.94 4.81;" xml:space="preserve">
<style type="text/css">
	.st0{fill:#5A96FF;}
</style>
<defs>
</defs>
<g>
	<path class="st0" d="M7.59,1.58L4.72,4.44C4.69,4.47,4.64,4.51,4.61,4.52c-0.15,0.13-0.33,0.22-0.5,0.27
		c-0.03,0-0.08,0.02-0.13,0.02c-0.05,0-0.1-0.02-0.15-0.02C3.64,4.74,3.46,4.64,3.29,4.51C3.27,4.47,3.24,4.46,3.22,4.44L0.36,1.58
		c-0.42-0.42-0.48-1.02-0.15-1.36c0.33-0.33,0.95-0.27,1.36,0.15l2.4,2.4l2.4-2.4c0.4-0.42,1.02-0.48,1.35-0.13
		C8.07,0.56,8,1.18,7.59,1.58z"/>
</g>
</svg>
