<!-- Generator: Adobe Illustrator 24.0.0, SVG Export Plug-In  -->
<svg version="1.1" xmlns="http://www.w3.org/2000/svg" xmlns:xlink="http://www.w3.org/1999/xlink" x="0px" y="0px" width="14.38px"
	 height="8.91px" viewBox="0 0 14.38 8.91" style="enable-background:new 0 0 14.38 8.91;" xml:space="preserve">
<style type="text/css">
	.st0{fill:#5A96FF;}
</style>
<defs>
</defs>
<g>
	<g>
		<path class="st0" d="M1.03,0.28c0.38-0.38,0.99-0.38,1.37,0l6.23,6.23C9,6.89,9,7.5,8.63,7.88L7.88,8.63C7.5,9,6.89,9,6.51,8.63
			L0.28,2.4c-0.38-0.38-0.38-0.99,0-1.37L1.03,0.28z"/>
	</g>
	<g>
		<path class="st0" d="M11.98,0.28c0.38-0.38,0.99-0.38,1.37,0l0.76,0.76c0.38,0.38,0.38,0.99,0,1.37L7.88,8.63
			C7.5,9,6.89,9,6.51,8.63L5.75,7.87c-0.38-0.38-0.38-0.99,0-1.37L11.98,0.28z"/>
	</g>
</g>
</svg>
