<!-- Generator: Adobe Illustrator 24.0.0, SVG Export Plug-In  -->
<svg version="1.1" xmlns="http://www.w3.org/2000/svg" xmlns:xlink="http://www.w3.org/1999/xlink" x="0px" y="0px"
	 width="166.49px" height="109.9px" viewBox="0 0 166.49 109.9" style="enable-background:new 0 0 166.49 109.9;"
	 xml:space="preserve">
<style type="text/css">
	.st0{fill:#3556FB;}
</style>
<defs>
</defs>
<g>
	<path class="st0" d="M30.95,8.44c2.18,0,3.96-1.68,4.04-3.83c0-0.06,0-0.12,0-0.18C34.99,1.99,33,0,30.56,0
		c-1.15,0-2.23,0.44-3.05,1.22c-0.35-0.1-0.71-0.15-1.09-0.15c-1.14,0-2.22,0.5-2.95,1.35c-0.32-0.1-0.66-0.16-1-0.16
		c-1.37,0-2.56,0.83-3.06,2.06h-1.98c-1.14,0-2.08,0.91-2.1,2.02c-0.01,0.56,0.2,1.08,0.59,1.48c0.39,0.4,0.91,0.62,1.47,0.62h6.87
		c0.44,0,0.8-0.36,0.8-0.8c0-0.44-0.36-0.8-0.8-0.8h-6.87c-0.13,0-0.24-0.05-0.33-0.14c-0.09-0.09-0.14-0.21-0.13-0.34
		c0-0.25,0.24-0.46,0.51-0.46H20c0.39,0,0.72-0.28,0.78-0.66c0.15-0.81,0.85-1.4,1.68-1.4c0.31,0,0.61,0.08,0.87,0.24
		c0.18,0.11,0.4,0.14,0.61,0.09c0.21-0.05,0.38-0.19,0.49-0.37c0.41-0.71,1.18-1.15,1.99-1.15c0.34,0,0.67,0.07,0.97,0.21
		c0.33,0.15,0.73,0.06,0.96-0.22c0.54-0.67,1.35-1.06,2.21-1.06c1.57,0,2.84,1.27,2.84,2.84c0,0.04,0,0.08,0,0.12
		c-0.05,1.27-1.15,2.3-2.45,2.3h-3.51c-0.44,0-0.8,0.36-0.8,0.8c0,0.44,0.36,0.8,0.8,0.8H30.95L30.95,8.44z"/>
	<g>
		<path class="st0" d="M124.71,35.27v72.53H41.78V35.27H124.71 M126.84,33.18H39.65v76.71h87.19V33.18L126.84,33.18z"/>
		<path class="st0" d="M114.38,48.79v11.12H73.14V48.79H114.38 M116.51,46.7h-45.5V62h45.5V46.7L116.51,46.7z"/>
		<path class="st0" d="M62.6,48.79v11.12h-9.58V48.79H62.6 M64.73,46.7H50.89V62h13.84V46.7L64.73,46.7z"/>
		<path class="st0" d="M62.6,87.84v11.12h-9.58V87.84H62.6 M64.73,85.75H50.89v15.3h13.84V85.75L64.73,85.75z"/>
		<path class="st0" d="M81.64,87.84v11.12h-9.58V87.84H81.64 M83.77,85.75H69.92v15.3h13.84V85.75L83.77,85.75z"/>
		<path class="st0" d="M113.52,87.84v19.97h-12.3V87.84H113.52 M115.65,85.75H99.08v24.15h16.56V85.75L115.65,85.75z"/>
		<polygon class="st0" points="80.12,19.08 50.12,19.08 50.12,22.06 80.12,22.06 80.12,19.08 		"/>
		<polygon class="st0" points="108.22,12.54 105.59,12.54 105.59,26.79 108.22,26.79 108.22,12.54 		"/>
		<polygon class="st0" points="124.21,26.37 48.17,26.37 48.17,29.35 124.21,29.35 124.21,26.37 		"/>
		<polygon class="st0" points="54.56,21.83 52.25,21.83 52.25,28.46 54.56,28.46 54.56,21.83 		"/>
		<polygon class="st0" points="77.72,21.83 75.4,21.83 75.4,28.46 77.72,28.46 77.72,21.83 		"/>
	</g>
	<g>
		<g>
			<path class="st0" d="M22.75,108.27l-0.38-1.06c-0.03-0.06-0.07-0.12-0.13-0.22c-0.05-0.07-0.1-0.13-0.2-0.25
				c-0.04-0.05-0.08-0.1-0.18-0.21l-0.83-0.59c-0.05-0.03-0.1-0.05-0.14-0.07l-0.1-0.04c-0.05-0.02-0.11-0.04-0.24-0.09
				c-0.09-0.02-0.17-0.05-0.26-0.06c-0.1-0.03-0.19-0.1-0.23-0.21c-0.02-0.06-0.04-0.12-0.09-0.22l-0.09-0.18
				c-0.06-0.11-0.13-0.22-0.23-0.35l-0.12-0.16c-0.09-0.09-0.18-0.19-0.3-0.3l-0.18-0.13l-0.73-0.4c-0.25-0.09-0.51-0.15-0.77-0.17
				c-0.15-0.01-0.27-0.13-0.29-0.28c-0.11-1.51-1.39-2.69-2.9-2.69c-1.18,0-2.24,0.7-2.69,1.79c-0.06,0.12-0.19,0.19-0.31,0.19
				c-0.09-0.01-0.17-0.01-0.23-0.01c-0.62,0-1.2,0.18-1.68,0.5c-0.32,0.21-0.6,0.48-0.82,0.8c-0.33,0.47-0.53,1.04-0.55,1.66
				c0,0.13-0.09,0.24-0.21,0.28c-1.07,0.34-1.94,1.1-2.42,2.09c-0.05,0.1-0.1,0.2-0.14,0.31l-0.26,0.69h17.21l0.58-0.04
				L22.75,108.27z M6.62,107.89c0.38-0.53,0.92-0.93,1.55-1.14c0.53-0.17,0.89-0.65,0.91-1.2c0.01-0.39,0.13-0.75,0.32-1.05
				c0.24-0.37,0.59-0.66,1.01-0.81c0.22-0.08,0.47-0.13,0.72-0.13h0.15c0.57,0.04,1.09-0.28,1.31-0.8c0.3-0.71,0.99-1.17,1.77-1.17
				c0.99,0,1.83,0.77,1.91,1.76c0.05,0.65,0.55,1.16,1.2,1.21c0.17,0.01,0.34,0.05,0.51,0.11l0.17-0.47l-0.08,0.51l0.22-0.45
				l-0.1,0.5l0.11,0.06l0.29-0.4l-0.18,0.47l0.27-0.41l-0.18,0.48l0.31-0.4l-0.22,0.48c0.07,0.05,0.13,0.11,0.19,0.19l0.09,0.11
				c0.05,0.07,0.09,0.14,0.15,0.25l0.44-0.24l-0.38,0.35l0.04,0.12c0.16,0.42,0.52,0.74,0.96,0.83c0.06,0.02,0.12,0.03,0.23,0.07
				l0.48,0.23l0.52,0.46c0.03,0.05,0.07,0.1,0.12,0.18l0.16,0.3H6.62z"/>
		</g>
	</g>
	<path class="st0" d="M35.66,87.44c0,3.63-2.31,6.8-5.54,7.69c-1.22,2.29-3.38,3.78-5.8,4.02v9.74H22.7v-9.77
		c-2.3-0.31-4.33-1.75-5.52-3.92c-1.57-0.36-2.99-1.27-4.05-2.59c-1.15-1.44-1.78-3.27-1.78-5.17c0-2.89,1.48-5.56,3.81-6.95
		c0.24-4.82,3.95-8.66,8.47-8.66c1.42,0,2.83,0.39,4.07,1.12c0.39,0.23,0.52,0.73,0.29,1.12c-0.23,0.38-0.73,0.51-1.11,0.28
		c-0.99-0.58-2.12-0.89-3.25-0.89c-3.78,0-6.86,3.37-6.86,7.52c0,0.3-0.18,0.58-0.45,0.72c-2.03,1.03-3.34,3.28-3.34,5.74
		c0,3.1,2.09,5.78,4.88,6.24c0.26,0.04,0.48,0.21,0.6,0.45c0.87,1.81,2.44,3.03,4.24,3.34v-7.18l-4-3.67
		c-0.33-0.31-0.35-0.82-0.05-1.15c0.31-0.33,0.82-0.35,1.15-0.05l2.9,2.67v-5.42c0-0.45,0.36-0.81,0.81-0.81s0.81,0.36,0.81,0.81
		v9.82l2.89-2.66c0.33-0.3,0.85-0.28,1.15,0.05c0.31,0.33,0.28,0.84-0.05,1.14l-3.99,3.68v2.81c1.91-0.25,3.6-1.51,4.51-3.43
		c0.1-0.23,0.31-0.39,0.56-0.44c2.7-0.58,4.65-3.18,4.65-6.2c0-2.38-1.2-4.54-3.13-5.63c-0.26-0.14-0.42-0.42-0.42-0.71v-0.07
		c0.01-0.01,0.01-0.03,0.01-0.04c0-1.69-0.5-3.29-1.45-4.62c-0.26-0.36-0.17-0.87,0.2-1.13c0.36-0.26,0.87-0.17,1.13,0.19
		c1.07,1.52,1.67,3.32,1.73,5.22C34.31,82.08,35.66,84.64,35.66,87.44z"/>
	<path class="st0" d="M159.8,87.44c0,3.63-2.31,6.8-5.54,7.69c-1.22,2.29-3.38,3.78-5.8,4.02v9.74h-1.62v-9.77
		c-2.3-0.31-4.33-1.75-5.52-3.92c-1.57-0.36-2.99-1.27-4.05-2.59c-1.15-1.44-1.78-3.27-1.78-5.17c0-2.89,1.48-5.56,3.81-6.95
		c0.24-4.82,3.95-8.66,8.47-8.66c1.42,0,2.83,0.39,4.07,1.12c0.39,0.23,0.52,0.73,0.29,1.12c-0.23,0.38-0.73,0.51-1.11,0.28
		c-0.99-0.58-2.12-0.89-3.25-0.89c-3.78,0-6.86,3.37-6.86,7.52c0,0.3-0.18,0.58-0.45,0.72c-2.03,1.03-3.34,3.28-3.34,5.74
		c0,3.1,2.09,5.78,4.88,6.24c0.26,0.04,0.48,0.21,0.6,0.45c0.87,1.81,2.44,3.03,4.24,3.34v-7.18l-4-3.67
		c-0.33-0.31-0.35-0.82-0.05-1.15c0.31-0.33,0.82-0.35,1.15-0.05l2.9,2.67v-5.42c0-0.45,0.36-0.81,0.81-0.81s0.81,0.36,0.81,0.81
		v9.82l2.89-2.66c0.33-0.3,0.85-0.28,1.15,0.05c0.31,0.33,0.28,0.84-0.05,1.14l-3.99,3.68v2.81c1.91-0.25,3.6-1.51,4.51-3.43
		c0.1-0.23,0.31-0.39,0.56-0.44c2.7-0.58,4.65-3.18,4.65-6.2c0-2.38-1.2-4.54-3.13-5.63c-0.26-0.14-0.42-0.42-0.42-0.71v-0.07
		c0.01-0.01,0.01-0.03,0.01-0.04c0-1.69-0.5-3.29-1.45-4.62c-0.26-0.36-0.17-0.87,0.2-1.13c0.36-0.26,0.87-0.17,1.13,0.19
		c1.07,1.52,1.67,3.32,1.73,5.22C158.45,82.08,159.8,84.64,159.8,87.44z"/>
	<path class="st0" d="M165.49,109.89H1c-0.55,0-1-0.45-1-1l0,0c0-0.55,0.45-1,1-1h164.49c0.55,0,1,0.45,1,1l0,0
		C166.49,109.44,166.04,109.89,165.49,109.89z"/>
</g>
</svg>
