<!-- Generator: Adobe Illustrator 24.0.0, SVG Export Plug-In  -->
<svg version="1.1" xmlns="http://www.w3.org/2000/svg" xmlns:xlink="http://www.w3.org/1999/xlink" x="0px" y="0px" width="85.13px"
	 height="62.45px" viewBox="0 0 85.13 62.45" style="enable-background:new 0 0 85.13 62.45;" xml:space="preserve">
<style type="text/css">
	.st0{fill:#3556FB;}
	.st1{fill:none;stroke:#3556FB;stroke-width:0.5;stroke-miterlimit:10;}
	.st2{fill:#3556FB;stroke:#3556FB;stroke-width:0.5;stroke-miterlimit:10;}
</style>
<defs>
</defs>
<g>
	<g>
		<g>
			<g>
				<path class="st0" d="M40.27,42.51c0,0.28-0.23,0.5-0.5,0.5H17.39c-0.27,0-0.5-0.22-0.5-0.5v-0.62c0-0.27,0.23-0.5,0.5-0.5h22.39
					c0.27,0,0.5,0.23,0.5,0.5V42.51z"/>
				<path class="st1" d="M40.27,42.51c0,0.28-0.23,0.5-0.5,0.5H17.39c-0.27,0-0.5-0.22-0.5-0.5v-0.62c0-0.27,0.23-0.5,0.5-0.5h22.39
					c0.27,0,0.5,0.23,0.5,0.5V42.51z"/>
			</g>
		</g>
	</g>
	<g>
		<g>
			<path class="st2" d="M75.35,61.83H47.37V35.27h27.97V61.83z M49.6,60.21h23.52V36.89H49.6V60.21z"/>
		</g>
		<g>
			<g>
				<rect x="47.87" y="47.74" class="st2" width="26.6" height="1.62"/>
			</g>
		</g>
	</g>
	<g>
		<rect x="10.83" y="36.66" class="st2" width="2.57" height="25.53"/>
	</g>
	<g>
		<path class="st2" d="M84.88,36.91H0.25V25.68h84.63V36.91z M2.61,34.58h79.91v-6.58H2.61V34.58z"/>
	</g>
	<g>
		<g>
			<g>
				<path class="st0" d="M77.52,13.6c-0.44,0-0.74,0.08-0.74,0.08c-0.26,0.07-0.63-0.03-0.82-0.23l-3.27-3.56
					c-0.19-0.2-0.28-0.47-0.21-0.6c0.07-0.13,0.22-0.43,0.33-0.69c0,0,1.72-3.87-1.06-6.63c-2.74-2.74-6.36-1.4-6.36-1.4
					c-0.26,0.1-0.51,0.19-0.56,0.22c-0.05,0.03-0.28,0.17-0.51,0.32c0,0-1.36,0.91-4.01,3.05c-2.06,1.66-3.1,1.5-3.1,1.5
					c-0.27-0.04-0.55,0.12-0.62,0.36c-0.07,0.24-0.19,0.64-0.26,0.88c-0.08,0.24,0.08,0.49,0.35,0.56c0,0,1.85,0.48,4.8-1.9
					c2.23-1.79,3.77-2.86,3.77-2.86c0.23-0.16,0.63-0.35,0.89-0.42c0,0,2.61-0.76,4.34,0.98c0.75,0.75,0.97,1.72,0.97,2.58
					c0,1.26-0.27,1.91-0.27,1.91c-0.1,0.25-0.3,0.66-0.44,0.9l-3.25,5.74c-0.14,0.24-0.41,0.28-0.61,0.09l-3.64-3.47
					c-0.2-0.19-0.52-0.18-0.71,0.02l-0.57,0.59c-0.19,0.2-0.18,0.52,0.02,0.71l5.34,5.1c0.2,0.19,0.47,0.15,0.61-0.09l3.43-6.05
					c0.14-0.24,0.4-0.27,0.58-0.07l2.74,2.99c0.19,0.2,0.2,0.55,0.04,0.77c0,0-0.93,1.24-0.93,2.32c0,1.3,1.31,2.72,1.31,2.72
					c0.19,0.2,0.2,0.54,0.02,0.76l-3.68,4.51c-0.17,0.21-0.14,0.53,0.07,0.7l0.36,0.3c0.21,0.17,0.53,0.14,0.7-0.07l3.95-4.85
					c0.17-0.21,0.51-0.36,0.75-0.33c0,0,0,0,0.24,0c2.05,0,3.73-1.66,3.73-3.73C81.24,15.26,79.56,13.6,77.52,13.6z M77.52,19.57
					c-1.24,0-2.27-1-2.27-2.27c0-1.24,1.02-2.25,2.27-2.25c1.24,0,2.27,1,2.27,2.25C79.78,18.56,78.76,19.57,77.52,19.57z"/>
				<path class="st1" d="M77.52,13.6c-0.44,0-0.74,0.08-0.74,0.08c-0.26,0.07-0.63-0.03-0.82-0.23l-3.27-3.56
					c-0.19-0.2-0.28-0.47-0.21-0.6c0.07-0.13,0.22-0.43,0.33-0.69c0,0,1.72-3.87-1.06-6.63c-2.74-2.74-6.36-1.4-6.36-1.4
					c-0.26,0.1-0.51,0.19-0.56,0.22c-0.05,0.03-0.28,0.17-0.51,0.32c0,0-1.36,0.91-4.01,3.05c-2.06,1.66-3.1,1.5-3.1,1.5
					c-0.27-0.04-0.55,0.12-0.62,0.36c-0.07,0.24-0.19,0.64-0.26,0.88c-0.08,0.24,0.08,0.49,0.35,0.56c0,0,1.85,0.48,4.8-1.9
					c2.23-1.79,3.77-2.86,3.77-2.86c0.23-0.16,0.63-0.35,0.89-0.42c0,0,2.61-0.76,4.34,0.98c0.75,0.75,0.97,1.72,0.97,2.58
					c0,1.26-0.27,1.91-0.27,1.91c-0.1,0.25-0.3,0.66-0.44,0.9l-3.25,5.74c-0.14,0.24-0.41,0.28-0.61,0.09l-3.64-3.47
					c-0.2-0.19-0.52-0.18-0.71,0.02l-0.57,0.59c-0.19,0.2-0.18,0.52,0.02,0.71l5.34,5.1c0.2,0.19,0.47,0.15,0.61-0.09l3.43-6.05
					c0.14-0.24,0.4-0.27,0.58-0.07l2.74,2.99c0.19,0.2,0.2,0.55,0.04,0.77c0,0-0.93,1.24-0.93,2.32c0,1.3,1.31,2.72,1.31,2.72
					c0.19,0.2,0.2,0.54,0.02,0.76l-3.68,4.51c-0.17,0.21-0.14,0.53,0.07,0.7l0.36,0.3c0.21,0.17,0.53,0.14,0.7-0.07l3.95-4.85
					c0.17-0.21,0.51-0.36,0.75-0.33c0,0,0,0,0.24,0c2.05,0,3.73-1.66,3.73-3.73C81.24,15.26,79.56,13.6,77.52,13.6z M77.52,19.57
					c-1.24,0-2.27-1-2.27-2.27c0-1.24,1.02-2.25,2.27-2.25c1.24,0,2.27,1,2.27,2.25C79.78,18.56,78.76,19.57,77.52,19.57z"/>
			</g>
		</g>
	</g>
	<circle class="st2" cx="60.53" cy="42.06" r="1.59"/>
	<circle class="st2" cx="60.53" cy="54.55" r="1.59"/>
	<g>
		<path class="st0" d="M42.82,1.27H14.93c-2.15,0-3.89,1.74-3.89,3.9v14.49c0,2.15,1.74,3.9,3.89,3.9h8.06l-0.55,2.21h2.3l0.55-2.21
			h7.18l0.55,2.21h2.3l-0.55-2.21h8.06c2.15,0,3.89-1.75,3.9-3.9V5.17C46.71,3.01,44.97,1.27,42.82,1.27z M42.82,21.34H14.93
			c-0.71,0-1.33-0.44-1.57-1.11H44.4C44.15,20.9,43.53,21.34,42.82,21.34z M44.49,17.99H13.26V5.17c0-0.92,0.75-1.68,1.67-1.68
			h27.89c0.92,0,1.67,0.76,1.67,1.68V17.99z"/>
	</g>
</g>
</svg>
