<!-- Generator: Adobe Illustrator 24.0.0, SVG Export Plug-In  -->
<svg version="1.1" xmlns="http://www.w3.org/2000/svg" xmlns:xlink="http://www.w3.org/1999/xlink" x="0px" y="0px" width="17.95px"
	 height="17.95px" viewBox="0 0 17.95 17.95" style="enable-background:new 0 0 17.95 17.95;" xml:space="preserve">
<style type="text/css">
	.st0{fill:#3556FB;}
</style>
<defs>
</defs>
<g>
	<path class="st0" d="M8.97,1.62c2.4,0,2.68,0.01,3.63,0.05c0.87,0.04,1.35,0.19,1.67,0.31c0.42,0.16,0.72,0.36,1.03,0.67
		c0.31,0.31,0.51,0.61,0.67,1.03c0.12,0.32,0.27,0.79,0.31,1.67c0.04,0.95,0.05,1.23,0.05,3.63c0,2.4-0.01,2.68-0.05,3.63
		c-0.04,0.88-0.19,1.35-0.31,1.67c-0.16,0.42-0.36,0.72-0.67,1.03c-0.31,0.31-0.61,0.51-1.03,0.67c-0.32,0.12-0.79,0.27-1.67,0.31
		c-0.95,0.04-1.23,0.05-3.63,0.05c-2.4,0-2.68-0.01-3.63-0.05C4.47,16.24,4,16.09,3.68,15.97c-0.42-0.16-0.72-0.36-1.03-0.67
		c-0.31-0.31-0.51-0.61-0.67-1.03c-0.12-0.32-0.27-0.79-0.31-1.67c-0.04-0.95-0.05-1.23-0.05-3.63c0-2.4,0.01-2.68,0.05-3.63
		C1.71,4.47,1.86,4,1.98,3.68c0.16-0.42,0.36-0.72,0.67-1.03c0.31-0.31,0.61-0.51,1.03-0.67C4,1.86,4.47,1.71,5.35,1.67
		C6.29,1.63,6.58,1.62,8.97,1.62 M8.97,0c-2.44,0-2.74,0.01-3.7,0.05C4.32,0.1,3.67,0.25,3.1,0.47C2.51,0.7,2.01,1.01,1.51,1.51
		c-0.5,0.5-0.81,1-1.04,1.59C0.25,3.67,0.1,4.32,0.05,5.27C0.01,6.23,0,6.54,0,8.97c0,2.44,0.01,2.74,0.05,3.7
		c0.04,0.96,0.2,1.61,0.42,2.18c0.23,0.59,0.54,1.09,1.04,1.59c0.5,0.5,1,0.81,1.59,1.04c0.57,0.22,1.22,0.37,2.18,0.42
		c0.96,0.04,1.26,0.05,3.7,0.05c2.44,0,2.74-0.01,3.7-0.05c0.96-0.04,1.61-0.2,2.18-0.42c0.59-0.23,1.09-0.54,1.59-1.04
		c0.5-0.5,0.81-1,1.04-1.59c0.22-0.57,0.37-1.22,0.42-2.18c0.04-0.96,0.05-1.26,0.05-3.7c0-2.44-0.01-2.74-0.05-3.7
		c-0.04-0.96-0.2-1.61-0.42-2.18c-0.23-0.59-0.54-1.09-1.04-1.59c-0.5-0.5-1-0.81-1.59-1.04c-0.57-0.22-1.22-0.37-2.18-0.42
		C11.72,0.01,11.41,0,8.97,0"/>
	<path class="st0" d="M8.97,4.37c-2.55,0-4.61,2.06-4.61,4.61c0,2.55,2.06,4.61,4.61,4.61c2.55,0,4.61-2.06,4.61-4.61
		C13.58,6.43,11.52,4.37,8.97,4.37 M8.97,11.97c-1.65,0-2.99-1.34-2.99-2.99c0-1.65,1.34-2.99,2.99-2.99c1.65,0,2.99,1.34,2.99,2.99
		C11.97,10.63,10.63,11.97,8.97,11.97"/>
	<path class="st0" d="M14.84,4.18c0,0.59-0.48,1.08-1.08,1.08c-0.59,0-1.08-0.48-1.08-1.08c0-0.59,0.48-1.08,1.08-1.08
		C14.36,3.11,14.84,3.59,14.84,4.18"/>
</g>
</svg>
