<!-- Generator: Adobe Illustrator 24.0.0, SVG Export Plug-In  -->
<svg version="1.1" xmlns="http://www.w3.org/2000/svg" xmlns:xlink="http://www.w3.org/1999/xlink" x="0px" y="0px" width="16.09px"
	 height="16.09px" viewBox="0 0 16.09 16.09" style="enable-background:new 0 0 16.09 16.09;" xml:space="preserve">
<style type="text/css">
	.st0{fill:#3556FB;}
</style>
<defs>
</defs>
<g>
	<g id="post-linkedin_1_">
		<path class="st0" d="M14.48,0H1.61C0.72,0,0,0.72,0,1.61v12.87c0,0.88,0.72,1.61,1.61,1.61h12.87c0.88,0,1.61-0.72,1.61-1.61V1.61
			C16.09,0.72,15.36,0,14.48,0z M4.83,13.67H2.41V6.43h2.41V13.67z M3.62,5.07c-0.8,0-1.45-0.64-1.45-1.45s0.64-1.45,1.45-1.45
			s1.45,0.64,1.45,1.45S4.42,5.07,3.62,5.07z M13.67,13.67h-2.41V9.41c0-0.64-0.56-1.21-1.21-1.21S8.85,8.77,8.85,9.41v4.26H6.43
			V6.43h2.41V7.4c0.4-0.64,1.29-1.13,2.01-1.13c1.53,0,2.81,1.29,2.81,2.81V13.67z"/>
	</g>
</g>
</svg>
