<?xml version="1.0" encoding="utf-8"?>
<!-- Generator: Adobe Illustrator 24.0.0, SVG Export Plug-In . SVG Version: 6.00 Build 0)  -->
<svg version="1.1" id="Layer_1" xmlns="http://www.w3.org/2000/svg" xmlns:xlink="http://www.w3.org/1999/xlink" x="0px" y="0px"
	 viewBox="0 0 18.2 14.9" style="enable-background:new 0 0 18.2 14.9;" xml:space="preserve">
<style type="text/css">
	.st0{fill:#03095F;}
</style>
<g>
	<path class="st0" d="M9.2,1.2c-2.8,0-5.1,2.3-5.1,5.1c0,2.4,3.7,6.7,4.8,7.9c0.2,0.2,0.4,0.2,0.6,0c1.1-1.2,4.8-5.5,4.8-7.9
		C14.2,3.5,12,1.2,9.2,1.2z M9.2,8.5C7.8,8.5,6.7,7.4,6.7,6c0-1.4,1.1-2.5,2.5-2.5c1.4,0,2.5,1.1,2.5,2.5C11.7,7.4,10.6,8.5,9.2,8.5
		z"/>
</g>
</svg>
