<?xml version="1.0" encoding="utf-8"?>
<!-- Generator: Adobe Illustrator 24.0.0, SVG Export Plug-In . SVG Version: 6.00 Build 0)  -->
<svg version="1.1" id="Layer_1" xmlns="http://www.w3.org/2000/svg" xmlns:xlink="http://www.w3.org/1999/xlink" x="0px" y="0px"
	 viewBox="0 0 18.2 14.9" style="enable-background:new 0 0 18.2 14.9;" xml:space="preserve">
<style type="text/css">
	.st0{fill:#EEEB26;}
</style>
<g>
	<path class="st0" d="M2.3,1.6l5.5,6.2C8.1,8.2,8.6,8.4,9,8.4c0.5,0,0.9-0.2,1.2-0.6l5.4-6.1c0-0.1,0.1-0.1,0.2-0.1
		c-0.2-0.1-0.5-0.2-0.7-0.2H3C2.8,1.4,2.5,1.5,2.3,1.6L2.3,1.6z"/>
	<path class="st0" d="M16.7,2.3c0,0.1-0.1,0.1-0.1,0.2l-5.4,6.1c-0.5,0.6-1.3,0.9-2.1,0.9S7.5,9.1,7,8.5L1.5,2.4l0,0
		C1.3,2.7,1.2,3,1.2,3.4v8.3c0,1,0.8,1.8,1.9,1.8h12.1c1,0,1.9-0.8,1.9-1.8V3.3C17,2.9,16.9,2.6,16.7,2.3z"/>
</g>
</svg>
