<?xml version="1.0" encoding="utf-8"?>
<!-- Generator: Adobe Illustrator 24.0.0, SVG Export Plug-In . SVG Version: 6.00 Build 0)  -->
<svg version="1.1" id="Layer_1" xmlns="http://www.w3.org/2000/svg" xmlns:xlink="http://www.w3.org/1999/xlink" x="0px" y="0px"
	 viewBox="0 0 31.64 29.6" style="enable-background:new 0 0 31.64 29.6;" xml:space="preserve">
<style type="text/css">
	.st0{fill:none;stroke:#0000FE;stroke-width:2.5111;stroke-linecap:round;stroke-miterlimit:10;}
	.st1{fill:#0000FE;}
</style>
<g>
	<path class="st0" d="M27.12,10.68c2.21,6.33-0.67,13.45-6.87,16.38c-6.64,3.14-14.57,0.31-17.71-6.33S2.23,6.17,8.86,3.03
		c4.58-2.17,9.76-1.49,13.58,1.31"/>
	<path class="st1" d="M5.74,14.37c0,0-0.76-1.28-0.34-2.52c0.19-0.56,0.61-1.02,1.08-1.36c0.17-0.12,0.36-0.24,0.55-0.33
		c0.42-0.21,1-0.13,1.44-0.02c0.6,0.14,1.15,0.45,1.56,0.9c1.13,1.22,3.92,5.47,3.92,5.47c0.11-0.12,0.22-0.23,0.33-0.35
		c0.31-0.32,0.61-0.64,0.92-0.95c0.46-0.48,0.92-0.96,1.38-1.43c0.57-0.59,1.14-1.19,1.72-1.78c0.64-0.67,1.29-1.34,1.93-2
		c0.67-0.7,1.35-1.4,2.02-2.1c0.66-0.69,1.32-1.37,1.98-2.06c0.61-0.63,1.22-1.26,1.82-1.89c0.51-0.53,1.03-1.07,1.54-1.6
		c0.38-0.39,0.76-0.78,1.13-1.18c0.21-0.21,0.41-0.44,0.62-0.64c0.19-0.19,0.44-0.3,0.69-0.39c0.44-0.15,1.02-0.25,1.36,0.13
		c0.67,0.73-0.31,2.2-0.31,2.2L17.25,20.67c-0.32,0.39-0.63,0.78-0.95,1.17c-0.23,0.28-0.43,0.58-0.68,0.83
		c-0.24,0.25-0.53,0.43-0.85,0.57c-0.78,0.33-1.64,0.23-2.37-0.17c-0.31-0.17-0.6-0.39-0.86-0.63C9.25,20.36,5.74,14.37,5.74,14.37z
		"/>
</g>
</svg>
