<!-- Generator: Adobe Illustrator 24.0.0, SVG Export Plug-In  -->
<svg version="1.1" xmlns="http://www.w3.org/2000/svg" xmlns:xlink="http://www.w3.org/1999/xlink" x="0px" y="0px" width="67.86px"
	 height="61.14px" viewBox="0 0 67.86 61.14" style="enable-background:new 0 0 67.86 61.14;" xml:space="preserve">
<style type="text/css">
	.st0{fill:#3556FB;}
</style>
<defs>
</defs>
<g>
	<path class="st0" d="M63.72,50.5h-5.87V48h5.87c0.91,0,1.64-0.74,1.64-1.64V4.14c0-0.91-0.74-1.64-1.64-1.64H4.14
		C3.24,2.5,2.5,3.24,2.5,4.14v42.21C2.5,47.26,3.24,48,4.14,48h47.36v2.5H4.14C1.86,50.5,0,48.64,0,46.36V4.14C0,1.86,1.86,0,4.14,0
		h59.58c2.29,0,4.14,1.86,4.14,4.14v42.21C67.86,48.64,66,50.5,63.72,50.5z"/>
</g>
<path class="st0" d="M62.62,38.37c0.39-0.57,0.49-1.26,0.28-1.91c-0.22-0.65-0.7-1.16-1.35-1.39c-0.42-0.15-0.71-0.54-0.72-0.99
	c-0.02-0.69-0.35-1.31-0.9-1.71c-0.56-0.4-1.25-0.52-1.9-0.33c-0.44,0.13-0.9-0.02-1.18-0.38c-0.41-0.54-1.04-0.85-1.73-0.85
	c-0.68,0-1.31,0.31-1.73,0.85c-0.28,0.36-0.74,0.51-1.17,0.38c-0.66-0.19-1.35-0.07-1.9,0.33c-0.55,0.4-0.88,1.02-0.9,1.71
	c-0.02,0.45-0.3,0.84-0.73,0.99c-0.64,0.23-1.13,0.74-1.34,1.39s-0.11,1.34,0.27,1.91c0.26,0.37,0.26,0.85,0,1.23
	c-0.38,0.56-0.48,1.26-0.27,1.91c0.21,0.65,0.7,1.15,1.34,1.38c0.43,0.16,0.71,0.55,0.73,1c0.02,0.63,0.3,1.22,0.79,1.62
	c0.32,0.26,0.7,0.43,1.1,0.48v1.71h1.09v-1.81c0.38-0.05,0.75,0.11,0.99,0.42c0.42,0.54,1.05,0.85,1.73,0.85
	c0.69,0,1.32-0.31,1.73-0.85c0.24-0.31,0.62-0.47,0.99-0.42v1.81h1.1v-1.71c0.4-0.05,0.78-0.22,1.1-0.48
	c0.48-0.4,0.77-0.99,0.79-1.62c0.01-0.45,0.3-0.84,0.72-1c0.65-0.23,1.13-0.73,1.35-1.38c0.21-0.65,0.11-1.35-0.28-1.91
	C62.37,39.22,62.37,38.74,62.62,38.37z M61.72,40.22c0.19,0.28,0.24,0.63,0.13,0.95c-0.1,0.32-0.35,0.58-0.67,0.69
	c-0.85,0.31-1.42,1.09-1.45,2c-0.01,0.31-0.15,0.6-0.39,0.8c-0.28,0.23-0.65,0.32-1.01,0.21c-0.87-0.25-1.79,0.05-2.34,0.77
	c-0.21,0.27-0.53,0.42-0.87,0.42c-0.34,0-0.65-0.15-0.86-0.42c-0.43-0.55-1.06-0.86-1.73-0.86c-0.2,0-0.41,0.03-0.62,0.09
	c-0.36,0.11-0.73,0.02-1-0.21c-0.25-0.2-0.39-0.49-0.4-0.8c-0.03-0.91-0.59-1.69-1.45-2c-0.32-0.11-0.56-0.37-0.67-0.69
	c-0.1-0.32-0.05-0.67,0.14-0.95c0.51-0.75,0.51-1.72,0-2.47c-0.19-0.28-0.24-0.63-0.14-0.95c0.11-0.33,0.35-0.58,0.67-0.7
	c0.86-0.3,1.42-1.09,1.45-1.99c0.01-0.34,0.18-0.65,0.45-0.85c0.28-0.2,0.62-0.26,0.95-0.17c0.87,0.26,1.79-0.04,2.35-0.76
	c0.21-0.27,0.52-0.43,0.86-0.43c0.34,0,0.66,0.16,0.87,0.43c0.55,0.72,1.47,1.02,2.34,0.76c0.33-0.09,0.68-0.03,0.95,0.17
	c0.28,0.2,0.44,0.51,0.45,0.85c0.03,0.9,0.6,1.69,1.45,1.99c0.32,0.12,0.57,0.37,0.67,0.7c0.11,0.32,0.06,0.67-0.13,0.95
	C61.21,38.5,61.21,39.47,61.72,40.22z M57.84,59.98c0,0.05-0.05,0.08-0.1,0.05l-2.01-1.23c-0.37-0.23-0.84-0.23-1.22,0l-2,1.23
	c-0.05,0.03-0.11,0-0.11-0.05v-12.5h-1.09v12.5c0,0.42,0.23,0.81,0.59,1.01c0.37,0.21,0.82,0.2,1.18-0.02l2.01-1.24
	c0.03-0.02,0.05-0.01,0.07,0l2.01,1.24c0.35,0.22,0.81,0.23,1.17,0.02c0.37-0.2,0.6-0.59,0.6-1.01v-12.6h-1.1V59.98z"/>
<path class="st0" d="M55.12,34.39c-2.53,0-4.59,2.06-4.59,4.59c0,2.53,2.06,4.59,4.59,4.59c2.53,0,4.59-2.06,4.59-4.59
	C59.71,36.45,57.65,34.39,55.12,34.39z M55.12,42.48c-1.92,0-3.49-1.57-3.49-3.5c0-1.92,1.57-3.49,3.49-3.49
	c1.93,0,3.5,1.57,3.5,3.49C58.62,40.91,57.05,42.48,55.12,42.48z"/>
<path class="st0" d="M17.91,41.54c-0.47,0-0.93,0-1.4,0c-0.9,0-1.39-0.24-1.58-1.19c-0.17-0.87-1.42-0.76-1.65,0
	c-0.1,0.34-0.62,1.3-1.06,1.22c-0.24-0.04-0.34-0.41-0.43-0.6c-0.17-0.37-0.3-0.76-0.4-1.15c-0.45-1.66-0.54-3.39-0.82-5.08
	c-0.16-0.98-1.66-0.7-1.68,0.23c-0.08,2.97-0.56,5.89-1.62,8.67c-0.39,1.03,1.26,1.48,1.65,0.46c0.41-1.07,0.73-2.17,0.98-3.28
	c0.13,0.41,0.29,0.8,0.49,1.19c0.5,0.99,1.52,1.57,2.61,1.13c0.39-0.16,0.74-0.43,1.05-0.76c0.81,0.93,2.02,0.89,3.14,0.89
	c1.7,0,3.39-0.01,5.09-0.01c1.1,0,1.1-1.72,0-1.71C20.82,41.54,19.37,41.54,17.91,41.54L17.91,41.54z"/>
<g>
	<path class="st0" d="M7.15,10.07h26.93c1.01,0,1.01-1.92,0-1.92H7.15C6.14,8.14,6.14,10.07,7.15,10.07z"/>
</g>
<g>
	<path class="st0" d="M41,16.45c0-0.53-0.35-0.96-0.78-0.96H7.15c-1.01,0-1.01,1.92,0,1.92h33.06C40.65,17.41,41,16.98,41,16.45z"/>
</g>
<g>
	<path class="st0" d="M26.72,23.8c0-0.53-0.35-0.96-0.78-0.96H7.15c-1.01,0-1.01,1.92,0,1.92h18.79
		C26.37,24.76,26.72,24.33,26.72,23.8z"/>
</g>
</svg>
