<!-- Generator: Adobe Illustrator 24.0.0, SVG Export Plug-In  -->
<svg version="1.1" xmlns="http://www.w3.org/2000/svg" xmlns:xlink="http://www.w3.org/1999/xlink" x="0px" y="0px" width="51.86px"
	 height="57.99px" viewBox="0 0 51.86 57.99" style="enable-background:new 0 0 51.86 57.99;" xml:space="preserve">
<style type="text/css">
	.st0{fill:#3556FB;}
</style>
<defs>
</defs>
<g>
	<g>
		<g>
			<path class="st0" d="M51.24,5.32l-0.13-0.86L25.93,0L0.75,4.46L0.62,5.32c-0.17,1.09-3.97,27.06,9.56,41.51
				c0.07,0.09,7.67,8.43,15.34,11.02l0.41,0.14l0.4-0.14c7.22-2.44,14.53-10.12,15.35-11C55.21,32.38,51.41,6.41,51.24,5.32z
				 M39.84,45.24c-0.07,0.08-7.2,7.72-13.91,10.2c-6.19-2.28-12.63-8.85-13.91-10.2C0.66,33.09,2.4,11.41,2.96,6.51l22.97-4.06
				l22.96,4.06c0.21,1.83,0.44,4.65,0.44,8.09C49.33,23.95,47.69,36.85,39.84,45.24z"/>
		</g>
	</g>
	<g>
		<g>
			<path class="st0" d="M31.34,20.89h-1.41v-0.74c0-2.44-1.98-4.42-4.42-4.42c-2.43,0-4.42,1.98-4.42,4.42v0.74h-1.24
				c-1.28,0-2.33,1.04-2.33,2.32v9.62c0,1.28,1.05,2.33,2.33,2.33h11.49c1.28,0,2.32-1.05,2.32-2.33v-9.62
				C33.66,21.93,32.62,20.89,31.34,20.89z M22.6,20.15c0-1.61,1.31-2.92,2.91-2.92c1.61,0,2.91,1.31,2.91,2.92v0.74H22.6V20.15z
				 M32.16,32.83c0,0.45-0.37,0.83-0.82,0.83H19.85c-0.46,0-0.83-0.38-0.83-0.83v-9.62c0-0.45,0.37-0.82,0.83-0.82h11.49
				c0.45,0,0.82,0.37,0.82,0.82V32.83z"/>
		</g>
		<g>
			<circle class="st0" cx="25.42" cy="25.64" r="1"/>
			<path class="st0" d="M25.45,27.39c-0.47,0-0.86,0.32-0.86,0.72v2.87c0,0.4,0.38,0.72,0.86,0.72s0.86-0.32,0.86-0.72v-2.87
				C26.3,27.72,25.92,27.39,25.45,27.39L25.45,27.39z"/>
		</g>
	</g>
</g>
</svg>
