<!-- Generator: Adobe Illustrator 24.0.0, SVG Export Plug-In  -->
<svg version="1.1" xmlns="http://www.w3.org/2000/svg" xmlns:xlink="http://www.w3.org/1999/xlink" x="0px" y="0px" width="57.57px"
	 height="57.57px" viewBox="0 0 57.57 57.57" style="enable-background:new 0 0 57.57 57.57;" xml:space="preserve">
<style type="text/css">
	.st0{fill:url(#SVGID_1_);}
	.st1{fill:url(#SVGID_2_);}
	.st2{fill:url(#SVGID_3_);}
	.st3{fill:url(#SVGID_4_);}
	.st4{fill:url(#SVGID_5_);}
	.st5{fill:url(#SVGID_6_);}
	.st6{fill:url(#SVGID_7_);}
	.st7{fill:url(#SVGID_8_);}
	.st8{fill:url(#SVGID_9_);}
	.st9{fill:url(#SVGID_10_);}
	.st10{fill:url(#SVGID_11_);}
	.st11{fill:url(#SVGID_12_);}
	.st12{fill:url(#SVGID_13_);}
	.st13{fill:url(#SVGID_14_);}
	.st14{fill:url(#SVGID_15_);}
	.st15{fill:url(#SVGID_16_);}
</style>
<defs>
</defs>
<g>
	<g>
		<linearGradient id="SVGID_1_" gradientUnits="userSpaceOnUse" x1="-26.6201" y1="69.1032" x2="74.8267" y2="-4.7692">
			<stop  offset="0.2275" style="stop-color:#0305DB"/>
			<stop  offset="0.4059" style="stop-color:#0236E7"/>
			<stop  offset="0.5935" style="stop-color:#0162F1"/>
			<stop  offset="0.7619" style="stop-color:#0182F9"/>
			<stop  offset="0.9031" style="stop-color:#0095FD"/>
			<stop  offset="1" style="stop-color:#009CFF"/>
		</linearGradient>
		<path class="st0" d="M45.21,30.63v-3.87c0-1.46-0.94-2.71-2.25-3.18L42.99,11c0-0.3-0.12-0.59-0.33-0.8l-9.9-9.87
			C32.55,0.12,32.26,0,31.96,0H10.12C8.26,0,6.75,1.51,6.75,3.37V4.5H5.62c-1.86,0-3.37,1.51-3.37,3.37l0,11.21
			C0.94,19.55,0,20.8,0,22.27V51.5c0,1.86,1.51,3.37,3.37,3.37h32.62c2.26,1.69,5.06,2.7,8.09,2.7c7.44,0,13.49-6.05,13.49-13.49
			C57.57,37.02,52.12,31.21,45.21,30.63L45.21,30.63z M33.09,3.83l6.06,6.04h-5.15c-0.5,0-0.91-0.41-0.91-0.91L33.09,3.83
			L33.09,3.83z M5.62,6.75h1.12l0,12.14H4.5l0-11.02C4.5,7.25,5,6.75,5.62,6.75z M2.25,51.5V22.27c0-0.62,0.5-1.12,1.12-1.12h11.24
			c0.62,0,1.12,0.5,1.12,1.12v2.25c0,0.62,0.5,1.12,1.12,1.12h12.07c0.62,0,1.12-0.5,1.12-1.12s-0.5-1.12-1.12-1.12H17.99v-1.12
			c0-0.4-0.07-0.79-0.2-1.15h16.2c0.62,0,1.12-0.5,1.12-1.12s-0.5-1.12-1.12-1.12H14.62c-0.08,0-0.15,0.01-0.22,0.02H9L9,3.37
			c0-0.62,0.5-1.12,1.12-1.12h20.72v6.72c0,1.74,1.42,3.16,3.16,3.16h6.74l-0.03,11.27h-1.66c-0.62,0-1.12,0.5-1.12,1.12
			s0.5,1.12,1.12,1.12h2.78c0.62,0,1.12,0.5,1.12,1.12v3.87c-6.92,0.57-12.37,6.38-12.37,13.45c0,3.24,1.15,6.22,3.06,8.55H3.37
			C2.75,52.63,2.25,52.12,2.25,51.5L2.25,51.5z M44.08,55.33c-6.2,0-11.24-5.04-11.24-11.24s5.04-11.24,11.24-11.24
			c6.2,0,11.24,5.04,11.24,11.24S50.28,55.33,44.08,55.33z"/>
		<linearGradient id="SVGID_2_" gradientUnits="userSpaceOnUse" x1="-40.4795" y1="50.0704" x2="60.9673" y2="-23.802">
			<stop  offset="0.2275" style="stop-color:#0305DB"/>
			<stop  offset="0.4059" style="stop-color:#0236E7"/>
			<stop  offset="0.5935" style="stop-color:#0162F1"/>
			<stop  offset="0.7619" style="stop-color:#0182F9"/>
			<stop  offset="0.9031" style="stop-color:#0095FD"/>
			<stop  offset="1" style="stop-color:#009CFF"/>
		</linearGradient>
		<path class="st1" d="M12.37,7.62h13.97c0.62,0,1.12-0.5,1.12-1.12s-0.5-1.12-1.12-1.12H12.37c-0.62,0-1.12,0.5-1.12,1.12
			S11.75,7.62,12.37,7.62z"/>
		<linearGradient id="SVGID_3_" gradientUnits="userSpaceOnUse" x1="-38.339" y1="53.0099" x2="63.1078" y2="-20.8624">
			<stop  offset="0.2275" style="stop-color:#0305DB"/>
			<stop  offset="0.4059" style="stop-color:#0236E7"/>
			<stop  offset="0.5935" style="stop-color:#0162F1"/>
			<stop  offset="0.7619" style="stop-color:#0182F9"/>
			<stop  offset="0.9031" style="stop-color:#0095FD"/>
			<stop  offset="1" style="stop-color:#009CFF"/>
		</linearGradient>
		<path class="st2" d="M12.37,12.12h13.97c0.62,0,1.12-0.5,1.12-1.12c0-0.62-0.5-1.12-1.12-1.12H12.37c-0.62,0-1.12,0.5-1.12,1.12
			C11.25,11.62,11.75,12.12,12.37,12.12z"/>
		<linearGradient id="SVGID_4_" gradientUnits="userSpaceOnUse" x1="-34.8722" y1="57.7708" x2="66.5746" y2="-16.1016">
			<stop  offset="0.2275" style="stop-color:#0305DB"/>
			<stop  offset="0.4059" style="stop-color:#0236E7"/>
			<stop  offset="0.5935" style="stop-color:#0162F1"/>
			<stop  offset="0.7619" style="stop-color:#0182F9"/>
			<stop  offset="0.9031" style="stop-color:#0095FD"/>
			<stop  offset="1" style="stop-color:#009CFF"/>
		</linearGradient>
		<path class="st3" d="M33.99,14.37H12.37c-0.62,0-1.12,0.5-1.12,1.12s0.5,1.12,1.12,1.12h21.62c0.62,0,1.12-0.5,1.12-1.12
			S34.62,14.37,33.99,14.37z"/>
		<linearGradient id="SVGID_5_" gradientUnits="userSpaceOnUse" x1="-14.3666" y1="85.9305" x2="87.0802" y2="12.0582">
			<stop  offset="0.2275" style="stop-color:#0305DB"/>
			<stop  offset="0.4059" style="stop-color:#0236E7"/>
			<stop  offset="0.5935" style="stop-color:#0162F1"/>
			<stop  offset="0.7619" style="stop-color:#0182F9"/>
			<stop  offset="0.9031" style="stop-color:#0095FD"/>
			<stop  offset="1" style="stop-color:#009CFF"/>
		</linearGradient>
		<path class="st4" d="M48.28,37.96c-0.9,0-1.75,0.35-2.39,0.99l-3.1,3.1l-0.53-0.53c-0.64-0.64-1.48-0.99-2.39-0.99
			c-0.9,0-1.75,0.35-2.39,0.99c-0.64,0.64-0.99,1.48-0.99,2.39c0,0.9,0.35,1.75,0.99,2.39l2.91,2.91c0.64,0.64,1.48,0.99,2.39,0.99
			c0.9,0,1.75-0.35,2.39-0.99l5.49-5.49c0.64-0.64,0.99-1.48,0.99-2.39s-0.35-1.75-0.99-2.39C50.03,38.31,49.18,37.96,48.28,37.96
			L48.28,37.96z M49.08,42.13l-5.49,5.49c-0.21,0.21-0.49,0.33-0.79,0.33c-0.3,0-0.58-0.12-0.79-0.33l-2.91-2.91
			c-0.44-0.44-0.44-1.15,0-1.59c0.21-0.21,0.49-0.33,0.79-0.33s0.58,0.12,0.79,0.33L42,44.44c0.44,0.44,1.15,0.44,1.59,0l3.9-3.9
			c0.21-0.21,0.49-0.33,0.79-0.33c0.3,0,0.58,0.12,0.8,0.33c0.21,0.21,0.33,0.49,0.33,0.79C49.41,41.64,49.29,41.92,49.08,42.13
			L49.08,42.13z"/>
		<linearGradient id="SVGID_6_" gradientUnits="userSpaceOnUse" x1="-20.9971" y1="76.8251" x2="80.4497" y2="2.9528">
			<stop  offset="0.2275" style="stop-color:#0305DB"/>
			<stop  offset="0.4059" style="stop-color:#0236E7"/>
			<stop  offset="0.5935" style="stop-color:#0162F1"/>
			<stop  offset="0.7619" style="stop-color:#0182F9"/>
			<stop  offset="0.9031" style="stop-color:#0095FD"/>
			<stop  offset="1" style="stop-color:#009CFF"/>
		</linearGradient>
		<path class="st5" d="M16.87,48.13c-0.62,0-1.12,0.5-1.12,1.12s0.5,1.12,1.12,1.12h0c0.62,0,1.12-0.5,1.12-1.12
			S17.49,48.13,16.87,48.13z"/>
		<linearGradient id="SVGID_7_" gradientUnits="userSpaceOnUse" x1="-23.822" y1="72.9457" x2="77.6248" y2="-0.9266">
			<stop  offset="0.2275" style="stop-color:#0305DB"/>
			<stop  offset="0.4059" style="stop-color:#0236E7"/>
			<stop  offset="0.5935" style="stop-color:#0162F1"/>
			<stop  offset="0.7619" style="stop-color:#0182F9"/>
			<stop  offset="0.9031" style="stop-color:#0095FD"/>
			<stop  offset="1" style="stop-color:#009CFF"/>
		</linearGradient>
		<path class="st6" d="M11.81,48.13H5.62c-0.62,0-1.12,0.5-1.12,1.12s0.5,1.12,1.12,1.12h6.18c0.62,0,1.12-0.5,1.12-1.12
			S12.43,48.13,11.81,48.13z"/>
		<linearGradient id="SVGID_8_" gradientUnits="userSpaceOnUse" x1="-26.8342" y1="68.8091" x2="74.6126" y2="-5.0633">
			<stop  offset="0.2275" style="stop-color:#0305DB"/>
			<stop  offset="0.4059" style="stop-color:#0236E7"/>
			<stop  offset="0.5935" style="stop-color:#0162F1"/>
			<stop  offset="0.7619" style="stop-color:#0182F9"/>
			<stop  offset="0.9031" style="stop-color:#0095FD"/>
			<stop  offset="1" style="stop-color:#009CFF"/>
		</linearGradient>
		<path class="st7" d="M33.99,25.64c0.62,0,1.12-0.5,1.12-1.12s-0.5-1.12-1.12-1.12h0c-0.62,0-1.12,0.5-1.12,1.12
			S33.37,25.64,33.99,25.64z"/>
	</g>
</g>
</svg>
