<!-- Generator: Adobe Illustrator 24.0.0, SVG Export Plug-In  -->
<svg version="1.1" xmlns="http://www.w3.org/2000/svg" xmlns:xlink="http://www.w3.org/1999/xlink" x="0px" y="0px" width="56.51px"
	 height="56.51px" viewBox="0 0 56.51 56.51" style="enable-background:new 0 0 56.51 56.51;" xml:space="preserve">
<style type="text/css">
	.st0{fill:url(#SVGID_1_);}
	.st1{fill:url(#SVGID_2_);}
	.st2{fill:url(#SVGID_3_);}
	.st3{fill:url(#SVGID_4_);}
	.st4{fill:url(#SVGID_5_);}
	.st5{fill:url(#SVGID_6_);}
	.st6{fill:url(#SVGID_7_);}
	.st7{fill:url(#SVGID_8_);}
	.st8{fill:url(#SVGID_9_);}
	.st9{fill:url(#SVGID_10_);}
	.st10{fill:url(#SVGID_11_);}
	.st11{fill:url(#SVGID_12_);}
	.st12{fill:url(#SVGID_13_);}
	.st13{fill:url(#SVGID_14_);}
	.st14{fill:url(#SVGID_15_);}
	.st15{fill:url(#SVGID_16_);}
	.st16{fill:url(#SVGID_17_);}
	.st17{fill:url(#SVGID_18_);}
	.st18{fill:url(#SVGID_19_);}
	.st19{fill:url(#SVGID_20_);}
	.st20{fill:url(#SVGID_21_);}
	.st21{fill:url(#SVGID_22_);}
	.st22{fill:url(#SVGID_23_);}
	.st23{fill:url(#SVGID_24_);}
	.st24{fill:url(#SVGID_25_);}
	.st25{fill:url(#SVGID_26_);}
	.st26{fill:url(#SVGID_27_);}
	.st27{fill:url(#SVGID_28_);}
	.st28{fill:url(#SVGID_29_);}
	.st29{fill:url(#SVGID_30_);}
	.st30{fill:url(#SVGID_31_);}
	.st31{fill:url(#SVGID_32_);}
	.st32{fill:url(#SVGID_33_);}
	.st33{fill:url(#SVGID_34_);}
	.st34{fill:url(#SVGID_35_);}
	.st35{fill:url(#SVGID_36_);}
	.st36{fill:url(#SVGID_37_);}
	.st37{fill:url(#SVGID_38_);}
	.st38{fill:url(#SVGID_39_);}
	.st39{fill:url(#SVGID_40_);}
	.st40{fill:url(#SVGID_41_);}
	.st41{fill:url(#SVGID_42_);}
	.st42{fill:url(#SVGID_43_);}
	.st43{fill:url(#SVGID_44_);}
	.st44{fill:url(#SVGID_45_);}
	.st45{fill:url(#SVGID_46_);}
</style>
<defs>
</defs>
<g>
	<g>
		<g>
			<g>
				<linearGradient id="SVGID_1_" gradientUnits="userSpaceOnUse" x1="-5.2628" y1="59.7848" x2="65.3461" y2="-6.6354">
					<stop  offset="0.2275" style="stop-color:#0305DB"/>
					<stop  offset="0.4059" style="stop-color:#0236E7"/>
					<stop  offset="0.5935" style="stop-color:#0162F1"/>
					<stop  offset="0.7619" style="stop-color:#0182F9"/>
					<stop  offset="0.9031" style="stop-color:#0095FD"/>
					<stop  offset="1" style="stop-color:#009CFF"/>
				</linearGradient>
				<path class="st0" d="M47.55,29.08h4.77c0.33,0.79,1.1,1.35,2.01,1.35c1.2,0,2.18-0.98,2.18-2.18c0-1.2-0.98-2.18-2.18-2.18
					c-0.91,0-1.68,0.56-2.01,1.35h-4.77v-7.24h4.77c0.33,0.79,1.1,1.35,2.01,1.35c1.2,0,2.18-0.98,2.18-2.18
					c0-1.2-0.98-2.18-2.18-2.18c-0.91,0-1.68,0.56-2.01,1.35h-4.77V9.79c0-0.46-0.37-0.83-0.83-0.83h-3.56
					c-0.46,0-0.83,0.37-0.83,0.83s0.37,0.83,0.83,0.83h2.73v8.74v0v0v8.89v0v0v8.89v0v0v8.74H10.62v-8.74v0v0v-8.89v0v0v-8.89v0v0
					v-8.74h29.29c0.46,0,0.83-0.37,0.83-0.83s-0.37-0.83-0.83-0.83h-1.93V4.19c0.79-0.33,1.35-1.1,1.35-2.01
					c0-1.2-0.98-2.18-2.18-2.18c-1.2,0-2.18,0.98-2.18,2.18c0,0.91,0.56,1.69,1.35,2.01v4.77h-7.24V4.19
					c0.79-0.33,1.35-1.1,1.35-2.01c0-1.2-0.98-2.18-2.18-2.18c-1.2,0-2.18,0.98-2.18,2.18c0,0.91,0.56,1.69,1.35,2.01v4.77h-7.24
					V4.19c0.79-0.33,1.35-1.1,1.35-2.01c0-1.2-0.98-2.18-2.18-2.18s-2.18,0.98-2.18,2.18c0,0.91,0.56,1.69,1.35,2.01v4.77H9.79
					c-0.46,0-0.83,0.37-0.83,0.83v8.74H4.19c-0.33-0.79-1.1-1.35-2.01-1.35c-1.2,0-2.18,0.98-2.18,2.18c0,1.2,0.98,2.18,2.18,2.18
					c0.91,0,1.68-0.56,2.01-1.35h4.77v7.24H4.19c-0.33-0.79-1.1-1.35-2.01-1.35c-1.2,0-2.18,0.98-2.18,2.18
					c0,1.2,0.98,2.18,2.18,2.18c0.91,0,1.68-0.56,2.01-1.35h4.77v7.24H4.19c-0.33-0.79-1.1-1.35-2.01-1.35
					c-1.2,0-2.18,0.98-2.18,2.18c0,1.2,0.98,2.18,2.18,2.18c0.91,0,1.68-0.56,2.01-1.35h4.77v8.74c0,0.46,0.37,0.83,0.83,0.83h8.74
					v4.77c-0.79,0.33-1.35,1.1-1.35,2.01c0,1.2,0.98,2.18,2.18,2.18c1.2,0,2.18-0.98,2.18-2.18c0-0.91-0.56-1.69-1.35-2.01v-4.77
					h7.24v4.77c-0.79,0.33-1.35,1.1-1.35,2.01c0,1.2,0.98,2.18,2.18,2.18c1.2,0,2.18-0.98,2.18-2.18c0-0.91-0.56-1.69-1.35-2.01
					v-4.77h7.24v4.77c-0.79,0.33-1.35,1.1-1.35,2.01c0,1.2,0.98,2.18,2.18,2.18s2.18-0.98,2.18-2.18c0-0.91-0.56-1.69-1.35-2.01
					v-4.77h8.74c0.46,0,0.83-0.37,0.83-0.83v-8.74h4.77c0.33,0.79,1.1,1.35,2.01,1.35c1.2,0,2.18-0.98,2.18-2.18
					c0-1.2-0.98-2.18-2.18-2.18c-0.91,0-1.68,0.56-2.01,1.35h-4.77L47.55,29.08L47.55,29.08z M54.34,27.74
					c0.29,0,0.52,0.23,0.52,0.52c0,0.29-0.23,0.52-0.52,0.52c-0.29,0-0.52-0.23-0.52-0.52C53.82,27.97,54.05,27.74,54.34,27.74z
					 M54.34,18.84c0.29,0,0.52,0.23,0.52,0.52s-0.23,0.52-0.52,0.52c-0.29,0-0.52-0.23-0.52-0.52S54.05,18.84,54.34,18.84z
					 M37.15,1.66c0.29,0,0.52,0.23,0.52,0.52c0,0.29-0.23,0.52-0.52,0.52c0,0,0,0,0,0c0,0,0,0,0,0c-0.29,0-0.52-0.23-0.52-0.52
					C36.63,1.89,36.86,1.66,37.15,1.66z M28.26,1.66c0.29,0,0.52,0.23,0.52,0.52c0,0.29-0.23,0.52-0.52,0.52c0,0,0,0,0,0
					c0,0,0,0,0,0c-0.29,0-0.52-0.23-0.52-0.52C27.74,1.89,27.97,1.66,28.26,1.66z M19.36,1.66c0.29,0,0.52,0.23,0.52,0.52
					c0,0.29-0.23,0.52-0.52,0.52c0,0,0,0,0,0c0,0,0,0,0,0c-0.29,0-0.52-0.23-0.52-0.52C18.84,1.89,19.07,1.66,19.36,1.66z
					 M2.18,19.88c-0.29,0-0.52-0.23-0.52-0.52s0.23-0.52,0.52-0.52s0.52,0.23,0.52,0.52S2.46,19.88,2.18,19.88z M2.18,28.78
					c-0.29,0-0.52-0.23-0.52-0.52s0.23-0.52,0.52-0.52s0.52,0.23,0.52,0.52C2.7,28.54,2.46,28.78,2.18,28.78z M2.18,37.67
					c-0.29,0-0.52-0.23-0.52-0.52c0-0.29,0.23-0.52,0.52-0.52s0.52,0.23,0.52,0.52C2.7,37.44,2.46,37.67,2.18,37.67z M19.36,54.85
					c-0.29,0-0.52-0.23-0.52-0.52c0-0.29,0.23-0.52,0.52-0.52c0,0,0,0,0,0c0,0,0,0,0,0c0.29,0,0.52,0.23,0.52,0.52
					C19.88,54.62,19.65,54.85,19.36,54.85z M28.26,54.85c-0.29,0-0.52-0.23-0.52-0.52c0-0.29,0.23-0.52,0.52-0.52c0,0,0,0,0,0
					c0,0,0,0,0,0c0.29,0,0.52,0.23,0.52,0.52C28.78,54.62,28.54,54.85,28.26,54.85z M37.15,54.85c-0.29,0-0.52-0.23-0.52-0.52
					c0-0.29,0.23-0.52,0.52-0.52c0,0,0,0,0,0c0,0,0,0,0,0c0.29,0,0.52,0.23,0.52,0.52C37.67,54.62,37.44,54.85,37.15,54.85z
					 M54.34,36.63c0.29,0,0.52,0.23,0.52,0.52c0,0.29-0.23,0.52-0.52,0.52c-0.29,0-0.52-0.23-0.52-0.52
					C53.82,36.86,54.05,36.63,54.34,36.63z"/>
			</g>
		</g>
		<g>
			<g>
				<linearGradient id="SVGID_2_" gradientUnits="userSpaceOnUse" x1="-5.2627" y1="59.785" x2="65.3462" y2="-6.6353">
					<stop  offset="0.2275" style="stop-color:#0305DB"/>
					<stop  offset="0.4059" style="stop-color:#0236E7"/>
					<stop  offset="0.5935" style="stop-color:#0162F1"/>
					<stop  offset="0.7619" style="stop-color:#0182F9"/>
					<stop  offset="0.9031" style="stop-color:#0095FD"/>
					<stop  offset="1" style="stop-color:#009CFF"/>
				</linearGradient>
				<path class="st1" d="M43.99,11.69H12.52c-0.46,0-0.83,0.37-0.83,0.83v22.99c0,0.46,0.37,0.83,0.83,0.83
					c0.46,0,0.83-0.37,0.83-0.83V13.35h29.81v29.81H13.35v-4.39c0-0.46-0.37-0.83-0.83-0.83c-0.46,0-0.83,0.37-0.83,0.83v5.22
					c0,0.46,0.37,0.83,0.83,0.83h31.47c0.46,0,0.83-0.37,0.83-0.83V12.52C44.82,12.06,44.45,11.69,43.99,11.69z"/>
			</g>
		</g>
		<g>
			<g>
				<linearGradient id="SVGID_3_" gradientUnits="userSpaceOnUse" x1="-5.2626" y1="59.785" x2="65.3463" y2="-6.6352">
					<stop  offset="0.2275" style="stop-color:#0305DB"/>
					<stop  offset="0.4059" style="stop-color:#0236E7"/>
					<stop  offset="0.5935" style="stop-color:#0162F1"/>
					<stop  offset="0.7619" style="stop-color:#0182F9"/>
					<stop  offset="0.9031" style="stop-color:#0095FD"/>
					<stop  offset="1" style="stop-color:#009CFF"/>
				</linearGradient>
				<path class="st2" d="M33.92,21.76H22.59c-0.46,0-0.83,0.37-0.83,0.83v11.33c0,0.46,0.37,0.83,0.83,0.83h4.36
					c0.46,0,0.83-0.37,0.83-0.83s-0.37-0.83-0.83-0.83h-3.54v-9.67h9.67v9.67h-2.87c-0.46,0-0.83,0.37-0.83,0.83
					s0.37,0.83,0.83,0.83h3.7c0.46,0,0.83-0.37,0.83-0.83V22.59C34.75,22.13,34.38,21.76,33.92,21.76z"/>
			</g>
		</g>
		<g>
			<g>
				<linearGradient id="SVGID_4_" gradientUnits="userSpaceOnUse" x1="-15.8293" y1="48.552" x2="54.7796" y2="-17.8683">
					<stop  offset="0.2275" style="stop-color:#0305DB"/>
					<stop  offset="0.4059" style="stop-color:#0236E7"/>
					<stop  offset="0.5935" style="stop-color:#0162F1"/>
					<stop  offset="0.7619" style="stop-color:#0182F9"/>
					<stop  offset="0.9031" style="stop-color:#0095FD"/>
					<stop  offset="1" style="stop-color:#009CFF"/>
				</linearGradient>
				<path class="st3" d="M18.01,15.85h-1.33c-0.46,0-0.83,0.37-0.83,0.83v1.33c0,0.46,0.37,0.83,0.83,0.83h1.33
					c0.46,0,0.83-0.37,0.83-0.83v-1.33C18.84,16.22,18.47,15.85,18.01,15.85z"/>
			</g>
		</g>
		<g>
			<g>
				<linearGradient id="SVGID_5_" gradientUnits="userSpaceOnUse" x1="-13.7805" y1="50.7299" x2="56.8284" y2="-15.6903">
					<stop  offset="0.2275" style="stop-color:#0305DB"/>
					<stop  offset="0.4059" style="stop-color:#0236E7"/>
					<stop  offset="0.5935" style="stop-color:#0162F1"/>
					<stop  offset="0.7619" style="stop-color:#0182F9"/>
					<stop  offset="0.9031" style="stop-color:#0095FD"/>
					<stop  offset="1" style="stop-color:#009CFF"/>
				</linearGradient>
				<path class="st4" d="M22.38,15.85h-1.33c-0.46,0-0.83,0.37-0.83,0.83v1.33c0,0.46,0.37,0.83,0.83,0.83h1.33
					c0.46,0,0.83-0.37,0.83-0.83v-1.33C23.2,16.22,22.83,15.85,22.38,15.85z"/>
			</g>
		</g>
		<g>
			<g>
				<linearGradient id="SVGID_6_" gradientUnits="userSpaceOnUse" x1="-11.7318" y1="52.9078" x2="58.877" y2="-13.5124">
					<stop  offset="0.2275" style="stop-color:#0305DB"/>
					<stop  offset="0.4059" style="stop-color:#0236E7"/>
					<stop  offset="0.5935" style="stop-color:#0162F1"/>
					<stop  offset="0.7619" style="stop-color:#0182F9"/>
					<stop  offset="0.9031" style="stop-color:#0095FD"/>
					<stop  offset="1" style="stop-color:#009CFF"/>
				</linearGradient>
				<path class="st5" d="M26.74,15.85h-1.33c-0.46,0-0.83,0.37-0.83,0.83v1.33c0,0.46,0.37,0.83,0.83,0.83h1.33
					c0.46,0,0.83-0.37,0.83-0.83v-1.33C27.57,16.22,27.2,15.85,26.74,15.85z"/>
			</g>
		</g>
		<g>
			<g>
				<linearGradient id="SVGID_7_" gradientUnits="userSpaceOnUse" x1="-9.6831" y1="55.0857" x2="60.9258" y2="-11.3345">
					<stop  offset="0.2275" style="stop-color:#0305DB"/>
					<stop  offset="0.4059" style="stop-color:#0236E7"/>
					<stop  offset="0.5935" style="stop-color:#0162F1"/>
					<stop  offset="0.7619" style="stop-color:#0182F9"/>
					<stop  offset="0.9031" style="stop-color:#0095FD"/>
					<stop  offset="1" style="stop-color:#009CFF"/>
				</linearGradient>
				<path class="st6" d="M31.1,15.85h-1.33c-0.46,0-0.83,0.37-0.83,0.83v1.33c0,0.46,0.37,0.83,0.83,0.83h1.33
					c0.46,0,0.83-0.37,0.83-0.83v-1.33C31.93,16.22,31.56,15.85,31.1,15.85z"/>
			</g>
		</g>
		<g>
			<g>
				<linearGradient id="SVGID_8_" gradientUnits="userSpaceOnUse" x1="-7.6344" y1="57.2637" x2="62.9745" y2="-9.1566">
					<stop  offset="0.2275" style="stop-color:#0305DB"/>
					<stop  offset="0.4059" style="stop-color:#0236E7"/>
					<stop  offset="0.5935" style="stop-color:#0162F1"/>
					<stop  offset="0.7619" style="stop-color:#0182F9"/>
					<stop  offset="0.9031" style="stop-color:#0095FD"/>
					<stop  offset="1" style="stop-color:#009CFF"/>
				</linearGradient>
				<path class="st7" d="M35.47,15.85h-1.33c-0.46,0-0.83,0.37-0.83,0.83v1.33c0,0.46,0.37,0.83,0.83,0.83h1.33
					c0.46,0,0.83-0.37,0.83-0.83v-1.33C36.3,16.22,35.92,15.85,35.47,15.85z"/>
			</g>
		</g>
		<g>
			<g>
				<linearGradient id="SVGID_9_" gradientUnits="userSpaceOnUse" x1="-5.5857" y1="59.4416" x2="65.0232" y2="-6.9787">
					<stop  offset="0.2275" style="stop-color:#0305DB"/>
					<stop  offset="0.4059" style="stop-color:#0236E7"/>
					<stop  offset="0.5935" style="stop-color:#0162F1"/>
					<stop  offset="0.7619" style="stop-color:#0182F9"/>
					<stop  offset="0.9031" style="stop-color:#0095FD"/>
					<stop  offset="1" style="stop-color:#009CFF"/>
				</linearGradient>
				<path class="st8" d="M39.83,15.85H38.5c-0.46,0-0.83,0.37-0.83,0.83v1.33c0,0.46,0.37,0.83,0.83,0.83h1.33
					c0.46,0,0.83-0.37,0.83-0.83v-1.33C40.66,16.22,40.29,15.85,39.83,15.85z"/>
			</g>
		</g>
		<g>
			<g>
				<linearGradient id="SVGID_10_" gradientUnits="userSpaceOnUse" x1="-4.9397" y1="60.1283" x2="65.6692" y2="-6.2919">
					<stop  offset="0.2275" style="stop-color:#0305DB"/>
					<stop  offset="0.4059" style="stop-color:#0236E7"/>
					<stop  offset="0.5935" style="stop-color:#0162F1"/>
					<stop  offset="0.7619" style="stop-color:#0182F9"/>
					<stop  offset="0.9031" style="stop-color:#0095FD"/>
					<stop  offset="1" style="stop-color:#009CFF"/>
				</linearGradient>
				<path class="st9" d="M18.01,37.67h-1.33c-0.46,0-0.83,0.37-0.83,0.83v1.33c0,0.46,0.37,0.83,0.83,0.83h1.33
					c0.46,0,0.83-0.37,0.83-0.83V38.5C18.84,38.04,18.47,37.67,18.01,37.67z"/>
			</g>
		</g>
		<g>
			<g>
				<linearGradient id="SVGID_11_" gradientUnits="userSpaceOnUse" x1="-2.891" y1="62.3062" x2="67.7179" y2="-4.114">
					<stop  offset="0.2275" style="stop-color:#0305DB"/>
					<stop  offset="0.4059" style="stop-color:#0236E7"/>
					<stop  offset="0.5935" style="stop-color:#0162F1"/>
					<stop  offset="0.7619" style="stop-color:#0182F9"/>
					<stop  offset="0.9031" style="stop-color:#0095FD"/>
					<stop  offset="1" style="stop-color:#009CFF"/>
				</linearGradient>
				<path class="st10" d="M22.38,37.67h-1.33c-0.46,0-0.83,0.37-0.83,0.83v1.33c0,0.46,0.37,0.83,0.83,0.83h1.33
					c0.46,0,0.83-0.37,0.83-0.83V38.5C23.2,38.04,22.83,37.67,22.38,37.67z"/>
			</g>
		</g>
		<g>
			<g>
				<linearGradient id="SVGID_12_" gradientUnits="userSpaceOnUse" x1="-0.8423" y1="64.4841" x2="69.7666" y2="-1.9361">
					<stop  offset="0.2275" style="stop-color:#0305DB"/>
					<stop  offset="0.4059" style="stop-color:#0236E7"/>
					<stop  offset="0.5935" style="stop-color:#0162F1"/>
					<stop  offset="0.7619" style="stop-color:#0182F9"/>
					<stop  offset="0.9031" style="stop-color:#0095FD"/>
					<stop  offset="1" style="stop-color:#009CFF"/>
				</linearGradient>
				<path class="st11" d="M26.74,37.67h-1.33c-0.46,0-0.83,0.37-0.83,0.83v1.33c0,0.46,0.37,0.83,0.83,0.83h1.33
					c0.46,0,0.83-0.37,0.83-0.83V38.5C27.57,38.04,27.2,37.67,26.74,37.67z"/>
			</g>
		</g>
		<g>
			<g>
				<linearGradient id="SVGID_13_" gradientUnits="userSpaceOnUse" x1="1.2065" y1="66.662" x2="71.8154" y2="0.2418">
					<stop  offset="0.2275" style="stop-color:#0305DB"/>
					<stop  offset="0.4059" style="stop-color:#0236E7"/>
					<stop  offset="0.5935" style="stop-color:#0162F1"/>
					<stop  offset="0.7619" style="stop-color:#0182F9"/>
					<stop  offset="0.9031" style="stop-color:#0095FD"/>
					<stop  offset="1" style="stop-color:#009CFF"/>
				</linearGradient>
				<path class="st12" d="M31.1,37.67h-1.33c-0.46,0-0.83,0.37-0.83,0.83v1.33c0,0.46,0.37,0.83,0.83,0.83h1.33
					c0.46,0,0.83-0.37,0.83-0.83V38.5C31.93,38.04,31.56,37.67,31.1,37.67z"/>
			</g>
		</g>
		<g>
			<g>
				<linearGradient id="SVGID_14_" gradientUnits="userSpaceOnUse" x1="3.2552" y1="68.84" x2="73.8641" y2="2.4197">
					<stop  offset="0.2275" style="stop-color:#0305DB"/>
					<stop  offset="0.4059" style="stop-color:#0236E7"/>
					<stop  offset="0.5935" style="stop-color:#0162F1"/>
					<stop  offset="0.7619" style="stop-color:#0182F9"/>
					<stop  offset="0.9031" style="stop-color:#0095FD"/>
					<stop  offset="1" style="stop-color:#009CFF"/>
				</linearGradient>
				<path class="st13" d="M35.47,37.67h-1.33c-0.46,0-0.83,0.37-0.83,0.83v1.33c0,0.46,0.37,0.83,0.83,0.83h1.33
					c0.46,0,0.83-0.37,0.83-0.83V38.5C36.3,38.04,35.92,37.67,35.47,37.67z"/>
			</g>
		</g>
		<g>
			<g>
				<linearGradient id="SVGID_15_" gradientUnits="userSpaceOnUse" x1="5.3039" y1="71.0179" x2="75.9128" y2="4.5976">
					<stop  offset="0.2275" style="stop-color:#0305DB"/>
					<stop  offset="0.4059" style="stop-color:#0236E7"/>
					<stop  offset="0.5935" style="stop-color:#0162F1"/>
					<stop  offset="0.7619" style="stop-color:#0182F9"/>
					<stop  offset="0.9031" style="stop-color:#0095FD"/>
					<stop  offset="1" style="stop-color:#009CFF"/>
				</linearGradient>
				<path class="st14" d="M39.83,37.67H38.5c-0.46,0-0.83,0.37-0.83,0.83v1.33c0,0.46,0.37,0.83,0.83,0.83h1.33
					c0.46,0,0.83-0.37,0.83-0.83V38.5C40.66,38.04,40.29,37.67,39.83,37.67z"/>
			</g>
		</g>
		<g>
			<g>
				<linearGradient id="SVGID_16_" gradientUnits="userSpaceOnUse" x1="-13.6513" y1="50.8672" x2="56.9575" y2="-15.553">
					<stop  offset="0.2275" style="stop-color:#0305DB"/>
					<stop  offset="0.4059" style="stop-color:#0236E7"/>
					<stop  offset="0.5935" style="stop-color:#0162F1"/>
					<stop  offset="0.7619" style="stop-color:#0182F9"/>
					<stop  offset="0.9031" style="stop-color:#0095FD"/>
					<stop  offset="1" style="stop-color:#009CFF"/>
				</linearGradient>
				<path class="st15" d="M18.01,20.22h-1.33c-0.46,0-0.83,0.37-0.83,0.83v1.33c0,0.46,0.37,0.83,0.83,0.83h1.33
					c0.46,0,0.83-0.37,0.83-0.83v-1.33C18.84,20.59,18.47,20.22,18.01,20.22z"/>
			</g>
		</g>
		<g>
			<g>
				<linearGradient id="SVGID_17_" gradientUnits="userSpaceOnUse" x1="-11.4734" y1="53.1825" x2="59.1355" y2="-13.2377">
					<stop  offset="0.2275" style="stop-color:#0305DB"/>
					<stop  offset="0.4059" style="stop-color:#0236E7"/>
					<stop  offset="0.5935" style="stop-color:#0162F1"/>
					<stop  offset="0.7619" style="stop-color:#0182F9"/>
					<stop  offset="0.9031" style="stop-color:#0095FD"/>
					<stop  offset="1" style="stop-color:#009CFF"/>
				</linearGradient>
				<path class="st16" d="M18.01,24.58h-1.33c-0.46,0-0.83,0.37-0.83,0.83v1.33c0,0.46,0.37,0.83,0.83,0.83h1.33
					c0.46,0,0.83-0.37,0.83-0.83v-1.33C18.84,24.95,18.47,24.58,18.01,24.58z"/>
			</g>
		</g>
		<g>
			<g>
				<linearGradient id="SVGID_18_" gradientUnits="userSpaceOnUse" x1="-9.2955" y1="55.4978" x2="61.3134" y2="-10.9224">
					<stop  offset="0.2275" style="stop-color:#0305DB"/>
					<stop  offset="0.4059" style="stop-color:#0236E7"/>
					<stop  offset="0.5935" style="stop-color:#0162F1"/>
					<stop  offset="0.7619" style="stop-color:#0182F9"/>
					<stop  offset="0.9031" style="stop-color:#0095FD"/>
					<stop  offset="1" style="stop-color:#009CFF"/>
				</linearGradient>
				<path class="st17" d="M18.01,28.94h-1.33c-0.46,0-0.83,0.37-0.83,0.83v1.33c0,0.46,0.37,0.83,0.83,0.83h1.33
					c0.46,0,0.83-0.37,0.83-0.83v-1.33C18.84,29.31,18.47,28.94,18.01,28.94z"/>
			</g>
		</g>
		<g>
			<g>
				<linearGradient id="SVGID_19_" gradientUnits="userSpaceOnUse" x1="-7.1176" y1="57.813" x2="63.4913" y2="-8.6072">
					<stop  offset="0.2275" style="stop-color:#0305DB"/>
					<stop  offset="0.4059" style="stop-color:#0236E7"/>
					<stop  offset="0.5935" style="stop-color:#0162F1"/>
					<stop  offset="0.7619" style="stop-color:#0182F9"/>
					<stop  offset="0.9031" style="stop-color:#0095FD"/>
					<stop  offset="1" style="stop-color:#009CFF"/>
				</linearGradient>
				<path class="st18" d="M18.01,33.31h-1.33c-0.46,0-0.83,0.37-0.83,0.83v1.33c0,0.46,0.37,0.83,0.83,0.83h1.33
					c0.46,0,0.83-0.37,0.83-0.83v-1.33C18.84,33.68,18.47,33.31,18.01,33.31z"/>
			</g>
		</g>
		<g>
			<g>
				<linearGradient id="SVGID_20_" gradientUnits="userSpaceOnUse" x1="-3.4077" y1="61.7568" x2="67.2011" y2="-4.6634">
					<stop  offset="0.2275" style="stop-color:#0305DB"/>
					<stop  offset="0.4059" style="stop-color:#0236E7"/>
					<stop  offset="0.5935" style="stop-color:#0162F1"/>
					<stop  offset="0.7619" style="stop-color:#0182F9"/>
					<stop  offset="0.9031" style="stop-color:#0095FD"/>
					<stop  offset="1" style="stop-color:#009CFF"/>
				</linearGradient>
				<path class="st19" d="M39.83,20.22H38.5c-0.46,0-0.83,0.37-0.83,0.83v1.33c0,0.46,0.37,0.83,0.83,0.83h1.33
					c0.46,0,0.83-0.37,0.83-0.83v-1.33C40.66,20.59,40.29,20.22,39.83,20.22z"/>
			</g>
		</g>
		<g>
			<g>
				<linearGradient id="SVGID_21_" gradientUnits="userSpaceOnUse" x1="-1.2298" y1="64.0721" x2="69.3791" y2="-2.3481">
					<stop  offset="0.2275" style="stop-color:#0305DB"/>
					<stop  offset="0.4059" style="stop-color:#0236E7"/>
					<stop  offset="0.5935" style="stop-color:#0162F1"/>
					<stop  offset="0.7619" style="stop-color:#0182F9"/>
					<stop  offset="0.9031" style="stop-color:#0095FD"/>
					<stop  offset="1" style="stop-color:#009CFF"/>
				</linearGradient>
				<path class="st20" d="M39.83,24.58H38.5c-0.46,0-0.83,0.37-0.83,0.83v1.33c0,0.46,0.37,0.83,0.83,0.83h1.33
					c0.46,0,0.83-0.37,0.83-0.83v-1.33C40.66,24.95,40.29,24.58,39.83,24.58z"/>
			</g>
		</g>
		<g>
			<g>
				<linearGradient id="SVGID_22_" gradientUnits="userSpaceOnUse" x1="0.9481" y1="66.3874" x2="71.557" y2="-0.0328">
					<stop  offset="0.2275" style="stop-color:#0305DB"/>
					<stop  offset="0.4059" style="stop-color:#0236E7"/>
					<stop  offset="0.5935" style="stop-color:#0162F1"/>
					<stop  offset="0.7619" style="stop-color:#0182F9"/>
					<stop  offset="0.9031" style="stop-color:#0095FD"/>
					<stop  offset="1" style="stop-color:#009CFF"/>
				</linearGradient>
				<path class="st21" d="M39.83,28.94H38.5c-0.46,0-0.83,0.37-0.83,0.83v1.33c0,0.46,0.37,0.83,0.83,0.83h1.33
					c0.46,0,0.83-0.37,0.83-0.83v-1.33C40.66,29.31,40.29,28.94,39.83,28.94z"/>
			</g>
		</g>
		<g>
			<g>
				<linearGradient id="SVGID_23_" gradientUnits="userSpaceOnUse" x1="3.126" y1="68.7026" x2="73.7349" y2="2.2824">
					<stop  offset="0.2275" style="stop-color:#0305DB"/>
					<stop  offset="0.4059" style="stop-color:#0236E7"/>
					<stop  offset="0.5935" style="stop-color:#0162F1"/>
					<stop  offset="0.7619" style="stop-color:#0182F9"/>
					<stop  offset="0.9031" style="stop-color:#0095FD"/>
					<stop  offset="1" style="stop-color:#009CFF"/>
				</linearGradient>
				<path class="st22" d="M39.83,33.31H38.5c-0.46,0-0.83,0.37-0.83,0.83v1.33c0,0.46,0.37,0.83,0.83,0.83h1.33
					c0.46,0,0.83-0.37,0.83-0.83v-1.33C40.66,33.68,40.29,33.31,39.83,33.31z"/>
			</g>
		</g>
	</g>
</g>
</svg>
