<?xml version="1.0" encoding="utf-8"?>
<!-- Generator: Adobe Illustrator 24.0.0, SVG Export Plug-In . SVG Version: 6.00 Build 0)  -->
<svg version="1.1" id="Layer_1" xmlns="http://www.w3.org/2000/svg" xmlns:xlink="http://www.w3.org/1999/xlink" x="0px" y="0px"
	 viewBox="0 0 18.2 14.9" style="enable-background:new 0 0 18.2 14.9;" xml:space="preserve">
<style type="text/css">
	.st0{fill:#03095F;}
	.st1{fill:#FFFFFF;}
</style>
<circle class="st0" cx="9.1" cy="7.4" r="5.7"/>
<g>
	<path class="st0" d="M15.7,4.7c-0.4-0.9-0.9-1.6-1.5-2.3c-0.6-0.6-1.4-1.2-2.3-1.5s-1.8-0.6-2.8-0.6S7.2,0.5,6.3,0.9
		S4.7,1.8,4.1,2.4C3.4,3.1,2.9,3.8,2.5,4.7C2.2,5.6,2,6.5,2,7.4s0.2,1.9,0.6,2.8c0.4,0.9,0.9,1.6,1.5,2.3c0.6,0.6,1.4,1.2,2.3,1.5
		s1.8,0.6,2.8,0.6s1.9-0.2,2.8-0.6s1.6-0.9,2.3-1.5c0.6-0.6,1.2-1.4,1.5-2.3c0.4-0.9,0.6-1.8,0.6-2.8S16,5.6,15.7,4.7z M13.4,11.7
		c-1.2,1.2-2.6,1.8-4.3,1.8S6,12.9,4.8,11.7S3,9.1,3,7.4s0.6-3.1,1.8-4.3s2.6-1.8,4.3-1.8s3.1,0.6,4.3,1.8s1.8,2.6,1.8,4.3
		S14.6,10.5,13.4,11.7z"/>
</g>
<g>
	<path class="st1" d="M11.5,9.8c0.3,0.3,0.3,0.7,0.1,0.9c-0.2,0.2-0.6,0.2-0.9-0.1L8.6,8.4C8.4,8.1,8.1,7.5,8.1,7.1V4.5
		c0-0.4,0.2-0.7,0.5-0.7c0.3,0,0.5,0.3,0.5,0.7v2.2c0,0.4,0.2,0.9,0.5,1.2L11.5,9.8z"/>
</g>
</svg>
