<!-- Generator: Adobe Illustrator 24.0.0, SVG Export Plug-In  -->
<svg version="1.1" xmlns="http://www.w3.org/2000/svg" xmlns:xlink="http://www.w3.org/1999/xlink" x="0px" y="0px" width="55.75px"
	 height="55.75px" viewBox="0 0 55.75 55.75" style="enable-background:new 0 0 55.75 55.75;" xml:space="preserve">
<style type="text/css">
	.st0{fill:url(#SVGID_1_);}
	.st1{fill:url(#SVGID_2_);}
</style>
<defs>
</defs>
<linearGradient id="SVGID_1_" gradientUnits="userSpaceOnUse" x1="-26.4447" y1="57.4577" x2="89.7255" y2="-6.372">
	<stop  offset="0.2275" style="stop-color:#0305DB"/>
	<stop  offset="0.4059" style="stop-color:#0236E7"/>
	<stop  offset="0.5935" style="stop-color:#0162F1"/>
	<stop  offset="0.7619" style="stop-color:#0182F9"/>
	<stop  offset="0.9031" style="stop-color:#0095FD"/>
	<stop  offset="1" style="stop-color:#009CFF"/>
</linearGradient>
<path class="st0" d="M54.4,6.7c-0.37-0.09-0.75,0.03-1.02,0.29l-4.51,4.55H46.7l-2.38-2.47V6.88l4.45-4.52
	c0.26-0.27,0.37-0.65,0.28-1.02c-0.09-0.36-0.36-0.66-0.71-0.78C47.22,0.19,46.05,0,44.86,0c-3.55,0-6.77,1.65-8.84,4.54
	c-1.94,2.7-2.54,6.01-1.68,9.17l-8.02,8.02L12.96,8.34V5.71c0-0.38-0.2-0.74-0.53-0.93l-7.7-4.62C4.3-0.1,3.75-0.03,3.4,0.32
	L0.32,3.4C-0.03,3.75-0.1,4.3,0.16,4.73l4.62,7.7c0.2,0.33,0.55,0.53,0.93,0.53l2.63,0L21.7,26.35l-7.99,7.99
	c-3.17-0.86-6.48-0.26-9.18,1.68C1.65,38.09,0,41.32,0,44.86c0,1.19,0.19,2.36,0.57,3.48c0.12,0.36,0.42,0.63,0.79,0.71
	c0.37,0.09,0.75-0.03,1.02-0.29l4.51-4.55h2.18l2.48,2.48v2.18l-4.55,4.51c-0.27,0.27-0.38,0.65-0.29,1.02
	c0.09,0.37,0.36,0.66,0.71,0.79c1.12,0.38,2.29,0.57,3.48,0.57c3.55,0,6.77-1.65,8.84-4.53c1.94-2.7,2.54-6.01,1.68-9.18l6.42-6.42
	l1.47,1.6l-0.67,0.67c-0.43,0.43-0.43,1.11,0,1.54c0.43,0.42,1.11,0.42,1.54,0l0.61-0.61l13.79,14.98c0.01,0.01,0.02,0.02,0.03,0.03
	c2.55,2.55,6.69,2.55,9.24,0c2.55-2.55,2.55-6.69,0-9.24c-0.01-0.01-0.02-0.02-0.03-0.03L38.8,30.8l0.6-0.6
	c0.43-0.42,0.43-1.11,0-1.54c-0.43-0.43-1.11-0.43-1.54,0l-0.67,0.67l-1.6-1.47l6.45-6.45c0.92,0.25,1.86,0.37,2.82,0.37
	c6,0,10.89-4.88,10.89-10.89c0-1.19-0.19-2.36-0.57-3.48C55.06,7.05,54.77,6.78,54.4,6.7z M9.56,11.1c-0.2-0.2-0.48-0.31-0.77-0.31
	l-2.46,0L2.46,4.34l1.88-1.88l6.44,3.87v2.46c0,0.29,0.11,0.56,0.32,0.77l13.68,13.71l-1.54,1.54L9.56,11.1z M37.26,32.34
	l15.06,13.81c1.68,1.7,1.68,4.45-0.02,6.15c-1.7,1.7-4.44,1.7-6.15,0.01L32.31,37.28L37.26,32.34z M35.65,30.87l-4.81,4.81
	l-1.47-1.6l4.68-4.68L35.65,30.87z M44.86,19.6c-0.95,0-1.89-0.15-2.78-0.45c-0.39-0.13-0.82-0.03-1.12,0.26
	c-5.46,5.46-17.22,17.22-21.55,21.55c-0.29,0.29-0.39,0.73-0.26,1.12c0.91,2.69,0.47,5.55-1.19,7.87c-1.66,2.31-4.23,3.63-7.07,3.63
	c-0.32,0-0.64-0.02-0.95-0.05l3.46-3.43c0.21-0.2,0.32-0.48,0.32-0.77v-3.08c0-0.29-0.11-0.57-0.32-0.77l-3.12-3.12
	c-0.2-0.2-0.48-0.32-0.77-0.32H6.43c-0.29,0-0.57,0.12-0.77,0.32l-3.43,3.46c-0.03-0.31-0.05-0.63-0.05-0.95
	c0-2.84,1.32-5.41,3.63-7.07c2.31-1.66,5.18-2.09,7.87-1.19c0.39,0.13,0.82,0.03,1.12-0.26c0.06-0.06,21.54-21.54,21.55-21.55
	c0.29-0.29,0.39-0.73,0.26-1.12c-0.91-2.69-0.47-5.55,1.19-7.86c1.66-2.31,4.23-3.63,7.07-3.63c0.33,0,0.65,0.02,0.98,0.05
	l-3.39,3.44c-0.2,0.2-0.31,0.48-0.31,0.76v3.08c0,0.28,0.11,0.55,0.31,0.76l3.01,3.12c0.21,0.21,0.49,0.33,0.78,0.33h3.08
	c0.29,0,0.57-0.12,0.77-0.32l3.43-3.46c0.03,0.31,0.05,0.63,0.05,0.95C53.57,15.69,49.67,19.6,44.86,19.6z"/>
</svg>
