<!-- Generator: Adobe Illustrator 24.0.0, SVG Export Plug-In  -->
<svg version="1.1" xmlns="http://www.w3.org/2000/svg" xmlns:xlink="http://www.w3.org/1999/xlink" x="0px" y="0px" width="18.18px"
	 height="14.89px" viewBox="0 0 18.18 14.89" style="enable-background:new 0 0 18.18 14.89;" xml:space="preserve">
<style type="text/css">
	.st0{fill-rule:evenodd;clip-rule:evenodd;fill:#eeeb26;}
</style>
<defs>
</defs>
<g>
	<path class="st0" d="M0,13.26c1.36,0.09,2.67-0.11,3.91-0.67c0.56-0.25,1.06-0.55,1.57-0.94c-0.59-0.01-1.13-0.16-1.62-0.41
		c-0.84-0.43-1.43-1.1-1.79-2c-0.08-0.2-0.08-0.2,0.14-0.19c0.6,0.06,1.04,0.05,1.38-0.09C3.26,8.85,2.95,8.79,2.7,8.62
		c-1.25-0.69-1.91-1.76-2.03-3.2C0.66,5.26,0.71,5.24,0.86,5.31c0.44,0.25,0.92,0.35,1.47,0.4C2.09,5.5,1.88,5.32,1.7,5.14
		C0.66,4.02,0.41,2.25,1.1,0.89C1.2,0.7,1.23,0.7,1.36,0.85C3.11,2.86,5.28,4.08,7.9,4.5c0.27,0.05,0.56,0.05,0.83,0.11
		c0.19,0.03,0.21-0.06,0.18-0.2c-0.27-1.58,0.47-3.14,1.86-3.92c1.42-0.83,3.27-0.57,4.42,0.55c0.13,0.11,0.26,0.14,0.41,0.1
		c0.7-0.16,1.36-0.42,1.98-0.78c0.05-0.01,0.09-0.04,0.16-0.1c-0.27,0.89-0.8,1.55-1.58,2.07c0.72-0.07,1.38-0.29,2.02-0.52
		c0.01,0.09-0.05,0.14-0.09,0.21c-0.44,0.6-0.95,1.13-1.56,1.59c-0.11,0.09-0.14,0.16-0.14,0.3c0.05,2.75-0.83,5.2-2.59,7.33
		c-1.65,1.94-3.76,3.11-6.26,3.51c-2.66,0.41-5.16-0.03-7.46-1.45C0.05,13.27,0.02,13.26,0,13.26z"/>
</g>
</svg>
