<!-- Generator: Adobe Illustrator 24.0.0, SVG Export Plug-In  -->
<svg version="1.1" xmlns="http://www.w3.org/2000/svg" xmlns:xlink="http://www.w3.org/1999/xlink" x="0px" y="0px" width="17.42px"
	 height="17.51px" viewBox="0 0 17.42 17.51" style="enable-background:new 0 0 17.42 17.51;" xml:space="preserve">
<style type="text/css">
	.st0{fill-rule:evenodd;clip-rule:evenodd;fill:#3556FB;}
</style>
<defs>
</defs>
<g>
	<path class="st0" d="M17.18,6.71C16.24,2.75,12.82,0.05,8.71,0C8.16,0.03,7.58,0.07,7.04,0.17C1.27,1.33-1.7,7.7,1.09,12.83
		c0.1,0.15,0.1,0.27,0.08,0.43c-0.41,1.33-0.78,2.7-1.14,4.04c-0.06,0.23-0.06,0.23,0.16,0.17c1.41-0.39,2.8-0.75,4.21-1.09
		c0.12-0.04,0.21-0.04,0.31,0.01c1.81,0.92,3.71,1.18,5.71,0.81C15.19,16.29,18.32,11.42,17.18,6.71z M9.93,15.81
		c-0.42,0.07-0.81,0.11-1,0.09c-1.54,0-2.77-0.35-3.92-1.01c-0.16-0.1-0.29-0.13-0.44-0.07c-0.79,0.19-1.55,0.4-2.33,0.6
		c-0.16,0.05-0.18,0.01-0.14-0.14c0.21-0.72,0.4-1.45,0.63-2.2c0.05-0.2,0.04-0.36-0.09-0.51c-1.58-2.57-1.51-5.72,0.26-8.11
		C4.72,2.02,7.24,1,10.24,1.65c2.95,0.62,4.85,2.54,5.52,5.48C16.71,11.16,13.99,15.15,9.93,15.81z"/>
	<path class="st0" d="M10.98,12.83c-0.3,0.03-0.61-0.03-0.9-0.11c-1.99-0.59-3.49-1.8-4.7-3.46C4.93,8.65,4.5,7.99,4.37,7.21
		c-0.18-0.9,0.1-1.71,0.78-2.32c0.23-0.22,0.89-0.32,1.16-0.17C6.4,4.79,6.45,4.86,6.5,4.94c0.25,0.62,0.51,1.19,0.76,1.78
		C7.3,6.85,7.29,6.97,7.22,7.09C7.09,7.37,6.89,7.58,6.69,7.81c-0.17,0.14-0.17,0.3-0.05,0.47c0.71,1.19,1.68,2.05,2.97,2.55
		c0.19,0.07,0.33,0.05,0.45-0.1c0.22-0.26,0.44-0.55,0.65-0.82c0.13-0.17,0.3-0.2,0.48-0.11c0.43,0.19,0.85,0.39,1.25,0.57
		c0.11,0.06,0.19,0.1,0.29,0.15c0.43,0.21,0.43,0.24,0.38,0.7c-0.06,0.91-0.75,1.37-1.55,1.59C11.34,12.86,11.17,12.86,10.98,12.83z
		"/>
</g>
</svg>
