<?xml version="1.0" encoding="utf-8"?>
<!-- Generator: Adobe Illustrator 24.0.0, SVG Export Plug-In . SVG Version: 6.00 Build 0)  -->
<svg version="1.1" id="Layer_1" xmlns="http://www.w3.org/2000/svg" xmlns:xlink="http://www.w3.org/1999/xlink" x="0px" y="0px"
	 viewBox="0 0 40 40" style="enable-background:new 0 0 40 40;" xml:space="preserve">
<style type="text/css">
	.st0{stroke:#000000;stroke-width:1.6398;stroke-miterlimit:10;}
</style>
<path class="st0" d="M10.9,33.2V11.9h5.3v-0.3c0-1.4,0.4-2.6,1.4-3.5c0.9-1,2-1.5,3.3-1.5c1.3,0,2.4,0.5,3.3,1.5
	c0.9,0.9,1.4,2.1,1.4,3.5v0.3h5.3v21.3H10.9z M18,11.5v0.3h5.6v-0.3c0-0.9-0.2-1.5-0.8-2.1s-1.2-0.9-2-0.9c-0.8,0-1.4,0.3-2,0.9
	C18.3,10,18,10.7,18,11.5z M12.7,31.2h16.2V13.9h-3.4v4h-1.9v-4H18v4h-1.9v-4h-3.4V31.2z M12.7,31.2V13.9V31.2z"/>
</svg>
