<?xml version="1.0" encoding="utf-8"?>
<!-- Generator: Adobe Illustrator 24.0.0, SVG Export Plug-In . SVG Version: 6.00 Build 0)  -->
<svg version="1.1" id="Layer_1" xmlns="http://www.w3.org/2000/svg" xmlns:xlink="http://www.w3.org/1999/xlink" x="0px" y="0px"
	 viewBox="0 0 32 40" style="enable-background:new 0 0 32 40;" xml:space="preserve">
<path d="M0,40V8h8.5V7.5c0-2.1,0.7-3.9,2.2-5.3C12.1,0.7,13.9,0,16,0s3.9,0.7,5.3,2.2c1.4,1.4,2.2,3.2,2.2,5.3V8H32v32H0z M11.5,7.5
	V8h9V7.5c0-1.3-0.4-2.3-1.3-3.2C18.3,3.4,17.3,3,16,3s-2.3,0.4-3.2,1.3S11.5,6.2,11.5,7.5z M3,37h26V11h-5.5v6h-3v-6h-9v6h-3v-6H3
	V37z M3,37V11V37z"/>
</svg>
