<svg width="24" height="24" viewBox="0 0 24 24" fill="none" xmlns="http://www.w3.org/2000/svg">
<rect width="23.5" height="23.5" rx="11.75" fill="#F2F0EB"/>
<path d="M11.75 2C9.82164 2 7.93657 2.57183 6.33319 3.64317C4.72982 4.71451 3.48013 6.23726 2.74218 8.01884C2.00422 9.80042 1.81114 11.7608 2.18735 13.6521C2.56355 15.5434 3.49215 17.2807 4.85571 18.6443C6.21928 20.0079 7.95656 20.9365 9.84787 21.3127C11.7392 21.6889 13.6996 21.4958 15.4812 20.7578C17.2627 20.0199 18.7855 18.7702 19.8568 17.1668C20.9282 15.5634 21.5 13.6784 21.5 11.75C21.4973 9.16498 20.4692 6.68661 18.6413 4.85872C16.8134 3.03084 14.335 2.00273 11.75 2ZM11.75 20C10.1183 20 8.52326 19.5161 7.16655 18.6096C5.80984 17.7031 4.75242 16.4146 4.128 14.9071C3.50358 13.3996 3.3402 11.7408 3.65853 10.1405C3.97685 8.54016 4.76259 7.07015 5.91637 5.91637C7.07016 4.76259 8.54017 3.97685 10.1405 3.65852C11.7409 3.34019 13.3997 3.50357 14.9071 4.12799C16.4146 4.75242 17.7031 5.80984 18.6096 7.16655C19.5161 8.52325 20 10.1183 20 11.75C19.9975 13.9373 19.1275 16.0343 17.5809 17.5809C16.0343 19.1275 13.9373 19.9975 11.75 20ZM16.25 11.75C16.25 11.9489 16.171 12.1397 16.0303 12.2803C15.8897 12.421 15.6989 12.5 15.5 12.5H9.81032L11.5306 14.2194C11.6003 14.2891 11.6556 14.3718 11.6933 14.4628C11.731 14.5539 11.7504 14.6515 11.7504 14.75C11.7504 14.8485 11.731 14.9461 11.6933 15.0372C11.6556 15.1282 11.6003 15.2109 11.5306 15.2806C11.4609 15.3503 11.3782 15.4056 11.2872 15.4433C11.1961 15.481 11.0986 15.5004 11 15.5004C10.9015 15.5004 10.8039 15.481 10.7128 15.4433C10.6218 15.4056 10.5391 15.3503 10.4694 15.2806L7.46938 12.2806C7.39965 12.211 7.34433 12.1283 7.30658 12.0372C7.26884 11.9462 7.24941 11.8486 7.24941 11.75C7.24941 11.6514 7.26884 11.5538 7.30658 11.4628C7.34433 11.3717 7.39965 11.289 7.46938 11.2194L10.4694 8.21937C10.6101 8.07864 10.801 7.99958 11 7.99958C11.199 7.99958 11.3899 8.07864 11.5306 8.21937C11.6714 8.36011 11.7504 8.55098 11.7504 8.75C11.7504 8.94902 11.6714 9.13989 11.5306 9.28063L9.81032 11H15.5C15.6989 11 15.8897 11.079 16.0303 11.2197C16.171 11.3603 16.25 11.5511 16.25 11.75Z" fill="black"/>
</svg>
