<?xml version="1.0" encoding="utf-8"?>
<!-- Generator: Adobe Illustrator 24.0.0, SVG Export Plug-In . SVG Version: 6.00 Build 0)  -->
<svg version="1.1" id="Layer_1" xmlns="http://www.w3.org/2000/svg" xmlns:xlink="http://www.w3.org/1999/xlink" x="0px" y="0px"
	 viewBox="0 0 48 48" style="enable-background:new 0 0 48 48;" xml:space="preserve">
<style type="text/css">
	.st0{fill:#FB1F4C;}
</style>
<path class="st0" d="M22,40.2l-2.6-2.5c-4.1-3.8-7.7-7.5-10.8-11S4,19.6,4,15.9c0-3,1-5.5,3-7.5s4.5-3,7.5-3c1.7,0,3.4,0.4,5,1.2
	s3.1,2.2,4.5,4c1.5-1.9,3-3.2,4.5-4s3.2-1.2,5-1.2c3,0,5.5,1,7.5,3c2,2,3,4.5,3,7.5c0,3.8-1.5,7.4-4.5,10.9c-3,3.5-6.6,7.1-10.8,11
	l-2.6,2.5c-0.6,0.5-1.3,0.8-2,0.8S22.5,40.7,22,40.2z M22.7,13.9c-0.9-1.6-2.1-3-3.5-4c-1.5-1-3-1.6-4.6-1.6c-2.2,0-4,0.7-5.4,2.1
	C7.7,11.8,7,13.7,7,15.9c0,1.9,0.7,4,1.9,6.1s2.9,4.2,4.7,6.2s3.7,3.9,5.6,5.6c1.9,1.7,3.5,3.2,4.8,4.3c1.3-1.1,2.9-2.6,4.8-4.3
	s3.8-3.6,5.6-5.6s3.4-4.1,4.7-6.2c1.3-2.1,2-4.1,2-6c0-2.2-0.7-4-2.1-5.4s-3.2-2.1-5.4-2.1c-1.7,0-3.2,0.5-4.7,1.5
	c-1.5,1-2.7,2.4-3.6,4c-0.2,0.3-0.4,0.5-0.5,0.6s-0.4,0.2-0.7,0.2c-0.3,0-0.5-0.1-0.7-0.2S22.8,14.1,22.7,13.9z"/>
</svg>
