<?xml version="1.0" encoding="utf-8"?>
<!-- Generator: Adobe Illustrator 17.0.0, SVG Export Plug-In . SVG Version: 6.00 Build 0)  -->
<!DOCTYPE svg PUBLIC "-//W3C//DTD SVG 1.0//EN" "http://www.w3.org/TR/2001/REC-SVG-20010904/DTD/svg10.dtd">
<svg version="1.0" id="Layer_1" xmlns="http://www.w3.org/2000/svg" xmlns:xlink="http://www.w3.org/1999/xlink" x="0px" y="0px"
	 width="14px" height="14px" viewBox="0 0 14 14" enable-background="new 0 0 14 14" xml:space="preserve">
<g>
	<g>
		<path fill="#ED1C24" d="M14,7.237C14,7.931,13.431,8.5,12.737,8.5H1.263C0.569,8.5,0,7.931,0,7.237V6.763
			C0,6.069,0.569,5.5,1.263,5.5h11.473C13.431,5.5,14,6.069,14,6.763V7.237z"/>
	</g>
</g>
<g>
	<g>
		<path fill="#ED1C24" d="M7.237,0C7.931,0,8.5,0.569,8.5,1.263v11.473C8.5,13.431,7.931,14,7.237,14H6.763
			C6.069,14,5.5,13.431,5.5,12.737V1.263C5.5,0.569,6.069,0,6.763,0L7.237,0z"/>
	</g>
</g>
</svg>
