<svg width="49" height="32" viewBox="0 0 49 32" fill="none" xmlns="http://www.w3.org/2000/svg">
<rect width="48" height="32" transform="translate(0.5)" fill="#F5F5F5"/>
<path opacity="0.2" d="M30.5 13C30.5 14.1867 30.1481 15.3467 29.4888 16.3334C28.8295 17.3201 27.8925 18.0892 26.7961 18.5433C25.6997 18.9974 24.4933 19.1162 23.3295 18.8847C22.1656 18.6532 21.0965 18.0818 20.2574 17.2426C19.4182 16.4035 18.8468 15.3344 18.6153 14.1705C18.3838 13.0067 18.5026 11.8003 18.9567 10.7039C19.4109 9.60754 20.1799 8.67047 21.1666 8.01118C22.1533 7.35189 23.3133 7 24.5 7C26.0913 7 27.6174 7.63214 28.7426 8.75736C29.8679 9.88258 30.5 11.4087 30.5 13Z" fill="black"/>
<path d="M34.1488 23.875C32.7209 21.4066 30.5206 19.6366 27.9528 18.7975C29.223 18.0414 30.2098 16.8892 30.7618 15.5179C31.3137 14.1467 31.4003 12.6321 31.0082 11.2069C30.6161 9.78167 29.767 8.52456 28.5912 7.62862C27.4155 6.73268 25.9782 6.24745 24.5 6.24745C23.0218 6.24745 21.5845 6.73268 20.4088 7.62862C19.2331 8.52456 18.3839 9.78167 17.9918 11.2069C17.5997 12.6321 17.6863 14.1467 18.2382 15.5179C18.7902 16.8892 19.777 18.0414 21.0472 18.7975C18.4794 19.6356 16.2791 21.4056 14.8513 23.875C14.7989 23.9604 14.7642 24.0554 14.7491 24.1544C14.7341 24.2534 14.739 24.3544 14.7636 24.4515C14.7883 24.5486 14.8321 24.6398 14.8925 24.7196C14.9529 24.7995 15.0287 24.8665 15.1155 24.9165C15.2022 24.9666 15.2981 24.9989 15.3975 25.0113C15.4968 25.0237 15.5977 25.0161 15.6941 24.989C15.7905 24.9618 15.8805 24.9156 15.9587 24.8531C16.037 24.7906 16.1019 24.713 16.1497 24.625C17.9159 21.5725 21.0378 19.75 24.5 19.75C27.9622 19.75 31.0841 21.5725 32.8503 24.625C32.8981 24.713 32.9631 24.7906 33.0413 24.8531C33.1196 24.9156 33.2095 24.9618 33.3059 24.989C33.4023 25.0161 33.5032 25.0237 33.6026 25.0113C33.7019 24.9989 33.7978 24.9666 33.8845 24.9165C33.9713 24.8665 34.0471 24.7995 34.1075 24.7196C34.1679 24.6398 34.2118 24.5486 34.2364 24.4515C34.261 24.3544 34.266 24.2534 34.2509 24.1544C34.2358 24.0554 34.2011 23.9604 34.1488 23.875ZM19.25 13C19.25 11.9617 19.5579 10.9466 20.1348 10.0833C20.7117 9.2199 21.5316 8.54699 22.4909 8.14963C23.4502 7.75227 24.5058 7.64831 25.5242 7.85088C26.5426 8.05345 27.4781 8.55347 28.2123 9.28769C28.9465 10.0219 29.4466 10.9574 29.6491 11.9758C29.8517 12.9942 29.7477 14.0498 29.3504 15.0091C28.953 15.9684 28.2801 16.7883 27.4168 17.3652C26.5534 17.9421 25.5384 18.25 24.5 18.25C23.1081 18.2485 21.7736 17.6949 20.7893 16.7107C19.8051 15.7264 19.2515 14.3919 19.25 13Z" fill="black"/>
</svg>
