<?xml version="1.0" encoding="utf-8"?>
<!-- Generator: Adobe Illustrator 24.0.0, SVG Export Plug-In . SVG Version: 6.00 Build 0)  -->
<svg version="1.1" id="Layer_1" xmlns="http://www.w3.org/2000/svg" xmlns:xlink="http://www.w3.org/1999/xlink" x="0px" y="0px"
	 viewBox="0 0 335.8 319.9" style="enable-background:new 0 0 335.8 319.9;" xml:space="preserve">
<style type="text/css">
	.st0{fill:#676767;}
	.st1{fill:#C5C5C5;}
	.st2{fill:#A2A2A2;}
	.st3{fill:#737373;}
	.st4{fill:#595959;}
	.st5{fill:#FFFFFF;}
</style>
<g>
	<g>
		<ellipse class="st0" cx="167.8" cy="167.8" rx="167.7" ry="152.1"/>
	</g>
	<g>
		<path class="st1" d="M198.4,222.4l-26.4-36.7c-1-1.4-2.6-2.2-4.3-2.2c0,0,0,0,0,0c-1.7,0-3.3,0.8-4.3,2.2l-26.1,36.7
			c-1.2,1.6-1.3,3.8-0.3,5.6l26.2,47.2c0.9,1.7,2.7,2.7,4.6,2.7c1.9,0,3.7-1,4.6-2.7l26.2-47.2C199.8,226.3,199.6,224.1,198.4,222.4
			z"/>
	</g>
	<g>
		<path class="st2" d="M163.5,185.8l-26.1,36.7c-1.2,1.6-1.3,3.8-0.3,5.6l26.2,47.2c0.9,1.6,2.6,2.6,4.4,2.7v-94.4c0,0,0,0,0,0
			C166.1,183.6,164.5,184.4,163.5,185.8z"/>
	</g>
	<g>
		<path class="st1" d="M246.5,95.1c-35.3-4.9-66.5,15.3-78.6,45.4c-12.1-30-43.3-50.2-78.6-45.4c-32.7,4.5-58.8,31.5-62.5,64.3
			c-4.9,44.3,29.6,81.8,73,81.8c27.2,0,51-14.8,63.6-36.9c2-3.4,7-3.4,8.9,0c12.7,22,36.4,36.9,63.6,36.9c43.3,0,77.9-37.5,73-81.8
			C305.3,126.6,279.2,99.7,246.5,95.1z"/>
	</g>
	<g>
		<circle class="st3" cx="236" cy="167.8" r="47.2"/>
	</g>
	<g>
		<circle class="st3" cx="99.6" cy="167.8" r="47.2"/>
	</g>
	<g>
		<path class="st3" d="M262.2,42h26.2c20.2,0,36.7-16.5,36.7-36.7c0-2.9,2.3-5.2,5.2-5.2s5.2,2.3,5.2,5.2v62.9
			c0,26-21.2,47.2-47.2,47.2h-62.9c-28.9,0-52.4,23.5-52.4,52.4c0,2.9-2.3,5.2-5.2,5.2s-5.2-2.3-5.2-5.2v-26.2
			C162.6,86.7,207.3,42,262.2,42z"/>
	</g>
	<g>
		<path class="st3" d="M73.6,42H47.3C27.1,42,10.6,25.5,10.6,5.2C10.6,2.3,8.3,0,5.4,0S0.1,2.3,0.1,5.2v62.9
			c0,26,21.2,47.2,47.2,47.2h62.9c28.9,0,52.4,23.5,52.4,52.4c0,2.9,2.3,5.2,5.2,5.2s5.2-2.3,5.2-5.2v-26.2
			C173.2,86.7,128.5,42,73.6,42z"/>
	</g>
	<g>
		<g>
			<circle class="st1" cx="99.8" cy="167.8" r="31.5"/>
		</g>
		<g>
			<circle class="st4" cx="99.8" cy="167.8" r="15.7"/>
		</g>
		<g>
			<circle class="st5" cx="110.2" cy="157.4" r="10.5"/>
		</g>
	</g>
	<g>
		<g>
			<circle class="st1" cx="236" cy="167.8" r="31.5"/>
		</g>
		<g>
			<circle class="st4" cx="236" cy="167.8" r="15.7"/>
		</g>
		<g>
			<circle class="st5" cx="246.4" cy="157.4" r="10.5"/>
		</g>
	</g>
	<g>
		<path class="st1" d="M330.5,0c-2.9,0-5.2,2.3-5.2,5.2c0,20.2-16.5,36.7-36.7,36.7h-26.2c-43.9,0-81.3,28.6-94.5,68.2
			C154.7,70.6,117.4,42,73.4,42H47.2C27,42,10.5,25.5,10.5,5.2C10.5,2.3,8.1,0,5.2,0S0,2.3,0,5.2v31.5C0,57,16.4,73.4,36.7,73.4
			h36.7c35.6,0,66.8,18.8,84.4,47c2.2,3.5,6,5.5,10.1,5.5h0c4.1,0,7.9-2,10.1-5.5c17.6-28.2,48.8-47,84.4-47h36.7
			c20.3,0,36.7-16.4,36.7-36.7V5.2C335.8,2.3,333.4,0,330.5,0z"/>
	</g>
</g>
</svg>
