<?xml version="1.0" encoding="utf-8"?>
<!-- Generator: Adobe Illustrator 24.0.0, SVG Export Plug-In . SVG Version: 6.00 Build 0)  -->
<svg version="1.1" id="Layer_1" xmlns="http://www.w3.org/2000/svg" xmlns:xlink="http://www.w3.org/1999/xlink" x="0px" y="0px"
	 viewBox="0 0 48 48" style="enable-background:new 0 0 48 48;" xml:space="preserve">
<style type="text/css">
	.st0{fill:#FB1F4C;}
</style>
<path class="st0" d="M24,44c-2.8,0-5.4-0.5-7.8-1.6s-4.6-2.5-6.4-4.3c-1.8-1.8-3.2-3.9-4.3-6.4S4,26.8,4,24s0.5-5.4,1.6-7.8
	s2.5-4.5,4.3-6.3s3.9-3.2,6.4-4.3S21.2,4,24,4h17c0.8,0,1.5,0.3,2.1,0.9S44,6.2,44,7v17c0,2.8-0.5,5.4-1.6,7.8
	c-1,2.4-2.5,4.5-4.3,6.4c-1.8,1.8-3.9,3.2-6.4,4.3S26.8,44,24,44z M24,41c4.7,0,8.8-1.6,12.1-4.9C39.4,32.8,41,28.7,41,24V7H24
	c-4.7,0-8.8,1.6-12.1,4.9C8.6,15.2,7,19.3,7,24s1.6,8.8,4.9,12.1C15.2,39.4,19.3,41,24,41z M14.2,29.9h13.7v-4.4l6.3,4.4V18.2
	l-6.3,4.4v-4.4H14.2V29.9z"/>
</svg>
