<?xml version="1.0" encoding="utf-8"?>
<!-- Generator: Adobe Illustrator 24.0.0, SVG Export Plug-In . SVG Version: 6.00 Build 0)  -->
<svg version="1.1" id="Layer_1" xmlns="http://www.w3.org/2000/svg" xmlns:xlink="http://www.w3.org/1999/xlink" x="0px" y="0px"
	 viewBox="0 0 48 48" style="enable-background:new 0 0 48 48;" xml:space="preserve">
<style type="text/css">
	.st0{fill:#FB1F4C;}
</style>
<path class="st0" d="M16.3,42.5c-2.5-1.1-4.6-2.5-6.4-4.3c-1.8-1.9-3.3-4-4.3-6.4C4.5,29.4,4,26.8,4,24V7c0-0.8,0.3-1.5,0.9-2.1
	S6.2,4,7,4h17c2.8,0,5.2,0.5,7.7,1.6s4.6,2.5,6.4,4.3s3.2,3.9,4.3,6.3c1.1,2.4,1.6,5,1.6,7.8s-0.4,5.2-1.5,7.7
	c-1.1,2.5-2.5,4.6-4.3,6.4c-1.8,1.8-4,3.2-6.4,4.3S26.8,44,24,44S18.8,43.6,16.3,42.5z M36.1,36.1C39.4,32.8,41,28.7,41,24
	s-1.6-8.8-4.9-12.1C32.8,8.6,28.7,7,24,7H7v17c0,4.7,1.6,8.8,4.9,12.1C15.2,39.4,19.3,41,24,41S32.8,39.4,36.1,36.1z M26.3,20.3
	c-0.1,0.2-0.2,0.5,0,0.8c0.2,0.3,0.2,0.5,0.5,0.8c0.2,0.3,0.5,0.6,0.7,0.8c0.2,0.2,0.5,0.5,0.2,1c-0.3,0.5-1.2,2-2.6,3.2
	c-1.8,1.6-3.3,2.1-3.8,2.3c-0.5,0.2-0.7,0.2-1-0.1c-0.3-0.3-1.2-1.4-1.5-1.8c-0.3-0.5-0.6-0.4-1.1-0.2c-0.4,0.2-2.7,1.3-3.2,1.5
	c-0.5,0.2-0.8,0.4-0.9,0.5c-0.1,0.2-0.1,1.1,0.3,2.2c0.4,1.1,2.3,2.1,3.2,2.2c0.8,0.1,1.8,0.2,2.9-0.2c0.7-0.2,1.6-0.5,2.7-1
	c4.7-2,7.8-6.8,8-7.1c0.2-0.3,1.9-2.5,1.9-4.8c0-2.3-1.2-3.4-1.6-3.9C30.5,16.1,30,16,29.7,16c-0.3,0-0.6,0-0.9,0
	c-0.3,0-0.7-0.1-1.1,0.8C27.3,17.7,26.4,20,26.3,20.3z"/>
</svg>
