<?xml version="1.0" encoding="utf-8"?>
<!-- Generator: Adobe Illustrator 24.0.0, SVG Export Plug-In . SVG Version: 6.00 Build 0)  -->
<svg version="1.1" id="Layer_1" xmlns="http://www.w3.org/2000/svg" xmlns:xlink="http://www.w3.org/1999/xlink" x="0px" y="0px"
	 viewBox="0 0 48 48" style="enable-background:new 0 0 48 48;" xml:space="preserve">
<style type="text/css">
	.st0{fill:#FB1F4C;}
</style>
<path class="st0" d="M24,44c-4.5,0-8.3-1.5-11.3-4.7C9.6,36.3,8,32.5,8,28c0-3.9,1.2-7.6,3.6-11.3s5.7-6.7,9.8-9.3
	c0.6-0.4,1.1-0.4,1.7,0C23.7,7.8,24,8.3,24,9v3.6c0,1.1,0.4,2.1,1.2,2.9c0.8,0.8,1.7,1.2,2.9,1.2c0.6,0,1.2-0.1,1.7-0.4
	c0.5-0.3,1-0.6,1.4-1.1c0.3-0.3,0.6-0.5,0.9-0.6c0.3-0.1,0.7-0.1,1,0.1c2.2,1.5,3.9,3.4,5.2,5.8S40,25.3,40,28
	c0,4.5-1.5,8.3-4.6,11.3C32.3,42.5,28.5,44,24,44z M11,28c0,2.1,0.5,4.1,1.4,5.9c0.9,1.9,2.3,3.4,4,4.6c-0.1-0.4-0.2-0.8-0.3-1.2
	C16,36.9,16,36.5,16,36.1c0-1.1,0.2-2.1,0.6-3c0.4-0.9,1-1.8,1.8-2.5L24,25l5.6,5.5c0.8,0.8,1.4,1.6,1.8,2.5c0.4,0.9,0.6,1.9,0.6,3
	c0,0.4,0,0.8-0.1,1.2c-0.1,0.4-0.2,0.8-0.3,1.2c1.7-1.2,3-2.8,4-4.6c1-1.8,1.4-3.8,1.4-5.9c0-1.8-0.4-3.6-1.1-5.3
	C35.1,21,34,19.4,32.5,18c-0.7,0.5-1.4,0.9-2.2,1.2s-1.5,0.4-2.3,0.4c-2,0-3.7-0.7-5.1-2.1c-1.3-1.4-2-3.1-2-5.2v-1
	c-3.1,2.2-5.5,4.8-7.3,7.8S11,25.1,11,28z M24,29.2l-3.5,3.5c-0.5,0.5-0.8,1-1.1,1.5S19,35.4,19,36.1c0,1.4,0.5,2.5,1.5,3.5
	S22.6,41,24,41s2.6-0.5,3.6-1.4c1-1,1.4-2.1,1.4-3.5c0-0.7-0.1-1.3-0.4-1.8s-0.6-1.1-1.1-1.5L24,29.2z"/>
</svg>
