<?xml version="1.0" encoding="utf-8"?>
<!-- Generator: Adobe Illustrator 24.0.0, SVG Export Plug-In . SVG Version: 6.00 Build 0)  -->
<svg version="1.1" id="Layer_1" xmlns="http://www.w3.org/2000/svg" xmlns:xlink="http://www.w3.org/1999/xlink" x="0px" y="0px"
	 viewBox="0 0 48 48" style="enable-background:new 0 0 48 48;" xml:space="preserve">
<style type="text/css">
	.st0{fill:#FB1F4C;}
</style>
<path class="st0" d="M11,39h7.5V26.5h11V39H37V19.5L24,9.8l-13,9.8V39z M11,42c-0.8,0-1.5-0.3-2.1-0.9S8,39.8,8,39V19.5
	c0-0.5,0.1-0.9,0.3-1.4c0.2-0.4,0.5-0.8,0.9-1l13-9.8c0.3-0.2,0.5-0.4,0.9-0.4c0.3-0.1,0.6-0.2,1-0.2c0.3,0,0.6,0.1,1,0.2
	c0.3,0.1,0.6,0.2,0.9,0.4l13,9.8c0.4,0.3,0.7,0.6,0.9,1c0.2,0.4,0.3,0.9,0.3,1.4V39c0,0.8-0.3,1.5-0.9,2.1C38.5,41.7,37.8,42,37,42
	H26.5V29.5h-5V42H11z"/>
</svg>
