<?xml version="1.0" encoding="utf-8"?>
<!-- Generator: Adobe Illustrator 24.0.0, SVG Export Plug-In . SVG Version: 6.00 Build 0)  -->
<svg version="1.1" id="Layer_1" xmlns="http://www.w3.org/2000/svg" xmlns:xlink="http://www.w3.org/1999/xlink" x="0px" y="0px"
	 viewBox="0 0 48 48" style="enable-background:new 0 0 48 48;" xml:space="preserve">
<style type="text/css">
	.st0{fill:#FB1F4C;}
</style>
<path class="st0" d="M24,26.4l4.1,3.2c0.2,0.1,0.3,0.1,0.5,0c0.1-0.1,0.2-0.2,0.1-0.4L27,24l4.4-3.1c0.2-0.1,0.2-0.2,0.1-0.4
	s-0.2-0.3-0.4-0.3h-5.3l-1.5-5.1c-0.1-0.2-0.2-0.3-0.4-0.3c-0.2,0-0.3,0.1-0.4,0.3l-1.5,5.1h-5.3c-0.2,0-0.3,0.1-0.4,0.3
	s0,0.3,0.1,0.4l4.3,3.1l-1.8,5.1c-0.1,0.2,0,0.3,0.1,0.4s0.3,0.1,0.5,0L24,26.4z M24,43.8c-0.2,0-0.3,0-0.5,0
	c-0.1,0-0.3-0.1-0.5-0.2c-4.6-1.6-8.3-4.4-11-8.4S8,26.7,8,21.9V12c0-0.6,0.2-1.2,0.6-1.7c0.4-0.5,0.8-0.9,1.4-1.1l13-4.9
	c0.4-0.1,0.7-0.2,1-0.2c0.3,0,0.7,0.1,1.1,0.2l13,4.9c0.6,0.2,1,0.6,1.4,1.1c0.4,0.5,0.5,1.1,0.5,1.7v9.8c0,4.8-1.3,9.3-4,13.3
	s-6.4,6.9-11,8.4c-0.2,0.1-0.3,0.1-0.5,0.2S24.2,43.8,24,43.8z M24,40.8c3.8-1.3,7-3.7,9.4-7.2S37,26.2,37,21.9V12L24,7.1L11,12v9.8
	c0,4.4,1.2,8.3,3.6,11.8S20.2,39.6,24,40.8z"/>
</svg>
