<?xml version="1.0" encoding="utf-8"?>
<!-- Generator: Adobe Illustrator 24.0.0, SVG Export Plug-In . SVG Version: 6.00 Build 0)  -->
<svg version="1.1" id="Layer_1" xmlns="http://www.w3.org/2000/svg" xmlns:xlink="http://www.w3.org/1999/xlink" x="0px" y="0px"
	 viewBox="0 0 48 48" style="enable-background:new 0 0 48 48;" xml:space="preserve">
<style type="text/css">
	.st0{fill:#FB1F4C;}
</style>
<path class="st0" d="M22.5,29.5V34c0,0.4,0.1,0.8,0.4,1.1c0.3,0.3,0.6,0.4,1.1,0.4c0.4,0,0.8-0.1,1.1-0.4c0.3-0.3,0.4-0.6,0.4-1.1
	v-4.5H30c0.4,0,0.8-0.1,1.1-0.4c0.3-0.3,0.4-0.6,0.4-1.1c0-0.4-0.1-0.8-0.4-1.1s-0.6-0.4-1.1-0.4h-4.5V22c0-0.4-0.1-0.8-0.4-1.1
	c-0.3-0.3-0.6-0.4-1.1-0.4c-0.4,0-0.8,0.1-1.1,0.4s-0.4,0.6-0.4,1.1v4.5H18c-0.4,0-0.8,0.1-1.1,0.4c-0.3,0.3-0.4,0.6-0.4,1.1
	c0,0.4,0.1,0.8,0.4,1.1c0.3,0.3,0.6,0.4,1.1,0.4H22.5z M7,44c-0.8,0-1.5-0.3-2.1-0.9C4.3,42.5,4,41.8,4,41V15c0-0.8,0.3-1.5,0.9-2.1
	C5.5,12.3,6.2,12,7,12h9V7c0-0.8,0.3-1.5,0.9-2.1C17.5,4.3,18.2,4,19,4h10c0.8,0,1.5,0.3,2.1,0.9S32,6.2,32,7v5h9
	c0.8,0,1.5,0.3,2.1,0.9c0.6,0.6,0.9,1.3,0.9,2.1v26c0,0.8-0.3,1.5-0.9,2.1C42.5,43.7,41.8,44,41,44H7z M7,41h34V15H7V41z M19,12h10
	V7H19V12z M7,41V15V41z"/>
</svg>
