<?xml version="1.0" encoding="utf-8"?>
<!-- Generator: Adobe Illustrator 24.0.0, SVG Export Plug-In . SVG Version: 6.00 Build 0)  -->
<svg version="1.1" id="Layer_1" xmlns="http://www.w3.org/2000/svg" xmlns:xlink="http://www.w3.org/1999/xlink" x="0px" y="0px"
	 viewBox="0 0 48 48" style="enable-background:new 0 0 48 48;" xml:space="preserve">
<style type="text/css">
	.st0{fill:#FB1F4C;}
</style>
<path class="st0" d="M24,26.9c-1.4,0-2.6-0.5-3.6-1.5c-1-1-1.4-2.3-1.4-3.8V9c0-1.4,0.5-2.6,1.5-3.5c1-1,2.2-1.5,3.6-1.5
	c1.4,0,2.6,0.5,3.6,1.5c1,1,1.5,2.2,1.5,3.5v12.6c0,1.5-0.5,2.7-1.5,3.8C26.6,26.3,25.4,26.9,24,26.9z M24,42
	c-0.4,0-0.8-0.1-1.1-0.4c-0.3-0.3-0.4-0.6-0.4-1.1v-5.3c-3.3-0.4-6.1-1.7-8.4-3.9s-3.7-5-4-8.1c-0.1-0.4,0.1-0.8,0.4-1.1
	s0.7-0.5,1.2-0.5c0.3,0,0.7,0.1,0.9,0.4c0.3,0.3,0.4,0.6,0.5,1c0.4,2.7,1.6,4.9,3.6,6.7c2.1,1.8,4.5,2.7,7.3,2.7
	c2.8,0,5.2-0.9,7.3-2.7s3.3-4,3.7-6.7c0.1-0.4,0.3-0.7,0.5-1c0.3-0.3,0.6-0.4,1-0.4c0.5,0,0.9,0.2,1.2,0.5c0.3,0.3,0.4,0.7,0.4,1.1
	c-0.4,3.2-1.7,5.9-4,8.1s-5.1,3.6-8.4,3.9v5.3c0,0.4-0.1,0.8-0.4,1.1C24.8,41.9,24.4,42,24,42z M24,23.9c0.6,0,1.1-0.2,1.5-0.7
	c0.4-0.4,0.6-1,0.6-1.6V9c0-0.6-0.2-1-0.6-1.4C25.1,7.2,24.6,7,24,7s-1.1,0.2-1.5,0.6C22.1,8,22,8.4,22,9v12.6
	c0,0.6,0.2,1.2,0.6,1.6C22.9,23.6,23.4,23.9,24,23.9z"/>
</svg>
