<?xml version="1.0" encoding="utf-8"?>
<!-- Generator: Adobe Illustrator 24.0.0, SVG Export Plug-In . SVG Version: 6.00 Build 0)  -->
<svg version="1.1" id="Layer_1" xmlns="http://www.w3.org/2000/svg" xmlns:xlink="http://www.w3.org/1999/xlink" x="0px" y="0px"
	 viewBox="0 0 48 48" style="enable-background:new 0 0 48 48;" xml:space="preserve">
<style type="text/css">
	.st0{fill:#FB1F4C;}
</style>
<path class="st0" d="M7,40c-0.8,0-1.5-0.3-2.1-0.9C4.3,38.5,4,37.8,4,37V11c0-0.8,0.3-1.5,0.9-2.1C5.5,8.3,6.2,8,7,8h34
	c0.8,0,1.5,0.3,2.1,0.9C43.7,9.5,44,10.2,44,11v26c0,0.8-0.3,1.5-0.9,2.1C42.5,39.7,41.8,40,41,40H7z M7,37h34V11H7V37z M10,34h20
	V14H10V34z M36,34c0.4,0,0.7-0.2,1-0.5c0.3-0.3,0.5-0.7,0.5-1c0-0.4-0.2-0.7-0.5-1c-0.3-0.3-0.7-0.5-1-0.5s-0.7,0.1-1,0.4
	c-0.3,0.3-0.5,0.6-0.5,1.1c0,0.4,0.2,0.7,0.5,1C35.3,33.8,35.6,34,36,34z M13,31V17h14v14H13z M36,25.5c0.4,0,0.7-0.1,1-0.4
	c0.3-0.3,0.5-0.6,0.5-1.1c0-0.5-0.2-0.8-0.5-1.1s-0.7-0.4-1-0.4c-0.4,0-0.7,0.1-1,0.4c-0.3,0.3-0.5,0.6-0.5,1.1
	c0,0.4,0.2,0.8,0.5,1.1C35.3,25.4,35.6,25.5,36,25.5z M36,17c0.4,0,0.7-0.1,1-0.4c0.3-0.3,0.5-0.6,0.5-1.1c0-0.5-0.2-0.8-0.5-1.1
	c-0.3-0.3-0.7-0.4-1-0.4s-0.7,0.1-1,0.4c-0.3,0.3-0.5,0.6-0.5,1.1c0,0.4,0.2,0.8,0.5,1.1C35.3,16.9,35.6,17,36,17z M7,37V11V37z"/>
</svg>
