<?xml version="1.0" encoding="utf-8"?>
<!-- Generator: Adobe Illustrator 24.0.0, SVG Export Plug-In . SVG Version: 6.00 Build 0)  -->
<svg version="1.1" id="Layer_1" xmlns="http://www.w3.org/2000/svg" xmlns:xlink="http://www.w3.org/1999/xlink" x="0px" y="0px"
	 viewBox="0 0 48 48" style="enable-background:new 0 0 48 48;" xml:space="preserve">
<style type="text/css">
	.st0{fill:#FB1F4C;}
</style>
<path class="st0" d="M20.4,42.7c-0.3,0.2-0.6,0.2-0.9,0s-0.4-0.5-0.3-0.9l1.4-4.5L17,34.6c-0.3-0.2-0.4-0.5-0.3-0.8s0.4-0.5,0.7-0.5
	h4.5l1.3-4.9l-7-4.1c-0.7-0.4-1.2-0.9-1.6-1.5c-0.4-0.6-0.6-1.3-0.6-2.1V7c0-0.8,0.3-1.5,0.9-2.1C15.5,4.3,16.2,4,17,4h14
	c0.8,0,1.5,0.3,2.1,0.9C33.7,5.5,34,6.2,34,7v13.6c0,0.8-0.2,1.5-0.6,2.1c-0.4,0.6-0.9,1.2-1.6,1.5l-7,4.1l1.3,4.9h4.5
	c0.3,0,0.6,0.2,0.7,0.5s0,0.6-0.3,0.8l-3.6,2.7l1.4,4.5c0.1,0.4,0,0.6-0.3,0.8s-0.6,0.2-0.9,0L24,40L20.4,42.7z M17,7v13.6
	c0,0.2,0.1,0.5,0.2,0.6c0.1,0.2,0.4,0.4,0.7,0.6l4.8,2.6V7H17z M31,7h-5.3v17.5l4.4-2.6c0.3-0.2,0.5-0.4,0.7-0.6
	c0.2-0.2,0.2-0.4,0.2-0.6V7z"/>
</svg>
