<?xml version="1.0" encoding="utf-8"?>
<!-- Generator: Adobe Illustrator 24.0.0, SVG Export Plug-In . SVG Version: 6.00 Build 0)  -->
<svg version="1.1" id="Layer_1" xmlns="http://www.w3.org/2000/svg" xmlns:xlink="http://www.w3.org/1999/xlink" x="0px" y="0px"
	 viewBox="0 0 48 48" style="enable-background:new 0 0 48 48;" xml:space="preserve">
<style type="text/css">
	.st0{fill:#FB1F4C;}
</style>
<path class="st0" d="M39.8,42c-3.9,0-7.8-0.9-11.8-2.8c-4-1.9-7.7-4.5-11.2-8s-6.1-7.2-7.9-11.2S6,12.1,6,8.2c0-0.6,0.2-1.2,0.6-1.6
	C7.1,6.2,7.6,6,8.3,6h7c0.5,0,0.9,0.2,1.2,0.5c0.3,0.3,0.6,0.8,0.7,1.3l1.3,6.3c0.1,0.5,0.1,0.9,0,1.3c-0.1,0.4-0.3,0.7-0.5,1l-5,5
	c0.9,1.5,1.8,2.8,2.8,4.1c1,1.3,2,2.5,3.2,3.6c1.2,1.3,2.5,2.4,3.9,3.5c1.4,1,2.8,2,4.3,2.8l4.8-4.9c0.3-0.4,0.7-0.6,1.2-0.8
	c0.4-0.1,0.9-0.2,1.3-0.1l6,1.3c0.5,0.1,0.9,0.4,1.3,0.8c0.3,0.4,0.5,0.9,0.5,1.3v6.8c0,0.6-0.2,1.2-0.6,1.6S40.4,42,39.8,42z
	 M11.4,18.6l4.1-4.1L14.4,9H9c0.1,1.4,0.3,2.9,0.7,4.4S10.7,16.7,11.4,18.6z M29.9,36.8c1.4,0.6,2.9,1.2,4.5,1.5
	c1.6,0.4,3.1,0.6,4.6,0.7v-5.3l-5.1-1.1L29.9,36.8z"/>
</svg>
