<?xml version="1.0" encoding="utf-8"?>
<!-- Generator: Adobe Illustrator 17.0.0, SVG Export Plug-In . SVG Version: 6.00 Build 0)  -->
<!DOCTYPE svg PUBLIC "-//W3C//DTD SVG 1.1//EN" "http://www.w3.org/Graphics/SVG/1.1/DTD/svg11.dtd">
<svg version="1.1" id="Layer_1" xmlns="http://www.w3.org/2000/svg" xmlns:xlink="http://www.w3.org/1999/xlink" x="0px" y="0px"
	 width="22.421px" height="24.081px" viewBox="0 0 22.421 24.081" enable-background="new 0 0 22.421 24.081" xml:space="preserve">
<g id="Cart_Icon">
	<g>
		<g>
			<path fill="#FB1F4C" d="M20.084,24.081H2.446c-0.807,0-1.527-0.337-1.976-0.926c-0.449-0.588-0.585-1.371-0.372-2.149
				L3.111,9.991C3.502,8.563,4.969,7.443,6.45,7.443h8.254c1.445,0,2.967,1.063,3.464,2.42l4.084,11.11
				c0.284,0.773,0.207,1.562-0.213,2.162C21.62,23.736,20.907,24.081,20.084,24.081z M6.45,9.443c-0.584,0-1.256,0.513-1.409,1.075
				L2.028,21.533c-0.048,0.174-0.036,0.319,0.032,0.409c0.068,0.089,0.205,0.139,0.386,0.139h17.638c0.175,0,0.284-0.045,0.315-0.09
				s0.036-0.164-0.024-0.328l-4.084-11.111c-0.213-0.58-0.969-1.108-1.587-1.108H6.45z"/>
		</g>
		<g>
			<path fill="#FB1F4C" d="M8.375,14.198c-0.52,0-0.958-0.401-0.996-0.928C7.261,11.636,6.788,3.356,9.085,0.843
				C9.577,0.304,10.19,0.013,10.859,0c0.646,0.016,1.283,0.251,1.804,0.762c2.52,2.475,2.593,11.424,2.593,12.437
				c0,0.552-0.447,1-1,1c-0.552,0-1-0.447-1-1c-0.001-3.501-0.543-9.585-1.994-11.009C11.063,1.996,10.945,2,10.896,2
				c-0.053,0.001-0.163,0.003-0.335,0.191c-1.334,1.46-1.437,7.481-1.188,10.935c0.04,0.551-0.374,1.03-0.925,1.069
				C8.424,14.197,8.399,14.198,8.375,14.198z"/>
		</g>
	</g>
</g>
</svg>
