<?xml version="1.0" encoding="utf-8"?>
<!-- Generator: Adobe Illustrator 24.0.0, SVG Export Plug-In . SVG Version: 6.00 Build 0)  -->
<svg version="1.1" id="Layer_1" xmlns="http://www.w3.org/2000/svg" xmlns:xlink="http://www.w3.org/1999/xlink" x="0px" y="0px"
	 viewBox="0 0 48 48" style="enable-background:new 0 0 48 48;" xml:space="preserve">
<style type="text/css">
	.st0{fill:#FB1F4C;stroke:#FB1F4C;stroke-width:2;stroke-miterlimit:10;}
</style>
<path class="st0" d="M7.5,36c-0.4,0-0.8-0.1-1.1-0.4C6.1,35.3,6,34.9,6,34.5s0.1-0.8,0.4-1.1C6.7,33.1,7.1,33,7.5,33h33
	c0.4,0,0.8,0.1,1.1,0.4s0.4,0.6,0.4,1.1s-0.1,0.8-0.4,1.1S40.9,36,40.5,36H7.5z M7.5,25.5c-0.4,0-0.8-0.1-1.1-0.4
	C6.1,24.8,6,24.4,6,24s0.1-0.8,0.4-1.1c0.3-0.3,0.6-0.4,1.1-0.4h33c0.4,0,0.8,0.1,1.1,0.4c0.3,0.3,0.4,0.6,0.4,1.1s-0.1,0.8-0.4,1.1
	c-0.3,0.3-0.6,0.4-1.1,0.4H7.5z M7.5,15c-0.4,0-0.8-0.1-1.1-0.4C6.1,14.3,6,13.9,6,13.5s0.1-0.8,0.4-1.1C6.7,12.1,7.1,12,7.5,12h33
	c0.4,0,0.8,0.1,1.1,0.4c0.3,0.3,0.4,0.6,0.4,1.1s-0.1,0.8-0.4,1.1c-0.3,0.3-0.6,0.4-1.1,0.4H7.5z"/>
</svg>
