<?xml version="1.0" encoding="utf-8"?>
<!-- Generator: Adobe Illustrator 24.0.0, SVG Export Plug-In . SVG Version: 6.00 Build 0)  -->
<svg version="1.1" id="Layer_1" xmlns="http://www.w3.org/2000/svg" xmlns:xlink="http://www.w3.org/1999/xlink" x="0px" y="0px"
	 viewBox="0 0 148.6 151.4" style="enable-background:new 0 0 148.6 151.4;" xml:space="preserve">
<style type="text/css">
	.st0{opacity:0.1;fill:#C09175;}
	.st1{opacity:0.7;fill:none;stroke:#C09175;stroke-width:0.8207;stroke-miterlimit:10;}
	.st2{opacity:0.8;}
	.st3{fill:#AA6F5D;}
	.st4{fill:#DDC0B4;}
</style>
<g>
	<circle class="st0" cx="74.3" cy="77.6" r="73.9"/>
	<circle class="st1" cx="74.3" cy="74.3" r="73.9"/>
</g>
<g class="st2">
	<g>
		<path class="st3" d="M69,28.4c1.9,1.9,3.4,4.3,4.3,6.9c0.2,0.7,0.4,1.3,0.6,2c0.1,0.3,0.2,0.7,0.2,1l0.2,1c0,0.2,0.1,0.3,0.1,0.5
			l0.1,0.5l0.1,1.1l0,1.1c0,0.4,0,0.7,0,1.1l0,1.1c0,0.4,0,0.7-0.1,1.1c0,0.4,0,0.7-0.1,1.1l-0.1,1.1c0,0.4-0.1,0.7-0.2,1l-0.2,1
			l-0.3,1c-0.1,0.3-0.2,0.7-0.3,1c-0.8,2.7-1.9,5.3-3.2,7.8c-1.3,2.5-2.8,4.8-4.3,7c-1.5,2.2-3.2,4.4-4.8,6.5
			c-1.6,2.1-3.2,4.1-4.7,6.2c-1.5,2.1-2.9,4.1-4.1,6.2c-2.5,4.2-4.3,8.6-4.8,13.2c-0.3,2.3-0.3,4.7,0,7c0.1,1.2,0.4,2.3,0.6,3.5
			c0.3,1.1,0.6,2.3,1,3.4c0.8,2.2,1.9,4.4,3.3,6.4l0.5,0.7c0.2,0.2,0.4,0.5,0.6,0.7c0.4,0.5,0.8,0.9,1.2,1.4
			c0.2,0.2,0.4,0.5,0.6,0.7l0.6,0.7l0.7,0.6c0.2,0.2,0.4,0.4,0.7,0.6c1.8,1.7,3.9,3.2,6.1,4.4c2.2,1.2,4.7,2.3,7.2,3
			c-2.7,0.1-5.4-0.3-8-1c-2.6-0.7-5.2-1.9-7.6-3.3c-0.3-0.2-0.6-0.4-0.9-0.6l-0.9-0.6l-0.8-0.6c-0.3-0.2-0.6-0.4-0.8-0.7
			c-0.5-0.5-1.1-0.9-1.6-1.4c-0.3-0.2-0.5-0.5-0.8-0.7l-0.7-0.8c-2-2.1-3.6-4.5-4.9-7.1c-0.7-1.3-1.2-2.6-1.7-4
			c-0.4-1.4-0.9-2.8-1.1-4.2c-0.6-2.9-0.8-5.8-0.6-8.8c0.2-2.9,0.8-5.9,1.8-8.6c1-2.8,2.2-5.4,3.7-7.8c1.4-2.4,3-4.7,4.7-6.9
			c1.7-2.2,3.4-4.2,5.1-6.2c1.7-2,3.4-4,5-5.9c1.6-2,3.2-4,4.6-6c1.4-2.1,2.6-4.2,3.7-6.4c0.1-0.3,0.2-0.6,0.4-0.8l0.3-0.8l0.3-0.9
			c0.1-0.3,0.2-0.6,0.3-0.9l0.3-0.9c0.1-0.3,0.2-0.6,0.2-0.9c0.1-0.3,0.2-0.6,0.2-0.9l0.2-0.9c0.1-0.3,0.1-0.6,0.2-0.9l0.1-0.9
			l0.1-0.9l0-0.5c0-0.2,0-0.3,0-0.5l0-0.9c0-0.3,0-0.6,0-0.9c0-0.6-0.1-1.2-0.1-1.9l0-0.2l0-0.2l-0.1-0.5L71,34.4
			c0-0.2,0-0.3-0.1-0.5c-0.1-0.6-0.3-1.3-0.5-1.9C70.1,30.8,69.6,29.6,69,28.4z"/>
	</g>
	<g>
		<path class="st3" d="M77.3,44.5c1.5,1.5,2.7,3.4,3.4,5.5c0.2,0.5,0.4,1.1,0.5,1.6c0.1,0.3,0.1,0.5,0.2,0.8l0.1,0.8
			c0,0.1,0,0.3,0.1,0.4l0,0.4l0.1,0.8l0,0.8c0,0.3,0,0.6,0,0.8c0,0.6,0,1.1-0.1,1.7c0,0.3,0,0.6-0.1,0.8L81.5,60
			c0,0.3-0.1,0.6-0.1,0.8l-0.2,0.8L81,62.5c-0.1,0.3-0.1,0.6-0.2,0.8c-0.6,2.2-1.5,4.3-2.6,6.2c-2.1,4-4.7,7.4-7.3,10.8
			c-1.3,1.7-2.6,3.3-3.7,4.9c-1.2,1.6-2.3,3.3-3.3,5c-2,3.4-3.4,6.9-3.8,10.5c-0.2,1.8-0.2,3.7,0,5.6c0.1,0.9,0.3,1.9,0.5,2.8
			c0.2,0.9,0.5,1.8,0.8,2.7c0.7,1.8,1.5,3.5,2.6,5.1c1.1,1.6,2.4,3.1,3.9,4.4c1.5,1.3,3.1,2.5,4.9,3.5c1.8,1,3.7,1.8,5.8,2.4
			c-2.1,0.1-4.3-0.2-6.4-0.8c-2.1-0.6-4.2-1.5-6.1-2.7c-1.9-1.2-3.7-2.6-5.2-4.3c-1.6-1.7-2.9-3.6-3.9-5.7c-0.5-1-1-2.1-1.3-3.2
			c-0.4-1.1-0.7-2.2-0.9-3.4c-0.5-2.3-0.6-4.6-0.5-7c0.2-2.4,0.7-4.7,1.4-6.9c0.8-2.2,1.8-4.3,2.9-6.2c1.1-1.9,2.4-3.8,3.7-5.5
			c1.3-1.7,2.7-3.4,4.1-5c2.7-3.2,5.4-6.3,7.7-9.6c1.1-1.6,2.1-3.4,2.9-5.1c0.1-0.2,0.2-0.4,0.3-0.7l0.3-0.7l0.2-0.7
			c0.1-0.2,0.2-0.5,0.2-0.7l0.2-0.7c0.1-0.2,0.1-0.5,0.2-0.7c0.1-0.5,0.2-1,0.3-1.4c0.1-0.2,0.1-0.5,0.1-0.7l0.1-0.7l0.1-0.7l0-0.4
			c0-0.1,0-0.2,0-0.4l0-0.7c0-0.2,0-0.5,0-0.7c0-0.5-0.1-1-0.1-1.5C78.8,48.4,78.3,46.4,77.3,44.5z"/>
	</g>
	<path class="st4" d="M76.3,73.4l-1.3-7.2c2-2.6,3.9-5.8,5.6-8.6c1.7-2.8,3.2-5.9,4.5-9c0.7-1.6,0.7-3.4,1-5.1
		c0.6-2.8,0.2-5.6-0.3-8.4c-0.1-0.3-0.2-0.7-0.3-1c-0.1,0-0.3,0-0.4,0c0,0.8-0.2,1.6-0.1,2.3c0.4,4.6-0.7,8.9-2.4,13.1
		c-0.1,0.4-0.4,0.7-0.4,1.1c-0.1,1-0.7,1.2-1.4,1.1c-1-1.9-2.1-3.8-3-5.7c-0.6-1.2-0.9-2.4-1.3-3.6c-0.4-1.1-0.7-2.2-0.9-3.3
		c-1.2-6.2,0.1-11.9,3.1-17.4c0.4-0.8,0.8-1.6,1.3-2.3c0.5-0.7,1.1-0.8,1.7,0c2.2,2.6,4.5,5.1,5.9,8.3c0.7,1.5,1.3,3,2,4.5
		c1.3,2.8,1.6,5.8,1.6,8.8c0,2.6-0.6,5.3-1,7.9c-0.3,1.6-0.8,3.2-1.3,4.8c-0.1,0.2-0.2,0.5-0.3,0.8c-0.1,0.3-0.3,0.7-0.4,1.1
		c2-0.3,3.7-0.6,5.4-0.6c2.9-0.1,5.5,0.7,8,2.2c2.1,1.2,3.8,2.8,5.3,4.7c1,1.3,0.8,2-0.9,2.3c-2.3,0.5-4.5,1.1-6.8,1.3
		c-4,0.3-8-0.1-11.6-2.2c-0.3-0.2-0.6-0.2-1-0.3c-0.2-1.3,0.8-1.9,1.6-2.3c2-1,4.2-1.7,6.5-1.7c0.8,0,1.6-0.2,2.4-0.4
		c-3.8-0.9-7.5-0.4-10.7,1.8c-0.1,0.1-0.2,0.2-0.3,0.2c-0.2,0.2-0.4,0.3-0.6,0.5c-0.8,0.9-1.5,2-2.2,3"/>
	<g>
		<path class="st3" d="M79.2,131.9c3.4-1.2,6.4-2.7,9.1-4.7c2.7-2,5-4.2,6.8-6.8c1.9-2.5,3.4-5.3,4.3-8.1c0.5-1.4,0.8-2.9,1-4.4
			c0.2-1.5,0.3-3,0.3-4.5c0-1.5-0.1-3.1-0.4-4.6c-0.2-1.5-0.6-3.1-1-4.6c-0.4-1.5-0.9-3.1-1.5-4.6c-0.6-1.5-1.2-3-1.9-4.5
			c-1.4-3-3-6-4.8-9c-1.7-3-3.6-6-5.3-9.2c3,2,5.7,4.3,8.3,6.8c2.6,2.5,5,5.2,7.1,8.3c1,1.5,2,3.1,2.9,4.8c0.9,1.7,1.6,3.4,2.3,5.2
			c0.6,1.8,1.1,3.6,1.5,5.5c0.4,1.9,0.6,3.8,0.6,5.8c0,2-0.1,3.9-0.5,5.9c-0.4,2-1,3.9-1.7,5.7c-1.6,3.6-3.9,6.9-6.7,9.6
			c-2.8,2.7-6.1,4.7-9.6,6C86.5,131.8,82.7,132.4,79.2,131.9z"/>
	</g>
	<g>
		<path class="st3" d="M87.5,32.8c1.6,3.4,2.3,7.2,2.1,11.1c-0.1,1.9-0.3,3.8-0.8,5.7c-0.4,1.9-1,3.7-1.7,5.5
			c-0.7,1.8-1.5,3.6-2.4,5.3c-0.9,1.7-1.9,3.3-2.9,4.9c-2.1,3.2-4.3,6.2-6.5,9.2c-2.2,2.9-4.4,5.8-6.4,8.8c-2,2.9-3.7,6-5.1,9.1
			c-0.7,1.6-1.3,3.1-1.7,4.7c-0.4,1.6-0.7,3.2-0.9,4.8l-0.1,1.2l0,1.2c0,0.8,0,1.5,0.1,2.3c0.2,1.5,0.6,3,1.1,4.5
			c0.5,1.4,1.2,2.8,2.1,4.1c0.9,1.2,1.8,2.4,3,3.3c0.6,0.5,1.1,0.9,1.7,1.2c0.6,0.4,1.2,0.6,1.9,0.9c0.6,0.2,1.3,0.4,2,0.5
			c0.7,0.1,1.4,0.1,2.1,0.1c2.8-0.1,5.7-1.2,7.8-3.1c0.1-0.1,0.3-0.2,0.4-0.4l0.4-0.4c0.3-0.2,0.5-0.5,0.7-0.8
			c0.1-0.1,0.2-0.3,0.3-0.4l0.3-0.4l0.3-0.5c0.1-0.2,0.2-0.3,0.3-0.5c0.6-1.3,1.1-2.7,1.2-4.2c0.2-1.5,0.1-3-0.3-4.5l-0.1-0.3
			l-0.1-0.3l-0.2-0.5c0-0.2-0.1-0.4-0.2-0.5c-0.1-0.2-0.1-0.4-0.2-0.5c-0.3-0.7-0.7-1.4-1.1-2c-0.1-0.2-0.2-0.3-0.3-0.5l-0.4-0.4
			c-0.1-0.2-0.2-0.3-0.4-0.4c-0.1-0.1-0.3-0.3-0.4-0.4c-0.3-0.2-0.6-0.5-0.9-0.8c-0.2-0.1-0.3-0.2-0.5-0.4l-0.5-0.3
			c-0.2-0.1-0.3-0.2-0.5-0.3c-0.2-0.1-0.3-0.2-0.5-0.3c-0.4-0.2-0.7-0.4-1.1-0.5c-0.7-0.3-1.5-0.5-2.3-0.7c-0.4-0.1-0.8-0.1-1.2-0.1
			c-0.4,0-0.8,0-1.2,0c-0.8,0.1-1.6,0.2-2.3,0.5c-0.7,0.2-1.4,0.6-2,1.1c-0.6,0.5-1.2,1.1-1.7,1.7c-1,1.3-1.6,3-1.8,4.7
			c-0.2,1.7,0.2,3.6,1.3,5.1c-0.7-0.6-1.3-1.4-1.7-2.3c-0.4-0.9-0.7-1.8-0.8-2.8c-0.2-2,0.2-4,1.1-5.8c0.5-0.9,1-1.8,1.8-2.5
			c0.4-0.4,0.8-0.7,1.2-1.1c0.4-0.3,0.9-0.6,1.4-0.9c0.9-0.5,2-0.8,3-1.1c0.5-0.1,1.1-0.2,1.6-0.2c0.5-0.1,1.1,0,1.6,0
			c1.1,0.1,2.1,0.2,3.2,0.5c0.5,0.1,1,0.3,1.5,0.5c0.3,0.1,0.5,0.2,0.7,0.3c0.2,0.1,0.5,0.2,0.7,0.3l0.7,0.4
			c0.2,0.1,0.5,0.3,0.7,0.4c0.5,0.3,0.9,0.6,1.3,0.9c0.2,0.2,0.4,0.3,0.6,0.5c0.2,0.2,0.4,0.4,0.6,0.6l0.6,0.6
			c0.2,0.2,0.4,0.4,0.5,0.6c0.7,0.8,1.3,1.7,1.8,2.7c0.1,0.2,0.2,0.5,0.4,0.7c0.1,0.2,0.2,0.5,0.3,0.7l0.3,0.8l0.1,0.4l0.1,0.4
			c0.7,2.1,1,4.2,1,6.4c-0.1,2.2-0.5,4.4-1.4,6.5c-0.1,0.3-0.2,0.5-0.4,0.8l-0.4,0.8l-0.4,0.7c-0.2,0.2-0.3,0.5-0.5,0.7
			c-0.3,0.5-0.7,0.9-1,1.4l-0.6,0.6c-0.2,0.2-0.4,0.4-0.6,0.6c-1.6,1.6-3.5,2.9-5.5,3.8c-2,0.9-4.3,1.5-6.6,1.7
			c-1.1,0.1-2.3,0.1-3.5-0.1c-1.2-0.1-2.3-0.4-3.4-0.8c-1.1-0.4-2.2-0.8-3.2-1.4c-1-0.6-2-1.2-2.8-1.9c-1.8-1.4-3.3-3.1-4.5-4.8
			c-1.2-1.8-2.2-3.7-3-5.7c-0.8-2-1.3-4.1-1.5-6.3c-0.1-1.1-0.2-2.2-0.1-3.2l0.1-1.6l0.2-1.6c0.3-2.1,0.7-4.1,1.3-6.1
			c0.6-2,1.4-3.8,2.2-5.6c1.7-3.6,3.9-6.9,6.2-10c2.3-3.1,4.8-5.9,7.2-8.7c2.5-2.8,4.9-5.5,7.1-8.3c1.1-1.4,2.2-2.8,3.2-4.3
			c1-1.5,1.9-3,2.8-4.5c0.8-1.6,1.6-3.2,2.2-4.8c0.6-1.7,1.1-3.4,1.5-5.1c0.1-0.4,0.2-0.9,0.2-1.3l0.2-1.3l0.1-1.3
			c0-0.2,0-0.5,0-0.7l0-0.7C88.1,36.4,87.9,34.6,87.5,32.8z"/>
	</g>
	<polygon class="st3" points="75.7,132 75,132.3 74.6,133 74.2,132.3 73.5,132 74.2,131.6 74.6,130.9 75,131.6 	"/>
</g>
</svg>
