<?xml version="1.0" encoding="utf-8"?>
<!-- Generator: Adobe Illustrator 24.0.0, SVG Export Plug-In . SVG Version: 6.00 Build 0)  -->
<svg version="1.1" id="Layer_1" xmlns="http://www.w3.org/2000/svg" xmlns:xlink="http://www.w3.org/1999/xlink" x="0px" y="0px"
	 viewBox="0 0 48 48" style="enable-background:new 0 0 48 48;" xml:space="preserve">
<style type="text/css">
	.st0{fill:#FB1F4C;}
</style>
<path class="st0" d="M21,28.5l-4.9-4.9c-0.3-0.3-0.7-0.5-1.1-0.5s-0.8,0.2-1.1,0.5c-0.3,0.3-0.5,0.7-0.5,1.1c0,0.4,0.2,0.8,0.5,1.1
	L20,32c0.3,0.3,0.6,0.5,1,0.5s0.7-0.1,1-0.5l12-12c0.3-0.3,0.4-0.7,0.4-1.1c0-0.4-0.2-0.8-0.5-1.1c-0.3-0.3-0.7-0.5-1.1-0.5
	c-0.4,0-0.8,0.2-1.2,0.5L21,28.5z M24,44c-2.8,0-5.5-0.5-7.9-1.5c-2.4-1-4.6-2.4-6.4-4.2s-3.2-3.9-4.2-6.4S4,26.8,4,24
	c0-2.8,0.5-5.4,1.5-7.9S8,11.6,9.8,9.8s3.9-3.2,6.4-4.3S21.2,4,24,4c2.8,0,5.4,0.5,7.9,1.6s4.5,2.4,6.4,4.3c1.8,1.8,3.2,3.9,4.3,6.3
	s1.5,5,1.5,7.9c0,2.8-0.5,5.5-1.5,7.9s-2.5,4.6-4.3,6.4c-1.8,1.8-3.9,3.2-6.4,4.2C29.4,43.5,26.8,44,24,44z M24,41
	c4.8,0,8.9-1.6,12.1-4.9S41,28.8,41,24s-1.6-8.9-4.9-12.1S28.8,7,24,7s-8.9,1.6-12.1,4.9S7,19.2,7,24s1.6,8.9,4.9,12.1
	S19.2,41,24,41z"/>
</svg>
