<?xml version="1.0" encoding="utf-8"?>
<!-- Generator: Adobe Illustrator 24.0.0, SVG Export Plug-In . SVG Version: 6.00 Build 0)  -->
<svg version="1.1" id="Layer_1" xmlns="http://www.w3.org/2000/svg" xmlns:xlink="http://www.w3.org/1999/xlink" x="0px" y="0px"
	 viewBox="0 0 48 48" style="enable-background:new 0 0 48 48;" xml:space="preserve">
<style type="text/css">
	.st0{fill:#088CCD;}
</style>
<path class="st0" d="M9,42c-0.8,0-1.5-0.3-2.1-0.9S6,39.8,6,39V24c0-2.5,0.5-4.8,1.4-7s2.2-4.1,3.8-5.7s3.5-2.9,5.7-3.8
	c2.2-1,4.5-1.4,7-1.4s4.8,0.5,7,1.4s4.1,2.2,5.7,3.8s2.9,3.5,3.8,5.7c1,2.2,1.4,4.5,1.4,7v15c0,0.8-0.3,1.5-0.9,2.1S39.8,42,39,42
	h-4.4c-0.8,0-1.5-0.3-2.1-0.9c-0.6-0.6-0.9-1.3-0.9-2.1v-8.8c0-0.8,0.3-1.5,0.9-2.1c0.6-0.6,1.3-0.9,2.1-0.9H39V24
	c0-4.2-1.5-7.7-4.4-10.6S28.2,9,24,9s-7.7,1.5-10.6,4.4S9,19.8,9,24v3.2h4.4c0.8,0,1.5,0.3,2.1,0.9s0.9,1.3,0.9,2.1V39
	c0,0.8-0.3,1.5-0.9,2.1S14.2,42,13.4,42H9z M9,39h4.4v-8.8H9V39z M34.6,39H39v-8.8h-4.4V39z M9,39h4.4H9z M34.6,39H39H34.6z"/>
</svg>
