<?xml version="1.0" encoding="utf-8"?>
<!-- Generator: Adobe Illustrator 24.0.0, SVG Export Plug-In . SVG Version: 6.00 Build 0)  -->
<svg version="1.1" id="Layer_1" xmlns="http://www.w3.org/2000/svg" xmlns:xlink="http://www.w3.org/1999/xlink" x="0px" y="0px"
	 viewBox="0 0 48 48" style="enable-background:new 0 0 48 48;" xml:space="preserve">
<style type="text/css">
	.st0{fill:#088CCD;}
</style>
<path class="st0" d="M9,42c-0.8,0-1.5-0.3-2.1-0.9C6.3,40.5,6,39.8,6,39V9c0-0.8,0.3-1.5,0.9-2.1S8.2,6,9,6h13.5
	c0.4,0,0.8,0.1,1.1,0.4C23.8,6.7,24,7.1,24,7.5c0,0.4-0.1,0.8-0.4,1.1C23.2,8.9,22.9,9,22.5,9H9v30h13.5c0.4,0,0.8,0.1,1.1,0.4
	c0.3,0.3,0.4,0.6,0.4,1.1c0,0.4-0.1,0.8-0.4,1.1c-0.3,0.3-0.6,0.4-1.1,0.4H9z M36.3,25.5H19.5c-0.4,0-0.8-0.1-1.1-0.4
	C18.1,24.8,18,24.4,18,24c0-0.4,0.1-0.8,0.4-1.1c0.3-0.3,0.6-0.4,1.1-0.4h16.7l-4-4.1c-0.3-0.3-0.4-0.6-0.4-1c0-0.4,0.2-0.8,0.5-1
	c0.3-0.3,0.7-0.5,1.1-0.5c0.4,0,0.8,0.1,1.1,0.5L41,23c0.3,0.3,0.5,0.6,0.5,1s-0.2,0.8-0.5,1.1l-6.6,6.6c-0.3,0.3-0.6,0.4-1,0.4
	c-0.4,0-0.8-0.2-1.1-0.5c-0.3-0.3-0.4-0.7-0.4-1.1c0-0.4,0.1-0.8,0.4-1.1L36.3,25.5z"/>
</svg>
