<?xml version="1.0" encoding="utf-8"?>
<!-- Generator: Adobe Illustrator 24.0.0, SVG Export Plug-In . SVG Version: 6.00 Build 0)  -->
<svg version="1.1" id="Layer_1" xmlns="http://www.w3.org/2000/svg" xmlns:xlink="http://www.w3.org/1999/xlink" x="0px" y="0px"
	 viewBox="0 0 48 48" style="enable-background:new 0 0 48 48;" xml:space="preserve">
<style type="text/css">
	.st0{fill:#088CCD;}
</style>
<g>
	<path class="st0" d="M21.2,36c-0.1,0-0.1-0.1-0.2-0.4c-0.1-0.3-0.1-0.7-0.1-1.1s0-0.8,0.1-1.1c0.1-0.3,0.1-0.4,0.2-0.4h5.7
		c0.1,0,0.1,0.1,0.2,0.4s0.1,0.6,0.1,1.1s0,0.8-0.1,1.1C27,35.9,26.9,36,26.8,36H21.2z M21.2,25.5c-0.1,0-0.1-0.1-0.2-0.4
		c-0.1-0.3-0.1-0.7-0.1-1.1s0-0.8,0.1-1.1c0.1-0.3,0.1-0.4,0.2-0.4h5.7c0.1,0,0.1,0.1,0.2,0.4s0.1,0.6,0.1,1.1s0,0.8-0.1,1.1
		c-0.1,0.3-0.1,0.4-0.2,0.4H21.2z M21.2,15c-0.1,0-0.1-0.1-0.2-0.4c-0.1-0.3-0.1-0.7-0.1-1.1s0-0.8,0.1-1.1c0.1-0.3,0.1-0.4,0.2-0.4
		h5.7c0.1,0,0.1,0.1,0.2,0.4c0.1,0.3,0.1,0.6,0.1,1.1s0,0.8-0.1,1.1S26.9,15,26.8,15H21.2z"/>
	<path class="st0" d="M26.8,37h-5.7c-0.1,0-0.2-0.2-0.3-0.7c-0.1-0.5-0.1-1.1-0.1-1.8s0-1.4,0.1-1.8c0.1-0.5,0.2-0.7,0.3-0.7h5.7
		c0.2,0,0.3,0.4,0.3,0.7c0.1,0.6,0.1,1.3,0.1,1.8s0,1.2-0.1,1.8C27.1,36.6,27,37,26.8,37z M21.2,34c0,0-0.1,0-0.1,0.1
		c0,0.1,0,0.2,0,0.4s0,0.3,0,0.4c0,0.1,0,0.1,0.1,0.1h5.7c0,0,0.1,0,0.1-0.1c0-0.1,0-0.1,0-0.4s0-0.3,0-0.4c0-0.1,0-0.1-0.1-0.1
		H21.2z M26.8,26.5h-5.7c-0.1,0-0.2-0.2-0.3-0.7c-0.1-0.5-0.1-1.1-0.1-1.8s0-1.4,0.1-1.8c0.1-0.5,0.2-0.7,0.3-0.7h5.7
		c0.1,0,0.2,0.2,0.3,0.7c0.1,0.6,0.1,1.3,0.1,1.8c0,0.6,0,1.2-0.1,1.8C27,26.4,26.9,26.5,26.8,26.5z M21.2,23.5c0,0-0.1,0-0.1,0.1
		c0,0.1,0,0.2,0,0.4s0,0.3,0,0.4c0,0.1,0,0.1,0.1,0.1h5.7c0,0,0.1,0,0.1-0.1c0-0.1,0-0.1,0-0.4c0-0.3,0-0.3,0-0.4
		c0-0.1,0-0.1-0.1-0.1H21.2z M26.8,16h-5.7c-0.1,0-0.2-0.2-0.3-0.7c-0.1-0.5-0.1-1.1-0.1-1.8s0-1.4,0.1-1.8c0.1-0.5,0.2-0.7,0.3-0.7
		h5.7c0.1,0,0.2,0.2,0.3,0.7c0.1,0.6,0.1,1.3,0.1,1.8s0,1.2-0.1,1.8C27.1,15.8,27,16,26.8,16z M21.2,13c0,0-0.1,0-0.1,0.1
		c0,0.1,0,0.2,0,0.4s0,0.3,0,0.4c0,0.1,0,0.1,0.1,0.1h5.7c0,0,0.1,0,0.1-0.1c0-0.1,0-0.1,0-0.4s0-0.3,0-0.4c0-0.1,0-0.1-0.1-0.1
		H21.2z"/>
</g>
</svg>
