<?xml version="1.0" encoding="utf-8"?>
<!-- Generator: Adobe Illustrator 24.0.0, SVG Export Plug-In . SVG Version: 6.00 Build 0)  -->
<svg version="1.1" id="Layer_1" xmlns="http://www.w3.org/2000/svg" xmlns:xlink="http://www.w3.org/1999/xlink" x="0px" y="0px"
	 viewBox="0 0 48 48" style="enable-background:new 0 0 48 48;" xml:space="preserve">
<style type="text/css">
	.st0{fill:#FB1F4C;}
</style>
<path class="st0" d="M13.3,26.5c0.7,0,1.3-0.2,1.8-0.7c0.5-0.5,0.7-1.1,0.7-1.8s-0.2-1.3-0.7-1.8s-1.1-0.7-1.8-0.7
	c-0.7,0-1.3,0.2-1.8,0.7s-0.7,1.1-0.7,1.8s0.2,1.3,0.7,1.8S12.6,26.5,13.3,26.5z M24,26.5c0.7,0,1.3-0.2,1.8-0.7s0.7-1.1,0.7-1.8
	s-0.2-1.3-0.7-1.8s-1.1-0.7-1.8-0.7s-1.3,0.2-1.8,0.7s-0.7,1.1-0.7,1.8s0.2,1.3,0.7,1.8S23.3,26.5,24,26.5z M34.7,26.5
	c0.7,0,1.3-0.2,1.8-0.7s0.7-1.1,0.7-1.8s-0.2-1.3-0.7-1.8s-1.1-0.7-1.8-0.7s-1.3,0.2-1.8,0.7s-0.7,1.1-0.7,1.8s0.2,1.3,0.7,1.8
	S34,26.5,34.7,26.5z M24,44c-2.7,0-5.3-0.5-7.8-1.6c-2.4-1-4.6-2.5-6.4-4.3s-3.3-3.9-4.3-6.4S4,26.7,4,24c0-2.7,0.5-5.3,1.6-7.8
	s2.5-4.5,4.3-6.4s3.9-3.2,6.4-4.3S21.3,4,24,4c2.7,0,5.3,0.5,7.8,1.6s4.6,2.5,6.3,4.3c1.8,1.8,3.2,3.9,4.3,6.4
	c1.1,2.4,1.6,5,1.6,7.8c0,2.7-0.5,5.3-1.6,7.8c-1,2.4-2.5,4.6-4.3,6.4c-1.8,1.8-3.9,3.3-6.4,4.3C29.4,43.5,26.8,44,24,44z M24,41
	c4.7,0,8.7-1.7,12-5c3.3-3.3,5-7.3,5-12.1c0-4.7-1.6-8.7-5-12c-3.3-3.3-7.3-5-12-5c-4.7,0-8.7,1.7-12,4.9S7,19.3,7,24
	c0,4.7,1.7,8.7,5,12C15.3,39.3,19.3,41,24,41z"/>
</svg>
