<?xml version="1.0" encoding="utf-8"?>
<!-- Generator: Adobe Illustrator 24.0.0, SVG Export Plug-In . SVG Version: 6.00 Build 0)  -->
<svg version="1.1" id="Layer_1" xmlns="http://www.w3.org/2000/svg" xmlns:xlink="http://www.w3.org/1999/xlink" x="0px" y="0px"
	 viewBox="0 0 48 48" style="enable-background:new 0 0 48 48;" xml:space="preserve">
<style type="text/css">
	.st0{fill:#088CCD;}
</style>
<path class="st0" d="M32.9,15.6V9H15.1v6.6h-3V7.5c0-0.4,0.1-0.8,0.4-1.1C12.8,6.1,13.2,6,13.6,6h20.8c0.4,0,0.8,0.1,1.1,0.4
	c0.3,0.3,0.4,0.6,0.4,1.1v8.1H32.9z M7,18.6h34H7z M37,23.4c0.4,0,0.8-0.2,1-0.5s0.5-0.6,0.5-1c0-0.4-0.2-0.8-0.5-1.1
	c-0.3-0.3-0.6-0.4-1-0.4s-0.8,0.1-1,0.4c-0.3,0.3-0.5,0.6-0.5,1.1c0,0.4,0.2,0.8,0.5,1S36.5,23.4,37,23.4z M15.1,39h17.8v-9.6H15.1
	V39z M15.1,42c-0.8,0-1.5-0.3-2.1-0.9c-0.6-0.6-0.9-1.3-0.9-2.1v-5.8H5.5c-0.4,0-0.8-0.1-1.1-0.4C4.1,32.5,4,32.1,4,31.7V20.9
	c0-1.5,0.5-2.8,1.5-3.8c1-1,2.3-1.5,3.8-1.5h29.4c1.5,0,2.8,0.5,3.8,1.5c1,1,1.5,2.3,1.5,3.8v10.8c0,0.4-0.1,0.8-0.4,1.1
	c-0.3,0.3-0.6,0.4-1.1,0.4h-6.6V39c0,0.8-0.3,1.5-0.9,2.1c-0.6,0.6-1.3,0.9-2.1,0.9H15.1z M41,30.2v-9.3c0-0.7-0.2-1.2-0.7-1.6
	c-0.4-0.4-1-0.6-1.6-0.6H9.3c-0.7,0-1.2,0.2-1.6,0.7c-0.4,0.4-0.7,1-0.7,1.6v9.3h5.1v-3.8h23.8v3.8H41z"/>
</svg>
