<?xml version="1.0" encoding="utf-8"?>
<!-- Generator: Adobe Illustrator 24.0.0, SVG Export Plug-In . SVG Version: 6.00 Build 0)  -->
<svg version="1.1" id="Layer_1" xmlns="http://www.w3.org/2000/svg" xmlns:xlink="http://www.w3.org/1999/xlink" x="0px" y="0px"
	 viewBox="0 0 48 48" style="enable-background:new 0 0 48 48;" xml:space="preserve">
<style type="text/css">
	.st0{fill:#FB1F4C;}
</style>
<path class="st0" d="M7.4,41c-0.3-0.3-0.4-0.7-0.4-1s0.2-0.7,0.4-1l20-20c-0.7-1.6-0.9-3.3-0.5-5c0.4-1.7,1.4-3.3,2.9-4.8
	c1.5-1.5,3.3-2.4,5.5-2.8s3.9,0.1,5.3,1.4c1.4,1.4,1.9,3.1,1.4,5.3c-0.5,2.1-1.5,3.9-3,5.6c-1.4,1.4-2.9,2.3-4.6,2.8
	c-1.7,0.4-3.3,0.3-4.7-0.3l-3.4,3.4l14.6,14.5c0.3,0.3,0.5,0.7,0.5,1c0,0.4-0.2,0.8-0.5,1c-0.3,0.3-0.7,0.5-1,0.5s-0.7-0.2-1-0.5
	L24,26.4L9.5,41c-0.3,0.3-0.7,0.5-1.1,0.5S7.7,41.3,7.4,41z M14.7,24.5l-6-6c-1.5-1.5-2.4-3.2-2.6-5.2C6,11.4,6.3,9.5,7.3,7.8
	C7.6,7.4,8,7.1,8.4,7.1s0.9,0.1,1.3,0.5l10.9,10.9L14.7,24.5z"/>
</svg>
