<?xml version="1.0" encoding="utf-8"?>
<!-- Generator: Adobe Illustrator 24.0.0, SVG Export Plug-In . SVG Version: 6.00 Build 0)  -->
<svg version="1.1" id="Layer_1" xmlns="http://www.w3.org/2000/svg" xmlns:xlink="http://www.w3.org/1999/xlink" x="0px" y="0px"
	 viewBox="0 0 48 48" style="enable-background:new 0 0 48 48;" xml:space="preserve">
<style type="text/css">
	.st0{fill:#088CCD;}
</style>
<path class="st0" d="M15.1,33.8l12.1-5.9c0.2-0.1,0.3-0.2,0.4-0.3c0.1-0.1,0.2-0.3,0.3-0.4l5.9-12.1c0.2-0.3,0.1-0.6-0.1-0.9
	s-0.5-0.3-0.9-0.1l-12,5.9c-0.2,0.1-0.3,0.2-0.4,0.3s-0.2,0.3-0.3,0.4l-5.9,12c-0.2,0.3-0.1,0.6,0.1,0.9S14.8,34,15.1,33.8z M24,26
	c-0.6,0-1-0.2-1.4-0.6S22,24.6,22,24s0.2-1,0.6-1.4S23.4,22,24,22s1,0.2,1.4,0.6S26,23.4,26,24s-0.2,1-0.6,1.4S24.6,26,24,26z
	 M24,44c-2.7,0-5.3-0.5-7.8-1.6c-2.4-1-4.6-2.5-6.4-4.3s-3.3-3.9-4.3-6.4S4,26.7,4,24s0.5-5.3,1.6-7.8s2.5-4.6,4.3-6.4
	s3.9-3.3,6.4-4.3S21.3,4,24,4s5.3,0.5,7.8,1.6s4.6,2.5,6.4,4.3s3.3,3.9,4.3,6.4c1.1,2.4,1.6,5,1.6,7.8s-0.5,5.3-1.6,7.8
	c-1,2.4-2.5,4.6-4.3,6.4s-3.9,3.3-6.4,4.3C29.3,43.5,26.7,44,24,44z M24,41c4.7,0,8.7-1.7,12-5s5-7.3,5-12s-1.7-8.7-5-12
	s-7.3-5-12-5s-8.7,1.7-12,5s-5,7.3-5,12s1.7,8.7,5,12S19.3,41,24,41z"/>
</svg>
