<svg xmlns="http://www.w3.org/2000/svg" viewBox="0 0 75.4 55.9"><defs><style>.a{fill:#3f0e40;}.b{fill:#feeeff;}</style></defs><title>analytics</title><path class="a" d="M43.19,23.28a.86.86,0,1,1-1.71,0,.86.86,0,0,1,1.71,0Z"/><path class="a" d="M58.64,44.17,47.2,32.72a17,17,0,0,0,2.85-9.45A17.14,17.14,0,1,0,32.91,40.42a17,17,0,0,0,9.45-2.85l3.16,3.16L53.79,49a3.43,3.43,0,0,0,4.85-4.84ZM42,35.77a15.29,15.29,0,0,1-9,2.94A15.43,15.43,0,1,1,48.33,23.28,15.44,15.44,0,0,1,42,35.77Zm1.8.78a17.3,17.3,0,0,0,2.42-2.42l2.43,2.43A20.49,20.49,0,0,1,46.18,39ZM57.43,47.81a1.72,1.72,0,0,1-1.21.5,1.7,1.7,0,0,1-1.21-.5L47.4,40.2a22.12,22.12,0,0,0,2.42-2.42l7.61,7.61a1.7,1.7,0,0,1,.5,1.21A1.74,1.74,0,0,1,57.43,47.81Z"/><path class="b" d="M57.93,46.6a1.74,1.74,0,0,1-.5,1.21,1.72,1.72,0,0,1-1.21.5,1.7,1.7,0,0,1-1.21-.5L47.4,40.2a22.12,22.12,0,0,0,2.42-2.42l7.61,7.61A1.7,1.7,0,0,1,57.93,46.6Z"/><path class="b" d="M48.6,36.56A20.49,20.49,0,0,1,46.18,39l-2.43-2.43a17.3,17.3,0,0,0,2.42-2.42Z"/><path class="b" d="M32.91,7.85a15.43,15.43,0,0,0,0,30.86A15.44,15.44,0,0,0,48.33,23.28,15.45,15.45,0,0,0,32.91,7.85Zm0,29.15A13.72,13.72,0,1,1,46.62,23.28,13.73,13.73,0,0,1,32.91,37Z"/><path class="a" d="M32.91,9.57A13.72,13.72,0,1,0,46.62,23.28,13.73,13.73,0,0,0,32.91,9.57Zm0,25.71a12,12,0,1,1,12-12A12,12,0,0,1,32.91,35.28Z"/><path class="b" d="M32.91,11.29a12,12,0,1,0,12,12A12,12,0,0,0,32.91,11.29Zm8,8.93a8.63,8.63,0,0,0-8-5.51.86.86,0,0,1,0-1.71,10.18,10.18,0,0,1,5.89,1.85,10.33,10.33,0,0,1,3.71,4.75.85.85,0,1,1-1.59.62Zm1.41,3.92a.86.86,0,0,1-.85-.86.86.86,0,0,1,1.71,0A.87.87,0,0,1,42.33,24.14Z"/><path class="a" d="M42,20.71a.84.84,0,0,1-1.1-.49,8.63,8.63,0,0,0-8-5.51.86.86,0,0,1,0-1.71,10.18,10.18,0,0,1,5.89,1.85,10.33,10.33,0,0,1,3.71,4.75A.86.86,0,0,1,42,20.71Z"/></svg>