<?xml version="1.0" encoding="utf-8"?>
<!-- Generator: Adobe Illustrator 24.0.0, SVG Export Plug-In . SVG Version: 6.00 Build 0)  -->
<svg version="1.1" id="Layer_1" xmlns="http://www.w3.org/2000/svg" xmlns:xlink="http://www.w3.org/1999/xlink" x="0px" y="0px"
	 viewBox="0 0 75.4 55.9" style="enable-background:new 0 0 75.4 55.9;" xml:space="preserve">
<style type="text/css">
	.st0{display:none;fill:#F9E0FC;stroke:#231F20;stroke-width:0.1449;stroke-miterlimit:10;}
	.st1{fill:none;stroke:#3F0E40;stroke-width:1.1873;stroke-linecap:round;stroke-miterlimit:10;}
	.st2{fill:none;stroke:#3F0E40;stroke-width:0.3671;stroke-linecap:round;stroke-miterlimit:10;}
	.st3{fill:none;stroke:#3F0E40;stroke-width:0.2804;stroke-linecap:round;stroke-miterlimit:10;}
	.st4{fill:#FEEEFF;stroke:#3F0E40;stroke-width:1.7133;stroke-miterlimit:10;}
	.st5{fill:#3F0E40;}
	.st6{fill:#FEEEFF;}
	.st7{fill:none;stroke:#3F0E40;stroke-width:2;stroke-linecap:round;stroke-miterlimit:10;}
</style>
<rect x="-177.1" y="0.1" class="st0" width="75.2" height="55.8"/>
<g>
	<g>
		<g>
			<path class="st1" d="M-142.6,29.9c0.3,0,0.5-0.2,0.5-0.5"/>
		</g>
		<g>
			<path class="st1" d="M-142,29.3c0-0.5-0.4-0.8-0.8-0.8"/>
		</g>
		<g>
			<path class="st1" d="M-142.9,28.5c-0.7,0-1.3,0.6-1.3,1.3"/>
		</g>
		<g>
			<path class="st1" d="M-144.2,29.9c0,1.2,1,2.2,2.2,2.2"/>
		</g>
		<g>
			<path class="st1" d="M-142.1,32c1.9,0,3.5-1.6,3.5-3.5"/>
		</g>
		<g>
			<path class="st1" d="M-138.5,28.5c0-3.1-2.5-5.7-5.7-5.7"/>
		</g>
		<g>
			<path class="st1" d="M-144.2,22.8c-5.1,0-9.2,4.1-9.2,9.2"/>
		</g>
		<g>
			<path class="st1" d="M-153.4,32c0,8.2,6.6,14.8,14.8,14.8"/>
		</g>
	</g>
	<g>
		<g>
			<path class="st1" d="M-142.6,29.9c0-0.3-0.2-0.5-0.5-0.5"/>
		</g>
		<g>
			<path class="st1" d="M-143.1,29.3c-0.5,0-0.8,0.3-0.9,0.8"/>
		</g>
		<g>
			<path class="st1" d="M-143.9,30.1c0,0.7,0.6,1.4,1.3,1.4"/>
		</g>
		<g>
			<path class="st1" d="M-142.6,31.5c1.2,0,2.2-0.9,2.2-2.1"/>
		</g>
		<g>
			<path class="st1" d="M-140.4,29.4c0.1-1.9-1.4-3.6-3.4-3.6"/>
		</g>
		<g>
			<path class="st1" d="M-143.8,25.8c-3.1-0.1-5.8,2.3-5.9,5.5"/>
		</g>
		<g>
			<path class="st1" d="M-149.6,31.3c-0.2,5.1,3.8,9.3,8.8,9.5"/>
		</g>
		<g>
			<path class="st1" d="M-140.8,40.8c8.2,0.3,15.1-6.1,15.4-14.3"/>
		</g>
	</g>
	<g>
		<g>
			<path class="st1" d="M-142.6,29.9c-0.3,0-0.5,0.2-0.5,0.5"/>
		</g>
		<g>
			<path class="st1" d="M-143.1,30.3c0,0.5,0.3,0.9,0.8,0.9"/>
		</g>
		<g>
			<path class="st1" d="M-142.3,31.2c0.7,0.1,1.4-0.5,1.4-1.2"/>
		</g>
		<g>
			<path class="st1" d="M-140.9,30c0.1-1.2-0.8-2.2-2-2.3"/>
		</g>
		<g>
			<path class="st1" d="M-142.9,27.7c-1.9-0.1-3.6,1.3-3.7,3.2"/>
		</g>
		<g>
			<path class="st1" d="M-146.7,30.9c-0.2,3.1,2.1,5.8,5.3,6.1"/>
		</g>
		<g>
			<path class="st1" d="M-141.4,37c5.1,0.4,9.4-3.4,9.8-8.5"/>
		</g>
		<g>
			<path class="st1" d="M-131.6,28.5c0.6-8.2-5.6-15.3-13.8-15.8"/>
		</g>
	</g>
	<line class="st2" x1="-142.6" y1="0.9" x2="-142.6" y2="53.3"/>
	<polygon class="st2" points="-142.1,54.2 -142.3,54.6 -142.6,55 -142.8,54.6 -143,54.2 -142.6,54.2 	"/>
	<line class="st3" x1="-161" y1="29.7" x2="-118.1" y2="29.7"/>
</g>
<g>
	<path class="st4" d="M-39.2,38.4c-1.1,0-2-0.9-2-2c0-0.6,0.3-1.1,0.7-1.6l8-6.8l-8-6.8c-0.9-0.7-0.9-2-0.2-2.9s2-0.9,2.9-0.2
		l9.9,8.4c0.9,0.7,1,2,0.2,2.9c-0.1,0.1-0.2,0.2-0.2,0.2l-9.9,8.4C-38.2,38.2-38.7,38.4-39.2,38.4z"/>
	<path class="st4" d="M-62.6,38.4c-0.5,0-0.9-0.2-1.3-0.5l-9.9-8.4c-0.9-0.7-1-2-0.2-2.9c0.1-0.1,0.2-0.2,0.2-0.2l9.9-8.4
		c0.9-0.7,2.1-0.6,2.9,0.2c0.7,0.9,0.6,2.1-0.2,2.9l-8,6.8l8,6.8c0.8,0.7,1,2,0.2,2.9C-61.4,38.1-62,38.4-62.6,38.4L-62.6,38.4z"/>
	<path class="st4" d="M-57.7,48.4c-0.2,0-0.5-0.1-0.7-0.1c-1-0.4-1.6-1.6-1.2-2.6L-46,8.8c0.4-1,1.6-1.6,2.6-1.2
		c1,0.4,1.6,1.6,1.2,2.6l-13.7,36.9C-56.1,47.9-56.9,48.4-57.7,48.4z"/>
</g>
<g>
	<g>
		<g>
			<path class="st5" d="M-40.2,81.5c0,0.5-0.4,0.9-0.9,0.9s-0.8-0.4-0.8-0.9s0.4-0.9,0.8-0.9C-40.6,80.6-40.2,81-40.2,81.5z"/>
		</g>
	</g>
	<g>
		<g>
			<path class="st5" d="M-24.8,102.4l-11.4-11.5c1.9-2.8,2.9-6,2.9-9.5c0-9.4-7.7-17.1-17.1-17.1c-9.5,0-17.1,7.7-17.1,17.1
				s7.7,17.1,17.1,17.1c3.4,0,6.6-1,9.5-2.9l3.2,3.2l8.3,8.3c0.6,0.7,1.5,1,2.4,1s1.8-0.3,2.4-1c0.7-0.6,1-1.5,1-2.4
				C-23.8,103.9-24.1,103-24.8,102.4z M-41.5,94c-2.6,1.9-5.8,2.9-9,2.9c-8.5,0-15.4-6.9-15.4-15.4s6.9-15.4,15.4-15.4
				s15.4,6.9,15.4,15.4c0,3.3-1,6.4-2.9,9C-39,91.9-40.1,93-41.5,94z M-39.7,94.8c0.9-0.7,1.7-1.5,2.4-2.4l2.4,2.4
				c-0.7,0.9-1.5,1.7-2.4,2.4L-39.7,94.8z M-26,106c-0.3,0.3-0.8,0.5-1.2,0.5c-0.5,0-0.9-0.2-1.2-0.5l-7.6-7.6
				c0.9-0.7,1.7-1.6,2.4-2.4l7.6,7.6c0.3,0.3,0.5,0.8,0.5,1.2C-25.5,105.3-25.7,105.7-26,106z"/>
			<path class="st6" d="M-25.5,104.8c0,0.5-0.2,0.9-0.5,1.2c-0.3,0.3-0.8,0.5-1.2,0.5c-0.5,0-0.9-0.2-1.2-0.5l-7.6-7.6
				c0.9-0.7,1.7-1.6,2.4-2.4l7.6,7.6C-25.7,103.9-25.5,104.3-25.5,104.8z"/>
			<path class="st6" d="M-34.8,94.8c-0.7,0.9-1.5,1.7-2.4,2.4l-2.4-2.4c0.9-0.7,1.7-1.5,2.4-2.4L-34.8,94.8z"/>
			<path class="st6" d="M-50.5,66.1c-8.5,0-15.4,6.9-15.4,15.4s6.9,15.4,15.4,15.4c3.3,0,6.4-1,9-2.9c1.3-1,2.5-2.1,3.4-3.4
				c1.9-2.7,2.9-5.8,2.9-9C-35.1,73-42,66.1-50.5,66.1z M-50.5,95.2c-7.6,0-13.7-6.1-13.7-13.7s6.2-13.7,13.7-13.7
				s13.7,6.2,13.7,13.7C-36.8,89.1-42.9,95.2-50.5,95.2z"/>
		</g>
	</g>
	<g>
		<g>
			<path class="st5" d="M-50.5,67.8c-7.6,0-13.7,6.2-13.7,13.7c0,7.6,6.2,13.7,13.7,13.7c7.6,0,13.7-6.1,13.7-13.7
				C-36.8,73.9-42.9,67.8-50.5,67.8z M-50.5,93.5c-6.6,0-12-5.4-12-12s5.4-12,12-12s12,5.4,12,12S-43.9,93.5-50.5,93.5z"/>
			<path class="st6" d="M-50.5,69.5c-6.6,0-12,5.4-12,12s5.4,12,12,12s12-5.4,12-12S-43.9,69.5-50.5,69.5z M-42.5,78.4
				c-1.3-3.3-4.5-5.5-8-5.5c-0.5,0-0.9-0.4-0.9-0.8c0-0.5,0.4-0.9,0.9-0.9c2.1,0,4.1,0.6,5.9,1.9c1.7,1.2,3,2.8,3.7,4.8
				c0.2,0.5,0,0.9-0.5,1.1c-0.1,0-0.2,0.1-0.3,0.1C-42,79-42.4,78.8-42.5,78.4z M-41.1,82.3c-0.5,0-0.8-0.4-0.8-0.9s0.4-0.9,0.8-0.9
				c0.5,0,0.9,0.4,0.9,0.9S-40.6,82.3-41.1,82.3z"/>
		</g>
	</g>
	<g>
		<g>
			<path class="st5" d="M-41.4,78.9c-0.1,0-0.2,0.1-0.3,0.1c-0.3,0-0.7-0.2-0.8-0.5c-1.3-3.3-4.5-5.5-8-5.5c-0.5,0-0.9-0.4-0.9-0.8
				c0-0.5,0.4-0.9,0.9-0.9c2.1,0,4.1,0.6,5.9,1.9c1.7,1.2,3,2.8,3.7,4.8C-40.7,78.3-40.9,78.7-41.4,78.9z"/>
		</g>
	</g>
</g>
<rect x="97.2" y="4.7" class="st6" width="16.6" height="16.6"/>
<g>
	<path class="st6" d="M56.6,38.4c0.4,0.4,0.2,0.7-0.3,0.6L39,37.7c-0.5,0-1.3,0.2-1.7,0.6L25.9,49.7c-0.4,0.4-0.7,0.3-0.6-0.3
		l1.6-18.8c0-0.5,0.1-1.4,0.2-2l1.6-18.8c0-0.5,0.4-0.7,0.8-0.3l13,13.7c0.4,0.4,1,1.1,1.4,1.5L56.6,38.4z"/>
	<path class="st7" d="M56.6,38.4c0.4,0.4,0.2,0.7-0.3,0.6L39,37.7c-0.5,0-1.3,0.2-1.7,0.6L25.9,49.7c-0.4,0.4-0.7,0.3-0.6-0.3
		l1.6-18.8c0-0.5,0.1-1.4,0.2-2l1.6-18.8c0-0.5,0.4-0.7,0.8-0.3l13,13.7c0.4,0.4,1,1.1,1.4,1.5L56.6,38.4z"/>
</g>
</svg>
