<?xml version="1.0" encoding="utf-8"?>
<!-- Generator: Adobe Illustrator 24.0.0, SVG Export Plug-In . SVG Version: 6.00 Build 0)  -->
<svg version="1.1" id="Layer_1" xmlns="http://www.w3.org/2000/svg" xmlns:xlink="http://www.w3.org/1999/xlink" x="0px" y="0px"
	 viewBox="0 0 75.4 55.9" style="enable-background:new 0 0 75.4 55.9;" xml:space="preserve">
<style type="text/css">
	.st0{display:none;fill:#F9E0FC;stroke:#231F20;stroke-width:0.1449;stroke-miterlimit:10;}
	.st1{fill:none;stroke:#3F0E40;stroke-width:1.1873;stroke-linecap:round;stroke-miterlimit:10;}
	.st2{fill:none;stroke:#3F0E40;stroke-width:0.3671;stroke-linecap:round;stroke-miterlimit:10;}
	.st3{fill:none;stroke:#3F0E40;stroke-width:0.2804;stroke-linecap:round;stroke-miterlimit:10;}
	.st4{fill:#FEEEFF;stroke:#3F0E40;stroke-width:1.7133;stroke-miterlimit:10;}
</style>
<g>
	<path class="st4" d="M49.4,38.4c-1.1,0-2-0.9-2-2c0-0.6,0.3-1.1,0.7-1.6l8-6.8l-8-6.8c-0.9-0.7-0.9-2-0.2-2.9
		c0.7-0.9,2-0.9,2.9-0.2l9.9,8.4c0.9,0.7,1,2,0.2,2.9c-0.1,0.1-0.2,0.2-0.2,0.2l-9.9,8.4C50.4,38.2,49.9,38.4,49.4,38.4z"/>
	<path class="st4" d="M26,38.4c-0.5,0-0.9-0.2-1.3-0.5l-9.9-8.4c-0.9-0.7-1-2-0.2-2.9c0.1-0.1,0.2-0.2,0.2-0.2l9.9-8.4
		c0.9-0.7,2.1-0.6,2.9,0.2c0.7,0.9,0.6,2.1-0.2,2.9l-8,6.8l8,6.8c0.8,0.7,1,2,0.2,2.9C27.2,38.1,26.6,38.4,26,38.4L26,38.4z"/>
	<path class="st4" d="M30.9,48.4c-0.2,0-0.5-0.1-0.7-0.1c-1-0.4-1.6-1.6-1.2-2.6L42.7,8.8c0.4-1,1.6-1.6,2.6-1.2
		c1,0.4,1.6,1.6,1.2,2.6L32.8,47.1C32.5,47.9,31.7,48.4,30.9,48.4z"/>
</g>
</svg>
