<?xml version="1.0" encoding="utf-8"?>
<!-- Generator: Adobe Illustrator 24.0.0, SVG Export Plug-In . SVG Version: 6.00 Build 0)  -->
<svg version="1.1" id="Layer_1" xmlns="http://www.w3.org/2000/svg" xmlns:xlink="http://www.w3.org/1999/xlink" x="0px" y="0px"
	 viewBox="0 0 63.5 52.5" style="enable-background:new 0 0 63.5 52.5;" xml:space="preserve">



<style type="text/css">
	.st0{fill:#3F0E40;}
	.st1{fill:#FBE6FF;}

	.st0:hover {
		fill: #ffe6fa;
	}
</style>



<path class="st0" d="M43.12,20.7H20.19c-0.45,0-0.81-0.36-0.81-0.81v-3.06c0-0.45,0.36-0.81,0.81-0.81h22.93
	c0.45,0,0.81,0.36,0.81,0.81v3.06C43.93,20.33,43.57,20.7,43.12,20.7z"/>
<path class="st0" d="M43.31,28.59H20.38c-0.45,0-0.81-0.36-0.81-0.81v-3.06c0-0.45,0.36-0.81,0.81-0.81h22.93
	c0.45,0,0.81,0.36,0.81,0.81v3.06C44.12,28.23,43.76,28.59,43.31,28.59z"/>
<path class="st0" d="M43.31,36.48H20.38c-0.45,0-0.81-0.36-0.81-0.81v-3.06c0-0.45,0.36-0.81,0.81-0.81h22.93
	c0.45,0,0.81,0.36,0.81,0.81v3.06C44.12,36.12,43.76,36.48,43.31,36.48z"/>
</svg>
