<?xml version="1.0" encoding="utf-8"?>
<!-- Generator: Adobe Illustrator 24.0.0, SVG Export Plug-In . SVG Version: 6.00 Build 0)  -->
<svg version="1.1" id="Layer_1" xmlns="http://www.w3.org/2000/svg" xmlns:xlink="http://www.w3.org/1999/xlink" x="0px" y="0px"
	 viewBox="0 0 177.95 177.95" style="enable-background:new 0 0 177.95 177.95;" xml:space="preserve">
<style type="text/css">
	.st0{fill:#3F0E40;}
	.st1{fill:#FBE6FF;}
</style>
<g>
	<circle class="st0" cx="88.97" cy="88.97" r="59.06"/>
	<path class="st1" d="M121.54,102.18c0.72-1.77,0.72-1.77,0.72-1.77c0.54-1.98,2.67-3.61,4.75-3.62l2.94-0.02
		c2.07-0.01,3.76-1.72,3.75-3.79l-0.05-8.51c-0.01-2.07-1.72-3.76-3.79-3.75l-2.94,0.02c-2.07,0.01-4.3-1.59-4.95-3.56l-1.49-3.54
		c-0.95-1.84-0.54-4.55,0.91-6.02l2.07-2.09c1.46-1.47,1.44-3.87-0.03-5.33l-6.05-5.99c-1.47-1.46-3.87-1.44-5.33,0.03l-2.07,2.09
		c-1.46,1.47-4.13,1.85-5.94,0.84c0,0-0.04-0.02-1.85-0.76c-1.77-0.72-1.77-0.72-1.77-0.72c-1.98-0.54-3.61-2.67-3.62-4.75L96.77,48
		c-0.01-2.07-1.72-3.76-3.79-3.75l-8.51,0.05c-2.07,0.01-3.76,1.72-3.75,3.79l0.02,2.94c0.01,2.07-1.59,4.3-3.56,4.95l-3.54,1.49
		c-1.84,0.95-4.55,0.54-6.02-0.91l-2.09-2.07c-1.47-1.46-3.87-1.44-5.33,0.03l-5.99,6.05c-1.46,1.47-1.44,3.87,0.03,5.33l2.09,2.07
		c1.47,1.46,1.85,4.13,0.84,5.94c0,0-0.02,0.04-0.76,1.85c-0.72,1.77-0.72,1.77-0.72,1.77c-0.54,1.98-2.67,3.61-4.75,3.62L48,81.17
		c-2.07,0.01-3.76,1.72-3.75,3.79l0.05,8.51c0.01,2.07,1.72,3.76,3.79,3.75l2.94-0.02c2.07-0.01,4.3,1.59,4.95,3.56l1.49,3.54
		c0.95,1.84,0.54,4.55-0.91,6.02l-2.07,2.09c-1.46,1.47-1.44,3.87,0.03,5.33l6.05,5.99c1.47,1.46,3.87,1.44,5.33-0.03l2.07-2.09
		c1.46-1.47,4.13-1.85,5.94-0.84c0,0,0.04,0.02,1.85,0.76c1.77,0.72,1.77,0.72,1.77,0.72c1.98,0.54,3.61,2.67,3.62,4.75l0.02,2.94
		c0.01,2.07,1.72,3.76,3.79,3.75l8.51-0.05c2.07-0.01,3.76-1.72,3.75-3.79l-0.02-2.94c-0.01-2.07,1.59-4.3,3.56-4.95l3.54-1.49
		c1.84-0.95,4.55-0.54,6.02,0.91l2.09,2.07c1.47,1.46,3.87,1.44,5.33-0.03l5.99-6.05c1.46-1.47,1.44-3.87-0.03-5.33l-2.09-2.07
		c-1.47-1.46-1.85-4.13-0.84-5.94C120.78,104.03,120.8,103.99,121.54,102.18z"/>
	<circle class="st0" cx="88.97" cy="88.97" r="15.03"/>
</g>
</svg>
