<?xml version="1.0" encoding="utf-8"?>
<!-- Generator: Adobe Illustrator 24.0.0, SVG Export Plug-In . SVG Version: 6.00 Build 0)  -->
<svg version="1.1" id="Layer_1" xmlns="http://www.w3.org/2000/svg" xmlns:xlink="http://www.w3.org/1999/xlink" x="0px" y="0px"
	 viewBox="0 0 1063.55 1063.55" style="enable-background:new 0 0 1063.55 1063.55;" xml:space="preserve">
<style type="text/css">
	.st0{fill:#3F0E40;}
</style>
<path id="gear" class="st0" d="M731.61,39.13C459.53-71.24,149.5,59.86,39.13,331.94s20.73,582.11,292.81,692.48
	c272.08,110.37,582.11-20.73,692.48-292.81C1134.79,459.53,1003.69,149.5,731.61,39.13z M900.55,601.98l-26.46,0.14
	c-18.66,0.11-37.88,14.78-42.72,32.61c0,0,0,0-6.47,15.95c-6.61,16.31-6.81,16.67-6.81,16.67c-9.09,16.3-5.67,40.36,7.6,53.48
	l18.81,18.61c13.27,13.12,13.39,34.71,0.27,47.98l-53.89,54.49c-13.12,13.27-34.71,13.39-47.98,0.27l-18.83-18.63
	c-13.27-13.11-37.67-16.82-54.23-8.22l-31.89,13.41c-17.72,5.84-32.14,25.87-32.03,44.53l0.14,26.48
	c0.11,18.66-15.07,34.01-33.73,34.11l-76.65,0.43c-18.65,0.1-34-15.08-34.11-33.74l-0.14-26.46c-0.11-18.66-14.78-37.88-32.61-42.72
	c0,0,0,0-15.95-6.47c-16.31-6.61-16.67-6.81-16.67-6.81c-16.3-9.09-40.36-5.67-53.48,7.6l-18.61,18.81
	c-13.12,13.27-34.71,13.39-47.98,0.27l-54.49-53.89c-13.27-13.12-13.39-34.71-0.27-47.98L240,724.07
	c13.12-13.27,16.82-37.67,8.22-54.23l-13.41-31.89c-5.84-17.72-25.87-32.14-44.53-32.03l-26.48,0.14
	c-18.66,0.11-34.01-15.07-34.11-33.73l-0.43-76.64c-0.1-18.66,15.08-34.01,33.74-34.12l26.46-0.14
	c18.66-0.11,37.88-14.78,42.72-32.61c0,0,0,0,6.47-15.95c6.61-16.31,6.81-16.67,6.81-16.67c9.09-16.3,5.67-40.36-7.6-53.48
	l-18.81-18.61c-13.27-13.12-13.39-34.71-0.27-47.98l53.89-54.49c13.12-13.27,34.71-13.39,47.98-0.27l18.83,18.62
	c13.27,13.12,37.67,16.83,54.23,8.23l31.89-13.41c17.72-5.84,32.14-25.87,32.03-44.53l-0.14-26.48
	c-0.11-18.66,15.07-34.01,33.73-34.11l76.65-0.43c18.65-0.1,34,15.08,34.11,33.74l0.14,26.46c0.11,18.66,14.78,37.88,32.61,42.72
	c0,0,0,0,15.95,6.47c16.31,6.61,16.67,6.81,16.67,6.81c16.3,9.09,40.36,5.67,53.48-7.6l18.61-18.81
	c13.12-13.27,34.71-13.39,47.98-0.27l54.49,53.89c13.27,13.12,13.39,34.71,0.27,47.98l-18.63,18.83
	c-13.12,13.27-16.82,37.67-8.22,54.23l13.41,31.89c5.84,17.72,25.87,32.14,44.53,32.03l26.48-0.14
	c18.66-0.11,34.01,15.07,34.11,33.73l0.43,76.64C934.39,586.52,919.21,601.87,900.55,601.98z"/>
<path id="core" class="st0" d="M657.12,582.62c-28.08,69.23-106.96,102.59-176.19,74.5c-69.23-28.08-102.59-106.96-74.5-176.19
	c28.08-69.23,106.96-102.59,176.19-74.5C651.85,434.51,685.21,513.39,657.12,582.62z"/>
</svg>
