<?xml version="1.0" encoding="utf-8"?>
<!-- Generator: Adobe Illustrator 24.0.0, SVG Export Plug-In . SVG Version: 6.00 Build 0)  -->
<svg version="1.1" id="Layer_1" xmlns="http://www.w3.org/2000/svg" xmlns:xlink="http://www.w3.org/1999/xlink" x="0px" y="0px"
	 viewBox="0 0 37.81 37.81" style="enable-background:new 0 0 37.81 37.81;" xml:space="preserve">
<style type="text/css">
	.st0{fill:#FBE6FF;}
</style>
<g>
	<path class="st0" d="M26.01,1.39C16.34-2.53,5.32,2.13,1.39,11.8c-3.92,9.67,0.74,20.7,10.41,24.62s20.7-0.74,24.62-10.41
		S35.68,5.31,26.01,1.39z M32.02,21.4l-0.94,0.01c-0.67,0-1.35,0.52-1.52,1.15c0,0,0,0-0.23,0.57c-0.24,0.58-0.24,0.59-0.24,0.59
		c-0.33,0.58-0.21,1.44,0.27,1.91l0.66,0.66c0.48,0.46,0.48,1.23,0.01,1.7l-1.91,1.94c-0.47,0.47-1.24,0.48-1.71,0.01l-0.67-0.66
		c-0.47-0.47-1.34-0.6-1.93-0.29l-1.13,0.47c-0.63,0.21-1.14,0.92-1.14,1.59l0.01,0.94c0,0.66-0.54,1.21-1.2,1.21l-2.73,0.01
		c-0.66,0.01-1.21-0.53-1.21-1.19v-0.95c-0.01-0.66-0.53-1.34-1.16-1.51c0,0,0,0-0.57-0.23c-0.58-0.24-0.59-0.25-0.59-0.25
		c-0.58-0.32-1.44-0.2-1.9,0.27l-0.67,0.67c-0.46,0.47-1.23,0.48-1.7,0.01l-1.94-1.91c-0.47-0.47-0.48-1.24-0.01-1.71l0.66-0.67
		c0.47-0.47,0.6-1.34,0.3-1.93l-0.48-1.13c-0.21-0.63-0.92-1.14-1.58-1.14l-0.95,0.01c-0.66,0-1.2-0.54-1.21-1.2L4.6,17.62
		c-0.01-0.66,0.53-1.21,1.2-1.21l0.94-0.01c0.66,0,1.34-0.52,1.52-1.16c0,0,0,0,0.23-0.56c0.23-0.58,0.24-0.6,0.24-0.6
		c0.32-0.57,0.2-1.43-0.27-1.9l-0.67-0.66c-0.47-0.47-0.48-1.23-0.01-1.7l1.91-1.94c0.47-0.47,1.24-0.48,1.71-0.01l0.67,0.66
		C12.54,9,13.41,9.13,14,8.82l1.13-0.47c0.63-0.21,1.14-0.92,1.14-1.59V5.82c-0.01-0.66,0.53-1.21,1.19-1.21l2.73-0.02
		c0.66,0,1.21,0.54,1.21,1.2l0.01,0.94c0,0.67,0.52,1.35,1.16,1.52c0,0,0,0,0.56,0.23c0.58,0.24,0.6,0.25,0.6,0.25
		c0.58,0.32,1.43,0.2,1.9-0.27l0.66-0.67c0.47-0.48,1.23-0.48,1.71-0.01l1.93,1.91c0.47,0.47,0.48,1.24,0.01,1.71l-0.66,0.67
		c-0.47,0.47-0.6,1.34-0.29,1.93l0.47,1.13c0.21,0.63,0.92,1.14,1.59,1.14l0.94-0.01c0.66,0,1.21,0.54,1.21,1.2l0.02,2.73
		C33.22,20.85,32.68,21.4,32.02,21.4z"/>
	<circle class="st0" cx="18.91" cy="18.91" r="4.81"/>
</g>
</svg>
