<!-- Generator: Adobe Illustrator 24.0.0, SVG Export Plug-In  -->
<svg version="1.1" xmlns="http://www.w3.org/2000/svg" xmlns:xlink="http://www.w3.org/1999/xlink" x="0px" y="0px" width="60.5px"
	 height="41.28px" viewBox="0 0 60.5 41.28" style="enable-background:new 0 0 60.5 41.28;" xml:space="preserve">
<style type="text/css">
	.st0{fill:#3556FB;}
</style>
<defs>
</defs>
<g id="people-icon_2_">
	<g>
		<g>
			<g>
				<path class="st0" d="M60.36,33.57c-0.14,0.22-0.35,0.38-0.6,0.44c-0.07,0.02-0.16,0.04-0.24,0.04c-0.44,0-0.83-0.31-0.95-0.73
					l-2.29-8.37c-0.69-2.46-3.13-4.47-5.46-4.47h-6.39c-1.61,0-3.33,0.99-4.39,2.53c1.84,1.42,3.3,3.42,3.91,5.64l3.09,11.19
					c0.16,0.61-0.19,1.23-0.78,1.39c-0.1,0.03-0.2,0.04-0.32,0.04c-0.51,0-0.95-0.34-1.09-0.82l-3.07-11.2
					c-0.93-3.37-4.29-6.12-7.48-6.12h-8.56c-0.93,0-1.9,0.24-2.83,0.7l-0.43,0.23c-0.03,0.02-0.07,0.04-0.11,0.06
					c-0.21,0.12-0.41,0.25-0.61,0.4c-1.65,1.17-2.85,2.91-3.31,4.74l-2.77,11.15c-0.17,0.6-0.78,0.97-1.37,0.82
					c-0.3-0.07-0.55-0.25-0.71-0.52c-0.16-0.26-0.2-0.57-0.13-0.86l2.78-11.14c0.55-2.23,1.97-4.32,3.9-5.81
					c-1.12-1.48-2.84-2.44-4.42-2.44H9.33c-2.31,0-4.71,2.02-5.33,4.49L1.93,33.3c-0.06,0.25-0.22,0.48-0.44,0.6
					c-0.16,0.1-0.33,0.15-0.51,0.15c-0.07,0-0.16-0.01-0.23-0.03c-0.26-0.06-0.48-0.22-0.61-0.45C0,33.35-0.03,33.08,0.03,32.83
					L2.1,24.5c0.81-3.3,4.06-5.97,7.23-5.97h6.39c2.23,0,4.56,1.3,6.08,3.33c1.28-0.66,2.63-0.99,3.93-0.99h8.56
					c1.38,0,2.8,0.39,4.1,1.08c1.45-2.08,3.77-3.41,6.03-3.41h6.39c3.15,0,6.45,2.65,7.34,5.92l2.3,8.37
					C60.53,33.06,60.49,33.34,60.36,33.57z"/>
			</g>
		</g>
	</g>
	<g>
		<g>
			<path class="st0" d="M30.25,0c-4.97,0-9,4.04-9,9c0,4.96,4.04,8.99,9,8.99c4.96,0,8.99-4.04,8.99-8.99
				C39.24,4.04,35.21,0,30.25,0z M30.25,15.82c-3.76,0-6.82-3.06-6.82-6.82c0-3.76,3.05-6.82,6.82-6.82c3.75,0,6.8,3.05,6.8,6.82
				C37.06,12.75,34,15.82,30.25,15.82z"/>
		</g>
	</g>
	<g>
		<g>
			<path class="st0" d="M47.79,2.4c-3.78,0-6.86,3.07-6.86,6.86c0,3.78,3.07,6.86,6.86,6.86c3.78,0,6.86-3.07,6.86-6.86
				C54.65,5.47,51.57,2.4,47.79,2.4z M47.79,14.21c-2.73,0-4.96-2.22-4.96-4.96c0-2.74,2.23-4.96,4.96-4.96
				c2.74,0,4.96,2.22,4.96,4.96C52.75,11.99,50.53,14.21,47.79,14.21z"/>
		</g>
	</g>
	<g>
		<g>
			<path class="st0" d="M12.7,2.4c-3.78,0-6.86,3.07-6.86,6.86c0,3.78,3.07,6.86,6.86,6.86c3.78,0,6.86-3.07,6.86-6.86
				C19.56,5.47,16.48,2.4,12.7,2.4z M12.7,14.21c-2.73,0-4.96-2.22-4.96-4.96c0-2.74,2.23-4.96,4.96-4.96
				c2.74,0,4.96,2.22,4.96,4.96C17.66,11.99,15.44,14.21,12.7,14.21z"/>
		</g>
	</g>
</g>
</svg>
