<?xml version="1.0" encoding="UTF-8"?>
<svg xmlns="http://www.w3.org/2000/svg" id="Icons" viewBox="0 0 74 74" width="512" height="512"><path d="M41.28,72H32.72a2.018,2.018,0,0,1-1.957-1.588l-.927-4.627a29.478,29.478,0,0,1-8.118-3.372l-3.924,2.609a2,2,0,0,1-2.51-.234L9.232,58.727A2.007,2.007,0,0,1,9,56.19l2.6-3.9a29.206,29.206,0,0,1-3.369-8.124L3.6,43.24A2.022,2.022,0,0,1,2,41.28V32.72a2.018,2.018,0,0,1,1.588-1.957l4.636-.93a29.231,29.231,0,0,1,3.368-8.123L8.978,17.8a2,2,0,0,1,.234-2.512l6.061-6.06a2.006,2.006,0,0,1,2.536-.236l3.9,2.605a29.46,29.46,0,0,1,8.125-3.377L30.76,3.6A2.022,2.022,0,0,1,32.72,2h8.56a2.018,2.018,0,0,1,1.957,1.588l.927,4.627A29.282,29.282,0,0,1,52.3,11.594L56.2,8.979a2,2,0,0,1,2.512.234l6.061,6.06a2,2,0,0,1,.236,2.536l-2.6,3.909a29.428,29.428,0,0,1,3.372,8.117l4.611.925A2.022,2.022,0,0,1,72,32.72v8.56a2.018,2.018,0,0,1-1.588,1.957l-4.627.928a29.428,29.428,0,0,1-3.372,8.117l2.61,3.924a2,2,0,0,1-.235,2.51l-6.061,6.061a2.007,2.007,0,0,1-2.536.236l-3.9-2.607a29.282,29.282,0,0,1-8.131,3.379L43.24,70.4A2.022,2.022,0,0,1,41.28,72ZM21.7,60.223a.987.987,0,0,1,.529.152,27.466,27.466,0,0,0,8.685,3.609,1,1,0,0,1,.76.78L32.721,70l8.55,0,1.058-5.236a1,1,0,0,1,.761-.78,27.28,27.28,0,0,0,8.682-3.608,1.036,1.036,0,0,1,1.1.013l4.439,2.97,6.048-6.046-2.916-4.375a.979.979,0,0,1-.1-.146,1,1,0,0,1,.026-1.017,27.439,27.439,0,0,0,3.609-8.685,1,1,0,0,1,.78-.76L70,41.279l0-8.559-5.236-1.05a1,1,0,0,1-.78-.76,27.439,27.439,0,0,0-3.609-8.685,1,1,0,0,1-.031-1.017.965.965,0,0,1,.125-.178l2.888-4.343-6.045-6.05-4.436,2.974a1.034,1.034,0,0,1-1.1.013,27.28,27.28,0,0,0-8.682-3.608,1,1,0,0,1-.761-.78L41.279,4,32.72,4,31.671,9.236a1,1,0,0,1-.76.78,27.466,27.466,0,0,0-8.685,3.609,1,1,0,0,1-1.09-.013l-4.45-2.97-6.049,6.045,2.975,4.448a1,1,0,0,1,.013,1.09,27.276,27.276,0,0,0-3.6,8.682,1,1,0,0,1-.84.774L4,32.721,4,41.28l5.219,1.046a1.008,1.008,0,0,1,.807.767,27.278,27.278,0,0,0,3.6,8.682,1,1,0,0,1-.012,1.089l-2.96,4.449,6.035,6.051,4.375-2.918a1.015,1.015,0,0,1,.634-.223Z"/><path d="M45.831,55.94a1,1,0,0,1-.436-1.9,16.494,16.494,0,0,0,2.461-1.462A1,1,0,0,1,49.024,54.2a18.614,18.614,0,0,1-2.758,1.638A1,1,0,0,1,45.831,55.94Z"/><path d="M37,58A21,21,0,1,1,58,37c0,.351-.011.691-.032,1.042a1.016,1.016,0,0,1-1.06.936,1,1,0,0,1-.936-1.06c.019-.309.028-.609.028-.918A19,19,0,1,0,37,56c.3,0,.6-.009.9-.028a1,1,0,1,1,.125,2C37.682,57.99,37.341,58,37,58Z"/><path d="M53.389,49.44a1,1,0,0,1-.811-1.585,17.011,17.011,0,0,0,1.466-2.448,1,1,0,0,1,1.793.886A18.975,18.975,0,0,1,54.2,49.024,1,1,0,0,1,53.389,49.44Z"/><path d="M42.772,42.129a1,1,0,0,1-.648-1.761L46.082,37l-3.958-3.368a1,1,0,0,1,1.3-1.523l4.852,4.129a1,1,0,0,1,0,1.524l-4.852,4.129A1,1,0,0,1,42.772,42.129Z"/><path d="M31.228,42.129a1,1,0,0,1-.649-.238l-4.852-4.129a1,1,0,0,1,0-1.524l4.852-4.129a1,1,0,0,1,1.3,1.523L27.918,37l3.958,3.368a1,1,0,0,1-.648,1.761Z"/><path d="M33.63,47.085a1.012,1.012,0,0,1-.348-.063,1,1,0,0,1-.59-1.285l6.741-18.169a1,1,0,1,1,1.875.7L34.567,46.432A1,1,0,0,1,33.63,47.085Z"/></svg>
