<!-- Generator: Adobe Illustrator 24.0.0, SVG Export Plug-In  -->
<svg version="1.1" xmlns="http://www.w3.org/2000/svg" xmlns:xlink="http://www.w3.org/1999/xlink" x="0px" y="0px" width="67.86px"
	 height="50.5px" viewBox="0 0 67.86 50.5" style="enable-background:new 0 0 67.86 50.5;" xml:space="preserve">
<style type="text/css">
	.st0{fill:#3556FB;}
</style>
<defs>
</defs>
<g>
	<path class="st0" d="M39.38,30.95c-0.51,0-0.93-0.42-0.93-0.93c0-0.27,0.12-0.53,0.33-0.71l3.68-3.13l-3.68-3.13
		c-0.39-0.33-0.44-0.92-0.1-1.31c0.33-0.39,0.92-0.44,1.31-0.1l4.51,3.84c0.39,0.33,0.44,0.92,0.11,1.31
		c-0.03,0.04-0.07,0.07-0.11,0.11l-4.51,3.84C39.81,30.87,39.6,30.95,39.38,30.95z"/>
	<path class="st0" d="M28.63,30.95c-0.22,0-0.44-0.08-0.6-0.22l-4.51-3.84c-0.39-0.33-0.44-0.92-0.11-1.31
		c0.03-0.04,0.07-0.07,0.11-0.11l4.51-3.84c0.39-0.33,0.98-0.29,1.31,0.1c0.33,0.39,0.29,0.98-0.1,1.31l-3.69,3.13l3.68,3.13
		c0.39,0.33,0.44,0.92,0.1,1.31C29.17,30.83,28.91,30.95,28.63,30.95L28.63,30.95z"/>
	<path class="st0" d="M30.87,35.56c-0.11,0-0.22-0.02-0.32-0.06c-0.48-0.18-0.73-0.71-0.55-1.2l6.27-16.9
		c0.18-0.48,0.72-0.73,1.2-0.55c0.48,0.18,0.73,0.72,0.55,1.2l-6.27,16.9C31.61,35.32,31.26,35.56,30.87,35.56z"/>
	<g>
		<path class="st0" d="M63.72,50.5H4.14C1.86,50.5,0,48.64,0,46.36V4.14C0,1.86,1.86,0,4.14,0h59.57c2.29,0,4.14,1.86,4.14,4.14
			v42.21C67.86,48.64,66,50.5,63.72,50.5z M4.14,2.5C3.24,2.5,2.5,3.24,2.5,4.14v42.21C2.5,47.26,3.24,48,4.14,48h59.57
			c0.91,0,1.64-0.74,1.64-1.64V4.14c0-0.91-0.74-1.64-1.64-1.64H4.14z"/>
	</g>
	<g>
		<circle class="st0" cx="7.82" cy="7.8" r="1.4"/>
		<circle class="st0" cx="12.27" cy="7.8" r="1.4"/>
		<circle class="st0" cx="16.72" cy="7.8" r="1.4"/>
	</g>
</g>
</svg>
