<!-- Generator: Adobe Illustrator 24.0.0, SVG Export Plug-In  -->
<svg version="1.1" xmlns="http://www.w3.org/2000/svg" xmlns:xlink="http://www.w3.org/1999/xlink" x="0px" y="0px"
	 width="166.49px" height="117.01px" viewBox="0 0 166.49 117.01" style="enable-background:new 0 0 166.49 117.01;"
	 xml:space="preserve">
<style type="text/css">
	.st0{fill:#3556FB;}
</style>
<defs>
</defs>
<g>
	<path class="st0" d="M25.92,40.81h3.51c0.44,0,0.8-0.36,0.8-0.8c0-0.44-0.36-0.8-0.8-0.8h-3.51c-1.3,0-2.4-1.03-2.45-2.3
		c0-0.04,0-0.08,0-0.12c0-1.57,1.27-2.84,2.84-2.84c0.86,0,1.67,0.39,2.21,1.06c0.23,0.28,0.62,0.38,0.96,0.22
		c0.31-0.14,0.63-0.21,0.97-0.21c0.82,0,1.58,0.44,1.99,1.15c0.11,0.18,0.28,0.32,0.49,0.37c0.21,0.05,0.42,0.02,0.61-0.09
		c0.26-0.15,0.56-0.24,0.87-0.24c0.83,0,1.53,0.59,1.68,1.4c0.07,0.38,0.4,0.66,0.78,0.66h2.58c0.27,0,0.5,0.21,0.51,0.46
		c0,0.13-0.05,0.25-0.13,0.34c-0.09,0.09-0.21,0.14-0.33,0.14h-6.87c-0.44,0-0.8,0.36-0.8,0.8c0,0.44,0.36,0.8,0.8,0.8h6.87
		c0.56,0,1.08-0.22,1.47-0.62c0.39-0.4,0.6-0.92,0.59-1.48c-0.02-1.11-0.96-2.02-2.1-2.02h-1.98c-0.49-1.23-1.69-2.06-3.06-2.06
		c-0.34,0-0.68,0.05-1,0.16c-0.73-0.85-1.81-1.35-2.95-1.35c-0.37,0-0.73,0.05-1.09,0.15c-0.82-0.78-1.9-1.22-3.05-1.22
		c-2.44,0-4.43,1.99-4.43,4.43c0,0.06,0,0.12,0,0.18C21.96,39.13,23.74,40.81,25.92,40.81L25.92,40.81z"/>
	<path class="st0" d="M141.52,7.65h5.97c0.33,0,0.6-0.27,0.6-0.6c0-0.33-0.27-0.6-0.6-0.6h-5.97c-0.39,0-0.72-0.31-0.72-0.69
		c0,0,0-0.01,0-0.01c0-0.82,0.67-1.5,1.49-1.52c0.29-0.01,0.53-0.22,0.58-0.5c0.24-1.47,1.51-2.54,3-2.54c1.5,0,2.77,1.08,3,2.56
		c0.05,0.32,0.35,0.54,0.66,0.5c0.08-0.01,0.14-0.01,0.2-0.01c0.54,0,1.04,0.29,1.31,0.76c0.11,0.18,0.3,0.3,0.51,0.3h1.64
		c0.32,0,0.59,0.26,0.59,0.59c0,0.32-0.26,0.59-0.59,0.59h-3.33c-0.33,0-0.6,0.27-0.6,0.6c0,0.33,0.27,0.6,0.6,0.6h3.33
		c0.98,0,1.78-0.8,1.78-1.78c0-0.98-0.8-1.78-1.78-1.78h-1.32c-0.47-0.6-1.18-0.98-1.94-1.04C149.42,1.25,147.79,0,145.87,0
		c-1.93,0-3.58,1.28-4.08,3.1c-1.24,0.25-2.18,1.36-2.18,2.66l0,0.02C139.62,6.81,140.48,7.65,141.52,7.65L141.52,7.65z"/>
	<g>
		<g>
			<rect x="66.69" y="81.04" class="st0" width="2.67" height="23.55"/>
			<rect x="45.79" y="67.32" class="st0" width="2.92" height="48.02"/>
			<rect x="137.16" y="67.32" class="st0" width="2.92" height="48.02"/>
			<g>
				<path class="st0" d="M96.24,104.74H54.14v-25.1h42.09V104.74z M56.76,102.12h36.86V82.26H56.76V102.12z"/>
			</g>
			<path class="st0" d="M127.28,83.14v31.26h-18.57V83.14H127.28 M129.89,80.52h-23.8v36.5h23.8V80.52L129.89,80.52z"/>
			<path class="st0" d="M142.7,59.17v7.63H42.82v-7.63H142.7 M145.32,56.55H40.2v12.86h105.12V56.55L145.32,56.55z"/>
			<circle class="st0" cx="112.12" cy="98.99" r="1.09"/>
			<path class="st0" d="M31.17,95.56c0,3.63-2.31,6.8-5.54,7.69c-1.22,2.29-3.38,3.78-5.8,4.02v9.74h-1.62v-9.77
				c-2.3-0.31-4.33-1.75-5.52-3.92c-1.57-0.36-2.99-1.27-4.05-2.59c-1.15-1.44-1.78-3.27-1.78-5.17c0-2.89,1.48-5.56,3.81-6.95
				c0.24-4.82,3.95-8.66,8.47-8.66c1.42,0,2.83,0.39,4.07,1.12c0.39,0.23,0.52,0.73,0.29,1.12c-0.23,0.38-0.73,0.51-1.11,0.28
				c-0.99-0.58-2.12-0.89-3.25-0.89c-3.78,0-6.86,3.37-6.86,7.52c0,0.3-0.18,0.58-0.45,0.72c-2.03,1.03-3.34,3.28-3.34,5.74
				c0,3.1,2.09,5.78,4.88,6.24c0.26,0.04,0.48,0.21,0.6,0.45c0.87,1.81,2.44,3.03,4.24,3.34v-7.18l-4-3.67
				c-0.33-0.31-0.35-0.82-0.05-1.15c0.31-0.33,0.82-0.35,1.15-0.05l2.9,2.67v-5.42c0-0.45,0.36-0.81,0.81-0.81s0.81,0.36,0.81,0.81
				v9.82l2.89-2.66c0.33-0.3,0.85-0.28,1.15,0.05c0.31,0.33,0.28,0.84-0.05,1.14l-3.99,3.68v2.81c1.91-0.25,3.6-1.51,4.51-3.43
				c0.1-0.23,0.31-0.39,0.56-0.44c2.7-0.58,4.65-3.18,4.65-6.2c0-2.38-1.2-4.54-3.13-5.63C26.16,89.79,26,89.51,26,89.22v-0.07
				c0.01-0.01,0.01-0.03,0.01-0.04c0-1.69-0.5-3.29-1.45-4.62c-0.26-0.36-0.17-0.87,0.2-1.13c0.36-0.26,0.87-0.17,1.13,0.19
				c1.07,1.52,1.67,3.32,1.73,5.22C29.82,90.2,31.17,92.76,31.17,95.56z"/>
			<path class="st0" d="M165.49,117.01H1c-0.55,0-1-0.45-1-1v0c0-0.55,0.45-1,1-1h164.49c0.55,0,1,0.45,1,1v0
				C166.49,116.57,166.04,117.01,165.49,117.01z"/>
		</g>
	</g>
</g>
</svg>
